<?xml version="1.0" encoding="UTF-8" standalone="no"?><svg xmlns="http://www.w3.org/2000/svg" xmlns:xlink="http://www.w3.org/1999/xlink" contentScriptType="application/ecmascript" contentStyleType="text/css" height="735px" preserveAspectRatio="none" style="width:2637px;height:735px;" version="1.1" viewBox="0 0 2637 735" width="2637px" zoomAndPan="magnify"><defs><filter height="300%" id="f1ripdaftj1ki" width="300%" x="-1" y="-1"><feGaussianBlur result="blurOut" stdDeviation="2.0"/><feColorMatrix in="blurOut" result="blurOut2" type="matrix" values="0 0 0 0 0 0 0 0 0 0 0 0 0 0 0 0 0 0 .4 0"/><feOffset dx="4.0" dy="4.0" in="blurOut2" result="blurOut3"/><feBlend in="SourceGraphic" in2="blurOut3" mode="normal"/></filter></defs><g><!--MD5=[30404b2edc0ff233b9122d63ae72b243]
cluster :core--><polygon fill="#FFFFFF" filter="url(#f1ripdaftj1ki)" points="16,218,64,218,71,240.2969,1194,240.2969,1194,511,16,511,16,218" style="stroke: #000000; stroke-width: 1.5;"/><line style="stroke: #000000; stroke-width: 1.5;" x1="16" x2="71" y1="240.2969" y2="240.2969"/><text fill="#000000" font-family="sans-serif" font-size="14" font-weight="bold" lengthAdjust="spacingAndGlyphs" textLength="42" x="20" y="232.9951">:core</text><!--MD5=[0d8e833dcfdde072c4ae6e4a203830aa]
cluster :net--><polygon fill="#FFFFFF" filter="url(#f1ripdaftj1ki)" points="1113,112,1151,112,1158,134.2969,1305,134.2969,1305,193,1113,193,1113,112" style="stroke: #000000; stroke-width: 1.5;"/><line style="stroke: #000000; stroke-width: 1.5;" x1="1113" x2="1158" y1="134.2969" y2="134.2969"/><text fill="#000000" font-family="sans-serif" font-size="14" font-weight="bold" lengthAdjust="spacingAndGlyphs" textLength="32" x="1117" y="126.9951">:net</text><!--MD5=[6124d9865eee0f458a8c9ca898d4a94b]
cluster :android--><polygon fill="#FFFFFF" filter="url(#f1ripdaftj1ki)" points="1355,6,1427,6,1434,28.2969,2431,28.2969,2431,511,1355,511,1355,6" style="stroke: #000000; stroke-width: 1.5;"/><line style="stroke: #000000; stroke-width: 1.5;" x1="1355" x2="1434" y1="28.2969" y2="28.2969"/><text fill="#000000" font-family="sans-serif" font-size="14" font-weight="bold" lengthAdjust="spacingAndGlyphs" textLength="66" x="1359" y="20.9951">:android</text><!--MD5=[6ed0a4222646c4be5d3ab2314135a570]
cluster :engine--><polygon fill="#FFFFFF" filter="url(#f1ripdaftj1ki)" points="683,536,749,536,756,558.2969,1262,558.2969,1262,723,683,723,683,536" style="stroke: #000000; stroke-width: 1.5;"/><line style="stroke: #000000; stroke-width: 1.5;" x1="683" x2="756" y1="558.2969" y2="558.2969"/><text fill="#000000" font-family="sans-serif" font-size="14" font-weight="bold" lengthAdjust="spacingAndGlyphs" textLength="60" x="687" y="550.9951">:engine</text><!--MD5=[6b3c72c52f198a8ada63b8c5ce9355bc]
entity :core:backend--><rect fill="#FEFECE" filter="url(#f1ripdaftj1ki)" height="46.2969" style="stroke: #A80036; stroke-width: 1.5;" width="141" x="576.5" y="245"/><rect fill="#FEFECE" height="10" style="stroke: #A80036; stroke-width: 1.5;" width="15" x="697.5" y="250"/><rect fill="#FEFECE" height="2" style="stroke: #A80036; stroke-width: 1.5;" width="4" x="695.5" y="252"/><rect fill="#FEFECE" height="2" style="stroke: #A80036; stroke-width: 1.5;" width="4" x="695.5" y="256"/><text fill="#000000" font-family="sans-serif" font-size="14" lengthAdjust="spacingAndGlyphs" textLength="101" x="591.5" y="277.9951">:core:backend</text><!--MD5=[47118d7c73781d94ead6ef2b9730d049]
entity :core:domain:app--><rect fill="#FEFECE" filter="url(#f1ripdaftj1ki)" height="46.2969" style="stroke: #A80036; stroke-width: 1.5;" width="163" x="892.5" y="351"/><rect fill="#FEFECE" height="10" style="stroke: #A80036; stroke-width: 1.5;" width="15" x="1035.5" y="356"/><rect fill="#FEFECE" height="2" style="stroke: #A80036; stroke-width: 1.5;" width="4" x="1033.5" y="358"/><rect fill="#FEFECE" height="2" style="stroke: #A80036; stroke-width: 1.5;" width="4" x="1033.5" y="362"/><text fill="#000000" font-family="sans-serif" font-size="14" lengthAdjust="spacingAndGlyphs" textLength="123" x="907.5" y="383.9951">:core:domain:app</text><!--MD5=[3ac9b0df53493c09c125e37014f215ac]
entity :core:domain:session--><rect fill="#FEFECE" filter="url(#f1ripdaftj1ki)" height="46.2969" style="stroke: #A80036; stroke-width: 1.5;" width="191" x="438.5" y="351"/><rect fill="#FEFECE" height="10" style="stroke: #A80036; stroke-width: 1.5;" width="15" x="609.5" y="356"/><rect fill="#FEFECE" height="2" style="stroke: #A80036; stroke-width: 1.5;" width="4" x="607.5" y="358"/><rect fill="#FEFECE" height="2" style="stroke: #A80036; stroke-width: 1.5;" width="4" x="607.5" y="362"/><text fill="#000000" font-family="sans-serif" font-size="14" lengthAdjust="spacingAndGlyphs" textLength="151" x="453.5" y="383.9951">:core:domain:session</text><!--MD5=[0084757e5fcb0194df9d04c73ec20e60]
entity :core:domain:account--><rect fill="#FEFECE" filter="url(#f1ripdaftj1ki)" height="46.2969" style="stroke: #A80036; stroke-width: 1.5;" width="193" x="664.5" y="351"/><rect fill="#FEFECE" height="10" style="stroke: #A80036; stroke-width: 1.5;" width="15" x="837.5" y="356"/><rect fill="#FEFECE" height="2" style="stroke: #A80036; stroke-width: 1.5;" width="4" x="835.5" y="358"/><rect fill="#FEFECE" height="2" style="stroke: #A80036; stroke-width: 1.5;" width="4" x="835.5" y="362"/><text fill="#000000" font-family="sans-serif" font-size="14" lengthAdjust="spacingAndGlyphs" textLength="153" x="679.5" y="383.9951">:core:domain:account</text><!--MD5=[4f709ee184beb988ab56d37afe26e48e]
entity :core:domain:chat--><rect fill="#FEFECE" filter="url(#f1ripdaftj1ki)" height="46.2969" style="stroke: #A80036; stroke-width: 1.5;" width="167" x="23.5" y="351"/><rect fill="#FEFECE" height="10" style="stroke: #A80036; stroke-width: 1.5;" width="15" x="170.5" y="356"/><rect fill="#FEFECE" height="2" style="stroke: #A80036; stroke-width: 1.5;" width="4" x="168.5" y="358"/><rect fill="#FEFECE" height="2" style="stroke: #A80036; stroke-width: 1.5;" width="4" x="168.5" y="362"/><text fill="#000000" font-family="sans-serif" font-size="14" lengthAdjust="spacingAndGlyphs" textLength="127" x="38.5" y="383.9951">:core:domain:chat</text><!--MD5=[c3c152bb6cdd6182c77d4c39152577c5]
entity :core:domain:roster--><rect fill="#FEFECE" filter="url(#f1ripdaftj1ki)" height="46.2969" style="stroke: #A80036; stroke-width: 1.5;" width="178" x="225" y="351"/><rect fill="#FEFECE" height="10" style="stroke: #A80036; stroke-width: 1.5;" width="15" x="383" y="356"/><rect fill="#FEFECE" height="2" style="stroke: #A80036; stroke-width: 1.5;" width="4" x="381" y="358"/><rect fill="#FEFECE" height="2" style="stroke: #A80036; stroke-width: 1.5;" width="4" x="381" y="362"/><text fill="#000000" font-family="sans-serif" font-size="14" lengthAdjust="spacingAndGlyphs" textLength="138" x="240" y="383.9951">:core:domain:roster</text><!--MD5=[bb042d61f43125fc2fe6ee382cb3d84b]
entity :core:api--><rect fill="#FEFECE" filter="url(#f1ripdaftj1ki)" height="46.2969" style="stroke: #A80036; stroke-width: 1.5;" width="101" x="1084.5" y="457"/><rect fill="#FEFECE" height="10" style="stroke: #A80036; stroke-width: 1.5;" width="15" x="1165.5" y="462"/><rect fill="#FEFECE" height="2" style="stroke: #A80036; stroke-width: 1.5;" width="4" x="1163.5" y="464"/><rect fill="#FEFECE" height="2" style="stroke: #A80036; stroke-width: 1.5;" width="4" x="1163.5" y="468"/><text fill="#000000" font-family="sans-serif" font-size="14" lengthAdjust="spacingAndGlyphs" textLength="61" x="1099.5" y="489.9951">:core:api</text><!--MD5=[b4e25f7522ba1111eb2df4fe1b5db7c7]
entity :core:cli--><rect fill="#FEFECE" filter="url(#f1ripdaftj1ki)" height="46.2969" style="stroke: #A80036; stroke-width: 1.5;" width="95" x="1090.5" y="351"/><rect fill="#FEFECE" height="10" style="stroke: #A80036; stroke-width: 1.5;" width="15" x="1165.5" y="356"/><rect fill="#FEFECE" height="2" style="stroke: #A80036; stroke-width: 1.5;" width="4" x="1163.5" y="358"/><rect fill="#FEFECE" height="2" style="stroke: #A80036; stroke-width: 1.5;" width="4" x="1163.5" y="362"/><text fill="#000000" font-family="sans-serif" font-size="14" lengthAdjust="spacingAndGlyphs" textLength="55" x="1105.5" y="383.9951">:core:cli</text><!--MD5=[6074b5c11df63f0ef6be21f813bbd183]
entity :net:smack:android--><rect fill="#FEFECE" filter="url(#f1ripdaftj1ki)" height="46.2969" style="stroke: #A80036; stroke-width: 1.5;" width="175" x="1121.5" y="139"/><rect fill="#FEFECE" height="10" style="stroke: #A80036; stroke-width: 1.5;" width="15" x="1276.5" y="144"/><rect fill="#FEFECE" height="2" style="stroke: #A80036; stroke-width: 1.5;" width="4" x="1274.5" y="146"/><rect fill="#FEFECE" height="2" style="stroke: #A80036; stroke-width: 1.5;" width="4" x="1274.5" y="150"/><text fill="#000000" font-family="sans-serif" font-size="14" lengthAdjust="spacingAndGlyphs" textLength="135" x="1136.5" y="171.9951">:net:smack:android</text><!--MD5=[e71e3f46b787e063366eac1cfd3b55c3]
entity :android:room--><rect fill="#FEFECE" filter="url(#f1ripdaftj1ki)" height="46.2969" style="stroke: #A80036; stroke-width: 1.5;" width="138" x="1380" y="139"/><rect fill="#FEFECE" height="10" style="stroke: #A80036; stroke-width: 1.5;" width="15" x="1498" y="144"/><rect fill="#FEFECE" height="2" style="stroke: #A80036; stroke-width: 1.5;" width="4" x="1496" y="146"/><rect fill="#FEFECE" height="2" style="stroke: #A80036; stroke-width: 1.5;" width="4" x="1496" y="150"/><text fill="#000000" font-family="sans-serif" font-size="14" lengthAdjust="spacingAndGlyphs" textLength="98" x="1395" y="171.9951">:android:room</text><!--MD5=[824b5ec8eead23404211dbafddd0ef71]
entity :android:sys--><rect fill="#FEFECE" filter="url(#f1ripdaftj1ki)" height="46.2969" style="stroke: #A80036; stroke-width: 1.5;" width="125" x="1854.5" y="139"/><rect fill="#FEFECE" height="10" style="stroke: #A80036; stroke-width: 1.5;" width="15" x="1959.5" y="144"/><rect fill="#FEFECE" height="2" style="stroke: #A80036; stroke-width: 1.5;" width="4" x="1957.5" y="146"/><rect fill="#FEFECE" height="2" style="stroke: #A80036; stroke-width: 1.5;" width="4" x="1957.5" y="150"/><text fill="#000000" font-family="sans-serif" font-size="14" lengthAdjust="spacingAndGlyphs" textLength="85" x="1869.5" y="171.9951">:android:sys</text><!--MD5=[9f0305d4f7a8645f2834b13a0602f0df]
entity :android:log--><rect fill="#FEFECE" filter="url(#f1ripdaftj1ki)" height="46.2969" style="stroke: #A80036; stroke-width: 1.5;" width="123" x="2282.5" y="139"/><rect fill="#FEFECE" height="10" style="stroke: #A80036; stroke-width: 1.5;" width="15" x="2385.5" y="144"/><rect fill="#FEFECE" height="2" style="stroke: #A80036; stroke-width: 1.5;" width="4" x="2383.5" y="146"/><rect fill="#FEFECE" height="2" style="stroke: #A80036; stroke-width: 1.5;" width="4" x="2383.5" y="150"/><text fill="#000000" font-family="sans-serif" font-size="14" lengthAdjust="spacingAndGlyphs" textLength="83" x="2297.5" y="171.9951">:android:log</text><!--MD5=[37b953e512ae70b44a23cc4bd83136e2]
entity :android:error--><rect fill="#FEFECE" filter="url(#f1ripdaftj1ki)" height="46.2969" style="stroke: #A80036; stroke-width: 1.5;" width="135" x="2079.5" y="139"/><rect fill="#FEFECE" height="10" style="stroke: #A80036; stroke-width: 1.5;" width="15" x="2194.5" y="144"/><rect fill="#FEFECE" height="2" style="stroke: #A80036; stroke-width: 1.5;" width="4" x="2192.5" y="146"/><rect fill="#FEFECE" height="2" style="stroke: #A80036; stroke-width: 1.5;" width="4" x="2192.5" y="150"/><text fill="#000000" font-family="sans-serif" font-size="14" lengthAdjust="spacingAndGlyphs" textLength="95" x="2094.5" y="171.9951">:android:error</text><!--MD5=[8b23712cbce6b2745bbd08e1acd8155e]
entity :android:main--><rect fill="#FEFECE" filter="url(#f1ripdaftj1ki)" height="46.2969" style="stroke: #A80036; stroke-width: 1.5;" width="135" x="1554.5" y="139"/><rect fill="#FEFECE" height="10" style="stroke: #A80036; stroke-width: 1.5;" width="15" x="1669.5" y="144"/><rect fill="#FEFECE" height="2" style="stroke: #A80036; stroke-width: 1.5;" width="4" x="1667.5" y="146"/><rect fill="#FEFECE" height="2" style="stroke: #A80036; stroke-width: 1.5;" width="4" x="1667.5" y="150"/><text fill="#000000" font-family="sans-serif" font-size="14" lengthAdjust="spacingAndGlyphs" textLength="95" x="1569.5" y="171.9951">:android:main</text><!--MD5=[b759699551f165de218e2e968fab95b2]
entity :android:indicator--><rect fill="#FEFECE" filter="url(#f1ripdaftj1ki)" height="46.2969" style="stroke: #A80036; stroke-width: 1.5;" width="161" x="2078.5" y="245"/><rect fill="#FEFECE" height="10" style="stroke: #A80036; stroke-width: 1.5;" width="15" x="2219.5" y="250"/><rect fill="#FEFECE" height="2" style="stroke: #A80036; stroke-width: 1.5;" width="4" x="2217.5" y="252"/><rect fill="#FEFECE" height="2" style="stroke: #A80036; stroke-width: 1.5;" width="4" x="2217.5" y="256"/><text fill="#000000" font-family="sans-serif" font-size="14" lengthAdjust="spacingAndGlyphs" textLength="121" x="2093.5" y="277.9951">:android:indicator</text><!--MD5=[4243627ae140629495d6edbad54f8b36]
entity :android:core--><rect fill="#FEFECE" filter="url(#f1ripdaftj1ki)" height="46.2969" style="stroke: #A80036; stroke-width: 1.5;" width="133" x="1905.5" y="351"/><rect fill="#FEFECE" height="10" style="stroke: #A80036; stroke-width: 1.5;" width="15" x="2018.5" y="356"/><rect fill="#FEFECE" height="2" style="stroke: #A80036; stroke-width: 1.5;" width="4" x="2016.5" y="358"/><rect fill="#FEFECE" height="2" style="stroke: #A80036; stroke-width: 1.5;" width="4" x="2016.5" y="362"/><text fill="#000000" font-family="sans-serif" font-size="14" lengthAdjust="spacingAndGlyphs" textLength="93" x="1920.5" y="383.9951">:android:core</text><!--MD5=[f10ce6782b0e7f5580bd12ce8877f965]
entity :android:notification--><rect fill="#FEFECE" filter="url(#f1ripdaftj1ki)" height="46.2969" style="stroke: #A80036; stroke-width: 1.5;" width="177" x="1693.5" y="351"/><rect fill="#FEFECE" height="10" style="stroke: #A80036; stroke-width: 1.5;" width="15" x="1850.5" y="356"/><rect fill="#FEFECE" height="2" style="stroke: #A80036; stroke-width: 1.5;" width="4" x="1848.5" y="358"/><rect fill="#FEFECE" height="2" style="stroke: #A80036; stroke-width: 1.5;" width="4" x="1848.5" y="362"/><text fill="#000000" font-family="sans-serif" font-size="14" lengthAdjust="spacingAndGlyphs" textLength="137" x="1708.5" y="383.9951">:android:notification</text><!--MD5=[81a55ae8ee37e126e15aacb863ec98ad]
entity :android:debug--><rect fill="#FEFECE" filter="url(#f1ripdaftj1ki)" height="46.2969" style="stroke: #A80036; stroke-width: 1.5;" width="147" x="1898.5" y="457"/><rect fill="#FEFECE" height="10" style="stroke: #A80036; stroke-width: 1.5;" width="15" x="2025.5" y="462"/><rect fill="#FEFECE" height="2" style="stroke: #A80036; stroke-width: 1.5;" width="4" x="2023.5" y="464"/><rect fill="#FEFECE" height="2" style="stroke: #A80036; stroke-width: 1.5;" width="4" x="2023.5" y="468"/><text fill="#000000" font-family="sans-serif" font-size="14" lengthAdjust="spacingAndGlyphs" textLength="107" x="1913.5" y="489.9951">:android:debug</text><!--MD5=[7b0e00ffb091306e7adce213ff533c85]
entity :android:intent--><rect fill="#FEFECE" filter="url(#f1ripdaftj1ki)" height="46.2969" style="stroke: #A80036; stroke-width: 1.5;" width="142" x="1363" y="245"/><rect fill="#FEFECE" height="10" style="stroke: #A80036; stroke-width: 1.5;" width="15" x="1485" y="250"/><rect fill="#FEFECE" height="2" style="stroke: #A80036; stroke-width: 1.5;" width="4" x="1483" y="252"/><rect fill="#FEFECE" height="2" style="stroke: #A80036; stroke-width: 1.5;" width="4" x="1483" y="256"/><text fill="#000000" font-family="sans-serif" font-size="14" lengthAdjust="spacingAndGlyphs" textLength="102" x="1378" y="277.9951">:android:intent</text><!--MD5=[537263759804c0f37bfe27ff6520266d]
entity :android:account--><rect fill="#FEFECE" filter="url(#f1ripdaftj1ki)" height="46.2969" style="stroke: #A80036; stroke-width: 1.5;" width="158" x="1707" y="245"/><rect fill="#FEFECE" height="10" style="stroke: #A80036; stroke-width: 1.5;" width="15" x="1845" y="250"/><rect fill="#FEFECE" height="2" style="stroke: #A80036; stroke-width: 1.5;" width="4" x="1843" y="252"/><rect fill="#FEFECE" height="2" style="stroke: #A80036; stroke-width: 1.5;" width="4" x="1843" y="256"/><text fill="#000000" font-family="sans-serif" font-size="14" lengthAdjust="spacingAndGlyphs" textLength="118" x="1722" y="277.9951">:android:account</text><!--MD5=[a40cbfa6716f14d6e2acc0c2f4f85b3d]
entity :android:roster--><rect fill="#FEFECE" filter="url(#f1ripdaftj1ki)" height="46.2969" style="stroke: #A80036; stroke-width: 1.5;" width="143" x="1900.5" y="245"/><rect fill="#FEFECE" height="10" style="stroke: #A80036; stroke-width: 1.5;" width="15" x="2023.5" y="250"/><rect fill="#FEFECE" height="2" style="stroke: #A80036; stroke-width: 1.5;" width="4" x="2021.5" y="252"/><rect fill="#FEFECE" height="2" style="stroke: #A80036; stroke-width: 1.5;" width="4" x="2021.5" y="256"/><text fill="#000000" font-family="sans-serif" font-size="14" lengthAdjust="spacingAndGlyphs" textLength="103" x="1915.5" y="277.9951">:android:roster</text><!--MD5=[1abf9466b7c9941f0b2d230b4b5f13c9]
entity :android:chat--><rect fill="#FEFECE" filter="url(#f1ripdaftj1ki)" height="46.2969" style="stroke: #A80036; stroke-width: 1.5;" width="132" x="1540" y="245"/><rect fill="#FEFECE" height="10" style="stroke: #A80036; stroke-width: 1.5;" width="15" x="1652" y="250"/><rect fill="#FEFECE" height="2" style="stroke: #A80036; stroke-width: 1.5;" width="4" x="1650" y="252"/><rect fill="#FEFECE" height="2" style="stroke: #A80036; stroke-width: 1.5;" width="4" x="1650" y="256"/><text fill="#000000" font-family="sans-serif" font-size="14" lengthAdjust="spacingAndGlyphs" textLength="92" x="1555" y="277.9951">:android:chat</text><!--MD5=[ff52f1825a9f6fbfff2d66c588103d9f]
entity :android:drawer--><rect fill="#FEFECE" filter="url(#f1ripdaftj1ki)" height="46.2969" style="stroke: #A80036; stroke-width: 1.5;" width="149" x="2274.5" y="245"/><rect fill="#FEFECE" height="10" style="stroke: #A80036; stroke-width: 1.5;" width="15" x="2403.5" y="250"/><rect fill="#FEFECE" height="2" style="stroke: #A80036; stroke-width: 1.5;" width="4" x="2401.5" y="252"/><rect fill="#FEFECE" height="2" style="stroke: #A80036; stroke-width: 1.5;" width="4" x="2401.5" y="256"/><text fill="#000000" font-family="sans-serif" font-size="14" lengthAdjust="spacingAndGlyphs" textLength="109" x="2289.5" y="277.9951">:android:drawer</text><!--MD5=[ccc75cd529beb82693de2a4497c4bb10]
entity :android:widget--><rect fill="#FEFECE" filter="url(#f1ripdaftj1ki)" height="46.2969" style="stroke: #A80036; stroke-width: 1.5;" width="148" x="1510" y="351"/><rect fill="#FEFECE" height="10" style="stroke: #A80036; stroke-width: 1.5;" width="15" x="1638" y="356"/><rect fill="#FEFECE" height="2" style="stroke: #A80036; stroke-width: 1.5;" width="4" x="1636" y="358"/><rect fill="#FEFECE" height="2" style="stroke: #A80036; stroke-width: 1.5;" width="4" x="1636" y="362"/><text fill="#000000" font-family="sans-serif" font-size="14" lengthAdjust="spacingAndGlyphs" textLength="108" x="1525" y="383.9951">:android:widget</text><!--MD5=[b6d98d9177c5b22a205e5ab6c49b37ef]
entity :android:app--><rect fill="#FEFECE" filter="url(#f1ripdaftj1ki)" height="46.2969" style="stroke: #A80036; stroke-width: 1.5;" width="128" x="1558" y="33"/><rect fill="#FEFECE" height="10" style="stroke: #A80036; stroke-width: 1.5;" width="15" x="1666" y="38"/><rect fill="#FEFECE" height="2" style="stroke: #A80036; stroke-width: 1.5;" width="4" x="1664" y="40"/><rect fill="#FEFECE" height="2" style="stroke: #A80036; stroke-width: 1.5;" width="4" x="1664" y="44"/><text fill="#000000" font-family="sans-serif" font-size="14" lengthAdjust="spacingAndGlyphs" textLength="88" x="1573" y="65.9951">:android:app</text><!--MD5=[474bc7754ff50e9887f34633b92b9e02]
entity :engine:connectable--><rect fill="#FEFECE" filter="url(#f1ripdaftj1ki)" height="46.2969" style="stroke: #A80036; stroke-width: 1.5;" width="184" x="1070" y="563"/><rect fill="#FEFECE" height="10" style="stroke: #A80036; stroke-width: 1.5;" width="15" x="1234" y="568"/><rect fill="#FEFECE" height="2" style="stroke: #A80036; stroke-width: 1.5;" width="4" x="1232" y="570"/><rect fill="#FEFECE" height="2" style="stroke: #A80036; stroke-width: 1.5;" width="4" x="1232" y="574"/><text fill="#000000" font-family="sans-serif" font-size="14" lengthAdjust="spacingAndGlyphs" textLength="144" x="1085" y="595.9951">:engine:connectable</text><!--MD5=[8e94acc19a10f03efd288fb36eb4472b]
entity :engine:util--><rect fill="#FEFECE" filter="url(#f1ripdaftj1ki)" height="46.2969" style="stroke: #A80036; stroke-width: 1.5;" width="118" x="981" y="669"/><rect fill="#FEFECE" height="10" style="stroke: #A80036; stroke-width: 1.5;" width="15" x="1079" y="674"/><rect fill="#FEFECE" height="2" style="stroke: #A80036; stroke-width: 1.5;" width="4" x="1077" y="676"/><rect fill="#FEFECE" height="2" style="stroke: #A80036; stroke-width: 1.5;" width="4" x="1077" y="680"/><text fill="#000000" font-family="sans-serif" font-size="14" lengthAdjust="spacingAndGlyphs" textLength="78" x="996" y="701.9951">:engine:util</text><!--MD5=[f7af38a47341a5d6bbb7054022a18e1f]
entity :engine:log--><rect fill="#FEFECE" filter="url(#f1ripdaftj1ki)" height="46.2969" style="stroke: #A80036; stroke-width: 1.5;" width="119" x="1134.5" y="669"/><rect fill="#FEFECE" height="10" style="stroke: #A80036; stroke-width: 1.5;" width="15" x="1233.5" y="674"/><rect fill="#FEFECE" height="2" style="stroke: #A80036; stroke-width: 1.5;" width="4" x="1231.5" y="676"/><rect fill="#FEFECE" height="2" style="stroke: #A80036; stroke-width: 1.5;" width="4" x="1231.5" y="680"/><text fill="#000000" font-family="sans-serif" font-size="14" lengthAdjust="spacingAndGlyphs" textLength="79" x="1149.5" y="701.9951">:engine:log</text><!--MD5=[8725e2f32c833bede44e6c458fce3254]
entity :engine:paging--><rect fill="#FEFECE" filter="url(#f1ripdaftj1ki)" height="46.2969" style="stroke: #A80036; stroke-width: 1.5;" width="145" x="691.5" y="563"/><rect fill="#FEFECE" height="10" style="stroke: #A80036; stroke-width: 1.5;" width="15" x="816.5" y="568"/><rect fill="#FEFECE" height="2" style="stroke: #A80036; stroke-width: 1.5;" width="4" x="814.5" y="570"/><rect fill="#FEFECE" height="2" style="stroke: #A80036; stroke-width: 1.5;" width="4" x="814.5" y="574"/><text fill="#000000" font-family="sans-serif" font-size="14" lengthAdjust="spacingAndGlyphs" textLength="105" x="706.5" y="595.9951">:engine:paging</text><!--MD5=[9cb9b296c1f7d1e8bceacf7e776ceb9f]
entity :engine:translator--><rect fill="#FEFECE" filter="url(#f1ripdaftj1ki)" height="46.2969" style="stroke: #A80036; stroke-width: 1.5;" width="163" x="871.5" y="563"/><rect fill="#FEFECE" height="10" style="stroke: #A80036; stroke-width: 1.5;" width="15" x="1014.5" y="568"/><rect fill="#FEFECE" height="2" style="stroke: #A80036; stroke-width: 1.5;" width="4" x="1012.5" y="570"/><rect fill="#FEFECE" height="2" style="stroke: #A80036; stroke-width: 1.5;" width="4" x="1012.5" y="574"/><text fill="#000000" font-family="sans-serif" font-size="14" lengthAdjust="spacingAndGlyphs" textLength="123" x="886.5" y="595.9951">:engine:translator</text><!--MD5=[6084f87cb11c9c8e7b98e1b6385e3a51]
link :core:backend to :core:domain:app--><path d="M717.5515,290.8699 C770.769,308.1208 843.6593,331.7489 898.1306,349.4063 " fill="none" id=":core:backend-&gt;:core:domain:app" style="stroke: #A80036; stroke-width: 1.0;"/><polygon fill="#A80036" points="903.0112,350.9884,895.6833,344.408,898.2549,349.4465,893.2163,352.0181,903.0112,350.9884" style="stroke: #A80036; stroke-width: 1.0;"/><!--MD5=[64d379cf4fc32ff0b351faeb9dde2472]
link :core:backend to :core:domain:session--><path d="M622.4807,291.0004 C604.9802,307.4168 581.376,329.5588 562.9489,346.8444 " fill="none" id=":core:backend-&gt;:core:domain:session" style="stroke: #A80036; stroke-width: 1.0;"/><polygon fill="#A80036" points="558.8617,350.6784,568.1623,347.4383,562.5084,347.2576,562.689,341.6036,558.8617,350.6784" style="stroke: #A80036; stroke-width: 1.0;"/><!--MD5=[c6a5a6f4626caa42ca04d1aec387f400]
link :core:backend to :core:domain:account--><path d="M671.7363,291.0004 C689.3917,307.4168 713.2048,329.5588 731.7949,346.8444 " fill="none" id=":core:backend-&gt;:core:domain:account" style="stroke: #A80036; stroke-width: 1.0;"/><polygon fill="#A80036" points="735.9183,350.6784,732.0512,341.6205,732.2567,347.2736,726.6036,347.4791,735.9183,350.6784" style="stroke: #A80036; stroke-width: 1.0;"/><!--MD5=[d7e8e2dc0a0071dfc163bed50f54849b]
link :core:backend to :core:domain:chat--><path d="M576.1292,280.5651 C489.212,296.1673 337.4697,324.0289 208,351 C203.9507,351.8436 199.8137,352.7212 195.6376,353.62 " fill="none" id=":core:backend-&gt;:core:domain:chat" style="stroke: #A80036; stroke-width: 1.0;"/><polygon fill="#A80036" points="190.72,354.684,200.3624,356.6901,195.6069,353.6266,198.6705,348.8711,190.72,354.684" style="stroke: #A80036; stroke-width: 1.0;"/><!--MD5=[704cc349d7da7a8c75399283440f8ee2]
link :core:backend to :core:domain:roster--><path d="M576.3793,290.4799 C522.1723,307.735 447.3975,331.5371 391.5369,349.3186 " fill="none" id=":core:backend-&gt;:core:domain:roster" style="stroke: #A80036; stroke-width: 1.0;"/><polygon fill="#A80036" points="386.5319,350.9118,396.3212,351.9933,391.2963,349.3951,393.8945,344.3702,386.5319,350.9118" style="stroke: #A80036; stroke-width: 1.0;"/><!--MD5=[0a09f885cf7bf6af5f5d05ae3e988d1e]
link :net:smack:android to :core:api--><path d="M1213.2361,185.2856 C1220.0818,228.5861 1230.2359,323.7444 1203,397 C1195.1004,418.2473 1179.3463,438.0489 1164.9896,452.9785 " fill="none" id=":net:smack:android-&gt;:core:api" style="stroke: #A80036; stroke-width: 1.0;"/><polygon fill="#A80036" points="1161.3754,456.6671,1170.5313,453.0382,1164.8748,453.0958,1164.8172,447.4392,1161.3754,456.6671" style="stroke: #A80036; stroke-width: 1.0;"/><!--MD5=[07f4dd57ae6d7d38c578a637e51bb3a8]
link :android:room to :core:api--><path d="M1394.4712,185.0062 C1377.712,193.741 1360.0101,204.821 1346,218 C1277.645,282.3001 1295.6039,326.2055 1234,397 C1215.6581,418.0783 1191.7234,438.2972 1171.9827,453.5015 " fill="none" id=":android:room-&gt;:core:api" style="stroke: #A80036; stroke-width: 1.0;"/><polygon fill="#A80036" points="1167.58,456.8634,1177.1607,454.5806,1171.554,453.829,1172.3056,448.2223,1167.58,456.8634" style="stroke: #A80036; stroke-width: 1.0;"/><!--MD5=[43b2687f309875f3345c641c0049e239]
link :android:sys to :android:indicator--><path d="M1979.5859,184.7642 C2005.0797,194.4433 2034.6862,206.2068 2061,218 C2077.5857,225.4333 2095.3815,234.2488 2111.1963,242.392 " fill="none" id=":android:sys-&gt;:android:indicator" style="stroke: #A80036; stroke-width: 1.0;"/><polygon fill="#A80036" points="2116.0372,244.8953,2109.8802,237.2082,2111.5959,242.5986,2106.2055,244.3142,2116.0372,244.8953" style="stroke: #A80036; stroke-width: 1.0;"/><!--MD5=[c4882aab63b29c15f029a73a0bc261e2]
link :android:log to :engine:log--><path d="M2405.7087,174.7609 C2432.9502,183.1085 2463.5792,196.5842 2485,218 C2537.7623,270.7499 2547,299.3916 2547,374 C2547,374 2547,374 2547,480 C2547,532.207 2625.948,522.2214 2278,609 C2082.8769,657.6639 1461.519,682.8215 1258.7068,689.8878 " fill="none" id=":android:log-&gt;:engine:log" style="stroke: #A80036; stroke-width: 1.0;"/><polygon fill="#A80036" points="1253.7025,690.0614,1262.8358,693.7468,1258.6995,689.888,1262.5583,685.7516,1253.7025,690.0614" style="stroke: #A80036; stroke-width: 1.0;"/><!--MD5=[45517b2139f254912330f96b0a200dca]
link :android:error to :engine:log--><path d="M2214.7,181.2215 C2231.0806,185.4735 2248.597,189.692 2265,193 C2303.7241,200.8096 2411.9773,191.2003 2441,218 C2493.2043,266.2058 2476,302.9431 2476,374 C2476,374 2476,374 2476,480 C2476,604.6978 1519.6916,672.138 1258.9717,688.2073 " fill="none" id=":android:error-&gt;:engine:log" style="stroke: #A80036; stroke-width: 1.0;"/><polygon fill="#A80036" points="1253.6875,688.5318,1262.9158,691.9724,1258.6781,688.2252,1262.4253,683.9875,1253.6875,688.5318" style="stroke: #A80036; stroke-width: 1.0;"/><!--MD5=[40bb589868918ba3fd0f378e218e8999]
link :android:main to :android:intent--><path d="M1581.2068,185.0004 C1551.254,201.8887 1510.5541,224.8365 1479.5408,242.3227 " fill="none" id=":android:main-&gt;:android:intent" style="stroke: #A80036; stroke-width: 1.0;"/><polygon fill="#A80036" points="1475.0378,244.8617,1484.8421,243.9258,1479.3932,242.406,1480.913,236.9571,1475.0378,244.8617" style="stroke: #A80036; stroke-width: 1.0;"/><!--MD5=[3c34b3746a69b84c5d3b588540e90496]
link :android:main to :android:account--><path d="M1657.5856,185.0004 C1683.6075,201.8195 1718.9279,224.6485 1745.9399,242.1075 " fill="none" id=":android:main-&gt;:android:account" style="stroke: #A80036; stroke-width: 1.0;"/><polygon fill="#A80036" points="1750.2011,244.8617,1744.8139,236.6168,1746.0019,242.1475,1740.4712,243.3355,1750.2011,244.8617" style="stroke: #A80036; stroke-width: 1.0;"/><!--MD5=[1debbca0f57afdab46daa5823379ab8a]
link :android:main to :android:roster--><path d="M1689.5501,170.7886 C1743.2009,179.113 1819.4971,193.9809 1883,218 C1899.6751,224.3071 1916.9875,233.3778 1931.8616,242.0664 " fill="none" id=":android:main-&gt;:android:roster" style="stroke: #A80036; stroke-width: 1.0;"/><polygon fill="#A80036" points="1936.396,244.7471,1930.6843,236.7236,1932.0919,242.2026,1926.613,243.6102,1936.396,244.7471" style="stroke: #A80036; stroke-width: 1.0;"/><!--MD5=[2457458197666786eab65f67e2b0c236]
link :android:main to :android:chat--><path d="M1618.5282,185.0004 C1616.1128,201.003 1612.8761,222.4461 1610.2977,239.528 " fill="none" id=":android:main-&gt;:android:chat" style="stroke: #A80036; stroke-width: 1.0;"/><polygon fill="#A80036" points="1609.5202,244.6784,1614.8187,236.3762,1610.2665,239.7344,1606.9083,235.1822,1609.5202,244.6784" style="stroke: #A80036; stroke-width: 1.0;"/><!--MD5=[6898d34d0d822ea23a237867119598dc]
link :android:main to :android:drawer--><path d="M1689.604,173.2294 C1731.8608,179.88 1787.475,187.9646 1837,193 C1930.019,202.4577 2167.1076,192.2836 2257,218 C2275.6914,223.3472 2294.8217,232.9528 2310.7622,242.3256 " fill="none" id=":android:main-&gt;:android:drawer" style="stroke: #A80036; stroke-width: 1.0;"/><polygon fill="#A80036" points="2315.1707,244.9593,2309.496,236.9096,2310.8784,242.3949,2305.393,243.7773,2315.1707,244.9593" style="stroke: #A80036; stroke-width: 1.0;"/><!--MD5=[81be17caab1f50a1452d24f3f9fc473c]
link :android:main to :core:domain:app--><path d="M1563.2955,185.0462 C1554.2509,188.0462 1544.9448,190.8262 1536,193 C1453.2366,213.1131 1428.2225,195.7786 1346,218 C1225.4339,250.5841 1092.3216,313.4742 1022.6511,348.6344 " fill="none" id=":android:main-&gt;:core:domain:app" style="stroke: #A80036; stroke-width: 1.0;"/><polygon fill="#A80036" points="1018.1546,350.9097,1027.991,350.4151,1022.6159,348.6521,1024.3789,343.277,1018.1546,350.9097" style="stroke: #A80036; stroke-width: 1.0;"/><!--MD5=[cec0b78861792eaab7fa2279ffc7a7e2]
link :core:domain:app to :core:api--><path d="M1008.9346,397.0004 C1034.4806,413.8195 1069.1548,436.6485 1095.6727,454.1075 " fill="none" id=":core:domain:app-&gt;:core:api" style="stroke: #A80036; stroke-width: 1.0;"/><polygon fill="#A80036" points="1099.8559,456.8617,1094.5385,448.5716,1095.6798,454.1121,1090.1392,455.2534,1099.8559,456.8617" style="stroke: #A80036; stroke-width: 1.0;"/><!--MD5=[c67c764a5326e4d24cf2e4300865ef19]
link :core:domain:session to :core:api--><path d="M629.516,393.6672 C635.4285,394.8146 641.2928,395.9341 647,397 C803.2868,426.1882 988.5433,456.5362 1079.2786,471.1243 " fill="none" id=":core:domain:session-&gt;:core:api" style="stroke: #A80036; stroke-width: 1.0;"/><polygon fill="#A80036" points="1084.3226,471.9346,1076.0711,466.5576,1079.3859,471.1415,1074.802,474.4563,1084.3226,471.9346" style="stroke: #A80036; stroke-width: 1.0;"/><!--MD5=[2c707074e348eff90fbc0f3bb90cfb10]
link :core:domain:account to :core:api--><path d="M842.1524,397.0004 C913.9704,417.3553 1016.846,446.5125 1079.6078,464.3006 " fill="none" id=":core:domain:account-&gt;:core:api" style="stroke: #A80036; stroke-width: 1.0;"/><polygon fill="#A80036" points="1084.4301,465.6673,1076.8621,459.3645,1079.6196,464.3037,1074.6804,467.0612,1084.4301,465.6673" style="stroke: #A80036; stroke-width: 1.0;"/><!--MD5=[01174190b578bab423e164a6f26b4f28]
link :core:domain:chat to :engine:paging--><path d="M166.8833,397.0248 C241.8573,425.4792 374.4908,474.5907 490,511 C555.7502,531.7249 631.3884,552.1778 686.5138,566.4767 " fill="none" id=":core:domain:chat-&gt;:engine:paging" style="stroke: #A80036; stroke-width: 1.0;"/><polygon fill="#A80036" points="691.4482,567.7544,683.7383,561.6259,686.6079,566.501,681.7328,569.3705,691.4482,567.7544" style="stroke: #A80036; stroke-width: 1.0;"/><!--MD5=[8aa6ab0427afef2408d03fa7b1428d03]
link :core:domain:chat to :core:api--><path d="M190.6039,393.9502 C196.4743,395.07 202.3157,396.1025 208,397 C536.0861,448.8029 934.986,470.9288 1079.4342,477.6366 " fill="none" id=":core:domain:chat-&gt;:core:api" style="stroke: #A80036; stroke-width: 1.0;"/><polygon fill="#A80036" points="1084.4648,477.8687,1075.6588,473.4579,1079.4701,477.6381,1075.2899,481.4494,1084.4648,477.8687" style="stroke: #A80036; stroke-width: 1.0;"/><!--MD5=[ff59cb87d49bbcbfa2818e0d8d187e1a]
link :core:domain:roster to :engine:paging--><path d="M363.0145,397.0913 C448.0544,437.1545 622.2648,519.227 710.3987,560.7479 " fill="none" id=":core:domain:roster-&gt;:engine:paging" style="stroke: #A80036; stroke-width: 1.0;"/><polygon fill="#A80036" points="715.0459,562.9372,708.609,555.4829,710.5228,560.8062,705.1994,562.7199,715.0459,562.9372" style="stroke: #A80036; stroke-width: 1.0;"/><!--MD5=[3b93329480165022044f1038d30e887f]
link :core:domain:roster to :core:api--><path d="M403.2053,393.8449 C409.2156,394.9751 415.1886,396.0399 421,397 C664.551,437.2366 958.0184,464.8476 1078.849,475.321 " fill="none" id=":core:domain:roster-&gt;:core:api" style="stroke: #A80036; stroke-width: 1.0;"/><polygon fill="#A80036" points="1084.1227,475.7768,1075.5006,471.0166,1079.1413,475.3462,1074.8117,478.9869,1084.1227,475.7768" style="stroke: #A80036; stroke-width: 1.0;"/><!--MD5=[eaf14edc6043f7290cbfd1583ac6425c]
link :core:api to :engine:connectable--><path d="M1140.8586,503.0004 C1144.9347,519.003 1150.3966,540.4461 1154.7477,557.528 " fill="none" id=":core:api-&gt;:engine:connectable" style="stroke: #A80036; stroke-width: 1.0;"/><polygon fill="#A80036" points="1156.0596,562.6784,1157.7141,552.9695,1154.8253,557.8331,1149.9617,554.9444,1156.0596,562.6784" style="stroke: #A80036; stroke-width: 1.0;"/><!--MD5=[bca29f017d1f9d57df28eb8d83e96ded]
link :engine:connectable to :engine:util--><path d="M1135.5278,609.0004 C1116.4747,625.5548 1090.7205,647.9314 1070.7542,665.2791 " fill="none" id=":engine:connectable-&gt;:engine:util" style="stroke: #A80036; stroke-width: 1.0;"/><polygon fill="#A80036" points="1066.8418,668.6784,1076.2591,665.795,1070.6162,665.399,1071.0121,659.7561,1066.8418,668.6784" style="stroke: #A80036; stroke-width: 1.0;"/><!--MD5=[6eb7bccd1a3c6d4cd083766ccbfc4317]
link :engine:connectable to :engine:log--><path d="M1168.9435,609.0004 C1173.7745,625.003 1180.2479,646.4461 1185.4047,663.528 " fill="none" id=":engine:connectable-&gt;:engine:log" style="stroke: #A80036; stroke-width: 1.0;"/><polygon fill="#A80036" points="1186.9595,668.6784,1188.1876,658.9064,1185.5144,663.8918,1180.529,661.2186,1186.9595,668.6784" style="stroke: #A80036; stroke-width: 1.0;"/><!--MD5=[96dc4ca78ce9f4597c88082d6f3e186c]
link :android:indicator to :android:core--><path d="M2118.4238,291.0004 C2088.6303,307.8887 2048.1469,330.8365 2017.2986,348.3227 " fill="none" id=":android:indicator-&gt;:android:core" style="stroke: #A80036; stroke-width: 1.0;"/><polygon fill="#A80036" points="2012.8195,350.8617,2022.6216,349.9032,2017.1692,348.396,2018.6764,342.9436,2012.8195,350.8617" style="stroke: #A80036; stroke-width: 1.0;"/><!--MD5=[bd9cb8a7c84ee4f7ab758a69f4cf00fb]
link :android:indicator to :android:notification--><path d="M2078.124,290.7397 C2016.5518,308.0518 1931.9399,331.8418 1868.9234,349.56 " fill="none" id=":android:indicator-&gt;:android:notification" style="stroke: #A80036; stroke-width: 1.0;"/><polygon fill="#A80036" points="1864.043,350.9322,1873.7898,352.3467,1868.8563,349.5788,1871.6242,344.6453,1864.043,350.9322" style="stroke: #A80036; stroke-width: 1.0;"/><!--MD5=[02e6d1eeca9a10220a158005479957f9]
link :android:core to :core:api--><path d="M1905.2811,393.2876 C1899.463,394.6594 1893.6438,395.9232 1888,397 C1879.3948,398.6418 1363.1109,455.0884 1190.5096,473.9397 " fill="none" id=":android:core-&gt;:core:api" style="stroke: #A80036; stroke-width: 1.0;"/><polygon fill="#A80036" points="1185.5042,474.4864,1194.8853,477.4856,1190.4746,473.9435,1194.0167,469.5329,1185.5042,474.4864" style="stroke: #A80036; stroke-width: 1.0;"/><!--MD5=[823f6d265fa7b51d9d7161f2d93b9088]
link :android:core to :android:debug--><path d="M1972,397.0004 C1972,413.003 1972,434.4461 1972,451.528 " fill="none" id=":android:core-&gt;:android:debug" style="stroke: #A80036; stroke-width: 1.0;"/><polygon fill="#A80036" points="1972,456.6784,1976,447.6784,1972,451.6784,1968,447.6784,1972,456.6784" style="stroke: #A80036; stroke-width: 1.0;"/><!--MD5=[49c315795c2cf8a16b9fc4140ea8e080]
link :android:intent to :core:api--><path d="M1421.6491,291.0169 C1405.389,319.3942 1374.3242,367.479 1336,397 C1292.513,430.4979 1233.5862,452.7188 1190.7855,465.6668 " fill="none" id=":android:intent-&gt;:core:api" style="stroke: #A80036; stroke-width: 1.0;"/><polygon fill="#A80036" points="1185.9106,467.1226,1195.6789,468.3798,1190.7015,465.6918,1193.3896,460.7144,1185.9106,467.1226" style="stroke: #A80036; stroke-width: 1.0;"/><!--MD5=[99eb1f9ce8f3a5e1f5d168a23a4e6130]
link :android:account to :android:core--><path d="M1826.3592,291.0004 C1855.9934,307.8887 1896.2603,330.8365 1926.9437,348.3227 " fill="none" id=":android:account-&gt;:android:core" style="stroke: #A80036; stroke-width: 1.0;"/><polygon fill="#A80036" points="1931.3988,350.8617,1925.56,342.9302,1927.0547,348.386,1921.5989,349.8807,1931.3988,350.8617" style="stroke: #A80036; stroke-width: 1.0;"/><!--MD5=[ea06712275b471b139755bf35b876505]
link :android:roster to :android:core--><path d="M1972,291.0004 C1972,307.003 1972,328.4461 1972,345.528 " fill="none" id=":android:roster-&gt;:android:core" style="stroke: #A80036; stroke-width: 1.0;"/><polygon fill="#A80036" points="1972,350.6784,1976,341.6784,1972,345.6784,1968,341.6784,1972,350.6784" style="stroke: #A80036; stroke-width: 1.0;"/><!--MD5=[27504143436bfd555a82356c36796927]
link :android:chat to :android:core--><path d="M1672.2798,287.1958 C1736.626,305.8316 1834.0153,334.0372 1900.1799,353.1997 " fill="none" id=":android:chat-&gt;:android:core" style="stroke: #A80036; stroke-width: 1.0;"/><polygon fill="#A80036" points="1905.2864,354.6786,1897.7545,348.3327,1900.4838,353.2876,1895.5289,356.0169,1905.2864,354.6786" style="stroke: #A80036; stroke-width: 1.0;"/><!--MD5=[efb42bc9aa58ba14b70407a353d00396]
link :android:chat to :android:notification--><path d="M1644.1894,291.0004 C1672.1154,307.8195 1710.0202,330.6485 1739.0086,348.1075 " fill="none" id=":android:chat-&gt;:android:notification" style="stroke: #A80036; stroke-width: 1.0;"/><polygon fill="#A80036" points="1743.5817,350.8617,1737.9358,342.7917,1739.2986,348.282,1733.8083,349.6447,1743.5817,350.8617" style="stroke: #A80036; stroke-width: 1.0;"/><!--MD5=[5767c1eae9a459def5cf537ae8640123]
link :android:chat to :android:widget--><path d="M1601.2263,291.0004 C1597.905,307.003 1593.4546,328.4461 1589.9093,345.528 " fill="none" id=":android:chat-&gt;:android:widget" style="stroke: #A80036; stroke-width: 1.0;"/><polygon fill="#A80036" points="1588.8403,350.6784,1594.5859,342.6791,1589.8564,345.7827,1586.7528,341.0533,1588.8403,350.6784" style="stroke: #A80036; stroke-width: 1.0;"/><!--MD5=[d0c9adee400d99d2c7e70b3cbab35cf4]
link :android:chat to :core:cli--><path d="M1539.9464,286.6759 C1534.2256,288.1804 1528.5174,289.642 1523,291 C1404.9943,320.0444 1265.2686,348.7667 1190.863,363.6142 " fill="none" id=":android:chat-&gt;:core:cli" style="stroke: #A80036; stroke-width: 1.0;"/><polygon fill="#A80036" points="1185.6199,364.659,1195.2281,366.8227,1190.5235,363.6817,1193.6645,358.977,1185.6199,364.659" style="stroke: #A80036; stroke-width: 1.0;"/><!--MD5=[43e23cfb2d1172d7fb8288cf83bc1bf5]
link :android:drawer to :android:core--><path d="M2274.0662,289.0689 C2207.0955,307.8989 2109.6339,335.3019 2043.6761,353.847 " fill="none" id=":android:drawer-&gt;:android:core" style="stroke: #A80036; stroke-width: 1.0;"/><polygon fill="#A80036" points="2038.5863,355.2781,2048.333,356.6926,2043.3996,353.9247,2046.1676,348.9913,2038.5863,355.2781" style="stroke: #A80036; stroke-width: 1.0;"/><!--MD5=[e5b52aacd6c9e8567a26aa6a4b3cfc3a]
link :core:cli to :engine:translator--><path d="M1117.8496,397.0913 C1083.3753,436.597 1013.2552,516.9508 976.5691,558.991 " fill="none" id=":core:cli-&gt;:engine:translator" style="stroke: #A80036; stroke-width: 1.0;"/><polygon fill="#A80036" points="973.1256,562.9372,982.057,558.7862,976.4131,559.17,976.0294,553.5261,973.1256,562.9372" style="stroke: #A80036; stroke-width: 1.0;"/><!--MD5=[c2bb4decd7a24ab2954465b21eb4e89b]
link :core:cli to :core:api--><path d="M1137.349,397.0004 C1136.8961,413.003 1136.2893,434.4461 1135.8058,451.528 " fill="none" id=":core:cli-&gt;:core:api" style="stroke: #A80036; stroke-width: 1.0;"/><polygon fill="#A80036" points="1135.66,456.6784,1139.9132,447.7953,1135.8016,451.6804,1131.9164,447.5688,1135.66,456.6784" style="stroke: #A80036; stroke-width: 1.0;"/><!--MD5=[c092ee46ff50f3ad0966693409762b2d]
link :android:app to :core:backend--><path d="M1557.9958,58.4012 C1459.5838,63.1058 1265.6413,76.3993 1105,112 C958.31,144.5089 793.0157,207.7469 706.7273,242.9024 " fill="none" id=":android:app-&gt;:core:backend" style="stroke: #A80036; stroke-width: 1.0;"/><polygon fill="#A80036" points="701.9188,244.8658,711.7631,245.1667,706.5478,242.9757,708.7388,237.7604,701.9188,244.8658" style="stroke: #A80036; stroke-width: 1.0;"/><!--MD5=[f628b0d0476bcd96ad7e4bc9c88fe729]
link :android:app to :net:smack:android--><path d="M1557.7389,66.3346 C1501.5974,76.0142 1418.1739,91.9761 1347,112 C1322.0377,119.0228 1295.1152,128.363 1271.7352,137.0685 " fill="none" id=":android:app-&gt;:net:smack:android" style="stroke: #A80036; stroke-width: 1.0;"/><polygon fill="#A80036" points="1266.8019,138.9154,1276.633,139.5058,1271.4845,137.1623,1273.828,132.0137,1266.8019,138.9154" style="stroke: #A80036; stroke-width: 1.0;"/><!--MD5=[a35988381a2e6516f16fc9d849ebccf6]
link :android:app to :android:room--><path d="M1584.4616,79.0004 C1557.0116,95.8195 1519.7529,118.6485 1491.2586,136.1075 " fill="none" id=":android:app-&gt;:android:room" style="stroke: #A80036; stroke-width: 1.0;"/><polygon fill="#A80036" points="1486.7635,138.8617,1496.5273,137.5704,1491.0269,136.2495,1492.3477,130.749,1486.7635,138.8617" style="stroke: #A80036; stroke-width: 1.0;"/><!--MD5=[e9fec9df6cff927a3d769895582165d1]
link :android:app to :android:sys--><path d="M1686.0106,79.0004 C1734.2586,96.337 1800.2775,120.0591 1849.3823,137.7035 " fill="none" id=":android:app-&gt;:android:sys" style="stroke: #A80036; stroke-width: 1.0;"/><polygon fill="#A80036" points="1854.3803,139.4994,1847.2632,132.6915,1849.6749,137.8085,1844.5579,140.2202,1854.3803,139.4994" style="stroke: #A80036; stroke-width: 1.0;"/><!--MD5=[ac117d8559748edfbe600e9405f9bdee]
link :android:app to :android:log--><path d="M1686.0611,59.2202 C1820.9388,66.4337 2130.1389,85.3698 2232,112 C2253.936,117.7349 2276.9997,127.3488 2296.4584,136.623 " fill="none" id=":android:app-&gt;:android:log" style="stroke: #A80036; stroke-width: 1.0;"/><polygon fill="#A80036" points="2301.3249,138.9709,2294.9572,131.4574,2296.8216,136.7982,2291.4809,138.6626,2301.3249,138.9709" style="stroke: #A80036; stroke-width: 1.0;"/><!--MD5=[32c4354e0221cd2acf28738e9c0350e1]
link :android:app to :android:error--><path d="M1686.0099,62.1387 C1761.1808,70.1326 1889.2916,86.2127 1997,112 C2024.8961,118.6788 2055.0112,128.2361 2080.8856,137.2091 " fill="none" id=":android:app-&gt;:android:error" style="stroke: #A80036; stroke-width: 1.0;"/><polygon fill="#A80036" points="2085.6661,138.8769,2078.4862,132.1353,2080.9452,137.2297,2075.8508,139.6887,2085.6661,138.8769" style="stroke: #A80036; stroke-width: 1.0;"/><!--MD5=[de56f305491d2fe9d536387097efe455]
link :android:app to :android:main--><path d="M1622,79.0004 C1622,95.003 1622,116.4461 1622,133.528 " fill="none" id=":android:app-&gt;:android:main" style="stroke: #A80036; stroke-width: 1.0;"/><polygon fill="#A80036" points="1622,138.6784,1626,129.6784,1622,133.6784,1618,129.6784,1622,138.6784" style="stroke: #A80036; stroke-width: 1.0;"/><!--MD5=[3bab4ceb460eca87c87e59161b125c9c]
@startuml
package ":core" {
[:core:backend]
[:core:domain:app]
[:core:domain:session]
[:core:domain:account]
[:core:domain:chat]
[:core:domain:roster]
[:core:api]
[:core:cli]
}
package ":net" {
[:net:smack:android]
}
package ":android" {
[:android:room]
[:android:sys]
[:android:log]
[:android:error]
[:android:main]
[:android:indicator]
[:android:core]
[:android:notification]
[:android:debug]
[:android:intent]
[:android:account]
[:android:roster]
[:android:chat]
[:android:drawer]
[:android:widget]
[:android:app]
}
package ":engine" {
[:engine:connectable]
[:engine:util]
[:engine:log]
[:engine:paging]
[:engine:translator]
}
[:core:backend] - -> [:core:domain:app]
[:core:backend] - -> [:core:domain:session]
[:core:backend] - -> [:core:domain:account]
[:core:backend] - -> [:core:domain:chat]
[:core:backend] - -> [:core:domain:roster]
[:net:smack:android] - -> [:core:api]
[:android:room] - -> [:core:api]
[:android:sys] - -> [:android:indicator]
[:android:log] - -> [:engine:log]
[:android:error] - -> [:engine:log]
[:android:main] - -> [:android:intent]
[:android:main] - -> [:android:account]
[:android:main] - -> [:android:roster]
[:android:main] - -> [:android:chat]
[:android:main] - -> [:android:drawer]
[:android:main] - -> [:core:domain:app]
[:core:domain:app] - -> [:core:api]
[:core:domain:session] - -> [:core:api]
[:core:domain:account] - -> [:core:api]
[:core:domain:chat] - -> [:engine:paging]
[:core:domain:chat] - -> [:core:api]
[:core:domain:roster] - -> [:engine:paging]
[:core:domain:roster] - -> [:core:api]
[:core:api] - -> [:engine:connectable]
[:engine:connectable] - -> [:engine:util]
[:engine:connectable] - -> [:engine:log]
[:android:indicator] - -> [:android:core]
[:android:indicator] - -> [:android:notification]
[:android:core] - -> [:core:api]
[:android:core] - -> [:android:debug]
[:android:intent] - -> [:core:api]
[:android:account] - -> [:android:core]
[:android:roster] - -> [:android:core]
[:android:chat] - -> [:android:core]
[:android:chat] - -> [:android:notification]
[:android:chat] - -> [:android:widget]
[:android:chat] - -> [:core:cli]
[:android:drawer] - -> [:android:core]
[:core:cli] - -> [:engine:translator]
[:core:cli] - -> [:core:api]
[:android:app] - -> [:core:backend]
[:android:app] - -> [:net:smack:android]
[:android:app] - -> [:android:room]
[:android:app] - -> [:android:sys]
[:android:app] - -> [:android:log]
[:android:app] - -> [:android:error]
[:android:app] - -> [:android:main]
@enduml

PlantUML version 1.2020.15(Sun Jun 28 13:39:45 CEST 2020)
(GPL source distribution)
Java Runtime: OpenJDK Runtime Environment
JVM: OpenJDK 64-Bit Server VM
Default Encoding: UTF-8
Language: pl
Country: PL
--></g></svg>