<?xml version="1.0" encoding="UTF-8" standalone="no"?><svg xmlns="http://www.w3.org/2000/svg" xmlns:xlink="http://www.w3.org/1999/xlink" contentScriptType="application/ecmascript" contentStyleType="text/css" height="735px" preserveAspectRatio="none" style="width:1734px;height:735px;" version="1.1" viewBox="0 0 1734 735" width="1734px" zoomAndPan="magnify"><defs><filter height="300%" id="f1i9kkz4dcuh1o" width="300%" x="-1" y="-1"><feGaussianBlur result="blurOut" stdDeviation="2.0"/><feColorMatrix in="blurOut" result="blurOut2" type="matrix" values="0 0 0 0 0 0 0 0 0 0 0 0 0 0 0 0 0 0 .4 0"/><feOffset dx="4.0" dy="4.0" in="blurOut2" result="blurOut3"/><feBlend in="SourceGraphic" in2="blurOut3" mode="normal"/></filter></defs><g><!--MD5=[30404b2edc0ff233b9122d63ae72b243]
cluster :core--><polygon fill="#FFFFFF" filter="url(#f1i9kkz4dcuh1o)" points="1317,218,1365,218,1372,240.2969,1596,240.2969,1596,511,1317,511,1317,218" style="stroke: #000000; stroke-width: 1.5;"/><line style="stroke: #000000; stroke-width: 1.5;" x1="1317" x2="1372" y1="240.2969" y2="240.2969"/><text fill="#000000" font-family="sans-serif" font-size="14" font-weight="bold" lengthAdjust="spacingAndGlyphs" textLength="42" x="1321" y="232.9951">:core</text><!--MD5=[0d8e833dcfdde072c4ae6e4a203830aa]
cluster :net--><polygon fill="#FFFFFF" filter="url(#f1i9kkz4dcuh1o)" points="1394,112,1432,112,1439,134.2969,1586,134.2969,1586,193,1394,193,1394,112" style="stroke: #000000; stroke-width: 1.5;"/><line style="stroke: #000000; stroke-width: 1.5;" x1="1394" x2="1439" y1="134.2969" y2="134.2969"/><text fill="#000000" font-family="sans-serif" font-size="14" font-weight="bold" lengthAdjust="spacingAndGlyphs" textLength="32" x="1398" y="126.9951">:net</text><!--MD5=[6124d9865eee0f458a8c9ca898d4a94b]
cluster :android--><polygon fill="#FFFFFF" filter="url(#f1i9kkz4dcuh1o)" points="16,6,88,6,95,28.2969,1277,28.2969,1277,511,16,511,16,6" style="stroke: #000000; stroke-width: 1.5;"/><line style="stroke: #000000; stroke-width: 1.5;" x1="16" x2="95" y1="28.2969" y2="28.2969"/><text fill="#000000" font-family="sans-serif" font-size="14" font-weight="bold" lengthAdjust="spacingAndGlyphs" textLength="66" x="20" y="20.9951">:android</text><!--MD5=[6ed0a4222646c4be5d3ab2314135a570]
cluster :engine--><polygon fill="#FFFFFF" filter="url(#f1i9kkz4dcuh1o)" points="1017,536,1083,536,1090,558.2969,1596,558.2969,1596,723,1017,723,1017,536" style="stroke: #000000; stroke-width: 1.5;"/><line style="stroke: #000000; stroke-width: 1.5;" x1="1017" x2="1090" y1="558.2969" y2="558.2969"/><text fill="#000000" font-family="sans-serif" font-size="14" font-weight="bold" lengthAdjust="spacingAndGlyphs" textLength="60" x="1021" y="550.9951">:engine</text><!--MD5=[6b3c72c52f198a8ada63b8c5ce9355bc]
entity :core:backend--><rect fill="#FEFECE" filter="url(#f1i9kkz4dcuh1o)" height="46.2969" style="stroke: #A80036; stroke-width: 1.5;" width="141" x="1446.5" y="245"/><rect fill="#FEFECE" height="10" style="stroke: #A80036; stroke-width: 1.5;" width="15" x="1567.5" y="250"/><rect fill="#FEFECE" height="2" style="stroke: #A80036; stroke-width: 1.5;" width="4" x="1565.5" y="252"/><rect fill="#FEFECE" height="2" style="stroke: #A80036; stroke-width: 1.5;" width="4" x="1565.5" y="256"/><text fill="#000000" font-family="sans-serif" font-size="14" lengthAdjust="spacingAndGlyphs" textLength="101" x="1461.5" y="277.9951">:core:backend</text><!--MD5=[c0f778923607b3b2b1776544ac20a677]
entity :core:domain--><rect fill="#FEFECE" filter="url(#f1i9kkz4dcuh1o)" height="46.2969" style="stroke: #A80036; stroke-width: 1.5;" width="132" x="1456" y="351"/><rect fill="#FEFECE" height="10" style="stroke: #A80036; stroke-width: 1.5;" width="15" x="1568" y="356"/><rect fill="#FEFECE" height="2" style="stroke: #A80036; stroke-width: 1.5;" width="4" x="1566" y="358"/><rect fill="#FEFECE" height="2" style="stroke: #A80036; stroke-width: 1.5;" width="4" x="1566" y="362"/><text fill="#000000" font-family="sans-serif" font-size="14" lengthAdjust="spacingAndGlyphs" textLength="92" x="1471" y="383.9951">:core:domain</text><!--MD5=[bb042d61f43125fc2fe6ee382cb3d84b]
entity :core:api--><rect fill="#FEFECE" filter="url(#f1i9kkz4dcuh1o)" height="46.2969" style="stroke: #A80036; stroke-width: 1.5;" width="101" x="1325.5" y="457"/><rect fill="#FEFECE" height="10" style="stroke: #A80036; stroke-width: 1.5;" width="15" x="1406.5" y="462"/><rect fill="#FEFECE" height="2" style="stroke: #A80036; stroke-width: 1.5;" width="4" x="1404.5" y="464"/><rect fill="#FEFECE" height="2" style="stroke: #A80036; stroke-width: 1.5;" width="4" x="1404.5" y="468"/><text fill="#000000" font-family="sans-serif" font-size="14" lengthAdjust="spacingAndGlyphs" textLength="61" x="1340.5" y="489.9951">:core:api</text><!--MD5=[b4e25f7522ba1111eb2df4fe1b5db7c7]
entity :core:cli--><rect fill="#FEFECE" filter="url(#f1i9kkz4dcuh1o)" height="46.2969" style="stroke: #A80036; stroke-width: 1.5;" width="95" x="1325.5" y="351"/><rect fill="#FEFECE" height="10" style="stroke: #A80036; stroke-width: 1.5;" width="15" x="1400.5" y="356"/><rect fill="#FEFECE" height="2" style="stroke: #A80036; stroke-width: 1.5;" width="4" x="1398.5" y="358"/><rect fill="#FEFECE" height="2" style="stroke: #A80036; stroke-width: 1.5;" width="4" x="1398.5" y="362"/><text fill="#000000" font-family="sans-serif" font-size="14" lengthAdjust="spacingAndGlyphs" textLength="55" x="1340.5" y="383.9951">:core:cli</text><!--MD5=[6074b5c11df63f0ef6be21f813bbd183]
entity :net:smack:android--><rect fill="#FEFECE" filter="url(#f1i9kkz4dcuh1o)" height="46.2969" style="stroke: #A80036; stroke-width: 1.5;" width="175" x="1402.5" y="139"/><rect fill="#FEFECE" height="10" style="stroke: #A80036; stroke-width: 1.5;" width="15" x="1557.5" y="144"/><rect fill="#FEFECE" height="2" style="stroke: #A80036; stroke-width: 1.5;" width="4" x="1555.5" y="146"/><rect fill="#FEFECE" height="2" style="stroke: #A80036; stroke-width: 1.5;" width="4" x="1555.5" y="150"/><text fill="#000000" font-family="sans-serif" font-size="14" lengthAdjust="spacingAndGlyphs" textLength="135" x="1417.5" y="171.9951">:net:smack:android</text><!--MD5=[e71e3f46b787e063366eac1cfd3b55c3]
entity :android:room--><rect fill="#FEFECE" filter="url(#f1i9kkz4dcuh1o)" height="46.2969" style="stroke: #A80036; stroke-width: 1.5;" width="138" x="802" y="139"/><rect fill="#FEFECE" height="10" style="stroke: #A80036; stroke-width: 1.5;" width="15" x="920" y="144"/><rect fill="#FEFECE" height="2" style="stroke: #A80036; stroke-width: 1.5;" width="4" x="918" y="146"/><rect fill="#FEFECE" height="2" style="stroke: #A80036; stroke-width: 1.5;" width="4" x="918" y="150"/><text fill="#000000" font-family="sans-serif" font-size="14" lengthAdjust="spacingAndGlyphs" textLength="98" x="817" y="171.9951">:android:room</text><!--MD5=[824b5ec8eead23404211dbafddd0ef71]
entity :android:sys--><rect fill="#FEFECE" filter="url(#f1i9kkz4dcuh1o)" height="46.2969" style="stroke: #A80036; stroke-width: 1.5;" width="125" x="257.5" y="139"/><rect fill="#FEFECE" height="10" style="stroke: #A80036; stroke-width: 1.5;" width="15" x="362.5" y="144"/><rect fill="#FEFECE" height="2" style="stroke: #A80036; stroke-width: 1.5;" width="4" x="360.5" y="146"/><rect fill="#FEFECE" height="2" style="stroke: #A80036; stroke-width: 1.5;" width="4" x="360.5" y="150"/><text fill="#000000" font-family="sans-serif" font-size="14" lengthAdjust="spacingAndGlyphs" textLength="85" x="272.5" y="171.9951">:android:sys</text><!--MD5=[9f0305d4f7a8645f2834b13a0602f0df]
entity :android:log--><rect fill="#FEFECE" filter="url(#f1i9kkz4dcuh1o)" height="46.2969" style="stroke: #A80036; stroke-width: 1.5;" width="123" x="975.5" y="139"/><rect fill="#FEFECE" height="10" style="stroke: #A80036; stroke-width: 1.5;" width="15" x="1078.5" y="144"/><rect fill="#FEFECE" height="2" style="stroke: #A80036; stroke-width: 1.5;" width="4" x="1076.5" y="146"/><rect fill="#FEFECE" height="2" style="stroke: #A80036; stroke-width: 1.5;" width="4" x="1076.5" y="150"/><text fill="#000000" font-family="sans-serif" font-size="14" lengthAdjust="spacingAndGlyphs" textLength="83" x="990.5" y="171.9951">:android:log</text><!--MD5=[37b953e512ae70b44a23cc4bd83136e2]
entity :android:error--><rect fill="#FEFECE" filter="url(#f1i9kkz4dcuh1o)" height="46.2969" style="stroke: #A80036; stroke-width: 1.5;" width="135" x="1133.5" y="139"/><rect fill="#FEFECE" height="10" style="stroke: #A80036; stroke-width: 1.5;" width="15" x="1248.5" y="144"/><rect fill="#FEFECE" height="2" style="stroke: #A80036; stroke-width: 1.5;" width="4" x="1246.5" y="146"/><rect fill="#FEFECE" height="2" style="stroke: #A80036; stroke-width: 1.5;" width="4" x="1246.5" y="150"/><text fill="#000000" font-family="sans-serif" font-size="14" lengthAdjust="spacingAndGlyphs" textLength="95" x="1148.5" y="171.9951">:android:error</text><!--MD5=[8b23712cbce6b2745bbd08e1acd8155e]
entity :android:main--><rect fill="#FEFECE" filter="url(#f1i9kkz4dcuh1o)" height="46.2969" style="stroke: #A80036; stroke-width: 1.5;" width="135" x="631.5" y="139"/><rect fill="#FEFECE" height="10" style="stroke: #A80036; stroke-width: 1.5;" width="15" x="746.5" y="144"/><rect fill="#FEFECE" height="2" style="stroke: #A80036; stroke-width: 1.5;" width="4" x="744.5" y="146"/><rect fill="#FEFECE" height="2" style="stroke: #A80036; stroke-width: 1.5;" width="4" x="744.5" y="150"/><text fill="#000000" font-family="sans-serif" font-size="14" lengthAdjust="spacingAndGlyphs" textLength="95" x="646.5" y="171.9951">:android:main</text><!--MD5=[b759699551f165de218e2e968fab95b2]
entity :android:indicator--><rect fill="#FEFECE" filter="url(#f1i9kkz4dcuh1o)" height="46.2969" style="stroke: #A80036; stroke-width: 1.5;" width="161" x="24.5" y="245"/><rect fill="#FEFECE" height="10" style="stroke: #A80036; stroke-width: 1.5;" width="15" x="165.5" y="250"/><rect fill="#FEFECE" height="2" style="stroke: #A80036; stroke-width: 1.5;" width="4" x="163.5" y="252"/><rect fill="#FEFECE" height="2" style="stroke: #A80036; stroke-width: 1.5;" width="4" x="163.5" y="256"/><text fill="#000000" font-family="sans-serif" font-size="14" lengthAdjust="spacingAndGlyphs" textLength="121" x="39.5" y="277.9951">:android:indicator</text><!--MD5=[4243627ae140629495d6edbad54f8b36]
entity :android:core--><rect fill="#FEFECE" filter="url(#f1i9kkz4dcuh1o)" height="46.2969" style="stroke: #A80036; stroke-width: 1.5;" width="133" x="600.5" y="351"/><rect fill="#FEFECE" height="10" style="stroke: #A80036; stroke-width: 1.5;" width="15" x="713.5" y="356"/><rect fill="#FEFECE" height="2" style="stroke: #A80036; stroke-width: 1.5;" width="4" x="711.5" y="358"/><rect fill="#FEFECE" height="2" style="stroke: #A80036; stroke-width: 1.5;" width="4" x="711.5" y="362"/><text fill="#000000" font-family="sans-serif" font-size="14" lengthAdjust="spacingAndGlyphs" textLength="93" x="615.5" y="383.9951">:android:core</text><!--MD5=[f10ce6782b0e7f5580bd12ce8877f965]
entity :android:notification--><rect fill="#FEFECE" filter="url(#f1i9kkz4dcuh1o)" height="46.2969" style="stroke: #A80036; stroke-width: 1.5;" width="177" x="206.5" y="351"/><rect fill="#FEFECE" height="10" style="stroke: #A80036; stroke-width: 1.5;" width="15" x="363.5" y="356"/><rect fill="#FEFECE" height="2" style="stroke: #A80036; stroke-width: 1.5;" width="4" x="361.5" y="358"/><rect fill="#FEFECE" height="2" style="stroke: #A80036; stroke-width: 1.5;" width="4" x="361.5" y="362"/><text fill="#000000" font-family="sans-serif" font-size="14" lengthAdjust="spacingAndGlyphs" textLength="137" x="221.5" y="383.9951">:android:notification</text><!--MD5=[dc93d87eb620fb3186cd34a04b83c7ae]
entity :android:resources--><rect fill="#FEFECE" filter="url(#f1i9kkz4dcuh1o)" height="46.2969" style="stroke: #A80036; stroke-width: 1.5;" width="172" x="669" y="457"/><rect fill="#FEFECE" height="10" style="stroke: #A80036; stroke-width: 1.5;" width="15" x="821" y="462"/><rect fill="#FEFECE" height="2" style="stroke: #A80036; stroke-width: 1.5;" width="4" x="819" y="464"/><rect fill="#FEFECE" height="2" style="stroke: #A80036; stroke-width: 1.5;" width="4" x="819" y="468"/><text fill="#000000" font-family="sans-serif" font-size="14" lengthAdjust="spacingAndGlyphs" textLength="132" x="684" y="489.9951">:android:resources</text><!--MD5=[81a55ae8ee37e126e15aacb863ec98ad]
entity :android:debug--><rect fill="#FEFECE" filter="url(#f1i9kkz4dcuh1o)" height="46.2969" style="stroke: #A80036; stroke-width: 1.5;" width="147" x="944.5" y="245"/><rect fill="#FEFECE" height="10" style="stroke: #A80036; stroke-width: 1.5;" width="15" x="1071.5" y="250"/><rect fill="#FEFECE" height="2" style="stroke: #A80036; stroke-width: 1.5;" width="4" x="1069.5" y="252"/><rect fill="#FEFECE" height="2" style="stroke: #A80036; stroke-width: 1.5;" width="4" x="1069.5" y="256"/><text fill="#000000" font-family="sans-serif" font-size="14" lengthAdjust="spacingAndGlyphs" textLength="107" x="959.5" y="277.9951">:android:debug</text><!--MD5=[7b0e00ffb091306e7adce213ff533c85]
entity :android:intent--><rect fill="#FEFECE" filter="url(#f1i9kkz4dcuh1o)" height="46.2969" style="stroke: #A80036; stroke-width: 1.5;" width="142" x="1127" y="245"/><rect fill="#FEFECE" height="10" style="stroke: #A80036; stroke-width: 1.5;" width="15" x="1249" y="250"/><rect fill="#FEFECE" height="2" style="stroke: #A80036; stroke-width: 1.5;" width="4" x="1247" y="252"/><rect fill="#FEFECE" height="2" style="stroke: #A80036; stroke-width: 1.5;" width="4" x="1247" y="256"/><text fill="#000000" font-family="sans-serif" font-size="14" lengthAdjust="spacingAndGlyphs" textLength="102" x="1142" y="277.9951">:android:intent</text><!--MD5=[537263759804c0f37bfe27ff6520266d]
entity :android:account--><rect fill="#FEFECE" filter="url(#f1i9kkz4dcuh1o)" height="46.2969" style="stroke: #A80036; stroke-width: 1.5;" width="158" x="221" y="245"/><rect fill="#FEFECE" height="10" style="stroke: #A80036; stroke-width: 1.5;" width="15" x="359" y="250"/><rect fill="#FEFECE" height="2" style="stroke: #A80036; stroke-width: 1.5;" width="4" x="357" y="252"/><rect fill="#FEFECE" height="2" style="stroke: #A80036; stroke-width: 1.5;" width="4" x="357" y="256"/><text fill="#000000" font-family="sans-serif" font-size="14" lengthAdjust="spacingAndGlyphs" textLength="118" x="236" y="277.9951">:android:account</text><!--MD5=[a40cbfa6716f14d6e2acc0c2f4f85b3d]
entity :android:roster--><rect fill="#FEFECE" filter="url(#f1i9kkz4dcuh1o)" height="46.2969" style="stroke: #A80036; stroke-width: 1.5;" width="143" x="414.5" y="245"/><rect fill="#FEFECE" height="10" style="stroke: #A80036; stroke-width: 1.5;" width="15" x="537.5" y="250"/><rect fill="#FEFECE" height="2" style="stroke: #A80036; stroke-width: 1.5;" width="4" x="535.5" y="252"/><rect fill="#FEFECE" height="2" style="stroke: #A80036; stroke-width: 1.5;" width="4" x="535.5" y="256"/><text fill="#000000" font-family="sans-serif" font-size="14" lengthAdjust="spacingAndGlyphs" textLength="103" x="429.5" y="277.9951">:android:roster</text><!--MD5=[1abf9466b7c9941f0b2d230b4b5f13c9]
entity :android:chat--><rect fill="#FEFECE" filter="url(#f1i9kkz4dcuh1o)" height="46.2969" style="stroke: #A80036; stroke-width: 1.5;" width="132" x="777" y="245"/><rect fill="#FEFECE" height="10" style="stroke: #A80036; stroke-width: 1.5;" width="15" x="889" y="250"/><rect fill="#FEFECE" height="2" style="stroke: #A80036; stroke-width: 1.5;" width="4" x="887" y="252"/><rect fill="#FEFECE" height="2" style="stroke: #A80036; stroke-width: 1.5;" width="4" x="887" y="256"/><text fill="#000000" font-family="sans-serif" font-size="14" lengthAdjust="spacingAndGlyphs" textLength="92" x="792" y="277.9951">:android:chat</text><!--MD5=[ff52f1825a9f6fbfff2d66c588103d9f]
entity :android:drawer--><rect fill="#FEFECE" filter="url(#f1i9kkz4dcuh1o)" height="46.2969" style="stroke: #A80036; stroke-width: 1.5;" width="149" x="592.5" y="245"/><rect fill="#FEFECE" height="10" style="stroke: #A80036; stroke-width: 1.5;" width="15" x="721.5" y="250"/><rect fill="#FEFECE" height="2" style="stroke: #A80036; stroke-width: 1.5;" width="4" x="719.5" y="252"/><rect fill="#FEFECE" height="2" style="stroke: #A80036; stroke-width: 1.5;" width="4" x="719.5" y="256"/><text fill="#000000" font-family="sans-serif" font-size="14" lengthAdjust="spacingAndGlyphs" textLength="109" x="607.5" y="277.9951">:android:drawer</text><!--MD5=[ccc75cd529beb82693de2a4497c4bb10]
entity :android:widget--><rect fill="#FEFECE" filter="url(#f1i9kkz4dcuh1o)" height="46.2969" style="stroke: #A80036; stroke-width: 1.5;" width="148" x="769" y="351"/><rect fill="#FEFECE" height="10" style="stroke: #A80036; stroke-width: 1.5;" width="15" x="897" y="356"/><rect fill="#FEFECE" height="2" style="stroke: #A80036; stroke-width: 1.5;" width="4" x="895" y="358"/><rect fill="#FEFECE" height="2" style="stroke: #A80036; stroke-width: 1.5;" width="4" x="895" y="362"/><text fill="#000000" font-family="sans-serif" font-size="14" lengthAdjust="spacingAndGlyphs" textLength="108" x="784" y="383.9951">:android:widget</text><!--MD5=[b6d98d9177c5b22a205e5ab6c49b37ef]
entity :android:app--><rect fill="#FEFECE" filter="url(#f1i9kkz4dcuh1o)" height="46.2969" style="stroke: #A80036; stroke-width: 1.5;" width="128" x="973" y="33"/><rect fill="#FEFECE" height="10" style="stroke: #A80036; stroke-width: 1.5;" width="15" x="1081" y="38"/><rect fill="#FEFECE" height="2" style="stroke: #A80036; stroke-width: 1.5;" width="4" x="1079" y="40"/><rect fill="#FEFECE" height="2" style="stroke: #A80036; stroke-width: 1.5;" width="4" x="1079" y="44"/><text fill="#000000" font-family="sans-serif" font-size="14" lengthAdjust="spacingAndGlyphs" textLength="88" x="988" y="65.9951">:android:app</text><!--MD5=[8725e2f32c833bede44e6c458fce3254]
entity :engine:paging--><rect fill="#FEFECE" filter="url(#f1i9kkz4dcuh1o)" height="46.2969" style="stroke: #A80036; stroke-width: 1.5;" width="145" x="1442.5" y="563"/><rect fill="#FEFECE" height="10" style="stroke: #A80036; stroke-width: 1.5;" width="15" x="1567.5" y="568"/><rect fill="#FEFECE" height="2" style="stroke: #A80036; stroke-width: 1.5;" width="4" x="1565.5" y="570"/><rect fill="#FEFECE" height="2" style="stroke: #A80036; stroke-width: 1.5;" width="4" x="1565.5" y="574"/><text fill="#000000" font-family="sans-serif" font-size="14" lengthAdjust="spacingAndGlyphs" textLength="105" x="1457.5" y="595.9951">:engine:paging</text><!--MD5=[474bc7754ff50e9887f34633b92b9e02]
entity :engine:connectable--><rect fill="#FEFECE" filter="url(#f1i9kkz4dcuh1o)" height="46.2969" style="stroke: #A80036; stroke-width: 1.5;" width="184" x="1025" y="563"/><rect fill="#FEFECE" height="10" style="stroke: #A80036; stroke-width: 1.5;" width="15" x="1189" y="568"/><rect fill="#FEFECE" height="2" style="stroke: #A80036; stroke-width: 1.5;" width="4" x="1187" y="570"/><rect fill="#FEFECE" height="2" style="stroke: #A80036; stroke-width: 1.5;" width="4" x="1187" y="574"/><text fill="#000000" font-family="sans-serif" font-size="14" lengthAdjust="spacingAndGlyphs" textLength="144" x="1040" y="595.9951">:engine:connectable</text><!--MD5=[8e94acc19a10f03efd288fb36eb4472b]
entity :engine:util--><rect fill="#FEFECE" filter="url(#f1i9kkz4dcuh1o)" height="46.2969" style="stroke: #A80036; stroke-width: 1.5;" width="118" x="1058" y="669"/><rect fill="#FEFECE" height="10" style="stroke: #A80036; stroke-width: 1.5;" width="15" x="1156" y="674"/><rect fill="#FEFECE" height="2" style="stroke: #A80036; stroke-width: 1.5;" width="4" x="1154" y="676"/><rect fill="#FEFECE" height="2" style="stroke: #A80036; stroke-width: 1.5;" width="4" x="1154" y="680"/><text fill="#000000" font-family="sans-serif" font-size="14" lengthAdjust="spacingAndGlyphs" textLength="78" x="1073" y="701.9951">:engine:util</text><!--MD5=[f7af38a47341a5d6bbb7054022a18e1f]
entity :engine:log--><rect fill="#FEFECE" filter="url(#f1i9kkz4dcuh1o)" height="46.2969" style="stroke: #A80036; stroke-width: 1.5;" width="119" x="1468.5" y="669"/><rect fill="#FEFECE" height="10" style="stroke: #A80036; stroke-width: 1.5;" width="15" x="1567.5" y="674"/><rect fill="#FEFECE" height="2" style="stroke: #A80036; stroke-width: 1.5;" width="4" x="1565.5" y="676"/><rect fill="#FEFECE" height="2" style="stroke: #A80036; stroke-width: 1.5;" width="4" x="1565.5" y="680"/><text fill="#000000" font-family="sans-serif" font-size="14" lengthAdjust="spacingAndGlyphs" textLength="79" x="1483.5" y="701.9951">:engine:log</text><!--MD5=[9cb9b296c1f7d1e8bceacf7e776ceb9f]
entity :engine:translator--><rect fill="#FEFECE" filter="url(#f1i9kkz4dcuh1o)" height="46.2969" style="stroke: #A80036; stroke-width: 1.5;" width="163" x="1244.5" y="563"/><rect fill="#FEFECE" height="10" style="stroke: #A80036; stroke-width: 1.5;" width="15" x="1387.5" y="568"/><rect fill="#FEFECE" height="2" style="stroke: #A80036; stroke-width: 1.5;" width="4" x="1385.5" y="570"/><rect fill="#FEFECE" height="2" style="stroke: #A80036; stroke-width: 1.5;" width="4" x="1385.5" y="574"/><text fill="#000000" font-family="sans-serif" font-size="14" lengthAdjust="spacingAndGlyphs" textLength="123" x="1259.5" y="595.9951">:engine:translator</text><!--MD5=[d2e99a31c5c69c260843e58b87a30949]
link :core:backend to :core:domain--><path d="M1518.0849,291.0004 C1518.8398,307.003 1519.8512,328.4461 1520.657,345.528 " fill="none" id=":core:backend-&gt;:core:domain" style="stroke: #A80036; stroke-width: 1.0;"/><polygon fill="#A80036" points="1520.8999,350.6784,1524.4712,341.4998,1520.6642,345.684,1516.4801,341.877,1520.8999,350.6784" style="stroke: #A80036; stroke-width: 1.0;"/><!--MD5=[0a09f885cf7bf6af5f5d05ae3e988d1e]
link :net:smack:android to :core:api--><path d="M1567.5554,185.1094 C1582.3872,193.1302 1596.0575,203.8179 1605,218 C1647.4331,285.2957 1651.7212,331.8935 1606,397 C1585.5334,426.1443 1493.0973,452.739 1431.8212,467.6071 " fill="none" id=":net:smack:android-&gt;:core:api" style="stroke: #A80036; stroke-width: 1.0;"/><polygon fill="#A80036" points="1426.7296,468.833,1436.4159,470.6151,1431.5907,467.6626,1434.5432,462.8373,1426.7296,468.833" style="stroke: #A80036; stroke-width: 1.0;"/><!--MD5=[07f4dd57ae6d7d38c578a637e51bb3a8]
link :android:room to :core:api--><path d="M928.8805,185.0249 C938.4841,188.1473 948.432,190.97 958,193 C993.8626,200.6089 1260.5516,192.6129 1287,218 C1344.7876,273.4688 1276.6902,323.2715 1308,397 C1316.9276,418.0229 1332.9019,437.9473 1347.125,453.0031 " fill="none" id=":android:room-&gt;:core:api" style="stroke: #A80036; stroke-width: 1.0;"/><polygon fill="#A80036" points="1350.698,456.7237,1347.3491,447.4617,1347.2347,453.1174,1341.579,453.003,1350.698,456.7237" style="stroke: #A80036; stroke-width: 1.0;"/><!--MD5=[43b2687f309875f3345c641c0049e239]
link :android:sys to :android:indicator--><path d="M271.6512,185.1025 C250.7979,195.1284 226.1563,207.058 204,218 C188.041,225.8814 170.6994,234.5902 155.0543,242.5013 " fill="none" id=":android:sys-&gt;:android:indicator" style="stroke: #A80036; stroke-width: 1.0;"/><polygon fill="#A80036" points="150.2567,244.929,160.0931,244.4344,154.718,242.6714,156.481,237.2963,150.2567,244.929" style="stroke: #A80036; stroke-width: 1.0;"/><!--MD5=[c4882aab63b29c15f029a73a0bc261e2]
link :android:log to :engine:log--><path d="M1088.9598,185.1057 C1097.833,188.2609 1107.0709,191.0729 1116,193 C1169.0714,204.4541 1562.2842,183.25 1604,218 C1658.7495,263.6073 1641,302.7432 1641,374 C1641,374 1641,374 1641,480 C1641,539.524 1634.0599,557.0516 1605,609 C1593.2344,630.0325 1575.0762,649.9573 1559.3476,665.0109 " fill="none" id=":android:log-&gt;:engine:log" style="stroke: #A80036; stroke-width: 1.0;"/><polygon fill="#A80036" points="1555.4065,668.7309,1564.6971,665.462,1559.0426,665.2988,1559.2058,659.6443,1555.4065,668.7309" style="stroke: #A80036; stroke-width: 1.0;"/><!--MD5=[45517b2139f254912330f96b0a200dca]
link :android:error to :engine:log--><path d="M1268.9064,174.6709 C1303.8065,180.8544 1347.0761,188.0149 1386,193 C1448.1832,200.964 1618.6237,178.1264 1667,218 C1722.6834,263.8963 1712,301.8397 1712,374 C1712,374 1712,374 1712,480 C1712,540.7216 1705.373,561.9402 1667,609 C1646.7672,633.8131 1617.0193,652.9776 1590.2299,666.6077 " fill="none" id=":android:error-&gt;:engine:log" style="stroke: #A80036; stroke-width: 1.0;"/><polygon fill="#A80036" points="1585.6127,668.9177,1595.4513,668.4682,1590.0843,666.6806,1591.8719,661.3136,1585.6127,668.9177" style="stroke: #A80036; stroke-width: 1.0;"/><!--MD5=[18bab9f063355036a0b2f6ebbce1d0c7]
link :android:main to :android:debug--><path d="M758.7283,185.0132 C767.4649,187.9449 776.4113,190.7141 785,193 C846.926,209.4815 866.5514,196.7295 927,218 C944.4135,224.1274 962.4571,233.3536 977.8402,242.2188 " fill="none" id=":android:main-&gt;:android:debug" style="stroke: #A80036; stroke-width: 1.0;"/><polygon fill="#A80036" points="982.5252,244.9547,976.7705,236.962,978.2075,242.4333,972.7362,243.8703,982.5252,244.9547" style="stroke: #A80036; stroke-width: 1.0;"/><!--MD5=[40bb589868918ba3fd0f378e218e8999]
link :android:main to :android:intent--><path d="M756.2021,185.021 C765.6969,188.1439 775.5344,190.9678 785,193 C926.2101,223.3175 970.7871,176.0875 1109,218 C1126.8293,223.4067 1145.0236,232.8043 1160.2766,242.0035 " fill="none" id=":android:main-&gt;:android:intent" style="stroke: #A80036; stroke-width: 1.0;"/><polygon fill="#A80036" points="1164.9121,244.8475,1159.3325,236.7316,1160.6503,242.2328,1155.149,243.5505,1164.9121,244.8475" style="stroke: #A80036; stroke-width: 1.0;"/><!--MD5=[3c34b3746a69b84c5d3b588540e90496]
link :android:main to :android:account--><path d="M631.2855,168.815 C569.1137,176.4073 475.0763,191.2879 397,218 C378.6485,224.2786 359.4621,233.5316 343.0435,242.376 " fill="none" id=":android:main-&gt;:android:account" style="stroke: #A80036; stroke-width: 1.0;"/><polygon fill="#A80036" points="338.489,244.857,348.3059,244.0642,342.8798,242.4651,344.4789,237.039,338.489,244.857" style="stroke: #A80036; stroke-width: 1.0;"/><!--MD5=[1debbca0f57afdab46daa5823379ab8a]
link :android:main to :android:roster--><path d="M645.1097,185.1052 C623.1571,194.8353 597.6622,206.5446 575,218 C560.0926,225.5355 544.0984,234.2996 529.8383,242.3663 " fill="none" id=":android:main-&gt;:android:roster" style="stroke: #A80036; stroke-width: 1.0;"/><polygon fill="#A80036" points="525.4716,244.8452,535.2731,243.8805,529.8198,242.3767,531.3236,236.9234,525.4716,244.8452" style="stroke: #A80036; stroke-width: 1.0;"/><!--MD5=[2457458197666786eab65f67e2b0c236]
link :android:main to :android:chat--><path d="M730.2459,185.0004 C752.9222,201.6927 783.6404,224.3047 807.2877,241.7118 " fill="none" id=":android:main-&gt;:android:chat" style="stroke: #A80036; stroke-width: 1.0;"/><polygon fill="#A80036" points="811.3179,244.6784,806.4412,236.1217,807.2912,241.7143,801.6986,242.5643,811.3179,244.6784" style="stroke: #A80036; stroke-width: 1.0;"/><!--MD5=[6898d34d0d822ea23a237867119598dc]
link :android:main to :android:drawer--><path d="M692.0565,185.0004 C687.2255,201.003 680.7521,222.4461 675.5953,239.528 " fill="none" id=":android:main-&gt;:android:drawer" style="stroke: #A80036; stroke-width: 1.0;"/><polygon fill="#A80036" points="674.0405,244.6784,680.471,237.2186,675.4856,239.8918,672.8124,234.9064,674.0405,244.6784" style="stroke: #A80036; stroke-width: 1.0;"/><!--MD5=[a52bef23a2ecdbe1ed06939fc995921c]
link :android:main to :core:domain--><path d="M755.6885,185.0934 C765.3329,188.25 775.352,191.0657 785,193 C894.5145,214.9562 1180.9027,183.0878 1287,218 C1370.1402,245.358 1451.7389,310.5576 1493.4214,347.4224 " fill="none" id=":android:main-&gt;:core:domain" style="stroke: #A80036; stroke-width: 1.0;"/><polygon fill="#A80036" points="1497.3293,350.8992,1493.2642,341.9284,1493.5938,347.5757,1487.9465,347.9053,1497.3293,350.8992" style="stroke: #A80036; stroke-width: 1.0;"/><!--MD5=[65eb7b96c45847cf49dcf75272b402ce]
link :core:domain to :engine:paging--><path d="M1521.2376,397.0913 C1519.9463,436.1987 1517.3333,515.3349 1515.9342,557.7081 " fill="none" id=":core:domain-&gt;:engine:paging" style="stroke: #A80036; stroke-width: 1.0;"/><polygon fill="#A80036" points="1515.7615,562.9372,1520.0566,554.0742,1515.9266,557.9399,1512.0609,553.81,1515.7615,562.9372" style="stroke: #A80036; stroke-width: 1.0;"/><!--MD5=[12ebccdcc75f98176baa7aae27ae41f5]
link :core:domain to :core:api--><path d="M1490.3202,397.0004 C1467.2496,413.7503 1435.9692,436.4607 1411.9605,453.8917 " fill="none" id=":core:domain-&gt;:core:api" style="stroke: #A80036; stroke-width: 1.0;"/><polygon fill="#A80036" points="1407.8698,456.8617,1417.5028,454.811,1411.9159,453.9242,1412.8027,448.3373,1407.8698,456.8617" style="stroke: #A80036; stroke-width: 1.0;"/><!--MD5=[eaf14edc6043f7290cbfd1583ac6425c]
link :core:api to :engine:connectable--><path d="M1325.3231,498.088 C1296.3431,508.6703 1259.4196,522.5574 1227,536 C1208.579,543.6381 1188.6708,552.4982 1170.9199,560.6195 " fill="none" id=":core:api-&gt;:engine:connectable" style="stroke: #A80036; stroke-width: 1.0;"/><polygon fill="#A80036" points="1165.9735,562.8889,1175.8217,562.7713,1170.518,560.8038,1172.4855,555.5001,1165.9735,562.8889" style="stroke: #A80036; stroke-width: 1.0;"/><!--MD5=[bca29f017d1f9d57df28eb8d83e96ded]
link :engine:connectable to :engine:util--><path d="M1117,609.0004 C1117,625.003 1117,646.4461 1117,663.528 " fill="none" id=":engine:connectable-&gt;:engine:util" style="stroke: #A80036; stroke-width: 1.0;"/><polygon fill="#A80036" points="1117,668.6784,1121,659.6784,1117,663.6784,1113,659.6784,1117,668.6784" style="stroke: #A80036; stroke-width: 1.0;"/><!--MD5=[6eb7bccd1a3c6d4cd083766ccbfc4317]
link :engine:connectable to :engine:log--><path d="M1206.1809,609.0004 C1283.7634,629.0095 1394.3265,657.5246 1463.5757,675.3845 " fill="none" id=":engine:connectable-&gt;:engine:log" style="stroke: #A80036; stroke-width: 1.0;"/><polygon fill="#A80036" points="1468.4893,676.6517,1460.7736,670.5306,1463.6478,675.4029,1458.7755,678.277,1468.4893,676.6517" style="stroke: #A80036; stroke-width: 1.0;"/><!--MD5=[96dc4ca78ce9f4597c88082d6f3e186c]
link :android:indicator to :android:core--><path d="M185.6987,287.1053 C191.8835,288.4602 198.0372,289.7737 204,291 C341.9727,319.3749 504.2132,347.1935 595.3812,362.3236 " fill="none" id=":android:indicator-&gt;:android:core" style="stroke: #A80036; stroke-width: 1.0;"/><polygon fill="#A80036" points="600.4751,363.1681,592.2506,357.7498,595.5424,362.3503,590.942,365.6421,600.4751,363.1681" style="stroke: #A80036; stroke-width: 1.0;"/><!--MD5=[bd9cb8a7c84ee4f7ab758a69f4cf00fb]
link :android:indicator to :android:notification--><path d="M146.2272,291.0004 C176.4986,307.8887 217.6315,330.8365 248.9747,348.3227 " fill="none" id=":android:indicator-&gt;:android:notification" style="stroke: #A80036; stroke-width: 1.0;"/><polygon fill="#A80036" points="253.5256,350.8617,247.6148,342.9837,249.1592,348.4257,243.7172,349.97,253.5256,350.8617" style="stroke: #A80036; stroke-width: 1.0;"/><!--MD5=[02e6d1eeca9a10220a158005479957f9]
link :android:core to :core:api--><path d="M733.5933,393.0477 C739.7878,394.5081 745.9929,395.8561 752,397 C986.1768,441.5948 1050.4591,414.3618 1285,457 C1296.5034,459.0913 1308.707,461.817 1320.3146,464.6573 " fill="none" id=":android:core-&gt;:core:api" style="stroke: #A80036; stroke-width: 1.0;"/><polygon fill="#A80036" points="1325.249,465.88,1317.4754,459.8325,1320.3958,464.6773,1315.5511,467.5976,1325.249,465.88" style="stroke: #A80036; stroke-width: 1.0;"/><!--MD5=[e7a76a9c57e440ed2221ace9ced348ea]
link :android:core to :android:resources--><path d="M686.0947,397.0004 C699.6089,413.2789 717.7968,435.1871 732.0931,452.4076 " fill="none" id=":android:core-&gt;:android:resources" style="stroke: #A80036; stroke-width: 1.0;"/><polygon fill="#A80036" points="735.6387,456.6784,732.9675,447.1987,732.4449,452.8314,726.8123,452.3087,735.6387,456.6784" style="stroke: #A80036; stroke-width: 1.0;"/><!--MD5=[b47fc6152ea28caa80e6f618d5f135a8]
link :android:debug to :core:api--><path d="M1050.1996,291.1211 C1088.089,317.922 1153.2914,362.7857 1212,397 C1247.8698,417.9043 1289.6382,438.998 1322.0455,454.6896 " fill="none" id=":android:debug-&gt;:core:api" style="stroke: #A80036; stroke-width: 1.0;"/><polygon fill="#A80036" points="1326.7571,456.9648,1320.3922,449.449,1322.2546,454.7904,1316.9132,456.6529,1326.7571,456.9648" style="stroke: #A80036; stroke-width: 1.0;"/><!--MD5=[1c391fdc242cf49846aef78aa6da95be]
link :android:debug to :core:cli--><path d="M1091.5562,289.9633 C1159.8049,310.3418 1259.7089,340.1722 1320.3126,358.268 " fill="none" id=":android:debug-&gt;:core:cli" style="stroke: #A80036; stroke-width: 1.0;"/><polygon fill="#A80036" points="1325.329,359.7658,1317.8497,353.358,1320.538,358.3352,1315.5608,361.0236,1325.329,359.7658" style="stroke: #A80036; stroke-width: 1.0;"/><!--MD5=[55a05bb2a24a53ee5446c43db2b0d96b]
link :android:debug to :android:core--><path d="M944.4189,290.2211 C883.9031,308.4965 798.6455,334.2438 738.661,352.3588 " fill="none" id=":android:debug-&gt;:android:core" style="stroke: #A80036; stroke-width: 1.0;"/><polygon fill="#A80036" points="733.6631,353.8681,743.4352,355.0952,738.4496,352.4225,741.1223,347.4369,733.6631,353.8681" style="stroke: #A80036; stroke-width: 1.0;"/><!--MD5=[810b0331a8d5c8f194f5129777f812fe]
link :android:debug to :android:widget--><path d="M980.0276,291.0004 C952.2603,307.8195 914.5708,330.6485 885.7471,348.1075 " fill="none" id=":android:debug-&gt;:android:widget" style="stroke: #A80036; stroke-width: 1.0;"/><polygon fill="#A80036" points="881.2001,350.8617,890.9704,349.6202,885.4767,348.2712,886.8257,342.7776,881.2001,350.8617" style="stroke: #A80036; stroke-width: 1.0;"/><!--MD5=[49c315795c2cf8a16b9fc4140ea8e080]
link :android:intent to :core:api--><path d="M1201.9698,291.1937 C1207.6837,318.8805 1220.4755,365.3972 1246,397 C1265.8809,421.6152 1295.1057,441.1903 1320.8128,455.1336 " fill="none" id=":android:intent-&gt;:core:api" style="stroke: #A80036; stroke-width: 1.0;"/><polygon fill="#A80036" points="1325.2365,457.4969,1319.1831,449.728,1320.8264,455.1409,1315.4135,456.7842,1325.2365,457.4969" style="stroke: #A80036; stroke-width: 1.0;"/><!--MD5=[99eb1f9ce8f3a5e1f5d168a23a4e6130]
link :android:account to :android:core--><path d="M379.1817,290.8699 C443.3332,309.3987 532.9562,335.2844 595.0778,353.2268 " fill="none" id=":android:account-&gt;:android:core" style="stroke: #A80036; stroke-width: 1.0;"/><polygon fill="#A80036" points="600.2506,354.7209,592.7141,348.3804,595.447,353.3334,590.4941,356.0662,600.2506,354.7209" style="stroke: #A80036; stroke-width: 1.0;"/><!--MD5=[ea06712275b471b139755bf35b876505]
link :android:roster to :android:core--><path d="M525.2743,291.0004 C554.1119,307.8887 593.2963,330.8365 623.1549,348.3227 " fill="none" id=":android:roster-&gt;:android:core" style="stroke: #A80036; stroke-width: 1.0;"/><polygon fill="#A80036" points="627.4902,350.8617,621.7453,342.8619,623.1756,348.335,617.7026,349.7653,627.4902,350.8617" style="stroke: #A80036; stroke-width: 1.0;"/><!--MD5=[27504143436bfd555a82356c36796927]
link :android:chat to :android:core--><path d="M804.8106,291.0004 C776.8846,307.8195 738.9798,330.6485 709.9914,348.1075 " fill="none" id=":android:chat-&gt;:android:core" style="stroke: #A80036; stroke-width: 1.0;"/><polygon fill="#A80036" points="705.4183,350.8617,715.1917,349.6447,709.7014,348.282,711.0642,342.7917,705.4183,350.8617" style="stroke: #A80036; stroke-width: 1.0;"/><!--MD5=[efb42bc9aa58ba14b70407a353d00396]
link :android:chat to :android:notification--><path d="M776.6533,286.7609 C770.7009,288.2638 764.752,289.7009 759,291 C631.5669,319.7821 482.627,344.9443 388.5609,359.8084 " fill="none" id=":android:chat-&gt;:android:notification" style="stroke: #A80036; stroke-width: 1.0;"/><polygon fill="#A80036" points="383.5648,360.5964,393.0781,363.1454,388.5037,359.8174,391.8317,355.2431,383.5648,360.5964" style="stroke: #A80036; stroke-width: 1.0;"/><!--MD5=[5767c1eae9a459def5cf537ae8640123]
link :android:chat to :android:widget--><path d="M843,291.0004 C843,307.003 843,328.4461 843,345.528 " fill="none" id=":android:chat-&gt;:android:widget" style="stroke: #A80036; stroke-width: 1.0;"/><polygon fill="#A80036" points="843,350.6784,847,341.6784,843,345.6784,839,341.6784,843,350.6784" style="stroke: #A80036; stroke-width: 1.0;"/><!--MD5=[d0c9adee400d99d2c7e70b3cbab35cf4]
link :android:chat to :core:cli--><path d="M909.3316,286.8288 C915.2872,288.3172 921.241,289.7324 927,291 C1084.5586,325.6805 1127.2426,317.235 1285,351 C1296.4844,353.458 1308.7235,356.4291 1320.3094,359.4077 " fill="none" id=":android:chat-&gt;:core:cli" style="stroke: #A80036; stroke-width: 1.0;"/><polygon fill="#A80036" points="1325.2307,360.6833,1317.5222,354.5531,1320.3906,359.4288,1315.515,362.2972,1325.2307,360.6833" style="stroke: #A80036; stroke-width: 1.0;"/><!--MD5=[43e23cfb2d1172d7fb8288cf83bc1bf5]
link :android:drawer to :android:core--><path d="M667,291.0004 C667,307.003 667,328.4461 667,345.528 " fill="none" id=":android:drawer-&gt;:android:core" style="stroke: #A80036; stroke-width: 1.0;"/><polygon fill="#A80036" points="667,350.6784,671,341.6784,667,345.6784,663,341.6784,667,350.6784" style="stroke: #A80036; stroke-width: 1.0;"/><!--MD5=[e5b52aacd6c9e8567a26aa6a4b3cfc3a]
link :core:cli to :engine:translator--><path d="M1399.8303,397.2081 C1428.0967,424.6019 1465.7324,471.4364 1444,511 C1432.162,532.5509 1411.2175,548.7896 1390.2265,560.5458 " fill="none" id=":core:cli-&gt;:engine:translator" style="stroke: #A80036; stroke-width: 1.0;"/><polygon fill="#A80036" points="1385.7498,562.9867,1395.5664,562.1902,1390.1397,560.5931,1391.7367,555.1664,1385.7498,562.9867" style="stroke: #A80036; stroke-width: 1.0;"/><!--MD5=[c2bb4decd7a24ab2954465b21eb4e89b]
link :core:cli to :core:api--><path d="M1373.651,397.0004 C1374.1039,413.003 1374.7107,434.4461 1375.1942,451.528 " fill="none" id=":core:cli-&gt;:core:api" style="stroke: #A80036; stroke-width: 1.0;"/><polygon fill="#A80036" points="1375.34,456.6784,1379.0836,447.5688,1375.1984,451.6804,1371.0868,447.7953,1375.34,456.6784" style="stroke: #A80036; stroke-width: 1.0;"/><!--MD5=[7b3a637c57679a25661074470a3582ea]
link :android:widget to :android:resources--><path d="M823.9053,397.0004 C810.3911,413.2789 792.2032,435.1871 777.9069,452.4076 " fill="none" id=":android:widget-&gt;:android:resources" style="stroke: #A80036; stroke-width: 1.0;"/><polygon fill="#A80036" points="774.3613,456.6784,783.1877,452.3087,777.5551,452.8314,777.0325,447.1987,774.3613,456.6784" style="stroke: #A80036; stroke-width: 1.0;"/><!--MD5=[c092ee46ff50f3ad0966693409762b2d]
link :android:app to :core:backend--><path d="M1101.045,62.2291 C1152.9791,69.1657 1226.9801,83.4163 1286,112 C1337.4761,136.9302 1338.8072,160.6867 1386,193 C1412.1581,210.9107 1442.8464,228.6414 1467.9424,242.363 " fill="none" id=":android:app-&gt;:core:backend" style="stroke: #A80036; stroke-width: 1.0;"/><polygon fill="#A80036" points="1472.561,244.8775,1466.5695,237.0607,1468.1697,242.4865,1462.7439,244.0867,1472.561,244.8775" style="stroke: #A80036; stroke-width: 1.0;"/><!--MD5=[f628b0d0476bcd96ad7e4bc9c88fe729]
link :android:app to :net:smack:android--><path d="M1101.2797,62.7996 C1168.2616,70.8429 1275.8281,86.4665 1366,112 C1389.1513,118.5556 1413.885,128.0003 1435.1236,136.9195 " fill="none" id=":android:app-&gt;:net:smack:android" style="stroke: #A80036; stroke-width: 1.0;"/><polygon fill="#A80036" points="1439.8803,138.9327,1433.1512,131.7411,1435.2757,136.9838,1430.033,139.1084,1439.8803,138.9327" style="stroke: #A80036; stroke-width: 1.0;"/><!--MD5=[a35988381a2e6516f16fc9d849ebccf6]
link :android:app to :android:room--><path d="M1000.9805,79.0004 C974.6412,95.8195 938.8901,118.6485 911.5487,136.1075 " fill="none" id=":android:app-&gt;:android:room" style="stroke: #A80036; stroke-width: 1.0;"/><polygon fill="#A80036" points="907.2355,138.8617,916.9737,137.3892,911.4496,136.1707,912.6681,130.6467,907.2355,138.8617" style="stroke: #A80036; stroke-width: 1.0;"/><!--MD5=[e9fec9df6cff927a3d769895582165d1]
link :android:app to :android:sys--><path d="M972.758,63.7575 C889.7725,73.9498 740.8987,92.816 614,112 C536.1983,123.7617 447.1566,139.1802 387.6405,149.7684 " fill="none" id=":android:app-&gt;:android:sys" style="stroke: #A80036; stroke-width: 1.0;"/><polygon fill="#A80036" points="382.692,150.6498,392.254,153.0095,387.6145,149.773,390.851,145.1335,382.692,150.6498" style="stroke: #A80036; stroke-width: 1.0;"/><!--MD5=[ac117d8559748edfbe600e9405f9bdee]
link :android:app to :android:log--><path d="M1037,79.0004 C1037,95.003 1037,116.4461 1037,133.528 " fill="none" id=":android:app-&gt;:android:log" style="stroke: #A80036; stroke-width: 1.0;"/><polygon fill="#A80036" points="1037,138.6784,1041,129.6784,1037,133.6784,1033,129.6784,1037,138.6784" style="stroke: #A80036; stroke-width: 1.0;"/><!--MD5=[32c4354e0221cd2acf28738e9c0350e1]
link :android:app to :android:error--><path d="M1072.5856,79.0004 C1098.6075,95.8195 1133.9279,118.6485 1160.9399,136.1075 " fill="none" id=":android:app-&gt;:android:error" style="stroke: #A80036; stroke-width: 1.0;"/><polygon fill="#A80036" points="1165.2011,138.8617,1159.8139,130.6168,1161.0019,136.1475,1155.4712,137.3355,1165.2011,138.8617" style="stroke: #A80036; stroke-width: 1.0;"/><!--MD5=[de56f305491d2fe9d536387097efe455]
link :android:app to :android:main--><path d="M972.7488,64.6811 C920.8463,73.0082 846.5684,87.9321 785,112 C768.8192,118.3253 752.0759,127.3998 737.7105,136.0864 " fill="none" id=":android:app-&gt;:android:main" style="stroke: #A80036; stroke-width: 1.0;"/><polygon fill="#A80036" points="733.3319,138.7663,743.0964,137.4798,737.5966,136.1562,738.9202,130.6564,733.3319,138.7663" style="stroke: #A80036; stroke-width: 1.0;"/><!--MD5=[ed3398f6b28deaab468abf528b8d830d]
@startuml
package ":core" {
[:core:backend]
[:core:domain]
[:core:api]
[:core:cli]
}
package ":net" {
[:net:smack:android]
}
package ":android" {
[:android:room]
[:android:sys]
[:android:log]
[:android:error]
[:android:main]
[:android:indicator]
[:android:core]
[:android:notification]
[:android:resources]
[:android:debug]
[:android:intent]
[:android:account]
[:android:roster]
[:android:chat]
[:android:drawer]
[:android:widget]
[:android:app]
}
package ":engine" {
[:engine:paging]
[:engine:connectable]
[:engine:util]
[:engine:log]
[:engine:translator]
}
[:core:backend] - -> [:core:domain]
[:net:smack:android] - -> [:core:api]
[:android:room] - -> [:core:api]
[:android:sys] - -> [:android:indicator]
[:android:log] - -> [:engine:log]
[:android:error] - -> [:engine:log]
[:android:main] - -> [:android:debug]
[:android:main] - -> [:android:intent]
[:android:main] - -> [:android:account]
[:android:main] - -> [:android:roster]
[:android:main] - -> [:android:chat]
[:android:main] - -> [:android:drawer]
[:android:main] - -> [:core:domain]
[:core:domain] - -> [:engine:paging]
[:core:domain] - -> [:core:api]
[:core:api] - -> [:engine:connectable]
[:engine:connectable] - -> [:engine:util]
[:engine:connectable] - -> [:engine:log]
[:android:indicator] - -> [:android:core]
[:android:indicator] - -> [:android:notification]
[:android:core] - -> [:core:api]
[:android:core] - -> [:android:resources]
[:android:debug] - -> [:core:api]
[:android:debug] - -> [:core:cli]
[:android:debug] - -> [:android:core]
[:android:debug] - -> [:android:widget]
[:android:intent] - -> [:core:api]
[:android:account] - -> [:android:core]
[:android:roster] - -> [:android:core]
[:android:chat] - -> [:android:core]
[:android:chat] - -> [:android:notification]
[:android:chat] - -> [:android:widget]
[:android:chat] - -> [:core:cli]
[:android:drawer] - -> [:android:core]
[:core:cli] - -> [:engine:translator]
[:core:cli] - -> [:core:api]
[:android:widget] - -> [:android:resources]
[:android:app] - -> [:core:backend]
[:android:app] - -> [:net:smack:android]
[:android:app] - -> [:android:room]
[:android:app] - -> [:android:sys]
[:android:app] - -> [:android:log]
[:android:app] - -> [:android:error]
[:android:app] - -> [:android:main]
@enduml

PlantUML version 1.2020.15(Sun Jun 28 13:39:45 CEST 2020)
(GPL source distribution)
Java Runtime: OpenJDK Runtime Environment
JVM: OpenJDK 64-Bit Server VM
Default Encoding: UTF-8
Language: pl
Country: PL
--></g></svg>
