<?xml version="1.0" encoding="UTF-8" standalone="no"?><svg xmlns="http://www.w3.org/2000/svg" xmlns:xlink="http://www.w3.org/1999/xlink" contentScriptType="application/ecmascript" contentStyleType="text/css" height="788.75px" preserveAspectRatio="none" style="width:2695px;height:788px;" version="1.1" viewBox="0 0 2695 788" width="2695px" zoomAndPan="magnify"><defs><filter height="300%" id="f12lpb6hynnlgr" width="300%" x="-1" y="-1"><feGaussianBlur result="blurOut" stdDeviation="2.5"/><feColorMatrix in="blurOut" result="blurOut2" type="matrix" values="0 0 0 0 0 0 0 0 0 0 0 0 0 0 0 0 0 0 .4 0"/><feOffset dx="5.0" dy="5.0" in="blurOut2" result="blurOut3"/><feBlend in="SourceGraphic" in2="blurOut3" mode="normal"/></filter></defs><g><!--MD5=[6b3c72c52f198a8ada63b8c5ce9355bc]
entity :core:backend--><rect fill="#FEFECE" filter="url(#f12lpb6hynnlgr)" height="45.3711" style="stroke: #A80036; stroke-width: 1.875;" width="151.25" x="717.5" y="130"/><rect fill="#FEFECE" height="6.25" style="stroke: #A80036; stroke-width: 1.875;" width="12.5" x="711.25" y="136.25"/><rect fill="#FEFECE" height="6.25" style="stroke: #A80036; stroke-width: 1.875;" width="12.5" x="711.25" y="162.8711"/><text fill="#000000" font-family="sans-serif" font-size="17.5" lengthAdjust="spacingAndGlyphs" textLength="126.25" x="730" y="158.7439">:core:backend</text><!--MD5=[47118d7c73781d94ead6ef2b9730d049]
entity :core:domain:app--><rect fill="#FEFECE" filter="url(#f12lpb6hynnlgr)" height="45.3711" style="stroke: #A80036; stroke-width: 1.875;" width="178.75" x="1198.75" y="250"/><rect fill="#FEFECE" height="6.25" style="stroke: #A80036; stroke-width: 1.875;" width="12.5" x="1192.5" y="256.25"/><rect fill="#FEFECE" height="6.25" style="stroke: #A80036; stroke-width: 1.875;" width="12.5" x="1192.5" y="282.8711"/><text fill="#000000" font-family="sans-serif" font-size="17.5" lengthAdjust="spacingAndGlyphs" textLength="153.75" x="1211.25" y="278.7439">:core:domain:app</text><!--MD5=[3ac9b0df53493c09c125e37014f215ac]
entity :core:domain:session--><rect fill="#FEFECE" filter="url(#f12lpb6hynnlgr)" height="45.3711" style="stroke: #A80036; stroke-width: 1.875;" width="213.75" x="695" y="370"/><rect fill="#FEFECE" height="6.25" style="stroke: #A80036; stroke-width: 1.875;" width="12.5" x="688.75" y="376.25"/><rect fill="#FEFECE" height="6.25" style="stroke: #A80036; stroke-width: 1.875;" width="12.5" x="688.75" y="402.8711"/><text fill="#000000" font-family="sans-serif" font-size="17.5" lengthAdjust="spacingAndGlyphs" textLength="188.75" x="707.5" y="398.7439">:core:domain:session</text><!--MD5=[0084757e5fcb0194df9d04c73ec20e60]
entity :core:domain:account--><rect fill="#FEFECE" filter="url(#f12lpb6hynnlgr)" height="45.3711" style="stroke: #A80036; stroke-width: 1.875;" width="216.25" x="235" y="370"/><rect fill="#FEFECE" height="6.25" style="stroke: #A80036; stroke-width: 1.875;" width="12.5" x="228.75" y="376.25"/><rect fill="#FEFECE" height="6.25" style="stroke: #A80036; stroke-width: 1.875;" width="12.5" x="228.75" y="402.8711"/><text fill="#000000" font-family="sans-serif" font-size="17.5" lengthAdjust="spacingAndGlyphs" textLength="191.25" x="247.5" y="398.7439">:core:domain:account</text><!--MD5=[4f709ee184beb988ab56d37afe26e48e]
entity :core:domain:chat--><rect fill="#FEFECE" filter="url(#f12lpb6hynnlgr)" height="45.3711" style="stroke: #A80036; stroke-width: 1.875;" width="183.75" x="411.25" y="250"/><rect fill="#FEFECE" height="6.25" style="stroke: #A80036; stroke-width: 1.875;" width="12.5" x="405" y="256.25"/><rect fill="#FEFECE" height="6.25" style="stroke: #A80036; stroke-width: 1.875;" width="12.5" x="405" y="282.8711"/><text fill="#000000" font-family="sans-serif" font-size="17.5" lengthAdjust="spacingAndGlyphs" textLength="158.75" x="423.75" y="278.7439">:core:domain:chat</text><!--MD5=[c3c152bb6cdd6182c77d4c39152577c5]
entity :core:domain:roster--><rect fill="#FEFECE" filter="url(#f12lpb6hynnlgr)" height="45.3711" style="stroke: #A80036; stroke-width: 1.875;" width="197.5" x="639.375" y="250"/><rect fill="#FEFECE" height="6.25" style="stroke: #A80036; stroke-width: 1.875;" width="12.5" x="633.125" y="256.25"/><rect fill="#FEFECE" height="6.25" style="stroke: #A80036; stroke-width: 1.875;" width="12.5" x="633.125" y="282.8711"/><text fill="#000000" font-family="sans-serif" font-size="17.5" lengthAdjust="spacingAndGlyphs" textLength="172.5" x="651.875" y="278.7439">:core:domain:roster</text><!--MD5=[6074b5c11df63f0ef6be21f813bbd183]
entity :net:smack:android--><rect fill="#FEFECE" filter="url(#f12lpb6hynnlgr)" height="45.3711" style="stroke: #A80036; stroke-width: 1.875;" width="193.75" x="952.5" y="370"/><rect fill="#FEFECE" height="6.25" style="stroke: #A80036; stroke-width: 1.875;" width="12.5" x="946.25" y="376.25"/><rect fill="#FEFECE" height="6.25" style="stroke: #A80036; stroke-width: 1.875;" width="12.5" x="946.25" y="402.8711"/><text fill="#000000" font-family="sans-serif" font-size="17.5" lengthAdjust="spacingAndGlyphs" textLength="168.75" x="965" y="398.7439">:net:smack:android</text><!--MD5=[bb042d61f43125fc2fe6ee382cb3d84b]
entity :core:api--><rect fill="#FEFECE" filter="url(#f12lpb6hynnlgr)" height="45.3711" style="stroke: #A80036; stroke-width: 1.875;" width="101.25" x="1080" y="490"/><rect fill="#FEFECE" height="6.25" style="stroke: #A80036; stroke-width: 1.875;" width="12.5" x="1073.75" y="496.25"/><rect fill="#FEFECE" height="6.25" style="stroke: #A80036; stroke-width: 1.875;" width="12.5" x="1073.75" y="522.8711"/><text fill="#000000" font-family="sans-serif" font-size="17.5" lengthAdjust="spacingAndGlyphs" textLength="76.25" x="1092.5" y="518.7439">:core:api</text><!--MD5=[e71e3f46b787e063366eac1cfd3b55c3]
entity :android:room--><rect fill="#FEFECE" filter="url(#f12lpb6hynnlgr)" height="45.3711" style="stroke: #A80036; stroke-width: 1.875;" width="147.5" x="1058.125" y="130"/><rect fill="#FEFECE" height="6.25" style="stroke: #A80036; stroke-width: 1.875;" width="12.5" x="1051.875" y="136.25"/><rect fill="#FEFECE" height="6.25" style="stroke: #A80036; stroke-width: 1.875;" width="12.5" x="1051.875" y="162.8711"/><text fill="#000000" font-family="sans-serif" font-size="17.5" lengthAdjust="spacingAndGlyphs" textLength="122.5" x="1070.625" y="158.7439">:android:room</text><!--MD5=[824b5ec8eead23404211dbafddd0ef71]
entity :android:sys--><rect fill="#FEFECE" filter="url(#f12lpb6hynnlgr)" height="45.3711" style="stroke: #A80036; stroke-width: 1.875;" width="131.25" x="1932.5" y="130"/><rect fill="#FEFECE" height="6.25" style="stroke: #A80036; stroke-width: 1.875;" width="12.5" x="1926.25" y="136.25"/><rect fill="#FEFECE" height="6.25" style="stroke: #A80036; stroke-width: 1.875;" width="12.5" x="1926.25" y="162.8711"/><text fill="#000000" font-family="sans-serif" font-size="17.5" lengthAdjust="spacingAndGlyphs" textLength="106.25" x="1945" y="158.7439">:android:sys</text><!--MD5=[b759699551f165de218e2e968fab95b2]
entity :android:indicator--><rect fill="#FEFECE" filter="url(#f12lpb6hynnlgr)" height="45.3711" style="stroke: #A80036; stroke-width: 1.875;" width="176.25" x="2130" y="250"/><rect fill="#FEFECE" height="6.25" style="stroke: #A80036; stroke-width: 1.875;" width="12.5" x="2123.75" y="256.25"/><rect fill="#FEFECE" height="6.25" style="stroke: #A80036; stroke-width: 1.875;" width="12.5" x="2123.75" y="282.8711"/><text fill="#000000" font-family="sans-serif" font-size="17.5" lengthAdjust="spacingAndGlyphs" textLength="151.25" x="2142.5" y="278.7439">:android:indicator</text><!--MD5=[9f0305d4f7a8645f2834b13a0602f0df]
entity :android:log--><rect fill="#FEFECE" filter="url(#f12lpb6hynnlgr)" height="45.3711" style="stroke: #A80036; stroke-width: 1.875;" width="128.75" x="195" y="610"/><rect fill="#FEFECE" height="6.25" style="stroke: #A80036; stroke-width: 1.875;" width="12.5" x="188.75" y="616.25"/><rect fill="#FEFECE" height="6.25" style="stroke: #A80036; stroke-width: 1.875;" width="12.5" x="188.75" y="642.8711"/><text fill="#000000" font-family="sans-serif" font-size="17.5" lengthAdjust="spacingAndGlyphs" textLength="103.75" x="207.5" y="638.7439">:android:log</text><!--MD5=[f7af38a47341a5d6bbb7054022a18e1f]
entity :engine:log--><rect fill="#FEFECE" filter="url(#f12lpb6hynnlgr)" height="45.3711" style="stroke: #A80036; stroke-width: 1.875;" width="123.75" x="197.5" y="730"/><rect fill="#FEFECE" height="6.25" style="stroke: #A80036; stroke-width: 1.875;" width="12.5" x="191.25" y="736.25"/><rect fill="#FEFECE" height="6.25" style="stroke: #A80036; stroke-width: 1.875;" width="12.5" x="191.25" y="762.8711"/><text fill="#000000" font-family="sans-serif" font-size="17.5" lengthAdjust="spacingAndGlyphs" textLength="98.75" x="210" y="758.7439">:engine:log</text><!--MD5=[37b953e512ae70b44a23cc4bd83136e2]
entity :android:error--><rect fill="#FEFECE" filter="url(#f12lpb6hynnlgr)" height="45.3711" style="stroke: #A80036; stroke-width: 1.875;" width="143.75" x="7.5" y="610"/><rect fill="#FEFECE" height="6.25" style="stroke: #A80036; stroke-width: 1.875;" width="12.5" x="1.25" y="616.25"/><rect fill="#FEFECE" height="6.25" style="stroke: #A80036; stroke-width: 1.875;" width="12.5" x="1.25" y="642.8711"/><text fill="#000000" font-family="sans-serif" font-size="17.5" lengthAdjust="spacingAndGlyphs" textLength="118.75" x="20" y="638.7439">:android:error</text><!--MD5=[8b23712cbce6b2745bbd08e1acd8155e]
entity :android:main--><rect fill="#FEFECE" filter="url(#f12lpb6hynnlgr)" height="45.3711" style="stroke: #A80036; stroke-width: 1.875;" width="143.75" x="1525" y="130"/><rect fill="#FEFECE" height="6.25" style="stroke: #A80036; stroke-width: 1.875;" width="12.5" x="1518.75" y="136.25"/><rect fill="#FEFECE" height="6.25" style="stroke: #A80036; stroke-width: 1.875;" width="12.5" x="1518.75" y="162.8711"/><text fill="#000000" font-family="sans-serif" font-size="17.5" lengthAdjust="spacingAndGlyphs" textLength="118.75" x="1537.5" y="158.7439">:android:main</text><!--MD5=[7b0e00ffb091306e7adce213ff533c85]
entity :android:intent--><rect fill="#FEFECE" filter="url(#f12lpb6hynnlgr)" height="45.3711" style="stroke: #A80036; stroke-width: 1.875;" width="152.5" x="1368.125" y="370"/><rect fill="#FEFECE" height="6.25" style="stroke: #A80036; stroke-width: 1.875;" width="12.5" x="1361.875" y="376.25"/><rect fill="#FEFECE" height="6.25" style="stroke: #A80036; stroke-width: 1.875;" width="12.5" x="1361.875" y="402.8711"/><text fill="#000000" font-family="sans-serif" font-size="17.5" lengthAdjust="spacingAndGlyphs" textLength="127.5" x="1380.625" y="398.7439">:android:intent</text><!--MD5=[537263759804c0f37bfe27ff6520266d]
entity :android:account--><rect fill="#FEFECE" filter="url(#f12lpb6hynnlgr)" height="45.3711" style="stroke: #A80036; stroke-width: 1.875;" width="172.5" x="1510.625" y="250"/><rect fill="#FEFECE" height="6.25" style="stroke: #A80036; stroke-width: 1.875;" width="12.5" x="1504.375" y="256.25"/><rect fill="#FEFECE" height="6.25" style="stroke: #A80036; stroke-width: 1.875;" width="12.5" x="1504.375" y="282.8711"/><text fill="#000000" font-family="sans-serif" font-size="17.5" lengthAdjust="spacingAndGlyphs" textLength="147.5" x="1523.125" y="278.7439">:android:account</text><!--MD5=[a40cbfa6716f14d6e2acc0c2f4f85b3d]
entity :android:roster--><rect fill="#FEFECE" filter="url(#f12lpb6hynnlgr)" height="45.3711" style="stroke: #A80036; stroke-width: 1.875;" width="153.75" x="1727.5" y="250"/><rect fill="#FEFECE" height="6.25" style="stroke: #A80036; stroke-width: 1.875;" width="12.5" x="1721.25" y="256.25"/><rect fill="#FEFECE" height="6.25" style="stroke: #A80036; stroke-width: 1.875;" width="12.5" x="1721.25" y="282.8711"/><text fill="#000000" font-family="sans-serif" font-size="17.5" lengthAdjust="spacingAndGlyphs" textLength="128.75" x="1740" y="278.7439">:android:roster</text><!--MD5=[1abf9466b7c9941f0b2d230b4b5f13c9]
entity :android:chat--><rect fill="#FEFECE" filter="url(#f12lpb6hynnlgr)" height="45.3711" style="stroke: #A80036; stroke-width: 1.875;" width="140" x="2350.625" y="250"/><rect fill="#FEFECE" height="6.25" style="stroke: #A80036; stroke-width: 1.875;" width="12.5" x="2344.375" y="256.25"/><rect fill="#FEFECE" height="6.25" style="stroke: #A80036; stroke-width: 1.875;" width="12.5" x="2344.375" y="282.8711"/><text fill="#000000" font-family="sans-serif" font-size="17.5" lengthAdjust="spacingAndGlyphs" textLength="115" x="2363.125" y="278.7439">:android:chat</text><!--MD5=[ff52f1825a9f6fbfff2d66c588103d9f]
entity :android:drawer--><rect fill="#FEFECE" filter="url(#f12lpb6hynnlgr)" height="45.3711" style="stroke: #A80036; stroke-width: 1.875;" width="161.25" x="1925" y="250"/><rect fill="#FEFECE" height="6.25" style="stroke: #A80036; stroke-width: 1.875;" width="12.5" x="1918.75" y="256.25"/><rect fill="#FEFECE" height="6.25" style="stroke: #A80036; stroke-width: 1.875;" width="12.5" x="1918.75" y="282.8711"/><text fill="#000000" font-family="sans-serif" font-size="17.5" lengthAdjust="spacingAndGlyphs" textLength="136.25" x="1937.5" y="278.7439">:android:drawer</text><!--MD5=[8725e2f32c833bede44e6c458fce3254]
entity :engine:paging--><rect fill="#FEFECE" filter="url(#f12lpb6hynnlgr)" height="45.3711" style="stroke: #A80036; stroke-width: 1.875;" width="156.25" x="495" y="370"/><rect fill="#FEFECE" height="6.25" style="stroke: #A80036; stroke-width: 1.875;" width="12.5" x="488.75" y="376.25"/><rect fill="#FEFECE" height="6.25" style="stroke: #A80036; stroke-width: 1.875;" width="12.5" x="488.75" y="402.8711"/><text fill="#000000" font-family="sans-serif" font-size="17.5" lengthAdjust="spacingAndGlyphs" textLength="131.25" x="507.5" y="398.7439">:engine:paging</text><!--MD5=[474bc7754ff50e9887f34633b92b9e02]
entity :engine:connectable--><rect fill="#FEFECE" filter="url(#f12lpb6hynnlgr)" height="45.3711" style="stroke: #A80036; stroke-width: 1.875;" width="205" x="656.875" y="610"/><rect fill="#FEFECE" height="6.25" style="stroke: #A80036; stroke-width: 1.875;" width="12.5" x="650.625" y="616.25"/><rect fill="#FEFECE" height="6.25" style="stroke: #A80036; stroke-width: 1.875;" width="12.5" x="650.625" y="642.8711"/><text fill="#000000" font-family="sans-serif" font-size="17.5" lengthAdjust="spacingAndGlyphs" textLength="180" x="669.375" y="638.7439">:engine:connectable</text><!--MD5=[8e94acc19a10f03efd288fb36eb4472b]
entity :engine:util--><rect fill="#FEFECE" filter="url(#f12lpb6hynnlgr)" height="45.3711" style="stroke: #A80036; stroke-width: 1.875;" width="122.5" x="698.125" y="730"/><rect fill="#FEFECE" height="6.25" style="stroke: #A80036; stroke-width: 1.875;" width="12.5" x="691.875" y="736.25"/><rect fill="#FEFECE" height="6.25" style="stroke: #A80036; stroke-width: 1.875;" width="12.5" x="691.875" y="762.8711"/><text fill="#000000" font-family="sans-serif" font-size="17.5" lengthAdjust="spacingAndGlyphs" textLength="97.5" x="710.625" y="758.7439">:engine:util</text><!--MD5=[4243627ae140629495d6edbad54f8b36]
entity :android:core--><rect fill="#FEFECE" filter="url(#f12lpb6hynnlgr)" height="45.3711" style="stroke: #A80036; stroke-width: 1.875;" width="141.25" x="1823.75" y="370"/><rect fill="#FEFECE" height="6.25" style="stroke: #A80036; stroke-width: 1.875;" width="12.5" x="1817.5" y="376.25"/><rect fill="#FEFECE" height="6.25" style="stroke: #A80036; stroke-width: 1.875;" width="12.5" x="1817.5" y="402.8711"/><text fill="#000000" font-family="sans-serif" font-size="17.5" lengthAdjust="spacingAndGlyphs" textLength="116.25" x="1836.25" y="398.7439">:android:core</text><!--MD5=[f10ce6782b0e7f5580bd12ce8877f965]
entity :android:notification--><rect fill="#FEFECE" filter="url(#f12lpb6hynnlgr)" height="45.3711" style="stroke: #A80036; stroke-width: 1.875;" width="196.25" x="2100" y="370"/><rect fill="#FEFECE" height="6.25" style="stroke: #A80036; stroke-width: 1.875;" width="12.5" x="2093.75" y="376.25"/><rect fill="#FEFECE" height="6.25" style="stroke: #A80036; stroke-width: 1.875;" width="12.5" x="2093.75" y="402.8711"/><text fill="#000000" font-family="sans-serif" font-size="17.5" lengthAdjust="spacingAndGlyphs" textLength="171.25" x="2112.5" y="398.7439">:android:notification</text><!--MD5=[81a55ae8ee37e126e15aacb863ec98ad]
entity :android:debug--><rect fill="#FEFECE" filter="url(#f12lpb6hynnlgr)" height="45.3711" style="stroke: #A80036; stroke-width: 1.875;" width="158.75" x="1815" y="490"/><rect fill="#FEFECE" height="6.25" style="stroke: #A80036; stroke-width: 1.875;" width="12.5" x="1808.75" y="496.25"/><rect fill="#FEFECE" height="6.25" style="stroke: #A80036; stroke-width: 1.875;" width="12.5" x="1808.75" y="522.8711"/><text fill="#000000" font-family="sans-serif" font-size="17.5" lengthAdjust="spacingAndGlyphs" textLength="133.75" x="1827.5" y="518.7439">:android:debug</text><!--MD5=[ccc75cd529beb82693de2a4497c4bb10]
entity :android:widget--><rect fill="#FEFECE" filter="url(#f12lpb6hynnlgr)" height="45.3711" style="stroke: #A80036; stroke-width: 1.875;" width="160" x="2340.625" y="370"/><rect fill="#FEFECE" height="6.25" style="stroke: #A80036; stroke-width: 1.875;" width="12.5" x="2334.375" y="376.25"/><rect fill="#FEFECE" height="6.25" style="stroke: #A80036; stroke-width: 1.875;" width="12.5" x="2334.375" y="402.8711"/><text fill="#000000" font-family="sans-serif" font-size="17.5" lengthAdjust="spacingAndGlyphs" textLength="135" x="2353.125" y="398.7439">:android:widget</text><!--MD5=[b4e25f7522ba1111eb2df4fe1b5db7c7]
entity :core:cli--><rect fill="#FEFECE" filter="url(#f12lpb6hynnlgr)" height="45.3711" style="stroke: #A80036; stroke-width: 1.875;" width="93.75" x="2545" y="370"/><rect fill="#FEFECE" height="6.25" style="stroke: #A80036; stroke-width: 1.875;" width="12.5" x="2538.75" y="376.25"/><rect fill="#FEFECE" height="6.25" style="stroke: #A80036; stroke-width: 1.875;" width="12.5" x="2538.75" y="402.8711"/><text fill="#000000" font-family="sans-serif" font-size="17.5" lengthAdjust="spacingAndGlyphs" textLength="68.75" x="2557.5" y="398.7439">:core:cli</text><!--MD5=[9cb9b296c1f7d1e8bceacf7e776ceb9f]
entity :engine:translator--><rect fill="#FEFECE" filter="url(#f12lpb6hynnlgr)" height="45.3711" style="stroke: #A80036; stroke-width: 1.875;" width="178.75" x="2502.5" y="490"/><rect fill="#FEFECE" height="6.25" style="stroke: #A80036; stroke-width: 1.875;" width="12.5" x="2496.25" y="496.25"/><rect fill="#FEFECE" height="6.25" style="stroke: #A80036; stroke-width: 1.875;" width="12.5" x="2496.25" y="522.8711"/><text fill="#000000" font-family="sans-serif" font-size="17.5" lengthAdjust="spacingAndGlyphs" textLength="153.75" x="2515" y="518.7439">:engine:translator</text><!--MD5=[b6d98d9177c5b22a205e5ab6c49b37ef]
entity :android:app--><rect fill="#FEFECE" filter="url(#f12lpb6hynnlgr)" height="45.3711" style="stroke: #A80036; stroke-width: 1.875;" width="135" x="924.375" y="10"/><rect fill="#FEFECE" height="6.25" style="stroke: #A80036; stroke-width: 1.875;" width="12.5" x="918.125" y="16.25"/><rect fill="#FEFECE" height="6.25" style="stroke: #A80036; stroke-width: 1.875;" width="12.5" x="918.125" y="42.8711"/><text fill="#000000" font-family="sans-serif" font-size="17.5" lengthAdjust="spacingAndGlyphs" textLength="110" x="936.875" y="38.7439">:android:app</text><!--MD5=[6084f87cb11c9c8e7b98e1b6385e3a51]
link :core:backend to :core:domain:app--><path d="M868.8436,170.856 C955.6345,191.8963 1098.0365,226.4179 1192.4339,249.3021 " fill="none" id=":core:backend-&gt;:core:domain:app" style="stroke: #A80036; stroke-width: 1.25;"/><polygon fill="#A80036" points="1198.5811,250.7924,1188.826,243.2824,1192.5071,249.3197,1186.4698,253.0008,1198.5811,250.7924" style="stroke: #A80036; stroke-width: 1.25;"/><!--MD5=[64d379cf4fc32ff0b351faeb9dde2472]
link :core:backend to :core:domain:session--><path d="M814.4431,175.2163 C830.2776,193.7451 850.5905,221.4416 859.375,250 C871.9274,290.8079 846.3136,336.2846 825.3472,364.6445 " fill="none" id=":core:backend-&gt;:core:domain:session" style="stroke: #A80036; stroke-width: 1.25;"/><polygon fill="#A80036" points="821.4968,369.7357,832.2708,363.779,825.2668,364.7509,824.295,357.7469,821.4968,369.7357" style="stroke: #A80036; stroke-width: 1.25;"/><!--MD5=[c6a5a6f4626caa42ca04d1aec387f400]
link :core:backend to :core:domain:account--><path d="M717.07,161.9346 C613.765,176.2075 436.5326,206.3356 389.375,250 C357.6594,279.3663 347.6306,330.6539 344.4974,363.0284 " fill="none" id=":core:backend-&gt;:core:domain:account" style="stroke: #A80036; stroke-width: 1.25;"/><polygon fill="#A80036" points="343.9283,369.635,349.8757,358.8558,344.4649,363.4081,339.9126,357.9973,343.9283,369.635" style="stroke: #A80036; stroke-width: 1.25;"/><!--MD5=[d7e8e2dc0a0071dfc163bed50f54849b]
link :core:backend to :core:domain:chat--><path d="M738.5783,175.0711 C688.8129,195.6636 615.3794,226.0499 563.7848,247.3994 " fill="none" id=":core:backend-&gt;:core:domain:chat" style="stroke: #A80036; stroke-width: 1.25;"/><polygon fill="#A80036" points="557.9194,249.8265,570.2263,250.145,563.6944,247.4367,566.4027,240.9048,557.9194,249.8265" style="stroke: #A80036; stroke-width: 1.25;"/><!--MD5=[704cc349d7da7a8c75399283440f8ee2]
link :core:backend to :core:domain:roster--><path d="M782.7799,175.0711 C773.8487,194.5574 760.8981,222.8133 751.241,243.8831 " fill="none" id=":core:backend-&gt;:core:domain:roster" style="stroke: #A80036; stroke-width: 1.25;"/><polygon fill="#A80036" points="748.6108,249.6221,757.8435,241.4785,751.2149,243.9405,748.7529,237.3119,748.6108,249.6221" style="stroke: #A80036; stroke-width: 1.25;"/><!--MD5=[0a09f885cf7bf6af5f5d05ae3e988d1e]
link :net:smack:android to :core:api--><path d="M1064.6575,415.0711 C1077.9641,434.7239 1097.3104,463.2969 1111.6138,484.4219 " fill="none" id=":net:smack:android-&gt;:core:api" style="stroke: #A80036; stroke-width: 1.25;"/><polygon fill="#A80036" points="1115.1348,489.6221,1112.9677,477.5033,1111.6307,484.4468,1104.6872,483.1098,1115.1348,489.6221" style="stroke: #A80036; stroke-width: 1.25;"/><!--MD5=[07f4dd57ae6d7d38c578a637e51bb3a8]
link :android:room to :core:api--><path d="M1139.8584,175.0859 C1154.897,220.6593 1184.5024,326.797 1168.125,415 C1163.6244,439.2392 1153.3296,465.2279 1144.6633,484.2735 " fill="none" id=":android:room-&gt;:core:api" style="stroke: #A80036; stroke-width: 1.25;"/><polygon fill="#A80036" points="1142.0343,489.9516,1151.2984,481.8437,1144.6603,484.2801,1142.2239,477.642,1142.0343,489.9516" style="stroke: #A80036; stroke-width: 1.25;"/><!--MD5=[43b2687f309875f3345c641c0049e239]
link :android:sys to :android:indicator--><path d="M2039.5054,175.0711 C2076.8755,195.4548 2131.8384,225.4345 2170.9113,246.747 " fill="none" id=":android:sys-&gt;:android:indicator" style="stroke: #A80036; stroke-width: 1.25;"/><polygon fill="#A80036" points="2176.5569,249.8265,2169.0748,240.05,2171.07,246.8337,2164.2863,248.8289,2176.5569,249.8265" style="stroke: #A80036; stroke-width: 1.25;"/><!--MD5=[c4882aab63b29c15f029a73a0bc261e2]
link :android:log to :engine:log--><path d="M259.375,655.0711 C259.375,674.3908 259.375,702.3309 259.375,723.3414 " fill="none" id=":android:log-&gt;:engine:log" style="stroke: #A80036; stroke-width: 1.25;"/><polygon fill="#A80036" points="259.375,729.6221,264.375,718.3721,259.375,723.3721,254.375,718.3721,259.375,729.6221" style="stroke: #A80036; stroke-width: 1.25;"/><!--MD5=[45517b2139f254912330f96b0a200dca]
link :android:error to :engine:log--><path d="M113.2316,655.0711 C143.4604,675.2235 187.7583,704.7555 219.6525,726.0184 " fill="none" id=":android:error-&gt;:engine:log" style="stroke: #A80036; stroke-width: 1.25;"/><polygon fill="#A80036" points="225.0583,729.6221,218.4713,719.2214,219.858,726.1552,212.9242,727.5419,225.0583,729.6221" style="stroke: #A80036; stroke-width: 1.25;"/><!--MD5=[40bb589868918ba3fd0f378e218e8999]
link :android:main to :android:intent--><path d="M1563.3944,175.3641 C1539.6461,193.1743 1508.6825,219.8784 1489.375,250 C1466.6321,285.4813 1454.6328,333.3116 1448.8999,363.5321 " fill="none" id=":android:main-&gt;:android:intent" style="stroke: #A80036; stroke-width: 1.25;"/><polygon fill="#A80036" points="1447.77,369.7028,1454.7145,359.5373,1448.8957,363.555,1444.8781,357.7362,1447.77,369.7028" style="stroke: #A80036; stroke-width: 1.25;"/><!--MD5=[3c34b3746a69b84c5d3b588540e90496]
link :android:main to :android:account--><path d="M1596.875,175.0711 C1596.875,194.3908 1596.875,222.3309 1596.875,243.3414 " fill="none" id=":android:main-&gt;:android:account" style="stroke: #A80036; stroke-width: 1.25;"/><polygon fill="#A80036" points="1596.875,249.6221,1601.875,238.3721,1596.875,243.3721,1591.875,238.3721,1596.875,249.6221" style="stroke: #A80036; stroke-width: 1.25;"/><!--MD5=[1debbca0f57afdab46daa5823379ab8a]
link :android:main to :android:roster--><path d="M1635.9041,175.0711 C1671.0066,195.3713 1722.5664,225.189 1759.39,246.4846 " fill="none" id=":android:main-&gt;:android:roster" style="stroke: #A80036; stroke-width: 1.25;"/><polygon fill="#A80036" points="1765.1686,249.8265,1757.9331,239.8661,1759.7582,246.6976,1752.9268,248.5227,1765.1686,249.8265" style="stroke: #A80036; stroke-width: 1.25;"/><!--MD5=[2457458197666786eab65f67e2b0c236]
link :android:main to :android:chat--><path d="M1668.8963,159.5406 C1800.4904,172.9725 2088.3284,204.9804 2328.125,250 C2333.3788,250.9864 2338.7815,252.0826 2344.2118,253.2453 " fill="none" id=":android:main-&gt;:android:chat" style="stroke: #A80036; stroke-width: 1.25;"/><polygon fill="#A80036" points="2350.5916,254.638,2340.6669,247.3536,2344.4854,253.305,2338.5341,257.1235,2350.5916,254.638" style="stroke: #A80036; stroke-width: 1.25;"/><!--MD5=[6898d34d0d822ea23a237867119598dc]
link :android:main to :android:drawer--><path d="M1669.0104,173.6774 C1739.8991,194.4888 1847.986,226.2206 1922.4566,248.0836 " fill="none" id=":android:main-&gt;:android:drawer" style="stroke: #A80036; stroke-width: 1.25;"/><polygon fill="#A80036" points="1928.656,249.9036,1919.27,241.9371,1922.6591,248.1431,1916.4531,251.5322,1928.656,249.9036" style="stroke: #A80036; stroke-width: 1.25;"/><!--MD5=[81be17caab1f50a1452d24f3f9fc473c]
link :android:main to :core:domain:app--><path d="M1538.8015,175.0711 C1485.711,195.7054 1407.32,226.1733 1352.3728,247.5293 " fill="none" id=":android:main-&gt;:core:domain:app" style="stroke: #A80036; stroke-width: 1.25;"/><polygon fill="#A80036" points="1346.4621,249.8265,1358.7593,250.4112,1352.2876,247.5623,1355.1365,241.0905,1346.4621,249.8265" style="stroke: #A80036; stroke-width: 1.25;"/><!--MD5=[cec0b78861792eaab7fa2279ffc7a7e2]
link :core:domain:app to :core:api--><path d="M1285.3993,295.4201 C1280.9984,325.077 1270.1939,377.3938 1245.625,415 C1226.8584,443.725 1197.1579,468.5969 1172.6415,486.0301 " fill="none" id=":core:domain:app-&gt;:core:api" style="stroke: #A80036; stroke-width: 1.25;"/><polygon fill="#A80036" points="1167.175,489.8563,1179.2588,487.5015,1172.2954,486.2723,1173.5245,479.3089,1167.175,489.8563" style="stroke: #A80036; stroke-width: 1.25;"/><!--MD5=[c67c764a5326e4d24cf2e4300865ef19]
link :core:domain:session to :core:api--><path d="M863.7104,415.0711 C924.1306,437.1256 1015.3261,470.4138 1073.924,491.8031 " fill="none" id=":core:domain:session-&gt;:core:api" style="stroke: #A80036; stroke-width: 1.25;"/><polygon fill="#A80036" points="1079.8435,493.9638,1070.9902,485.4091,1073.9725,491.8205,1067.5611,494.8028,1079.8435,493.9638" style="stroke: #A80036; stroke-width: 1.25;"/><!--MD5=[2c707074e348eff90fbc0f3bb90cfb10]
link :core:domain:account to :core:api--><path d="M451.2691,411.4214 C458.6624,412.652 466.0012,413.8555 473.125,415 C694.813,450.6161 959.3322,488.4153 1073.5133,504.5046 " fill="none" id=":core:domain:account-&gt;:core:api" style="stroke: #A80036; stroke-width: 1.25;"/><polygon fill="#A80036" points="1079.8268,505.3938,1069.384,498.8737,1073.6378,504.5221,1067.9894,508.776,1079.8268,505.3938" style="stroke: #A80036; stroke-width: 1.25;"/><!--MD5=[01174190b578bab423e164a6f26b4f28]
link :core:domain:chat to :engine:paging--><path d="M516.2915,295.0711 C527.6585,314.5574 544.141,342.8133 556.4319,363.8831 " fill="none" id=":core:domain:chat-&gt;:engine:paging" style="stroke: #A80036; stroke-width: 1.25;"/><polygon fill="#A80036" points="559.7796,369.6221,558.4299,357.3853,556.6304,364.2235,549.7922,362.424,559.7796,369.6221" style="stroke: #A80036; stroke-width: 1.25;"/><!--MD5=[ff59cb87d49bbcbfa2818e0d8d187e1a]
link :core:domain:roster to :engine:paging--><path d="M707.0898,295.0711 C679.4946,315.1403 639.109,344.5116 609.9003,365.7544 " fill="none" id=":core:domain:roster-&gt;:engine:paging" style="stroke: #A80036; stroke-width: 1.25;"/><polygon fill="#A80036" points="604.5821,369.6221,616.6212,367.0486,609.6367,365.946,610.7393,358.9614,604.5821,369.6221" style="stroke: #A80036; stroke-width: 1.25;"/><!--MD5=[eaf14edc6043f7290cbfd1583ac6425c]
link :core:api to :engine:connectable--><path d="M1079.7827,528.9339 C1016.6208,549.3499 908.287,584.3669 835.2779,607.9658 " fill="none" id=":core:api-&gt;:engine:connectable" style="stroke: #A80036; stroke-width: 1.25;"/><polygon fill="#A80036" points="829.206,609.9284,841.4485,611.2259,835.153,608.0061,838.3728,601.7106,829.206,609.9284" style="stroke: #A80036; stroke-width: 1.25;"/><!--MD5=[bca29f017d1f9d57df28eb8d83e96ded]
link :engine:connectable to :engine:util--><path d="M759.375,655.0711 C759.375,674.3908 759.375,702.3309 759.375,723.3414 " fill="none" id=":engine:connectable-&gt;:engine:util" style="stroke: #A80036; stroke-width: 1.25;"/><polygon fill="#A80036" points="759.375,729.6221,764.375,718.3721,759.375,723.3721,754.375,718.3721,759.375,729.6221" style="stroke: #A80036; stroke-width: 1.25;"/><!--MD5=[6eb7bccd1a3c6d4cd083766ccbfc4317]
link :engine:connectable to :engine:log--><path d="M665.3289,655.0711 C566.9816,678.6744 415.0229,715.1445 327.603,736.1253 " fill="none" id=":engine:connectable-&gt;:engine:log" style="stroke: #A80036; stroke-width: 1.25;"/><polygon fill="#A80036" points="321.4219,737.6088,333.5282,739.8449,327.4993,736.15,331.1941,730.1211,321.4219,737.6088" style="stroke: #A80036; stroke-width: 1.25;"/><!--MD5=[4d49540be5924e42624c178561476132]
link :engine:paging to :core:api--><path d="M651.7135,410.2708 C658.9501,411.8805 666.1718,413.4769 673.125,415 C816.932,446.5009 986.4779,482.2784 1073.2019,500.4804 " fill="none" id=":engine:paging-&gt;:core:api" style="stroke: #A80036; stroke-width: 1.25;"/><polygon fill="#A80036" points="1079.8093,501.8669,1069.8259,494.663,1073.6925,500.5833,1067.7722,504.4499,1079.8093,501.8669" style="stroke: #A80036; stroke-width: 1.25;"/><!--MD5=[96dc4ca78ce9f4597c88082d6f3e186c]
link :android:indicator to :android:core--><path d="M2157.2301,295.0711 C2101.5604,315.7054 2019.3609,346.1733 1961.7441,367.5293 " fill="none" id=":android:indicator-&gt;:android:core" style="stroke: #A80036; stroke-width: 1.25;"/><polygon fill="#A80036" points="1955.5464,369.8265,1967.8328,370.6051,1961.4068,367.6544,1964.3574,361.2284,1955.5464,369.8265" style="stroke: #A80036; stroke-width: 1.25;"/><!--MD5=[bd9cb8a7c84ee4f7ab758a69f4cf00fb]
link :android:indicator to :android:notification--><path d="M2214.3631,295.0711 C2211.1433,314.3908 2206.4865,342.3309 2202.9848,363.3414 " fill="none" id=":android:indicator-&gt;:android:notification" style="stroke: #A80036; stroke-width: 1.25;"/><polygon fill="#A80036" points="2201.938,369.6221,2208.7198,359.3474,2202.9657,363.4572,2198.8559,357.7031,2201.938,369.6221" style="stroke: #A80036; stroke-width: 1.25;"/><!--MD5=[02e6d1eeca9a10220a158005479957f9]
link :android:core to :core:api--><path d="M1823.551,403.6279 C1673.3921,427.2207 1325.579,481.8689 1188.0665,503.4749 " fill="none" id=":android:core-&gt;:core:api" style="stroke: #A80036; stroke-width: 1.25;"/><polygon fill="#A80036" points="1181.6789,504.4785,1193.5686,507.6716,1187.8531,503.5083,1192.0164,497.7928,1181.6789,504.4785" style="stroke: #A80036; stroke-width: 1.25;"/><!--MD5=[823f6d265fa7b51d9d7161f2d93b9088]
link :android:core to :android:debug--><path d="M1894.375,415.0711 C1894.375,434.3908 1894.375,462.3309 1894.375,483.3414 " fill="none" id=":android:core-&gt;:android:debug" style="stroke: #A80036; stroke-width: 1.25;"/><polygon fill="#A80036" points="1894.375,489.6221,1899.375,478.3721,1894.375,483.3721,1889.375,478.3721,1894.375,489.6221" style="stroke: #A80036; stroke-width: 1.25;"/><!--MD5=[49c315795c2cf8a16b9fc4140ea8e080]
link :android:intent to :core:api--><path d="M1385.361,415.0711 C1328.6705,436.7535 1243.5915,469.2938 1187.5956,490.7104 " fill="none" id=":android:intent-&gt;:core:api" style="stroke: #A80036; stroke-width: 1.25;"/><polygon fill="#A80036" points="1181.5933,493.0061,1193.8871,493.657,1187.4308,490.7733,1190.3145,484.3169,1181.5933,493.0061" style="stroke: #A80036; stroke-width: 1.25;"/><!--MD5=[99eb1f9ce8f3a5e1f5d168a23a4e6130]
link :android:account to :android:core--><path d="M1652.8325,295.0711 C1703.8849,315.6636 1779.2174,346.0499 1832.1464,367.3994 " fill="none" id=":android:account-&gt;:android:core" style="stroke: #A80036; stroke-width: 1.25;"/><polygon fill="#A80036" points="1838.1635,369.8265,1829.6007,360.9811,1832.3673,367.4885,1825.8599,370.255,1838.1635,369.8265" style="stroke: #A80036; stroke-width: 1.25;"/><!--MD5=[ea06712275b471b139755bf35b876505]
link :android:roster to :android:core--><path d="M1821.3033,295.0711 C1836.0429,314.7239 1857.4726,343.2969 1873.3164,364.4219 " fill="none" id=":android:roster-&gt;:android:core" style="stroke: #A80036; stroke-width: 1.25;"/><polygon fill="#A80036" points="1877.2166,369.6221,1874.4666,357.6221,1873.4666,364.6221,1866.4666,363.6221,1877.2166,369.6221" style="stroke: #A80036; stroke-width: 1.25;"/><!--MD5=[27504143436bfd555a82356c36796927]
link :android:chat to :android:core--><path d="M2350.4533,289.7053 C2342.9206,291.5115 2335.3666,293.3055 2328.125,295 C2203.3596,324.1945 2058.0009,356.5275 1971.2284,375.6505 " fill="none" id=":android:chat-&gt;:android:core" style="stroke: #A80036; stroke-width: 1.25;"/><polygon fill="#A80036" points="1965.0831,377.0044,1977.1454,379.4669,1971.1868,375.6597,1974.9939,369.7011,1965.0831,377.0044" style="stroke: #A80036; stroke-width: 1.25;"/><!--MD5=[efb42bc9aa58ba14b70407a353d00396]
link :android:chat to :android:notification--><path d="M2378.7745,295.0711 C2340.9796,315.4548 2285.3923,345.4345 2245.8753,366.747 " fill="none" id=":android:chat-&gt;:android:notification" style="stroke: #A80036; stroke-width: 1.25;"/><polygon fill="#A80036" points="2240.1655,369.8265,2252.4407,368.887,2245.6665,366.8597,2247.6938,360.0855,2240.1655,369.8265" style="stroke: #A80036; stroke-width: 1.25;"/><!--MD5=[5767c1eae9a459def5cf537ae8640123]
link :android:chat to :android:widget--><path d="M2420.625,295.0711 C2420.625,314.3908 2420.625,342.3309 2420.625,363.3414 " fill="none" id=":android:chat-&gt;:android:widget" style="stroke: #A80036; stroke-width: 1.25;"/><polygon fill="#A80036" points="2420.625,369.6221,2425.625,358.3721,2420.625,363.3721,2415.625,358.3721,2420.625,369.6221" style="stroke: #A80036; stroke-width: 1.25;"/><!--MD5=[d0c9adee400d99d2c7e70b3cbab35cf4]
link :android:chat to :core:cli--><path d="M2452.8359,295.0711 C2481.5951,315.2235 2523.7396,344.7555 2554.0835,366.0184 " fill="none" id=":android:chat-&gt;:core:cli" style="stroke: #A80036; stroke-width: 1.25;"/><polygon fill="#A80036" points="2559.2264,369.6221,2552.8825,359.0714,2554.1079,366.0355,2547.1439,367.2609,2559.2264,369.6221" style="stroke: #A80036; stroke-width: 1.25;"/><!--MD5=[43e23cfb2d1172d7fb8288cf83bc1bf5]
link :android:drawer to :android:core--><path d="M1984.6998,295.0711 C1966.3255,314.8905 1939.5409,343.7819 1919.9094,364.9573 " fill="none" id=":android:drawer-&gt;:android:core" style="stroke: #A80036; stroke-width: 1.25;"/><polygon fill="#A80036" points="1915.5848,369.6221,1926.9,364.7715,1919.834,365.0388,1919.5667,357.9728,1915.5848,369.6221" style="stroke: #A80036; stroke-width: 1.25;"/><!--MD5=[e5b52aacd6c9e8567a26aa6a4b3cfc3a]
link :core:cli to :engine:translator--><path d="M2591.875,415.0711 C2591.875,434.3908 2591.875,462.3309 2591.875,483.3414 " fill="none" id=":core:cli-&gt;:engine:translator" style="stroke: #A80036; stroke-width: 1.25;"/><polygon fill="#A80036" points="2591.875,489.6221,2596.875,478.3721,2591.875,483.3721,2586.875,478.3721,2591.875,489.6221" style="stroke: #A80036; stroke-width: 1.25;"/><!--MD5=[c2bb4decd7a24ab2954465b21eb4e89b]
link :core:cli to :core:api--><path d="M2544.942,409.55 C2537.7121,411.6829 2530.2736,413.6023 2523.125,415 C2260.816,466.2896 1416.7518,501.5779 1188.1714,510.3621 " fill="none" id=":core:cli-&gt;:core:api" style="stroke: #A80036; stroke-width: 1.25;"/><polygon fill="#A80036" points="1181.5894,510.6142,1193.0227,515.1795,1187.8348,510.3748,1192.6395,505.1869,1181.5894,510.6142" style="stroke: #A80036; stroke-width: 1.25;"/><!--MD5=[c092ee46ff50f3ad0966693409762b2d]
link :android:app to :core:backend--><path d="M954.4916,55.0711 C920.8695,75.3713 871.4839,105.189 836.213,126.4846 " fill="none" id=":android:app-&gt;:core:backend" style="stroke: #A80036; stroke-width: 1.25;"/><polygon fill="#A80036" points="830.6781,129.8265,842.8932,128.2923,836.0286,126.5962,837.7247,119.7315,830.6781,129.8265" style="stroke: #A80036; stroke-width: 1.25;"/><!--MD5=[f628b0d0476bcd96ad7e4bc9c88fe729]
link :android:app to :net:smack:android--><path d="M995.4719,55.0196 C1005.4754,117.6504 1033.6203,293.8618 1044.7561,363.5816 " fill="none" id=":android:app-&gt;:net:smack:android" style="stroke: #A80036; stroke-width: 1.25;"/><polygon fill="#A80036" points="1045.7795,369.9889,1048.9426,358.0911,1044.7938,363.8171,1039.0678,359.6682,1045.7795,369.9889" style="stroke: #A80036; stroke-width: 1.25;"/><!--MD5=[a35988381a2e6516f16fc9d849ebccf6]
link :android:app to :android:room--><path d="M1018.2079,55.0711 C1041.5249,75.057 1075.6044,104.268 1100.3628,125.4895 " fill="none" id=":android:app-&gt;:android:room" style="stroke: #A80036; stroke-width: 1.25;"/><polygon fill="#A80036" points="1105.1841,129.6221,1099.8965,118.5044,1100.4388,125.5546,1093.3886,126.0969,1105.1841,129.6221" style="stroke: #A80036; stroke-width: 1.25;"/><!--MD5=[e9fec9df6cff927a3d769895582165d1]
link :android:app to :android:sys--><path d="M1059.4604,40.5599 C1241.1678,62.2294 1739.0538,121.6045 1925.9579,143.8938 " fill="none" id=":android:app-&gt;:android:sys" style="stroke: #A80036; stroke-width: 1.25;"/><polygon fill="#A80036" points="1932.4744,144.6709,1921.8957,138.3738,1926.2684,143.9307,1920.7114,148.3034,1932.4744,144.6709" style="stroke: #A80036; stroke-width: 1.25;"/><!--MD5=[ac117d8559748edfbe600e9405f9bdee]
link :android:app to :android:log--><path d="M924.114,37.6024 C727.0656,54.2833 168.125,115.442 168.125,272.5 C168.125,272.5 168.125,272.5 168.125,392.5 C168.125,473.5564 214.1626,560.5498 240.837,604.1514 " fill="none" id=":android:app-&gt;:android:log" style="stroke: #A80036; stroke-width: 1.25;"/><polygon fill="#A80036" points="244.3069,609.7574,242.6373,597.56,241.0174,604.4431,234.1344,602.8232,244.3069,609.7574" style="stroke: #A80036; stroke-width: 1.25;"/><!--MD5=[32c4354e0221cd2acf28738e9c0350e1]
link :android:app to :android:error--><path d="M924.0204,36.3624 C763.6195,46.2851 365.4615,75.7764 244.375,130 C155.9409,169.6016 79.375,175.6038 79.375,272.5 C79.375,272.5 79.375,272.5 79.375,392.5 C79.375,468.5514 79.375,558.1587 79.375,603.3314 " fill="none" id=":android:app-&gt;:android:error" style="stroke: #A80036; stroke-width: 1.25;"/><polygon fill="#A80036" points="79.375,609.6669,84.375,598.4169,79.375,603.4169,74.375,598.4169,79.375,609.6669" style="stroke: #A80036; stroke-width: 1.25;"/><!--MD5=[de56f305491d2fe9d536387097efe455]
link :android:app to :android:main--><path d="M1059.5151,45.9162 C1172.5061,68.3276 1399.017,113.2555 1518.6748,136.9893 " fill="none" id=":android:app-&gt;:android:main" style="stroke: #A80036; stroke-width: 1.25;"/><polygon fill="#A80036" points="1524.9937,138.2426,1514.9316,131.1493,1518.8632,137.0266,1512.9859,140.9582,1524.9937,138.2426" style="stroke: #A80036; stroke-width: 1.25;"/><!--MD5=[2c31edef4eb6a12194b7bd323fa044df]
@startuml
[:core:backend] - -> [:core:domain:app]
[:core:backend] - -> [:core:domain:session]
[:core:backend] - -> [:core:domain:account]
[:core:backend] - -> [:core:domain:chat]
[:core:backend] - -> [:core:domain:roster]
[:net:smack:android] - -> [:core:api]
[:android:room] - -> [:core:api]
[:android:sys] - -> [:android:indicator]
[:android:log] - -> [:engine:log]
[:android:error] - -> [:engine:log]
[:android:main] - -> [:android:intent]
[:android:main] - -> [:android:account]
[:android:main] - -> [:android:roster]
[:android:main] - -> [:android:chat]
[:android:main] - -> [:android:drawer]
[:android:main] - -> [:core:domain:app]
[:core:domain:app] - -> [:core:api]
[:core:domain:session] - -> [:core:api]
[:core:domain:account] - -> [:core:api]
[:core:domain:chat] - -> [:engine:paging]
[:core:domain:roster] - -> [:engine:paging]
[:core:api] - -> [:engine:connectable]
[:engine:connectable] - -> [:engine:util]
[:engine:connectable] - -> [:engine:log]
[:engine:paging] - -> [:core:api]
[:android:indicator] - -> [:android:core]
[:android:indicator] - -> [:android:notification]
[:android:core] - -> [:core:api]
[:android:core] - -> [:android:debug]
[:android:intent] - -> [:core:api]
[:android:account] - -> [:android:core]
[:android:roster] - -> [:android:core]
[:android:chat] - -> [:android:core]
[:android:chat] - -> [:android:notification]
[:android:chat] - -> [:android:widget]
[:android:chat] - -> [:core:cli]
[:android:drawer] - -> [:android:core]
[:core:cli] - -> [:engine:translator]
[:core:cli] - -> [:core:api]
[:android:app] - -> [:core:backend]
[:android:app] - -> [:net:smack:android]
[:android:app] - -> [:android:room]
[:android:app] - -> [:android:sys]
[:android:app] - -> [:android:log]
[:android:app] - -> [:android:error]
[:android:app] - -> [:android:main]
@enduml

PlantUML version 1.2019.11(Sun Sep 22 12:02:15 CEST 2019)
(GPL source distribution)
Java Runtime: OpenJDK Runtime Environment
JVM: OpenJDK 64-Bit Server VM
Java Version: 1.8.0_242-release-1644-b3-6222593
Operating System: Linux
Default Encoding: UTF-8
Language: pl
Country: PL
--></g></svg>