<?xml version="1.0" encoding="UTF-8" standalone="no"?><svg xmlns="http://www.w3.org/2000/svg" xmlns:xlink="http://www.w3.org/1999/xlink" contentScriptType="application/ecmascript" contentStyleType="text/css" height="841px" preserveAspectRatio="none" style="width:1686px;height:841px;" version="1.1" viewBox="0 0 1686 841" width="1686px" zoomAndPan="magnify"><defs><filter height="300%" id="ffr3ragcsgt1j" width="300%" x="-1" y="-1"><feGaussianBlur result="blurOut" stdDeviation="2.0"/><feColorMatrix in="blurOut" result="blurOut2" type="matrix" values="0 0 0 0 0 0 0 0 0 0 0 0 0 0 0 0 0 0 .4 0"/><feOffset dx="4.0" dy="4.0" in="blurOut2" result="blurOut3"/><feBlend in="SourceGraphic" in2="blurOut3" mode="normal"/></filter></defs><g><!--MD5=[30404b2edc0ff233b9122d63ae72b243]
cluster :core--><polygon fill="#FFFFFF" filter="url(#ffr3ragcsgt1j)" points="1349,324,1397,324,1404,346.2969,1628,346.2969,1628,617,1349,617,1349,324" style="stroke: #000000; stroke-width: 1.5;"/><line style="stroke: #000000; stroke-width: 1.5;" x1="1349" x2="1404" y1="346.2969" y2="346.2969"/><text fill="#000000" font-family="sans-serif" font-size="14" font-weight="bold" lengthAdjust="spacingAndGlyphs" textLength="42" x="1353" y="338.9951">:core</text><!--MD5=[0d8e833dcfdde072c4ae6e4a203830aa]
cluster :net--><polygon fill="#FFFFFF" filter="url(#ffr3ragcsgt1j)" points="18,112,56,112,63,134.2969,210,134.2969,210,193,18,193,18,112" style="stroke: #000000; stroke-width: 1.5;"/><line style="stroke: #000000; stroke-width: 1.5;" x1="18" x2="63" y1="134.2969" y2="134.2969"/><text fill="#000000" font-family="sans-serif" font-size="14" font-weight="bold" lengthAdjust="spacingAndGlyphs" textLength="32" x="22" y="126.9951">:net</text><!--MD5=[6124d9865eee0f458a8c9ca898d4a94b]
cluster :android--><polygon fill="#FFFFFF" filter="url(#ffr3ragcsgt1j)" points="264,6,336,6,343,28.2969,1341,28.2969,1341,511,264,511,264,6" style="stroke: #000000; stroke-width: 1.5;"/><line style="stroke: #000000; stroke-width: 1.5;" x1="264" x2="343" y1="28.2969" y2="28.2969"/><text fill="#000000" font-family="sans-serif" font-size="14" font-weight="bold" lengthAdjust="spacingAndGlyphs" textLength="66" x="268" y="20.9951">:android</text><!--MD5=[6ed0a4222646c4be5d3ab2314135a570]
cluster :engine--><polygon fill="#FFFFFF" filter="url(#ffr3ragcsgt1j)" points="1085,642,1151,642,1158,664.2969,1664,664.2969,1664,829,1085,829,1085,642" style="stroke: #000000; stroke-width: 1.5;"/><line style="stroke: #000000; stroke-width: 1.5;" x1="1085" x2="1158" y1="664.2969" y2="664.2969"/><text fill="#000000" font-family="sans-serif" font-size="14" font-weight="bold" lengthAdjust="spacingAndGlyphs" textLength="60" x="1089" y="656.9951">:engine</text><!--MD5=[6b3c72c52f198a8ada63b8c5ce9355bc]
entity :core:backend--><rect fill="#FEFECE" filter="url(#ffr3ragcsgt1j)" height="46.2969" style="stroke: #A80036; stroke-width: 1.5;" width="141" x="1478.5" y="351"/><rect fill="#FEFECE" height="10" style="stroke: #A80036; stroke-width: 1.5;" width="15" x="1599.5" y="356"/><rect fill="#FEFECE" height="2" style="stroke: #A80036; stroke-width: 1.5;" width="4" x="1597.5" y="358"/><rect fill="#FEFECE" height="2" style="stroke: #A80036; stroke-width: 1.5;" width="4" x="1597.5" y="362"/><text fill="#000000" font-family="sans-serif" font-size="14" lengthAdjust="spacingAndGlyphs" textLength="101" x="1493.5" y="383.9951">:core:backend</text><!--MD5=[c0f778923607b3b2b1776544ac20a677]
entity :core:domain--><rect fill="#FEFECE" filter="url(#ffr3ragcsgt1j)" height="46.2969" style="stroke: #A80036; stroke-width: 1.5;" width="132" x="1488" y="457"/><rect fill="#FEFECE" height="10" style="stroke: #A80036; stroke-width: 1.5;" width="15" x="1600" y="462"/><rect fill="#FEFECE" height="2" style="stroke: #A80036; stroke-width: 1.5;" width="4" x="1598" y="464"/><rect fill="#FEFECE" height="2" style="stroke: #A80036; stroke-width: 1.5;" width="4" x="1598" y="468"/><text fill="#000000" font-family="sans-serif" font-size="14" lengthAdjust="spacingAndGlyphs" textLength="92" x="1503" y="489.9951">:core:domain</text><!--MD5=[bb042d61f43125fc2fe6ee382cb3d84b]
entity :core:api--><rect fill="#FEFECE" filter="url(#ffr3ragcsgt1j)" height="46.2969" style="stroke: #A80036; stroke-width: 1.5;" width="101" x="1357.5" y="563"/><rect fill="#FEFECE" height="10" style="stroke: #A80036; stroke-width: 1.5;" width="15" x="1438.5" y="568"/><rect fill="#FEFECE" height="2" style="stroke: #A80036; stroke-width: 1.5;" width="4" x="1436.5" y="570"/><rect fill="#FEFECE" height="2" style="stroke: #A80036; stroke-width: 1.5;" width="4" x="1436.5" y="574"/><text fill="#000000" font-family="sans-serif" font-size="14" lengthAdjust="spacingAndGlyphs" textLength="61" x="1372.5" y="595.9951">:core:api</text><!--MD5=[b4e25f7522ba1111eb2df4fe1b5db7c7]
entity :core:cli--><rect fill="#FEFECE" filter="url(#ffr3ragcsgt1j)" height="46.2969" style="stroke: #A80036; stroke-width: 1.5;" width="95" x="1357.5" y="457"/><rect fill="#FEFECE" height="10" style="stroke: #A80036; stroke-width: 1.5;" width="15" x="1432.5" y="462"/><rect fill="#FEFECE" height="2" style="stroke: #A80036; stroke-width: 1.5;" width="4" x="1430.5" y="464"/><rect fill="#FEFECE" height="2" style="stroke: #A80036; stroke-width: 1.5;" width="4" x="1430.5" y="468"/><text fill="#000000" font-family="sans-serif" font-size="14" lengthAdjust="spacingAndGlyphs" textLength="55" x="1372.5" y="489.9951">:core:cli</text><!--MD5=[6074b5c11df63f0ef6be21f813bbd183]
entity :net:smack:android--><rect fill="#FEFECE" filter="url(#ffr3ragcsgt1j)" height="46.2969" style="stroke: #A80036; stroke-width: 1.5;" width="175" x="26.5" y="139"/><rect fill="#FEFECE" height="10" style="stroke: #A80036; stroke-width: 1.5;" width="15" x="181.5" y="144"/><rect fill="#FEFECE" height="2" style="stroke: #A80036; stroke-width: 1.5;" width="4" x="179.5" y="146"/><rect fill="#FEFECE" height="2" style="stroke: #A80036; stroke-width: 1.5;" width="4" x="179.5" y="150"/><text fill="#000000" font-family="sans-serif" font-size="14" lengthAdjust="spacingAndGlyphs" textLength="135" x="41.5" y="171.9951">:net:smack:android</text><!--MD5=[e71e3f46b787e063366eac1cfd3b55c3]
entity :android:room--><rect fill="#FEFECE" filter="url(#ffr3ragcsgt1j)" height="46.2969" style="stroke: #A80036; stroke-width: 1.5;" width="138" x="601" y="139"/><rect fill="#FEFECE" height="10" style="stroke: #A80036; stroke-width: 1.5;" width="15" x="719" y="144"/><rect fill="#FEFECE" height="2" style="stroke: #A80036; stroke-width: 1.5;" width="4" x="717" y="146"/><rect fill="#FEFECE" height="2" style="stroke: #A80036; stroke-width: 1.5;" width="4" x="717" y="150"/><text fill="#000000" font-family="sans-serif" font-size="14" lengthAdjust="spacingAndGlyphs" textLength="98" x="616" y="171.9951">:android:room</text><!--MD5=[824b5ec8eead23404211dbafddd0ef71]
entity :android:sys--><rect fill="#FEFECE" filter="url(#ffr3ragcsgt1j)" height="46.2969" style="stroke: #A80036; stroke-width: 1.5;" width="125" x="983.5" y="139"/><rect fill="#FEFECE" height="10" style="stroke: #A80036; stroke-width: 1.5;" width="15" x="1088.5" y="144"/><rect fill="#FEFECE" height="2" style="stroke: #A80036; stroke-width: 1.5;" width="4" x="1086.5" y="146"/><rect fill="#FEFECE" height="2" style="stroke: #A80036; stroke-width: 1.5;" width="4" x="1086.5" y="150"/><text fill="#000000" font-family="sans-serif" font-size="14" lengthAdjust="spacingAndGlyphs" textLength="85" x="998.5" y="171.9951">:android:sys</text><!--MD5=[9f0305d4f7a8645f2834b13a0602f0df]
entity :android:log--><rect fill="#FEFECE" filter="url(#ffr3ragcsgt1j)" height="46.2969" style="stroke: #A80036; stroke-width: 1.5;" width="123" x="272.5" y="139"/><rect fill="#FEFECE" height="10" style="stroke: #A80036; stroke-width: 1.5;" width="15" x="375.5" y="144"/><rect fill="#FEFECE" height="2" style="stroke: #A80036; stroke-width: 1.5;" width="4" x="373.5" y="146"/><rect fill="#FEFECE" height="2" style="stroke: #A80036; stroke-width: 1.5;" width="4" x="373.5" y="150"/><text fill="#000000" font-family="sans-serif" font-size="14" lengthAdjust="spacingAndGlyphs" textLength="83" x="287.5" y="171.9951">:android:log</text><!--MD5=[37b953e512ae70b44a23cc4bd83136e2]
entity :android:error--><rect fill="#FEFECE" filter="url(#ffr3ragcsgt1j)" height="46.2969" style="stroke: #A80036; stroke-width: 1.5;" width="135" x="430.5" y="139"/><rect fill="#FEFECE" height="10" style="stroke: #A80036; stroke-width: 1.5;" width="15" x="545.5" y="144"/><rect fill="#FEFECE" height="2" style="stroke: #A80036; stroke-width: 1.5;" width="4" x="543.5" y="146"/><rect fill="#FEFECE" height="2" style="stroke: #A80036; stroke-width: 1.5;" width="4" x="543.5" y="150"/><text fill="#000000" font-family="sans-serif" font-size="14" lengthAdjust="spacingAndGlyphs" textLength="95" x="445.5" y="171.9951">:android:error</text><!--MD5=[8b23712cbce6b2745bbd08e1acd8155e]
entity :android:main--><rect fill="#FEFECE" filter="url(#ffr3ragcsgt1j)" height="46.2969" style="stroke: #A80036; stroke-width: 1.5;" width="135" x="774.5" y="139"/><rect fill="#FEFECE" height="10" style="stroke: #A80036; stroke-width: 1.5;" width="15" x="889.5" y="144"/><rect fill="#FEFECE" height="2" style="stroke: #A80036; stroke-width: 1.5;" width="4" x="887.5" y="146"/><rect fill="#FEFECE" height="2" style="stroke: #A80036; stroke-width: 1.5;" width="4" x="887.5" y="150"/><text fill="#000000" font-family="sans-serif" font-size="14" lengthAdjust="spacingAndGlyphs" textLength="95" x="789.5" y="171.9951">:android:main</text><!--MD5=[b759699551f165de218e2e968fab95b2]
entity :android:indicator--><rect fill="#FEFECE" filter="url(#ffr3ragcsgt1j)" height="46.2969" style="stroke: #A80036; stroke-width: 1.5;" width="161" x="1004.5" y="245"/><rect fill="#FEFECE" height="10" style="stroke: #A80036; stroke-width: 1.5;" width="15" x="1145.5" y="250"/><rect fill="#FEFECE" height="2" style="stroke: #A80036; stroke-width: 1.5;" width="4" x="1143.5" y="252"/><rect fill="#FEFECE" height="2" style="stroke: #A80036; stroke-width: 1.5;" width="4" x="1143.5" y="256"/><text fill="#000000" font-family="sans-serif" font-size="14" lengthAdjust="spacingAndGlyphs" textLength="121" x="1019.5" y="277.9951">:android:indicator</text><!--MD5=[4243627ae140629495d6edbad54f8b36]
entity :android:core--><rect fill="#FEFECE" filter="url(#ffr3ragcsgt1j)" height="46.2969" style="stroke: #A80036; stroke-width: 1.5;" width="133" x="772.5" y="351"/><rect fill="#FEFECE" height="10" style="stroke: #A80036; stroke-width: 1.5;" width="15" x="885.5" y="356"/><rect fill="#FEFECE" height="2" style="stroke: #A80036; stroke-width: 1.5;" width="4" x="883.5" y="358"/><rect fill="#FEFECE" height="2" style="stroke: #A80036; stroke-width: 1.5;" width="4" x="883.5" y="362"/><text fill="#000000" font-family="sans-serif" font-size="14" lengthAdjust="spacingAndGlyphs" textLength="93" x="787.5" y="383.9951">:android:core</text><!--MD5=[f10ce6782b0e7f5580bd12ce8877f965]
entity :android:notification--><rect fill="#FEFECE" filter="url(#ffr3ragcsgt1j)" height="46.2969" style="stroke: #A80036; stroke-width: 1.5;" width="177" x="940.5" y="351"/><rect fill="#FEFECE" height="10" style="stroke: #A80036; stroke-width: 1.5;" width="15" x="1097.5" y="356"/><rect fill="#FEFECE" height="2" style="stroke: #A80036; stroke-width: 1.5;" width="4" x="1095.5" y="358"/><rect fill="#FEFECE" height="2" style="stroke: #A80036; stroke-width: 1.5;" width="4" x="1095.5" y="362"/><text fill="#000000" font-family="sans-serif" font-size="14" lengthAdjust="spacingAndGlyphs" textLength="137" x="955.5" y="383.9951">:android:notification</text><!--MD5=[dc93d87eb620fb3186cd34a04b83c7ae]
entity :android:resources--><rect fill="#FEFECE" filter="url(#ffr3ragcsgt1j)" height="46.2969" style="stroke: #A80036; stroke-width: 1.5;" width="172" x="1092" y="457"/><rect fill="#FEFECE" height="10" style="stroke: #A80036; stroke-width: 1.5;" width="15" x="1244" y="462"/><rect fill="#FEFECE" height="2" style="stroke: #A80036; stroke-width: 1.5;" width="4" x="1242" y="464"/><rect fill="#FEFECE" height="2" style="stroke: #A80036; stroke-width: 1.5;" width="4" x="1242" y="468"/><text fill="#000000" font-family="sans-serif" font-size="14" lengthAdjust="spacingAndGlyphs" textLength="132" x="1107" y="489.9951">:android:resources</text><!--MD5=[81a55ae8ee37e126e15aacb863ec98ad]
entity :android:debug--><rect fill="#FEFECE" filter="url(#ffr3ragcsgt1j)" height="46.2969" style="stroke: #A80036; stroke-width: 1.5;" width="147" x="813.5" y="457"/><rect fill="#FEFECE" height="10" style="stroke: #A80036; stroke-width: 1.5;" width="15" x="940.5" y="462"/><rect fill="#FEFECE" height="2" style="stroke: #A80036; stroke-width: 1.5;" width="4" x="938.5" y="464"/><rect fill="#FEFECE" height="2" style="stroke: #A80036; stroke-width: 1.5;" width="4" x="938.5" y="468"/><text fill="#000000" font-family="sans-serif" font-size="14" lengthAdjust="spacingAndGlyphs" textLength="107" x="828.5" y="489.9951">:android:debug</text><!--MD5=[7b0e00ffb091306e7adce213ff533c85]
entity :android:intent--><rect fill="#FEFECE" filter="url(#ffr3ragcsgt1j)" height="46.2969" style="stroke: #A80036; stroke-width: 1.5;" width="142" x="272" y="245"/><rect fill="#FEFECE" height="10" style="stroke: #A80036; stroke-width: 1.5;" width="15" x="394" y="250"/><rect fill="#FEFECE" height="2" style="stroke: #A80036; stroke-width: 1.5;" width="4" x="392" y="252"/><rect fill="#FEFECE" height="2" style="stroke: #A80036; stroke-width: 1.5;" width="4" x="392" y="256"/><text fill="#000000" font-family="sans-serif" font-size="14" lengthAdjust="spacingAndGlyphs" textLength="102" x="287" y="277.9951">:android:intent</text><!--MD5=[537263759804c0f37bfe27ff6520266d]
entity :android:account--><rect fill="#FEFECE" filter="url(#ffr3ragcsgt1j)" height="46.2969" style="stroke: #A80036; stroke-width: 1.5;" width="158" x="633" y="245"/><rect fill="#FEFECE" height="10" style="stroke: #A80036; stroke-width: 1.5;" width="15" x="771" y="250"/><rect fill="#FEFECE" height="2" style="stroke: #A80036; stroke-width: 1.5;" width="4" x="769" y="252"/><rect fill="#FEFECE" height="2" style="stroke: #A80036; stroke-width: 1.5;" width="4" x="769" y="256"/><text fill="#000000" font-family="sans-serif" font-size="14" lengthAdjust="spacingAndGlyphs" textLength="118" x="648" y="277.9951">:android:account</text><!--MD5=[a40cbfa6716f14d6e2acc0c2f4f85b3d]
entity :android:roster--><rect fill="#FEFECE" filter="url(#ffr3ragcsgt1j)" height="46.2969" style="stroke: #A80036; stroke-width: 1.5;" width="143" x="826.5" y="245"/><rect fill="#FEFECE" height="10" style="stroke: #A80036; stroke-width: 1.5;" width="15" x="949.5" y="250"/><rect fill="#FEFECE" height="2" style="stroke: #A80036; stroke-width: 1.5;" width="4" x="947.5" y="252"/><rect fill="#FEFECE" height="2" style="stroke: #A80036; stroke-width: 1.5;" width="4" x="947.5" y="256"/><text fill="#000000" font-family="sans-serif" font-size="14" lengthAdjust="spacingAndGlyphs" textLength="103" x="841.5" y="277.9951">:android:roster</text><!--MD5=[1abf9466b7c9941f0b2d230b4b5f13c9]
entity :android:chat--><rect fill="#FEFECE" filter="url(#ffr3ragcsgt1j)" height="46.2969" style="stroke: #A80036; stroke-width: 1.5;" width="132" x="1201" y="245"/><rect fill="#FEFECE" height="10" style="stroke: #A80036; stroke-width: 1.5;" width="15" x="1313" y="250"/><rect fill="#FEFECE" height="2" style="stroke: #A80036; stroke-width: 1.5;" width="4" x="1311" y="252"/><rect fill="#FEFECE" height="2" style="stroke: #A80036; stroke-width: 1.5;" width="4" x="1311" y="256"/><text fill="#000000" font-family="sans-serif" font-size="14" lengthAdjust="spacingAndGlyphs" textLength="92" x="1216" y="277.9951">:android:chat</text><!--MD5=[ff52f1825a9f6fbfff2d66c588103d9f]
entity :android:drawer--><rect fill="#FEFECE" filter="url(#ffr3ragcsgt1j)" height="46.2969" style="stroke: #A80036; stroke-width: 1.5;" width="149" x="449.5" y="245"/><rect fill="#FEFECE" height="10" style="stroke: #A80036; stroke-width: 1.5;" width="15" x="578.5" y="250"/><rect fill="#FEFECE" height="2" style="stroke: #A80036; stroke-width: 1.5;" width="4" x="576.5" y="252"/><rect fill="#FEFECE" height="2" style="stroke: #A80036; stroke-width: 1.5;" width="4" x="576.5" y="256"/><text fill="#000000" font-family="sans-serif" font-size="14" lengthAdjust="spacingAndGlyphs" textLength="109" x="464.5" y="277.9951">:android:drawer</text><!--MD5=[ccc75cd529beb82693de2a4497c4bb10]
entity :android:widget--><rect fill="#FEFECE" filter="url(#ffr3ragcsgt1j)" height="46.2969" style="stroke: #A80036; stroke-width: 1.5;" width="148" x="1153" y="351"/><rect fill="#FEFECE" height="10" style="stroke: #A80036; stroke-width: 1.5;" width="15" x="1281" y="356"/><rect fill="#FEFECE" height="2" style="stroke: #A80036; stroke-width: 1.5;" width="4" x="1279" y="358"/><rect fill="#FEFECE" height="2" style="stroke: #A80036; stroke-width: 1.5;" width="4" x="1279" y="362"/><text fill="#000000" font-family="sans-serif" font-size="14" lengthAdjust="spacingAndGlyphs" textLength="108" x="1168" y="383.9951">:android:widget</text><!--MD5=[b6d98d9177c5b22a205e5ab6c49b37ef]
entity :android:app--><rect fill="#FEFECE" filter="url(#ffr3ragcsgt1j)" height="46.2969" style="stroke: #A80036; stroke-width: 1.5;" width="128" x="606" y="33"/><rect fill="#FEFECE" height="10" style="stroke: #A80036; stroke-width: 1.5;" width="15" x="714" y="38"/><rect fill="#FEFECE" height="2" style="stroke: #A80036; stroke-width: 1.5;" width="4" x="712" y="40"/><rect fill="#FEFECE" height="2" style="stroke: #A80036; stroke-width: 1.5;" width="4" x="712" y="44"/><text fill="#000000" font-family="sans-serif" font-size="14" lengthAdjust="spacingAndGlyphs" textLength="88" x="621" y="65.9951">:android:app</text><!--MD5=[8725e2f32c833bede44e6c458fce3254]
entity :engine:paging--><rect fill="#FEFECE" filter="url(#ffr3ragcsgt1j)" height="46.2969" style="stroke: #A80036; stroke-width: 1.5;" width="145" x="1510.5" y="669"/><rect fill="#FEFECE" height="10" style="stroke: #A80036; stroke-width: 1.5;" width="15" x="1635.5" y="674"/><rect fill="#FEFECE" height="2" style="stroke: #A80036; stroke-width: 1.5;" width="4" x="1633.5" y="676"/><rect fill="#FEFECE" height="2" style="stroke: #A80036; stroke-width: 1.5;" width="4" x="1633.5" y="680"/><text fill="#000000" font-family="sans-serif" font-size="14" lengthAdjust="spacingAndGlyphs" textLength="105" x="1525.5" y="701.9951">:engine:paging</text><!--MD5=[474bc7754ff50e9887f34633b92b9e02]
entity :engine:connectable--><rect fill="#FEFECE" filter="url(#ffr3ragcsgt1j)" height="46.2969" style="stroke: #A80036; stroke-width: 1.5;" width="184" x="1093" y="669"/><rect fill="#FEFECE" height="10" style="stroke: #A80036; stroke-width: 1.5;" width="15" x="1257" y="674"/><rect fill="#FEFECE" height="2" style="stroke: #A80036; stroke-width: 1.5;" width="4" x="1255" y="676"/><rect fill="#FEFECE" height="2" style="stroke: #A80036; stroke-width: 1.5;" width="4" x="1255" y="680"/><text fill="#000000" font-family="sans-serif" font-size="14" lengthAdjust="spacingAndGlyphs" textLength="144" x="1108" y="701.9951">:engine:connectable</text><!--MD5=[8e94acc19a10f03efd288fb36eb4472b]
entity :engine:util--><rect fill="#FEFECE" filter="url(#ffr3ragcsgt1j)" height="46.2969" style="stroke: #A80036; stroke-width: 1.5;" width="118" x="1248" y="775"/><rect fill="#FEFECE" height="10" style="stroke: #A80036; stroke-width: 1.5;" width="15" x="1346" y="780"/><rect fill="#FEFECE" height="2" style="stroke: #A80036; stroke-width: 1.5;" width="4" x="1344" y="782"/><rect fill="#FEFECE" height="2" style="stroke: #A80036; stroke-width: 1.5;" width="4" x="1344" y="786"/><text fill="#000000" font-family="sans-serif" font-size="14" lengthAdjust="spacingAndGlyphs" textLength="78" x="1263" y="807.9951">:engine:util</text><!--MD5=[f7af38a47341a5d6bbb7054022a18e1f]
entity :engine:log--><rect fill="#FEFECE" filter="url(#ffr3ragcsgt1j)" height="46.2969" style="stroke: #A80036; stroke-width: 1.5;" width="119" x="1093.5" y="775"/><rect fill="#FEFECE" height="10" style="stroke: #A80036; stroke-width: 1.5;" width="15" x="1192.5" y="780"/><rect fill="#FEFECE" height="2" style="stroke: #A80036; stroke-width: 1.5;" width="4" x="1190.5" y="782"/><rect fill="#FEFECE" height="2" style="stroke: #A80036; stroke-width: 1.5;" width="4" x="1190.5" y="786"/><text fill="#000000" font-family="sans-serif" font-size="14" lengthAdjust="spacingAndGlyphs" textLength="79" x="1108.5" y="807.9951">:engine:log</text><!--MD5=[9cb9b296c1f7d1e8bceacf7e776ceb9f]
entity :engine:translator--><rect fill="#FEFECE" filter="url(#ffr3ragcsgt1j)" height="46.2969" style="stroke: #A80036; stroke-width: 1.5;" width="163" x="1312.5" y="669"/><rect fill="#FEFECE" height="10" style="stroke: #A80036; stroke-width: 1.5;" width="15" x="1455.5" y="674"/><rect fill="#FEFECE" height="2" style="stroke: #A80036; stroke-width: 1.5;" width="4" x="1453.5" y="676"/><rect fill="#FEFECE" height="2" style="stroke: #A80036; stroke-width: 1.5;" width="4" x="1453.5" y="680"/><text fill="#000000" font-family="sans-serif" font-size="14" lengthAdjust="spacingAndGlyphs" textLength="123" x="1327.5" y="701.9951">:engine:translator</text><!--MD5=[d2e99a31c5c69c260843e58b87a30949]
link :core:backend to :core:domain--><path d="M1550.0849,397.0004 C1550.8398,413.003 1551.8512,434.4461 1552.657,451.528 " fill="none" id=":core:backend-&gt;:core:domain" style="stroke: #A80036; stroke-width: 1.0;"/><polygon fill="#A80036" points="1552.8999,456.6784,1556.4712,447.4998,1552.6642,451.684,1548.4801,447.877,1552.8999,456.6784" style="stroke: #A80036; stroke-width: 1.0;"/><!--MD5=[0a09f885cf7bf6af5f5d05ae3e988d1e]
link :net:smack:android to :core:api--><path d="M112.1301,185.4452 C110.7838,211.7737 110.8321,255.4651 122,291 C156.3259,400.2204 158.0611,451.7098 256,511 C350.4132,568.1558 1135.1947,582.4797 1352.4463,585.3649 " fill="none" id=":net:smack:android-&gt;:core:api" style="stroke: #A80036; stroke-width: 1.0;"/><polygon fill="#A80036" points="1357.4721,585.431,1348.5256,581.3128,1352.4725,585.3651,1348.4202,589.3121,1357.4721,585.431" style="stroke: #A80036; stroke-width: 1.0;"/><!--MD5=[07f4dd57ae6d7d38c578a637e51bb3a8]
link :android:room to :core:api--><path d="M609.5992,185.1349 C600.7578,188.0487 591.7006,190.7806 583,193 C435.5754,230.6063 182.2581,157.3704 255,291 C296.4942,367.2265 343.2664,354.6129 419,397 C521.3466,454.282 544.0611,479.3637 657,511 C788.0858,547.7195 1201.1345,574.2411 1352.0683,582.9286 " fill="none" id=":android:room-&gt;:core:api" style="stroke: #A80036; stroke-width: 1.0;"/><polygon fill="#A80036" points="1357.326,583.2301,1348.5699,578.7211,1352.3342,582.9437,1348.1116,586.708,1357.326,583.2301" style="stroke: #A80036; stroke-width: 1.0;"/><!--MD5=[43b2687f309875f3345c641c0049e239]
link :android:sys to :android:indicator--><path d="M1054.4624,185.0004 C1060.4009,201.1409 1068.3758,222.8162 1074.6866,239.9688 " fill="none" id=":android:sys-&gt;:android:indicator" style="stroke: #A80036; stroke-width: 1.0;"/><polygon fill="#A80036" points="1076.4194,244.6784,1077.0658,234.8508,1074.693,239.9859,1069.5578,237.6131,1076.4194,244.6784" style="stroke: #A80036; stroke-width: 1.0;"/><!--MD5=[c4882aab63b29c15f029a73a0bc261e2]
link :android:log to :engine:log--><path d="M277.6148,185.1156 C183.8347,225.3582 6,310.0952 6,374 C6,374 6,374 6,586 C6,698.9641 117.4468,680.4573 225,715 C386.3508,766.8208 905.2853,789.4164 1088.3363,795.9113 " fill="none" id=":android:log-&gt;:engine:log" style="stroke: #A80036; stroke-width: 1.0;"/><polygon fill="#A80036" points="1093.3898,796.0895,1084.5365,791.7744,1088.3929,795.9131,1084.2543,799.7694,1093.3898,796.0895" style="stroke: #A80036; stroke-width: 1.0;"/><!--MD5=[45517b2139f254912330f96b0a200dca]
link :android:error to :engine:log--><path d="M436.4233,185.0068 C428.5674,187.7799 420.6137,190.5088 413,193 C334.2631,218.7625 300.8058,196.0082 234,245 C178.4341,285.749 148,305.0939 148,374 C148,374 148,374 148,586 C148,682.4245 865.4417,767.25 1087.9783,791.2419 " fill="none" id=":android:error-&gt;:engine:log" style="stroke: #A80036; stroke-width: 1.0;"/><polygon fill="#A80036" points="1093.1424,791.7973,1084.6218,786.8577,1088.1711,791.2626,1083.7662,794.8119,1093.1424,791.7973" style="stroke: #A80036; stroke-width: 1.0;"/><!--MD5=[40bb589868918ba3fd0f378e218e8999]
link :android:main to :android:intent--><path d="M783.0117,185.1487 C774.37,188.0605 765.5137,190.7881 757,193 C615.4186,229.7835 575.1955,215.1109 432,245 C427.8454,245.8672 423.5936,246.8024 419.3095,247.7821 " fill="none" id=":android:main-&gt;:android:intent" style="stroke: #A80036; stroke-width: 1.0;"/><polygon fill="#A80036" points="414.2695,248.9513,423.9406,250.8138,419.1401,247.8213,422.1327,243.0208,414.2695,248.9513" style="stroke: #A80036; stroke-width: 1.0;"/><!--MD5=[3c34b3746a69b84c5d3b588540e90496]
link :android:main to :android:account--><path d="M813.7919,185.0004 C793.4048,201.6237 765.8176,224.1179 744.5053,241.4957 " fill="none" id=":android:main-&gt;:android:account" style="stroke: #A80036; stroke-width: 1.0;"/><polygon fill="#A80036" points="740.6019,244.6784,750.1048,242.0908,744.4769,241.5186,745.0491,235.8908,740.6019,244.6784" style="stroke: #A80036; stroke-width: 1.0;"/><!--MD5=[1debbca0f57afdab46daa5823379ab8a]
link :android:main to :android:roster--><path d="M854.1512,185.0004 C862.6782,201.1409 874.1293,222.8162 883.1911,239.9688 " fill="none" id=":android:main-&gt;:android:roster" style="stroke: #A80036; stroke-width: 1.0;"/><polygon fill="#A80036" points="885.6792,244.6784,885.012,234.8522,883.3436,240.2574,877.9384,238.5891,885.6792,244.6784" style="stroke: #A80036; stroke-width: 1.0;"/><!--MD5=[2457458197666786eab65f67e2b0c236]
link :android:main to :android:chat--><path d="M909.5437,179.0132 C927.8543,183.5906 947.6792,188.5149 966,193 C1062.3303,216.5826 1086.9384,220.3458 1183,245 C1187.1053,246.0536 1191.3187,247.1523 1195.5673,248.2735 " fill="none" id=":android:main-&gt;:android:chat" style="stroke: #A80036; stroke-width: 1.0;"/><polygon fill="#A80036" points="1200.5666,249.5986,1192.892,243.426,1195.7335,248.3174,1190.8421,251.159,1200.5666,249.5986" style="stroke: #A80036; stroke-width: 1.0;"/><!--MD5=[6898d34d0d822ea23a237867119598dc]
link :android:main to :android:drawer--><path d="M779.4298,185.1274 C771.8873,187.8242 764.2801,190.5018 757,193 C705.9053,210.5335 648.1032,229.1468 602.853,243.4444 " fill="none" id=":android:main-&gt;:android:drawer" style="stroke: #A80036; stroke-width: 1.0;"/><polygon fill="#A80036" points="597.9576,244.9898,607.7443,246.0948,602.7256,243.4845,605.3359,238.4659,597.9576,244.9898" style="stroke: #A80036; stroke-width: 1.0;"/><!--MD5=[a52bef23a2ecdbe1ed06939fc995921c]
link :android:main to :core:domain--><path d="M909.5954,180.3388 C927.8171,184.8873 947.5853,189.4658 966,193 C1135.5701,225.5441 1202.842,156.3302 1351,245 C1422.5542,287.8238 1405.1231,335.0997 1461,397 C1479.3345,417.311 1502.2442,437.8054 1520.7373,453.3475 " fill="none" id=":android:main-&gt;:core:domain" style="stroke: #A80036; stroke-width: 1.0;"/><polygon fill="#A80036" points="1524.8535,456.7867,1520.5116,447.9466,1521.0165,453.5808,1515.3822,454.0858,1524.8535,456.7867" style="stroke: #A80036; stroke-width: 1.0;"/><!--MD5=[65eb7b96c45847cf49dcf75272b402ce]
link :core:domain to :engine:paging--><path d="M1557.1587,503.0913 C1562.5192,542.2784 1573.3777,621.6574 1579.1652,663.9665 " fill="none" id=":core:domain-&gt;:engine:paging" style="stroke: #A80036; stroke-width: 1.0;"/><polygon fill="#A80036" points="1579.8452,668.9372,1582.5884,659.4781,1579.1675,663.9833,1574.6622,660.5624,1579.8452,668.9372" style="stroke: #A80036; stroke-width: 1.0;"/><!--MD5=[12ebccdcc75f98176baa7aae27ae41f5]
link :core:domain to :core:api--><path d="M1522.3202,503.0004 C1499.2496,519.7503 1467.9692,542.4607 1443.9605,559.8917 " fill="none" id=":core:domain-&gt;:core:api" style="stroke: #A80036; stroke-width: 1.0;"/><polygon fill="#A80036" points="1439.8698,562.8617,1449.5028,560.811,1443.9159,559.9242,1444.8027,554.3373,1439.8698,562.8617" style="stroke: #A80036; stroke-width: 1.0;"/><!--MD5=[eaf14edc6043f7290cbfd1583ac6425c]
link :core:api to :engine:connectable--><path d="M1359.6123,609.0004 C1323.9376,625.9579 1275.4103,649.0247 1238.5674,666.5375 " fill="none" id=":core:api-&gt;:engine:connectable" style="stroke: #A80036; stroke-width: 1.0;"/><polygon fill="#A80036" points="1233.6778,668.8617,1243.5235,668.6104,1238.1936,666.7151,1240.0889,661.3852,1233.6778,668.8617" style="stroke: #A80036; stroke-width: 1.0;"/><!--MD5=[bca29f017d1f9d57df28eb8d83e96ded]
link :engine:connectable to :engine:util--><path d="M1211.4722,715.0004 C1230.5253,731.5548 1256.2795,753.9314 1276.2458,771.2791 " fill="none" id=":engine:connectable-&gt;:engine:util" style="stroke: #A80036; stroke-width: 1.0;"/><polygon fill="#A80036" points="1280.1582,774.6784,1275.9879,765.7561,1276.3838,771.399,1270.7409,771.795,1280.1582,774.6784" style="stroke: #A80036; stroke-width: 1.0;"/><!--MD5=[6eb7bccd1a3c6d4cd083766ccbfc4317]
link :engine:connectable to :engine:log--><path d="M1178.0565,715.0004 C1173.2255,731.003 1166.7521,752.4461 1161.5953,769.528 " fill="none" id=":engine:connectable-&gt;:engine:log" style="stroke: #A80036; stroke-width: 1.0;"/><polygon fill="#A80036" points="1160.0405,774.6784,1166.471,767.2186,1161.4856,769.8918,1158.8124,764.9064,1160.0405,774.6784" style="stroke: #A80036; stroke-width: 1.0;"/><!--MD5=[96dc4ca78ce9f4597c88082d6f3e186c]
link :android:indicator to :android:core--><path d="M1007.9112,291.0749 C980.6112,300.176 949.9883,311.4633 923,324 C908.0652,330.9376 892.3842,339.7992 878.6682,348.1296 " fill="none" id=":android:indicator-&gt;:android:core" style="stroke: #A80036; stroke-width: 1.0;"/><polygon fill="#A80036" points="874.0959,350.9309,883.8598,349.64,878.3594,348.3189,879.6805,342.8185,874.0959,350.9309" style="stroke: #A80036; stroke-width: 1.0;"/><!--MD5=[bd9cb8a7c84ee4f7ab758a69f4cf00fb]
link :android:indicator to :android:notification--><path d="M1072.8488,291.0004 C1064.3218,307.1409 1052.8707,328.8162 1043.8089,345.9688 " fill="none" id=":android:indicator-&gt;:android:notification" style="stroke: #A80036; stroke-width: 1.0;"/><polygon fill="#A80036" points="1041.3208,350.6784,1049.0616,344.5891,1043.6564,346.2574,1041.988,340.8522,1041.3208,350.6784" style="stroke: #A80036; stroke-width: 1.0;"/><!--MD5=[e7a76a9c57e440ed2221ace9ced348ea]
link :android:core to :android:resources--><path d="M905.571,394.8157 C961.18,412.2038 1040.577,437.03 1099.321,455.3983 " fill="none" id=":android:core-&gt;:android:resources" style="stroke: #A80036; stroke-width: 1.0;"/><polygon fill="#A80036" points="1104.2253,456.9318,1096.8293,450.428,1099.4532,455.4395,1094.4417,458.0634,1104.2253,456.9318" style="stroke: #A80036; stroke-width: 1.0;"/><!--MD5=[823f6d265fa7b51d9d7161f2d93b9088]
link :android:core to :android:debug--><path d="M849.4153,397.0004 C856.7242,413.1409 866.5394,434.8162 874.3066,451.9688 " fill="none" id=":android:core-&gt;:android:debug" style="stroke: #A80036; stroke-width: 1.0;"/><polygon fill="#A80036" points="876.4393,456.6784,876.3706,446.8298,874.3768,452.1236,869.0829,450.1298,876.4393,456.6784" style="stroke: #A80036; stroke-width: 1.0;"/><!--MD5=[b47fc6152ea28caa80e6f618d5f135a8]
link :android:debug to :core:api--><path d="M960.5416,494.9624 C1065.9454,516.4073 1257.6597,555.4125 1352.2141,574.6501 " fill="none" id=":android:debug-&gt;:core:api" style="stroke: #A80036; stroke-width: 1.0;"/><polygon fill="#A80036" points="1357.1952,575.6635,1349.1735,569.9492,1352.2956,574.6665,1347.5783,577.7886,1357.1952,575.6635" style="stroke: #A80036; stroke-width: 1.0;"/><!--MD5=[49c315795c2cf8a16b9fc4140ea8e080]
link :android:intent to :core:api--><path d="M375.7373,291.1641 C447.7859,340.8401 627.1366,457.4384 796,511 C899.156,543.7199 1221.1478,571.541 1351.9354,581.7899 " fill="none" id=":android:intent-&gt;:core:api" style="stroke: #A80036; stroke-width: 1.0;"/><polygon fill="#A80036" points="1357.2628,582.2059,1348.6015,577.5173,1352.278,581.8166,1347.9787,585.493,1357.2628,582.2059" style="stroke: #A80036; stroke-width: 1.0;"/><!--MD5=[99eb1f9ce8f3a5e1f5d168a23a4e6130]
link :android:account to :android:core--><path d="M739.5571,291.0004 C759.3911,307.5548 786.2008,329.9314 806.9854,347.2791 " fill="none" id=":android:account-&gt;:android:core" style="stroke: #A80036; stroke-width: 1.0;"/><polygon fill="#A80036" points="811.0581,350.6784,806.7117,341.8405,807.2195,347.4745,801.5855,347.9823,811.0581,350.6784" style="stroke: #A80036; stroke-width: 1.0;"/><!--MD5=[ea06712275b471b139755bf35b876505]
link :android:roster to :android:core--><path d="M885.1979,291.0004 C876.214,307.1409 864.1495,328.8162 854.6023,345.9688 " fill="none" id=":android:roster-&gt;:android:core" style="stroke: #A80036; stroke-width: 1.0;"/><polygon fill="#A80036" points="851.9809,350.6784,859.853,344.7598,854.4126,346.3096,852.8629,340.8691,851.9809,350.6784" style="stroke: #A80036; stroke-width: 1.0;"/><!--MD5=[27504143436bfd555a82356c36796927]
link :android:chat to :android:core--><path d="M1200.7204,287.0764 C1194.7536,288.5119 1188.7831,289.8472 1183,291 C1068.7648,313.7708 1033.1377,286.0806 923,324 C906.2761,329.7579 889.2473,339.1143 874.9336,348.1851 " fill="none" id=":android:chat-&gt;:android:core" style="stroke: #A80036; stroke-width: 1.0;"/><polygon fill="#A80036" points="870.5819,350.9867,880.3145,349.4782,874.786,348.2801,875.9841,342.7516,870.5819,350.9867" style="stroke: #A80036; stroke-width: 1.0;"/><!--MD5=[efb42bc9aa58ba14b70407a353d00396]
link :android:chat to :android:notification--><path d="M1212.0094,291.0286 C1188.5159,300.9908 1160.8366,312.8922 1136,324 C1118.463,331.8432 1099.4306,340.6426 1082.3463,348.6477 " fill="none" id=":android:chat-&gt;:android:notification" style="stroke: #A80036; stroke-width: 1.0;"/><polygon fill="#A80036" points="1077.5822,350.8831,1087.429,350.6812,1082.1087,348.7592,1084.0307,343.4388,1077.5822,350.8831" style="stroke: #A80036; stroke-width: 1.0;"/><!--MD5=[5767c1eae9a459def5cf537ae8640123]
link :android:chat to :android:widget--><path d="M1258.3206,291.0004 C1252.2298,307.1409 1244.0505,328.8162 1237.5778,345.9688 " fill="none" id=":android:chat-&gt;:android:widget" style="stroke: #A80036; stroke-width: 1.0;"/><polygon fill="#A80036" points="1235.8006,350.6784,1242.7206,343.6703,1237.566,346.0004,1235.2359,340.8457,1235.8006,350.6784" style="stroke: #A80036; stroke-width: 1.0;"/><!--MD5=[d0c9adee400d99d2c7e70b3cbab35cf4]
link :android:chat to :core:cli--><path d="M1290.8868,291.1382 C1300.2322,300.8263 1310.6812,312.4967 1319,324 C1349.4004,366.0382 1376.8866,419.9672 1392.2244,452.153 " fill="none" id=":android:chat-&gt;:core:cli" style="stroke: #A80036; stroke-width: 1.0;"/><polygon fill="#A80036" points="1394.3981,456.7399,1394.1588,446.894,1392.257,452.2215,1386.9294,450.3197,1394.3981,456.7399" style="stroke: #A80036; stroke-width: 1.0;"/><!--MD5=[43e23cfb2d1172d7fb8288cf83bc1bf5]
link :android:drawer to :android:core--><path d="M592.3503,291.0004 C644.0611,308.4015 714.8891,332.2357 767.3827,349.9002 " fill="none" id=":android:drawer-&gt;:android:core" style="stroke: #A80036; stroke-width: 1.0;"/><polygon fill="#A80036" points="772.4042,351.59,765.1501,344.9283,767.6654,349.9952,762.5984,352.5104,772.4042,351.59" style="stroke: #A80036; stroke-width: 1.0;"/><!--MD5=[7b3a637c57679a25661074470a3582ea]
link :android:widget to :android:resources--><path d="M1216.3677,397.0004 C1208.9066,413.1409 1198.8869,434.8162 1190.9578,451.9688 " fill="none" id=":android:widget-&gt;:android:resources" style="stroke: #A80036; stroke-width: 1.0;"/><polygon fill="#A80036" points="1188.7807,456.6784,1196.1881,450.1876,1190.8788,452.1399,1188.9265,446.8306,1188.7807,456.6784" style="stroke: #A80036; stroke-width: 1.0;"/><!--MD5=[e5b52aacd6c9e8567a26aa6a4b3cfc3a]
link :core:cli to :engine:translator--><path d="M1432.7322,503.0286 C1448.7217,518.1865 1467.3274,539.5198 1476,563 C1484.3155,585.5134 1485.6761,595.037 1476,617 C1467.3953,636.5311 1450.915,653.1875 1434.9724,665.8065 " fill="none" id=":core:cli-&gt;:engine:translator" style="stroke: #A80036; stroke-width: 1.0;"/><polygon fill="#A80036" points="1430.9359,668.927,1440.5028,666.5871,1434.8917,665.8689,1435.6098,660.2578,1430.9359,668.927" style="stroke: #A80036; stroke-width: 1.0;"/><!--MD5=[c2bb4decd7a24ab2954465b21eb4e89b]
link :core:cli to :core:api--><path d="M1405.651,503.0004 C1406.1039,519.003 1406.7107,540.4461 1407.1942,557.528 " fill="none" id=":core:cli-&gt;:core:api" style="stroke: #A80036; stroke-width: 1.0;"/><polygon fill="#A80036" points="1407.34,562.6784,1411.0836,553.5688,1407.1984,557.6804,1403.0868,553.7953,1407.34,562.6784" style="stroke: #A80036; stroke-width: 1.0;"/><!--MD5=[c092ee46ff50f3ad0966693409762b2d]
link :android:app to :core:backend--><path d="M734.2084,61.2613 C841.875,70.5218 1054.092,90.7727 1126,112 C1255.8273,150.3251 1286.9751,170.5062 1400,245 C1446.4802,275.6347 1494.062,319.4336 1522.572,347.291 " fill="none" id=":android:app-&gt;:core:backend" style="stroke: #A80036; stroke-width: 1.0;"/><polygon fill="#A80036" points="1526.295,350.9442,1522.6727,341.7857,1522.7262,347.4423,1517.0696,347.4957,1526.295,350.9442" style="stroke: #A80036; stroke-width: 1.0;"/><!--MD5=[f628b0d0476bcd96ad7e4bc9c88fe729]
link :android:app to :net:smack:android--><path d="M605.775,60.6009 C523.7418,67.4062 377.807,82.6429 256,112 C229.2016,118.4588 200.3822,128.0823 175.7557,137.1668 " fill="none" id=":android:app-&gt;:net:smack:android" style="stroke: #A80036; stroke-width: 1.0;"/><polygon fill="#A80036" points="170.8882,138.9753,180.7178,139.5902,175.5751,137.2338,177.9315,132.0911,170.8882,138.9753" style="stroke: #A80036; stroke-width: 1.0;"/><!--MD5=[a35988381a2e6516f16fc9d849ebccf6]
link :android:app to :android:room--><path d="M670,79.0004 C670,95.003 670,116.4461 670,133.528 " fill="none" id=":android:app-&gt;:android:room" style="stroke: #A80036; stroke-width: 1.0;"/><polygon fill="#A80036" points="670,138.6784,674,129.6784,670,133.6784,666,129.6784,670,138.6784" style="stroke: #A80036; stroke-width: 1.0;"/><!--MD5=[e9fec9df6cff927a3d769895582165d1]
link :android:app to :android:sys--><path d="M734.2203,66.6148 C786.7308,76.0963 862.5586,91.6303 927,112 C948.6606,118.8468 971.8265,128.1115 991.9091,136.8055 " fill="none" id=":android:app-&gt;:android:sys" style="stroke: #A80036; stroke-width: 1.0;"/><polygon fill="#A80036" points="996.6772,138.8839,990.0254,131.6207,992.0938,136.8859,986.8286,138.9542,996.6772,138.8839" style="stroke: #A80036; stroke-width: 1.0;"/><!--MD5=[ac117d8559748edfbe600e9405f9bdee]
link :android:app to :android:log--><path d="M605.8294,63.6333 C552.6811,71.4363 475.9469,86.169 413,112 C397.8898,118.2006 382.4527,127.2518 369.2801,135.9546 " fill="none" id=":android:app-&gt;:android:log" style="stroke: #A80036; stroke-width: 1.0;"/><polygon fill="#A80036" points="364.9035,138.888,374.6066,137.1998,369.0569,136.1042,370.1525,130.5545,364.9035,138.888" style="stroke: #A80036; stroke-width: 1.0;"/><!--MD5=[32c4354e0221cd2acf28738e9c0350e1]
link :android:app to :android:error--><path d="M632.6786,79.0004 C605.3872,95.8195 568.3439,118.6485 540.0143,136.1075 " fill="none" id=":android:app-&gt;:android:error" style="stroke: #A80036; stroke-width: 1.0;"/><polygon fill="#A80036" points="535.5452,138.8617,545.3057,137.545,539.8018,136.2384,541.1084,130.7345,535.5452,138.8617" style="stroke: #A80036; stroke-width: 1.0;"/><!--MD5=[de56f305491d2fe9d536387097efe455]
link :android:app to :android:main--><path d="M707.3214,79.0004 C734.6128,95.8195 771.6561,118.6485 799.9857,136.1075 " fill="none" id=":android:app-&gt;:android:main" style="stroke: #A80036; stroke-width: 1.0;"/><polygon fill="#A80036" points="804.4548,138.8617,798.8916,130.7345,800.1982,136.2384,794.6943,137.545,804.4548,138.8617" style="stroke: #A80036; stroke-width: 1.0;"/><!--MD5=[f2fb73de4356ea0070062a91c27ac72c]
@startuml
package ":core" {
[:core:backend]
[:core:domain]
[:core:api]
[:core:cli]
}
package ":net" {
[:net:smack:android]
}
package ":android" {
[:android:room]
[:android:sys]
[:android:log]
[:android:error]
[:android:main]
[:android:indicator]
[:android:core]
[:android:notification]
[:android:resources]
[:android:debug]
[:android:intent]
[:android:account]
[:android:roster]
[:android:chat]
[:android:drawer]
[:android:widget]
[:android:app]
}
package ":engine" {
[:engine:paging]
[:engine:connectable]
[:engine:util]
[:engine:log]
[:engine:translator]
}
[:core:backend] - -> [:core:domain]
[:net:smack:android] - -> [:core:api]
[:android:room] - -> [:core:api]
[:android:sys] - -> [:android:indicator]
[:android:log] - -> [:engine:log]
[:android:error] - -> [:engine:log]
[:android:main] - -> [:android:intent]
[:android:main] - -> [:android:account]
[:android:main] - -> [:android:roster]
[:android:main] - -> [:android:chat]
[:android:main] - -> [:android:drawer]
[:android:main] - -> [:core:domain]
[:core:domain] - -> [:engine:paging]
[:core:domain] - -> [:core:api]
[:core:api] - -> [:engine:connectable]
[:engine:connectable] - -> [:engine:util]
[:engine:connectable] - -> [:engine:log]
[:android:indicator] - -> [:android:core]
[:android:indicator] - -> [:android:notification]
[:android:core] - -> [:android:resources]
[:android:core] - -> [:android:debug]
[:android:debug] - -> [:core:api]
[:android:intent] - -> [:core:api]
[:android:account] - -> [:android:core]
[:android:roster] - -> [:android:core]
[:android:chat] - -> [:android:core]
[:android:chat] - -> [:android:notification]
[:android:chat] - -> [:android:widget]
[:android:chat] - -> [:core:cli]
[:android:drawer] - -> [:android:core]
[:android:widget] - -> [:android:resources]
[:core:cli] - -> [:engine:translator]
[:core:cli] - -> [:core:api]
[:android:app] - -> [:core:backend]
[:android:app] - -> [:net:smack:android]
[:android:app] - -> [:android:room]
[:android:app] - -> [:android:sys]
[:android:app] - -> [:android:log]
[:android:app] - -> [:android:error]
[:android:app] - -> [:android:main]
@enduml

PlantUML version 1.2020.15(Sun Jun 28 13:39:45 CEST 2020)
(GPL source distribution)
Java Runtime: OpenJDK Runtime Environment
JVM: OpenJDK 64-Bit Server VM
Default Encoding: UTF-8
Language: pl
Country: PL
--></g></svg>