<?xml version="1.0" encoding="UTF-8" standalone="no"?><svg xmlns="http://www.w3.org/2000/svg" xmlns:xlink="http://www.w3.org/1999/xlink" contentScriptType="application/ecmascript" contentStyleType="text/css" height="735px" preserveAspectRatio="none" style="width:2878px;height:735px;" version="1.1" viewBox="0 0 2878 735" width="2878px" zoomAndPan="magnify"><defs><filter height="300%" id="figcddprjm4xi" width="300%" x="-1" y="-1"><feGaussianBlur result="blurOut" stdDeviation="2.0"/><feColorMatrix in="blurOut" result="blurOut2" type="matrix" values="0 0 0 0 0 0 0 0 0 0 0 0 0 0 0 0 0 0 .4 0"/><feOffset dx="4.0" dy="4.0" in="blurOut2" result="blurOut3"/><feBlend in="SourceGraphic" in2="blurOut3" mode="normal"/></filter></defs><g><!--MD5=[30404b2edc0ff233b9122d63ae72b243]
cluster :core--><polygon fill="#FFFFFF" filter="url(#figcddprjm4xi)" points="95.7848,218,143.7848,218,150.7848,240.2969,374.7848,240.2969,374.7848,511,95.7848,511,95.7848,218" style="stroke: #000000; stroke-width: 1.5;"/><line style="stroke: #000000; stroke-width: 1.5;" x1="95.7848" x2="150.7848" y1="240.2969" y2="240.2969"/><text fill="#000000" font-family="sans-serif" font-size="14" font-weight="bold" lengthAdjust="spacingAndGlyphs" textLength="42" x="99.7848" y="232.9951">:core</text><!--MD5=[aae699ec891e4c0fc5af03006e3188bf]
cluster :platform--><polygon fill="#FFFFFF" filter="url(#figcddprjm4xi)" points="1650.7848,324,1728.7848,324,1735.7848,346.2969,2856.7848,346.2969,2856.7848,405,1650.7848,405,1650.7848,324" style="stroke: #000000; stroke-width: 1.5;"/><line style="stroke: #000000; stroke-width: 1.5;" x1="1650.7848" x2="1735.7848" y1="346.2969" y2="346.2969"/><text fill="#000000" font-family="sans-serif" font-size="14" font-weight="bold" lengthAdjust="spacingAndGlyphs" textLength="72" x="1654.7848" y="338.9951">:platform</text><!--MD5=[6124d9865eee0f458a8c9ca898d4a94b]
cluster :android--><polygon fill="#FFFFFF" filter="url(#figcddprjm4xi)" points="382.7848,6,454.7848,6,461.7848,28.2969,1642.7848,28.2969,1642.7848,511,382.7848,511,382.7848,6" style="stroke: #000000; stroke-width: 1.5;"/><line style="stroke: #000000; stroke-width: 1.5;" x1="382.7848" x2="461.7848" y1="28.2969" y2="28.2969"/><text fill="#000000" font-family="sans-serif" font-size="14" font-weight="bold" lengthAdjust="spacingAndGlyphs" textLength="66" x="386.7848" y="20.9951">:android</text><!--MD5=[6ed0a4222646c4be5d3ab2314135a570]
cluster :engine--><polygon fill="#FFFFFF" filter="url(#figcddprjm4xi)" points="59.7848,536,125.7848,536,132.7848,558.2969,638.7848,558.2969,638.7848,723,59.7848,723,59.7848,536" style="stroke: #000000; stroke-width: 1.5;"/><line style="stroke: #000000; stroke-width: 1.5;" x1="59.7848" x2="132.7848" y1="558.2969" y2="558.2969"/><text fill="#000000" font-family="sans-serif" font-size="14" font-weight="bold" lengthAdjust="spacingAndGlyphs" textLength="60" x="63.7848" y="550.9951">:engine</text><!--MD5=[6b3c72c52f198a8ada63b8c5ce9355bc]
entity :core:backend--><rect fill="#FEFECE" filter="url(#figcddprjm4xi)" height="46.2969" style="stroke: #A80036; stroke-width: 1.5;" width="141" x="114.2848" y="245"/><rect fill="#FEFECE" height="10" style="stroke: #A80036; stroke-width: 1.5;" width="15" x="235.2848" y="250"/><rect fill="#FEFECE" height="2" style="stroke: #A80036; stroke-width: 1.5;" width="4" x="233.2848" y="252"/><rect fill="#FEFECE" height="2" style="stroke: #A80036; stroke-width: 1.5;" width="4" x="233.2848" y="256"/><text fill="#000000" font-family="sans-serif" font-size="14" lengthAdjust="spacingAndGlyphs" textLength="101" x="129.2848" y="277.9951">:core:backend</text><!--MD5=[c0f778923607b3b2b1776544ac20a677]
entity :core:domain--><rect fill="#FEFECE" filter="url(#figcddprjm4xi)" height="46.2969" style="stroke: #A80036; stroke-width: 1.5;" width="132" x="103.7848" y="351"/><rect fill="#FEFECE" height="10" style="stroke: #A80036; stroke-width: 1.5;" width="15" x="215.7848" y="356"/><rect fill="#FEFECE" height="2" style="stroke: #A80036; stroke-width: 1.5;" width="4" x="213.7848" y="358"/><rect fill="#FEFECE" height="2" style="stroke: #A80036; stroke-width: 1.5;" width="4" x="213.7848" y="362"/><text fill="#000000" font-family="sans-serif" font-size="14" lengthAdjust="spacingAndGlyphs" textLength="92" x="118.7848" y="383.9951">:core:domain</text><!--MD5=[bb042d61f43125fc2fe6ee382cb3d84b]
entity :core:api--><rect fill="#FEFECE" filter="url(#figcddprjm4xi)" height="46.2969" style="stroke: #A80036; stroke-width: 1.5;" width="101" x="265.2848" y="457"/><rect fill="#FEFECE" height="10" style="stroke: #A80036; stroke-width: 1.5;" width="15" x="346.2848" y="462"/><rect fill="#FEFECE" height="2" style="stroke: #A80036; stroke-width: 1.5;" width="4" x="344.2848" y="464"/><rect fill="#FEFECE" height="2" style="stroke: #A80036; stroke-width: 1.5;" width="4" x="344.2848" y="468"/><text fill="#000000" font-family="sans-serif" font-size="14" lengthAdjust="spacingAndGlyphs" textLength="61" x="280.2848" y="489.9951">:core:api</text><!--MD5=[b4e25f7522ba1111eb2df4fe1b5db7c7]
entity :core:cli--><rect fill="#FEFECE" filter="url(#figcddprjm4xi)" height="46.2969" style="stroke: #A80036; stroke-width: 1.5;" width="95" x="271.2848" y="351"/><rect fill="#FEFECE" height="10" style="stroke: #A80036; stroke-width: 1.5;" width="15" x="346.2848" y="356"/><rect fill="#FEFECE" height="2" style="stroke: #A80036; stroke-width: 1.5;" width="4" x="344.2848" y="358"/><rect fill="#FEFECE" height="2" style="stroke: #A80036; stroke-width: 1.5;" width="4" x="344.2848" y="362"/><text fill="#000000" font-family="sans-serif" font-size="14" lengthAdjust="spacingAndGlyphs" textLength="55" x="286.2848" y="383.9951">:core:cli</text><!--MD5=[7555348684aac615abf32a194ed657e7]
entity :platform:net:smack:android--><rect fill="#FEFECE" filter="url(#figcddprjm4xi)" height="46.2969" style="stroke: #A80036; stroke-width: 1.5;" width="236" x="2178.7848" y="351"/><rect fill="#FEFECE" height="10" style="stroke: #A80036; stroke-width: 1.5;" width="15" x="2394.7848" y="356"/><rect fill="#FEFECE" height="2" style="stroke: #A80036; stroke-width: 1.5;" width="4" x="2392.7848" y="358"/><rect fill="#FEFECE" height="2" style="stroke: #A80036; stroke-width: 1.5;" width="4" x="2392.7848" y="362"/><text fill="#000000" font-family="sans-serif" font-size="14" lengthAdjust="spacingAndGlyphs" textLength="196" x="2193.7848" y="383.9951">:platform:net:smack:android</text><!--MD5=[7d05a7b213c691ded4410087562381da]
entity :platform:repo:room--><rect fill="#FEFECE" filter="url(#figcddprjm4xi)" height="46.2969" style="stroke: #A80036; stroke-width: 1.5;" width="179" x="2450.2848" y="351"/><rect fill="#FEFECE" height="10" style="stroke: #A80036; stroke-width: 1.5;" width="15" x="2609.2848" y="356"/><rect fill="#FEFECE" height="2" style="stroke: #A80036; stroke-width: 1.5;" width="4" x="2607.2848" y="358"/><rect fill="#FEFECE" height="2" style="stroke: #A80036; stroke-width: 1.5;" width="4" x="2607.2848" y="362"/><text fill="#000000" font-family="sans-serif" font-size="14" lengthAdjust="spacingAndGlyphs" textLength="139" x="2465.2848" y="383.9951">:platform:repo:room</text><!--MD5=[f97ec7d7f57fc74a6f53143a60b8d412]
entity :platform:sys:android--><rect fill="#FEFECE" filter="url(#figcddprjm4xi)" height="46.2969" style="stroke: #A80036; stroke-width: 1.5;" width="186" x="1957.7848" y="351"/><rect fill="#FEFECE" height="10" style="stroke: #A80036; stroke-width: 1.5;" width="15" x="2123.7848" y="356"/><rect fill="#FEFECE" height="2" style="stroke: #A80036; stroke-width: 1.5;" width="4" x="2121.7848" y="358"/><rect fill="#FEFECE" height="2" style="stroke: #A80036; stroke-width: 1.5;" width="4" x="2121.7848" y="362"/><text fill="#000000" font-family="sans-serif" font-size="14" lengthAdjust="spacingAndGlyphs" textLength="146" x="1972.7848" y="383.9951">:platform:sys:android</text><!--MD5=[0192921ae83855e3782d4a30a6a736d2]
entity :platform:log:android--><rect fill="#FEFECE" filter="url(#figcddprjm4xi)" height="46.2969" style="stroke: #A80036; stroke-width: 1.5;" width="184" x="2664.7848" y="351"/><rect fill="#FEFECE" height="10" style="stroke: #A80036; stroke-width: 1.5;" width="15" x="2828.7848" y="356"/><rect fill="#FEFECE" height="2" style="stroke: #A80036; stroke-width: 1.5;" width="4" x="2826.7848" y="358"/><rect fill="#FEFECE" height="2" style="stroke: #A80036; stroke-width: 1.5;" width="4" x="2826.7848" y="362"/><text fill="#000000" font-family="sans-serif" font-size="14" lengthAdjust="spacingAndGlyphs" textLength="144" x="2679.7848" y="383.9951">:platform:log:android</text><!--MD5=[e250328d3e47e8639d241f05ebb3f883]
entity :platform:util:android:notification--><rect fill="#FEFECE" filter="url(#figcddprjm4xi)" height="46.2969" style="stroke: #A80036; stroke-width: 1.5;" width="263" x="1659.2848" y="351"/><rect fill="#FEFECE" height="10" style="stroke: #A80036; stroke-width: 1.5;" width="15" x="1902.2848" y="356"/><rect fill="#FEFECE" height="2" style="stroke: #A80036; stroke-width: 1.5;" width="4" x="1900.2848" y="358"/><rect fill="#FEFECE" height="2" style="stroke: #A80036; stroke-width: 1.5;" width="4" x="1900.2848" y="362"/><text fill="#000000" font-family="sans-serif" font-size="14" lengthAdjust="spacingAndGlyphs" textLength="223" x="1674.2848" y="383.9951">:platform:util:android:notification</text><!--MD5=[37b953e512ae70b44a23cc4bd83136e2]
entity :android:error--><rect fill="#FEFECE" filter="url(#figcddprjm4xi)" height="46.2969" style="stroke: #A80036; stroke-width: 1.5;" width="135" x="491.2848" y="139"/><rect fill="#FEFECE" height="10" style="stroke: #A80036; stroke-width: 1.5;" width="15" x="606.2848" y="144"/><rect fill="#FEFECE" height="2" style="stroke: #A80036; stroke-width: 1.5;" width="4" x="604.2848" y="146"/><rect fill="#FEFECE" height="2" style="stroke: #A80036; stroke-width: 1.5;" width="4" x="604.2848" y="150"/><text fill="#000000" font-family="sans-serif" font-size="14" lengthAdjust="spacingAndGlyphs" textLength="95" x="506.2848" y="171.9951">:android:error</text><!--MD5=[8b23712cbce6b2745bbd08e1acd8155e]
entity :android:main--><rect fill="#FEFECE" filter="url(#figcddprjm4xi)" height="46.2969" style="stroke: #A80036; stroke-width: 1.5;" width="135" x="845.2848" y="139"/><rect fill="#FEFECE" height="10" style="stroke: #A80036; stroke-width: 1.5;" width="15" x="960.2848" y="144"/><rect fill="#FEFECE" height="2" style="stroke: #A80036; stroke-width: 1.5;" width="4" x="958.2848" y="146"/><rect fill="#FEFECE" height="2" style="stroke: #A80036; stroke-width: 1.5;" width="4" x="958.2848" y="150"/><text fill="#000000" font-family="sans-serif" font-size="14" lengthAdjust="spacingAndGlyphs" textLength="95" x="860.2848" y="171.9951">:android:main</text><!--MD5=[b759699551f165de218e2e968fab95b2]
entity :android:indicator--><rect fill="#FEFECE" filter="url(#figcddprjm4xi)" height="46.2969" style="stroke: #A80036; stroke-width: 1.5;" width="161" x="1473.2848" y="245"/><rect fill="#FEFECE" height="10" style="stroke: #A80036; stroke-width: 1.5;" width="15" x="1614.2848" y="250"/><rect fill="#FEFECE" height="2" style="stroke: #A80036; stroke-width: 1.5;" width="4" x="1612.2848" y="252"/><rect fill="#FEFECE" height="2" style="stroke: #A80036; stroke-width: 1.5;" width="4" x="1612.2848" y="256"/><text fill="#000000" font-family="sans-serif" font-size="14" lengthAdjust="spacingAndGlyphs" textLength="121" x="1488.2848" y="277.9951">:android:indicator</text><!--MD5=[4243627ae140629495d6edbad54f8b36]
entity :android:core--><rect fill="#FEFECE" filter="url(#figcddprjm4xi)" height="46.2969" style="stroke: #A80036; stroke-width: 1.5;" width="133" x="928.2848" y="351"/><rect fill="#FEFECE" height="10" style="stroke: #A80036; stroke-width: 1.5;" width="15" x="1041.2848" y="356"/><rect fill="#FEFECE" height="2" style="stroke: #A80036; stroke-width: 1.5;" width="4" x="1039.2848" y="358"/><rect fill="#FEFECE" height="2" style="stroke: #A80036; stroke-width: 1.5;" width="4" x="1039.2848" y="362"/><text fill="#000000" font-family="sans-serif" font-size="14" lengthAdjust="spacingAndGlyphs" textLength="93" x="943.2848" y="383.9951">:android:core</text><!--MD5=[dc93d87eb620fb3186cd34a04b83c7ae]
entity :android:resources--><rect fill="#FEFECE" filter="url(#figcddprjm4xi)" height="46.2969" style="stroke: #A80036; stroke-width: 1.5;" width="172" x="819.7848" y="457"/><rect fill="#FEFECE" height="10" style="stroke: #A80036; stroke-width: 1.5;" width="15" x="971.7848" y="462"/><rect fill="#FEFECE" height="2" style="stroke: #A80036; stroke-width: 1.5;" width="4" x="969.7848" y="464"/><rect fill="#FEFECE" height="2" style="stroke: #A80036; stroke-width: 1.5;" width="4" x="969.7848" y="468"/><text fill="#000000" font-family="sans-serif" font-size="14" lengthAdjust="spacingAndGlyphs" textLength="132" x="834.7848" y="489.9951">:android:resources</text><!--MD5=[81a55ae8ee37e126e15aacb863ec98ad]
entity :android:debug--><rect fill="#FEFECE" filter="url(#figcddprjm4xi)" height="46.2969" style="stroke: #A80036; stroke-width: 1.5;" width="147" x="568.2848" y="245"/><rect fill="#FEFECE" height="10" style="stroke: #A80036; stroke-width: 1.5;" width="15" x="695.2848" y="250"/><rect fill="#FEFECE" height="2" style="stroke: #A80036; stroke-width: 1.5;" width="4" x="693.2848" y="252"/><rect fill="#FEFECE" height="2" style="stroke: #A80036; stroke-width: 1.5;" width="4" x="693.2848" y="256"/><text fill="#000000" font-family="sans-serif" font-size="14" lengthAdjust="spacingAndGlyphs" textLength="107" x="583.2848" y="277.9951">:android:debug</text><!--MD5=[7b0e00ffb091306e7adce213ff533c85]
entity :android:intent--><rect fill="#FEFECE" filter="url(#figcddprjm4xi)" height="46.2969" style="stroke: #A80036; stroke-width: 1.5;" width="142" x="390.7848" y="245"/><rect fill="#FEFECE" height="10" style="stroke: #A80036; stroke-width: 1.5;" width="15" x="512.7848" y="250"/><rect fill="#FEFECE" height="2" style="stroke: #A80036; stroke-width: 1.5;" width="4" x="510.7848" y="252"/><rect fill="#FEFECE" height="2" style="stroke: #A80036; stroke-width: 1.5;" width="4" x="510.7848" y="256"/><text fill="#000000" font-family="sans-serif" font-size="14" lengthAdjust="spacingAndGlyphs" textLength="102" x="405.7848" y="277.9951">:android:intent</text><!--MD5=[537263759804c0f37bfe27ff6520266d]
entity :android:account--><rect fill="#FEFECE" filter="url(#figcddprjm4xi)" height="46.2969" style="stroke: #A80036; stroke-width: 1.5;" width="158" x="917.7848" y="245"/><rect fill="#FEFECE" height="10" style="stroke: #A80036; stroke-width: 1.5;" width="15" x="1055.7848" y="250"/><rect fill="#FEFECE" height="2" style="stroke: #A80036; stroke-width: 1.5;" width="4" x="1053.7848" y="252"/><rect fill="#FEFECE" height="2" style="stroke: #A80036; stroke-width: 1.5;" width="4" x="1053.7848" y="256"/><text fill="#000000" font-family="sans-serif" font-size="14" lengthAdjust="spacingAndGlyphs" textLength="118" x="932.7848" y="277.9951">:android:account</text><!--MD5=[a40cbfa6716f14d6e2acc0c2f4f85b3d]
entity :android:roster--><rect fill="#FEFECE" filter="url(#figcddprjm4xi)" height="46.2969" style="stroke: #A80036; stroke-width: 1.5;" width="143" x="1111.2848" y="245"/><rect fill="#FEFECE" height="10" style="stroke: #A80036; stroke-width: 1.5;" width="15" x="1234.2848" y="250"/><rect fill="#FEFECE" height="2" style="stroke: #A80036; stroke-width: 1.5;" width="4" x="1232.2848" y="252"/><rect fill="#FEFECE" height="2" style="stroke: #A80036; stroke-width: 1.5;" width="4" x="1232.2848" y="256"/><text fill="#000000" font-family="sans-serif" font-size="14" lengthAdjust="spacingAndGlyphs" textLength="103" x="1126.2848" y="277.9951">:android:roster</text><!--MD5=[1abf9466b7c9941f0b2d230b4b5f13c9]
entity :android:chat--><rect fill="#FEFECE" filter="url(#figcddprjm4xi)" height="46.2969" style="stroke: #A80036; stroke-width: 1.5;" width="132" x="750.7848" y="245"/><rect fill="#FEFECE" height="10" style="stroke: #A80036; stroke-width: 1.5;" width="15" x="862.7848" y="250"/><rect fill="#FEFECE" height="2" style="stroke: #A80036; stroke-width: 1.5;" width="4" x="860.7848" y="252"/><rect fill="#FEFECE" height="2" style="stroke: #A80036; stroke-width: 1.5;" width="4" x="860.7848" y="256"/><text fill="#000000" font-family="sans-serif" font-size="14" lengthAdjust="spacingAndGlyphs" textLength="92" x="765.7848" y="277.9951">:android:chat</text><!--MD5=[ff52f1825a9f6fbfff2d66c588103d9f]
entity :android:drawer--><rect fill="#FEFECE" filter="url(#figcddprjm4xi)" height="46.2969" style="stroke: #A80036; stroke-width: 1.5;" width="149" x="1289.2848" y="245"/><rect fill="#FEFECE" height="10" style="stroke: #A80036; stroke-width: 1.5;" width="15" x="1418.2848" y="250"/><rect fill="#FEFECE" height="2" style="stroke: #A80036; stroke-width: 1.5;" width="4" x="1416.2848" y="252"/><rect fill="#FEFECE" height="2" style="stroke: #A80036; stroke-width: 1.5;" width="4" x="1416.2848" y="256"/><text fill="#000000" font-family="sans-serif" font-size="14" lengthAdjust="spacingAndGlyphs" textLength="109" x="1304.2848" y="277.9951">:android:drawer</text><!--MD5=[ccc75cd529beb82693de2a4497c4bb10]
entity :android:widget--><rect fill="#FEFECE" filter="url(#figcddprjm4xi)" height="46.2969" style="stroke: #A80036; stroke-width: 1.5;" width="148" x="742.7848" y="351"/><rect fill="#FEFECE" height="10" style="stroke: #A80036; stroke-width: 1.5;" width="15" x="870.7848" y="356"/><rect fill="#FEFECE" height="2" style="stroke: #A80036; stroke-width: 1.5;" width="4" x="868.7848" y="358"/><rect fill="#FEFECE" height="2" style="stroke: #A80036; stroke-width: 1.5;" width="4" x="868.7848" y="362"/><text fill="#000000" font-family="sans-serif" font-size="14" lengthAdjust="spacingAndGlyphs" textLength="108" x="757.7848" y="383.9951">:android:widget</text><!--MD5=[b6d98d9177c5b22a205e5ab6c49b37ef]
entity :android:app--><rect fill="#FEFECE" filter="url(#figcddprjm4xi)" height="46.2969" style="stroke: #A80036; stroke-width: 1.5;" width="128" x="1506.7848" y="33"/><rect fill="#FEFECE" height="10" style="stroke: #A80036; stroke-width: 1.5;" width="15" x="1614.7848" y="38"/><rect fill="#FEFECE" height="2" style="stroke: #A80036; stroke-width: 1.5;" width="4" x="1612.7848" y="40"/><rect fill="#FEFECE" height="2" style="stroke: #A80036; stroke-width: 1.5;" width="4" x="1612.7848" y="44"/><text fill="#000000" font-family="sans-serif" font-size="14" lengthAdjust="spacingAndGlyphs" textLength="88" x="1521.7848" y="65.9951">:android:app</text><!--MD5=[8725e2f32c833bede44e6c458fce3254]
entity :engine:paging--><rect fill="#FEFECE" filter="url(#figcddprjm4xi)" height="46.2969" style="stroke: #A80036; stroke-width: 1.5;" width="145" x="68.2848" y="563"/><rect fill="#FEFECE" height="10" style="stroke: #A80036; stroke-width: 1.5;" width="15" x="193.2848" y="568"/><rect fill="#FEFECE" height="2" style="stroke: #A80036; stroke-width: 1.5;" width="4" x="191.2848" y="570"/><rect fill="#FEFECE" height="2" style="stroke: #A80036; stroke-width: 1.5;" width="4" x="191.2848" y="574"/><text fill="#000000" font-family="sans-serif" font-size="14" lengthAdjust="spacingAndGlyphs" textLength="105" x="83.2848" y="595.9951">:engine:paging</text><!--MD5=[474bc7754ff50e9887f34633b92b9e02]
entity :engine:connectable--><rect fill="#FEFECE" filter="url(#figcddprjm4xi)" height="46.2969" style="stroke: #A80036; stroke-width: 1.5;" width="184" x="446.7848" y="563"/><rect fill="#FEFECE" height="10" style="stroke: #A80036; stroke-width: 1.5;" width="15" x="610.7848" y="568"/><rect fill="#FEFECE" height="2" style="stroke: #A80036; stroke-width: 1.5;" width="4" x="608.7848" y="570"/><rect fill="#FEFECE" height="2" style="stroke: #A80036; stroke-width: 1.5;" width="4" x="608.7848" y="574"/><text fill="#000000" font-family="sans-serif" font-size="14" lengthAdjust="spacingAndGlyphs" textLength="144" x="461.7848" y="595.9951">:engine:connectable</text><!--MD5=[8e94acc19a10f03efd288fb36eb4472b]
entity :engine:util--><rect fill="#FEFECE" filter="url(#figcddprjm4xi)" height="46.2969" style="stroke: #A80036; stroke-width: 1.5;" width="118" x="341.7848" y="669"/><rect fill="#FEFECE" height="10" style="stroke: #A80036; stroke-width: 1.5;" width="15" x="439.7848" y="674"/><rect fill="#FEFECE" height="2" style="stroke: #A80036; stroke-width: 1.5;" width="4" x="437.7848" y="676"/><rect fill="#FEFECE" height="2" style="stroke: #A80036; stroke-width: 1.5;" width="4" x="437.7848" y="680"/><text fill="#000000" font-family="sans-serif" font-size="14" lengthAdjust="spacingAndGlyphs" textLength="78" x="356.7848" y="701.9951">:engine:util</text><!--MD5=[f7af38a47341a5d6bbb7054022a18e1f]
entity :engine:log--><rect fill="#FEFECE" filter="url(#figcddprjm4xi)" height="46.2969" style="stroke: #A80036; stroke-width: 1.5;" width="119" x="495.2848" y="669"/><rect fill="#FEFECE" height="10" style="stroke: #A80036; stroke-width: 1.5;" width="15" x="594.2848" y="674"/><rect fill="#FEFECE" height="2" style="stroke: #A80036; stroke-width: 1.5;" width="4" x="592.2848" y="676"/><rect fill="#FEFECE" height="2" style="stroke: #A80036; stroke-width: 1.5;" width="4" x="592.2848" y="680"/><text fill="#000000" font-family="sans-serif" font-size="14" lengthAdjust="spacingAndGlyphs" textLength="79" x="510.2848" y="701.9951">:engine:log</text><!--MD5=[9cb9b296c1f7d1e8bceacf7e776ceb9f]
entity :engine:translator--><rect fill="#FEFECE" filter="url(#figcddprjm4xi)" height="46.2969" style="stroke: #A80036; stroke-width: 1.5;" width="163" x="248.2848" y="563"/><rect fill="#FEFECE" height="10" style="stroke: #A80036; stroke-width: 1.5;" width="15" x="391.2848" y="568"/><rect fill="#FEFECE" height="2" style="stroke: #A80036; stroke-width: 1.5;" width="4" x="389.2848" y="570"/><rect fill="#FEFECE" height="2" style="stroke: #A80036; stroke-width: 1.5;" width="4" x="389.2848" y="574"/><text fill="#000000" font-family="sans-serif" font-size="14" lengthAdjust="spacingAndGlyphs" textLength="123" x="263.2848" y="595.9951">:engine:translator</text><!--MD5=[d2e99a31c5c69c260843e58b87a30949]
link :core:backend to :core:domain--><path d="M181.53,291.0004 C179.2655,307.003 176.2311,328.4461 173.8138,345.528 " fill="none" id=":core:backend-&gt;:core:domain" style="stroke: #A80036; stroke-width: 1.0;"/><polygon fill="#A80036" points="173.085,350.6784,178.3068,342.3278,173.7857,345.7277,170.3857,341.2067,173.085,350.6784" style="stroke: #A80036; stroke-width: 1.0;"/><!--MD5=[d5e4b706dadef8c45d2b97abed780e73]
link :platform:net:smack:android to :core:api--><path d="M2207.9115,397.0095 C2192.6188,400.2201 2176.8119,403.0751 2161.7848,405 C1767.7255,455.478 764.1133,377.9171 374.7848,457 C373.6468,457.2312 372.5023,457.4824 371.3537,457.7517 " fill="none" id=":platform:net:smack:android-&gt;:core:api" style="stroke: #A80036; stroke-width: 1.0;"/><polygon fill="#A80036" points="366.2994,459.0414,376.009,460.6919,371.1441,457.8051,374.0309,452.9403,366.2994,459.0414" style="stroke: #A80036; stroke-width: 1.0;"/><!--MD5=[12b3229dbc72ddecfb6c2620af34bdbb]
link :platform:repo:room to :core:api--><path d="M2469.8561,397.0363 C2457.6203,400.2663 2444.9212,403.1207 2432.7848,405 C1980.6936,475.0065 823.2821,366.7921 374.7848,457 C373.6464,457.229 372.5014,457.4782 371.3525,457.7456 " fill="none" id=":platform:repo:room-&gt;:core:api" style="stroke: #A80036; stroke-width: 1.0;"/><polygon fill="#A80036" points="366.2967,459.0284,376.004,460.6921,371.1431,457.7987,374.0365,452.9378,366.2967,459.0284" style="stroke: #A80036; stroke-width: 1.0;"/><!--MD5=[6819e3025f62e33d65cd5cddf3e47c82]
link :platform:sys:android to :android:indicator--><path d="M2007.0369,350.8824 C1987.0279,341.2093 1962.7137,330.684 1939.7848,324 C1839.1174,294.6544 1719.0029,280.3206 1639.8004,273.575 " fill="none" id=":platform:sys:android-&gt;:android:indicator" style="stroke: #A80036; stroke-width: 1.0;"/><polygon fill="#A80036" points="1634.6432,273.1415,1643.2765,277.8814,1639.6256,273.5604,1643.9467,269.9095,1634.6432,273.1415" style="stroke: #A80036; stroke-width: 1.0;"/><!--MD5=[c659df04a6a924d0d4c66d0178f0f325]
link :platform:log:android to :engine:log--><path d="M2680.1897,397.047 C2669.0441,399.9737 2657.662,402.7325 2646.7848,405 C1856.405,569.762 877.6508,663.4461 619.594,686.4074 " fill="none" id=":platform:log:android-&gt;:engine:log" style="stroke: #A80036; stroke-width: 1.0;"/><polygon fill="#A80036" points="614.3681,686.8715,623.6866,690.0597,619.3485,686.4292,622.979,682.0911,614.3681,686.8715" style="stroke: #A80036; stroke-width: 1.0;"/><!--MD5=[45517b2139f254912330f96b0a200dca]
link :android:error to :engine:log--><path d="M491.1981,166.4093 C368.7411,174.9249 119.8224,194.8498 87.7848,218 C25.739,262.8338 14.7848,297.451 14.7848,374 C14.7848,374 14.7848,374 14.7848,480 C14.7848,539.524 6,569.7899 50.7848,609 C122.8788,672.12 384.1685,648.5631 477.7848,669 C481.8016,669.8769 485.9139,670.8567 490.0466,671.904 " fill="none" id=":android:error-&gt;:engine:log" style="stroke: #A80036; stroke-width: 1.0;"/><polygon fill="#A80036" points="494.9028,673.1624,487.1942,667.0324,490.0627,671.908,485.1871,674.7765,494.9028,673.1624" style="stroke: #A80036; stroke-width: 1.0;"/><!--MD5=[18bab9f063355036a0b2f6ebbce1d0c7]
link :android:main to :android:debug--><path d="M844.9444,179.8453 C811,189.6191 769.6166,202.8289 733.7848,218 C717.4005,224.9371 700.0966,233.8783 684.9712,242.2772 " fill="none" id=":android:main-&gt;:android:debug" style="stroke: #A80036; stroke-width: 1.0;"/><polygon fill="#A80036" points="680.3505,244.8636,690.1577,243.9583,684.7135,242.4215,686.2503,236.9774,680.3505,244.8636" style="stroke: #A80036; stroke-width: 1.0;"/><!--MD5=[40bb589868918ba3fd0f378e218e8999]
link :android:main to :android:intent--><path d="M845.0013,165.255 C770.9392,170.4559 649.6627,183.8369 550.7848,218 C533.6306,223.9269 515.9588,233.113 500.9286,242.0023 " fill="none" id=":android:main-&gt;:android:intent" style="stroke: #A80036; stroke-width: 1.0;"/><polygon fill="#A80036" points="496.3524,244.7476,506.1279,243.5479,500.6401,242.1755,502.0125,236.6876,496.3524,244.7476" style="stroke: #A80036; stroke-width: 1.0;"/><!--MD5=[3c34b3746a69b84c5d3b588540e90496]
link :android:main to :android:account--><path d="M931.0115,185.0004 C943.9114,201.2789 961.2727,223.1871 974.9191,240.4076 " fill="none" id=":android:main-&gt;:android:account" style="stroke: #A80036; stroke-width: 1.0;"/><polygon fill="#A80036" points="978.3035,244.6784,975.8487,235.1404,975.1981,240.7597,969.5788,240.1091,978.3035,244.6784" style="stroke: #A80036; stroke-width: 1.0;"/><!--MD5=[1debbca0f57afdab46daa5823379ab8a]
link :android:main to :android:roster--><path d="M980.6243,179.303 C1015.1335,189.0232 1057.3698,202.3478 1093.7848,218 C1109.7212,224.8499 1126.4811,233.7707 1141.1054,242.1775 " fill="none" id=":android:main-&gt;:android:roster" style="stroke: #A80036; stroke-width: 1.0;"/><polygon fill="#A80036" points="1145.5722,244.7671,1139.7924,236.7925,1141.2466,242.2592,1135.7799,243.7134,1145.5722,244.7671" style="stroke: #A80036; stroke-width: 1.0;"/><!--MD5=[2457458197666786eab65f67e2b0c236]
link :android:main to :android:chat--><path d="M891.9542,185.0004 C877.0865,201.4168 857.0334,223.5588 841.3785,240.8444 " fill="none" id=":android:main-&gt;:android:chat" style="stroke: #A80036; stroke-width: 1.0;"/><polygon fill="#A80036" points="837.9062,244.6784,846.9125,240.6926,841.2626,240.9723,840.9828,235.3224,837.9062,244.6784" style="stroke: #A80036; stroke-width: 1.0;"/><!--MD5=[6898d34d0d822ea23a237867119598dc]
link :android:main to :android:drawer--><path d="M980.5873,165.6516 C1054.0183,171.1848 1173.7914,184.8414 1271.7848,218 C1289.5707,224.0183 1307.9811,233.3197 1323.6166,242.2752 " fill="none" id=":android:main-&gt;:android:drawer" style="stroke: #A80036; stroke-width: 1.0;"/><polygon fill="#A80036" points="1327.9502,244.7889,1322.172,236.8132,1323.6251,242.2802,1318.1581,243.7333,1327.9502,244.7889" style="stroke: #A80036; stroke-width: 1.0;"/><!--MD5=[a52bef23a2ecdbe1ed06939fc995921c]
link :android:main to :core:domain--><path d="M845.1225,168.0449 C705.2391,180.6774 395.3969,209.4133 373.7848,218 C354.4516,225.6813 254.8784,305.0794 202.3396,347.5408 " fill="none" id=":android:main-&gt;:core:domain" style="stroke: #A80036; stroke-width: 1.0;"/><polygon fill="#A80036" points="198.3314,350.7823,207.8447,348.2332,202.2192,347.6382,202.8141,342.0127,198.3314,350.7823" style="stroke: #A80036; stroke-width: 1.0;"/><!--MD5=[65eb7b96c45847cf49dcf75272b402ce]
link :core:domain to :engine:paging--><path d="M166.6261,397.0913 C161.2656,436.2784 150.4071,515.6574 144.6195,557.9665 " fill="none" id=":core:domain-&gt;:engine:paging" style="stroke: #A80036; stroke-width: 1.0;"/><polygon fill="#A80036" points="143.9396,562.9372,149.1226,554.5624,144.6173,557.9833,141.1964,553.4781,143.9396,562.9372" style="stroke: #A80036; stroke-width: 1.0;"/><!--MD5=[12ebccdcc75f98176baa7aae27ae41f5]
link :core:domain to :core:api--><path d="M201.4646,397.0004 C224.5352,413.7503 255.8156,436.4607 279.8242,453.8917 " fill="none" id=":core:domain-&gt;:core:api" style="stroke: #A80036; stroke-width: 1.0;"/><polygon fill="#A80036" points="283.915,456.8617,278.9821,448.3373,279.8689,453.9242,274.282,454.811,283.915,456.8617" style="stroke: #A80036; stroke-width: 1.0;"/><!--MD5=[eaf14edc6043f7290cbfd1583ac6425c]
link :core:api to :engine:connectable--><path d="M359.1446,503.1268 C364.3925,505.8237 369.6952,508.5015 374.7848,511 C385.3263,516.1749 439.8416,541.0448 483.1667,560.747 " fill="none" id=":core:api-&gt;:engine:connectable" style="stroke: #A80036; stroke-width: 1.0;"/><polygon fill="#A80036" points="487.8554,562.8789,481.3182,555.5124,483.3038,560.8093,478.0069,562.7949,487.8554,562.8789" style="stroke: #A80036; stroke-width: 1.0;"/><!--MD5=[bca29f017d1f9d57df28eb8d83e96ded]
link :engine:connectable to :engine:util--><path d="M508.8408,609.0004 C487.1991,625.6237 457.9143,648.1179 435.2904,665.4957 " fill="none" id=":engine:connectable-&gt;:engine:util" style="stroke: #A80036; stroke-width: 1.0;"/><polygon fill="#A80036" points="431.1468,668.6784,440.7209,666.3683,435.1121,665.6327,435.8478,660.0239,431.1468,668.6784" style="stroke: #A80036; stroke-width: 1.0;"/><!--MD5=[6eb7bccd1a3c6d4cd083766ccbfc4317]
link :engine:connectable to :engine:log--><path d="M542.2565,609.0004 C544.672,625.003 547.9087,646.4461 550.4871,663.528 " fill="none" id=":engine:connectable-&gt;:engine:log" style="stroke: #A80036; stroke-width: 1.0;"/><polygon fill="#A80036" points="551.2645,668.6784,553.8764,659.1822,550.5182,663.7344,545.966,660.3762,551.2645,668.6784" style="stroke: #A80036; stroke-width: 1.0;"/><!--MD5=[96dc4ca78ce9f4597c88082d6f3e186c]
link :android:indicator to :android:core--><path d="M1473.1056,287.2881 C1467.2517,288.5791 1461.4319,289.8298 1455.7848,291 C1318.6274,319.4218 1157.3435,347.1715 1066.4897,362.287 " fill="none" id=":android:indicator-&gt;:android:core" style="stroke: #A80036; stroke-width: 1.0;"/><polygon fill="#A80036" points="1061.4129,363.1307,1070.947,365.6008,1066.3452,362.3109,1069.6352,357.7091,1061.4129,363.1307" style="stroke: #A80036; stroke-width: 1.0;"/><!--MD5=[8ddee7a7ccea05d04626e5bed47772e9]
link :android:indicator to :platform:util:android:notification--><path d="M1605.2102,291.0004 C1643.2794,308.0271 1695.1198,331.2131 1734.3332,348.7516 " fill="none" id=":android:indicator-&gt;:platform:util:android:notification" style="stroke: #A80036; stroke-width: 1.0;"/><polygon fill="#A80036" points="1739.051,350.8617,1732.4684,343.5357,1734.4867,348.8203,1729.2022,350.8386,1739.051,350.8617" style="stroke: #A80036; stroke-width: 1.0;"/><!--MD5=[02e6d1eeca9a10220a158005479957f9]
link :android:core to :core:api--><path d="M937.0794,397.0103 C927.734,400.0934 918.0747,402.9078 908.7848,405 C676.1556,457.3917 606.7204,401.6185 374.7848,457 C373.6553,457.2697 372.5186,457.5563 371.3772,457.8579 " fill="none" id=":android:core-&gt;:core:api" style="stroke: #A80036; stroke-width: 1.0;"/><polygon fill="#A80036" points="366.3501,459.2711,376.0968,460.6859,371.1635,457.9178,373.9316,452.9845,366.3501,459.2711" style="stroke: #A80036; stroke-width: 1.0;"/><!--MD5=[e7a76a9c57e440ed2221ace9ced348ea]
link :android:core to :android:resources--><path d="M975.4731,397.0004 C961.6895,413.4168 943.0986,435.5588 928.5852,452.8444 " fill="none" id=":android:core-&gt;:android:resources" style="stroke: #A80036; stroke-width: 1.0;"/><polygon fill="#A80036" points="925.3661,456.6784,934.2167,452.3578,928.5812,452.8492,928.0899,447.2137,925.3661,456.6784" style="stroke: #A80036; stroke-width: 1.0;"/><!--MD5=[b47fc6152ea28caa80e6f618d5f135a8]
link :android:debug to :core:api--><path d="M606.9359,291.2019 C565.713,318.5897 494.9557,365.4186 433.7848,405 C408.3739,421.4424 379.7234,439.66 357.0173,454.023 " fill="none" id=":android:debug-&gt;:core:api" style="stroke: #A80036; stroke-width: 1.0;"/><polygon fill="#A80036" points="352.558,456.8425,362.3026,455.4136,356.7841,454.1704,358.0273,448.6518,352.558,456.8425" style="stroke: #A80036; stroke-width: 1.0;"/><!--MD5=[1c391fdc242cf49846aef78aa6da95be]
link :android:debug to :core:cli--><path d="M567.8765,287.0892 C562.1032,288.4552 556.3551,289.7751 550.7848,291 C473.0566,308.0925 446.1995,288.8751 374.7848,324 C363.1185,329.738 352.0415,338.5956 342.8658,347.2707 " fill="none" id=":android:debug-&gt;:core:cli" style="stroke: #A80036; stroke-width: 1.0;"/><polygon fill="#A80036" points="339.0535,350.9678,348.2991,347.5738,342.6429,347.487,342.7298,341.8308,339.0535,350.9678" style="stroke: #A80036; stroke-width: 1.0;"/><!--MD5=[55a05bb2a24a53ee5446c43db2b0d96b]
link :android:debug to :android:core--><path d="M715.5107,286.8353 C721.6821,288.289 727.8343,289.6963 733.7848,291 C811.0995,307.9388 834.6129,296.3771 908.7848,324 C925.2122,330.1179 942.1324,339.2445 956.5722,348.0322 " fill="none" id=":android:debug-&gt;:android:core" style="stroke: #A80036; stroke-width: 1.0;"/><polygon fill="#A80036" points="960.9706,350.7449,955.41,342.616,956.7149,348.1203,951.2106,349.4251,960.9706,350.7449" style="stroke: #A80036; stroke-width: 1.0;"/><!--MD5=[810b0331a8d5c8f194f5129777f812fe]
link :android:debug to :android:widget--><path d="M679.7572,291.0004 C707.5245,307.8195 745.2139,330.6485 774.0377,348.1075 " fill="none" id=":android:debug-&gt;:android:widget" style="stroke: #A80036; stroke-width: 1.0;"/><polygon fill="#A80036" points="778.5847,350.8617,772.9591,342.7776,774.3081,348.2712,768.8144,349.6202,778.5847,350.8617" style="stroke: #A80036; stroke-width: 1.0;"/><!--MD5=[49c315795c2cf8a16b9fc4140ea8e080]
link :android:intent to :core:api--><path d="M450.5339,291.239 C436.5233,319.2714 411.0848,367.3227 383.7848,405 C371.5306,421.9122 356.0015,439.2833 342.878,453.0434 " fill="none" id=":android:intent-&gt;:core:api" style="stroke: #A80036; stroke-width: 1.0;"/><polygon fill="#A80036" points="339.245,456.8253,348.3645,453.1059,342.7088,453.2195,342.5952,447.5638,339.245,456.8253" style="stroke: #A80036; stroke-width: 1.0;"/><!--MD5=[99eb1f9ce8f3a5e1f5d168a23a4e6130]
link :android:account to :android:core--><path d="M996.3508,291.0004 C996.0489,307.003 995.6443,328.4461 995.322,345.528 " fill="none" id=":android:account-&gt;:android:core" style="stroke: #A80036; stroke-width: 1.0;"/><polygon fill="#A80036" points="995.2248,350.6784,999.3941,341.7555,995.3192,345.6793,991.3955,341.6045,995.2248,350.6784" style="stroke: #A80036; stroke-width: 1.0;"/><!--MD5=[ea06712275b471b139755bf35b876505]
link :android:roster to :android:core--><path d="M1141.9916,291.0004 C1112.0388,307.8887 1071.3389,330.8365 1040.3256,348.3227 " fill="none" id=":android:roster-&gt;:android:core" style="stroke: #A80036; stroke-width: 1.0;"/><polygon fill="#A80036" points="1035.8226,350.8617,1045.6269,349.9258,1040.178,348.406,1041.6978,342.9571,1035.8226,350.8617" style="stroke: #A80036; stroke-width: 1.0;"/><!--MD5=[27504143436bfd555a82356c36796927]
link :android:chat to :android:core--><path d="M855.4081,291.0004 C883.6515,307.8195 921.987,330.6485 951.3049,348.1075 " fill="none" id=":android:chat-&gt;:android:core" style="stroke: #A80036; stroke-width: 1.0;"/><polygon fill="#A80036" points="955.9299,350.8617,950.2438,342.8201,951.6339,348.3034,946.1506,349.6936,955.9299,350.8617" style="stroke: #A80036; stroke-width: 1.0;"/><!--MD5=[106d5a68c9dcc1e6b1257e56f7f18937]
link :android:chat to :platform:util:android:notification--><path d="M882.9728,287.5912 C888.9591,288.9168 894.9592,290.0861 900.7848,291 C1230.4088,342.7127 1323.3557,259.8405 1650.7848,324 C1678.5659,329.4437 1708.2421,339.4017 1733.0894,349.0062 " fill="none" id=":android:chat-&gt;:platform:util:android:notification" style="stroke: #A80036; stroke-width: 1.0;"/><polygon fill="#A80036" points="1737.9925,350.9209,1731.0642,343.921,1733.3351,349.102,1728.154,351.3729,1737.9925,350.9209" style="stroke: #A80036; stroke-width: 1.0;"/><!--MD5=[5767c1eae9a459def5cf537ae8640123]
link :android:chat to :android:widget--><path d="M816.7848,291.0004 C816.7848,307.003 816.7848,328.4461 816.7848,345.528 " fill="none" id=":android:chat-&gt;:android:widget" style="stroke: #A80036; stroke-width: 1.0;"/><polygon fill="#A80036" points="816.7848,350.6784,820.7848,341.6784,816.7848,345.6784,812.7848,341.6784,816.7848,350.6784" style="stroke: #A80036; stroke-width: 1.0;"/><!--MD5=[d0c9adee400d99d2c7e70b3cbab35cf4]
link :android:chat to :core:cli--><path d="M750.546,287.2907 C744.5705,288.6805 738.5868,289.9467 732.7848,291 C575.5689,319.5418 521.3029,260.2513 374.7848,324 C362.6542,329.2779 351.3396,338.2306 342.1008,347.1144 " fill="none" id=":android:chat-&gt;:core:cli" style="stroke: #A80036; stroke-width: 1.0;"/><polygon fill="#A80036" points="338.2721,350.9066,347.4813,347.4151,341.8245,347.388,341.8516,341.7312,338.2721,350.9066" style="stroke: #A80036; stroke-width: 1.0;"/><!--MD5=[43e23cfb2d1172d7fb8288cf83bc1bf5]
link :android:drawer to :android:core--><path d="M1289.1121,289.4507 C1224.0496,308.1407 1130.3379,335.0606 1066.2423,353.4729 " fill="none" id=":android:drawer-&gt;:android:core" style="stroke: #A80036; stroke-width: 1.0;"/><polygon fill="#A80036" points="1061.2941,354.8943,1071.0487,356.2538,1066.0997,353.5138,1068.8398,348.5648,1061.2941,354.8943" style="stroke: #A80036; stroke-width: 1.0;"/><!--MD5=[e5b52aacd6c9e8567a26aa6a4b3cfc3a]
link :core:cli to :engine:translator--><path d="M291.0526,397.0286 C275.0631,412.1865 256.4574,433.5198 247.7848,457 C239.4692,479.5134 238.1087,489.037 247.7848,511 C256.3894,530.5311 272.8698,547.1875 288.8123,559.8065 " fill="none" id=":core:cli-&gt;:engine:translator" style="stroke: #A80036; stroke-width: 1.0;"/><polygon fill="#A80036" points="292.8488,562.927,288.1749,554.2578,288.893,559.8689,283.2819,560.5871,292.8488,562.927" style="stroke: #A80036; stroke-width: 1.0;"/><!--MD5=[c2bb4decd7a24ab2954465b21eb4e89b]
link :core:cli to :core:api--><path d="M318.1338,397.0004 C317.6809,413.003 317.074,434.4461 316.5906,451.528 " fill="none" id=":core:cli-&gt;:core:api" style="stroke: #A80036; stroke-width: 1.0;"/><polygon fill="#A80036" points="316.4448,456.6784,320.698,447.7953,316.5864,451.6804,312.7012,447.5688,316.4448,456.6784" style="stroke: #A80036; stroke-width: 1.0;"/><!--MD5=[7b3a637c57679a25661074470a3582ea]
link :android:widget to :android:resources--><path d="M836.0965,397.0004 C849.88,413.4168 868.471,435.5588 882.9843,452.8444 " fill="none" id=":android:widget-&gt;:android:resources" style="stroke: #A80036; stroke-width: 1.0;"/><polygon fill="#A80036" points="886.2034,456.6784,883.4794,447.2137,882.9882,452.8492,877.3527,452.358,886.2034,456.6784" style="stroke: #A80036; stroke-width: 1.0;"/><!--MD5=[c092ee46ff50f3ad0966693409762b2d]
link :android:app to :core:backend--><path d="M1506.5773,58.4497 C1302.8694,66.5997 672.8271,94.8134 473.7848,139 C376.8416,160.521 353.7659,173.915 264.7848,218 C250.6763,224.9899 235.8827,233.7809 222.908,242.0345 " fill="none" id=":android:app-&gt;:core:backend" style="stroke: #A80036; stroke-width: 1.0;"/><polygon fill="#A80036" points="218.5812,244.8096,228.3164,243.3176,222.7899,242.1102,223.9973,236.5837,218.5812,244.8096" style="stroke: #A80036; stroke-width: 1.0;"/><!--MD5=[68e8128fcf2a446be41e1ec2cb703716]
link :android:app to :platform:net:smack:android--><path d="M1623.5817,79.1259 C1756.119,137.1795 2102.058,288.7065 2239.3892,348.8598 " fill="none" id=":android:app-&gt;:platform:net:smack:android" style="stroke: #A80036; stroke-width: 1.0;"/><polygon fill="#A80036" points="2244.1858,350.9608,2237.5468,343.6859,2239.6059,348.9547,2234.3371,351.0137,2244.1858,350.9608" style="stroke: #A80036; stroke-width: 1.0;"/><!--MD5=[8261086e4283c159358ff957c1676e60]
link :android:app to :platform:repo:room--><path d="M1634.9849,75.9562 C1689.0689,92.7681 1768.4859,117.4555 1837.7848,139 C2102.2316,221.2146 2174.5228,224.0395 2432.7848,324 C2451.4871,331.2388 2471.5169,340.2445 2489.1301,348.6104 " fill="none" id=":android:app-&gt;:platform:repo:room" style="stroke: #A80036; stroke-width: 1.0;"/><polygon fill="#A80036" points="2494.0307,350.9511,2487.6338,343.4625,2489.519,348.796,2484.1855,350.6812,2494.0307,350.9511" style="stroke: #A80036; stroke-width: 1.0;"/><!--MD5=[7c15b7454318234fc685c861de919d34]
link :android:app to :platform:sys:android--><path d="M1604.8893,79.2792 C1667.285,121.7843 1804.1407,214.6191 1920.7848,291 C1950.4321,310.4136 1984.1692,331.9371 2009.8441,348.2005 " fill="none" id=":android:app-&gt;:platform:sys:android" style="stroke: #A80036; stroke-width: 1.0;"/><polygon fill="#A80036" points="2014.2168,350.9688,2008.7523,342.775,2009.9923,348.2942,2004.473,349.5342,2014.2168,350.9688" style="stroke: #A80036; stroke-width: 1.0;"/><!--MD5=[039e6f66f40fffc15cf5a6c9b5c309bc]
link :android:app to :platform:log:android--><path d="M1635.0087,70.1465 C1708.1645,86.3574 1831.2393,113.925 1936.7848,139 C2254.0459,214.3735 2339.9476,213.6064 2646.7848,324 C2666.4373,331.0706 2687.4416,340.2042 2705.7736,348.7267 " fill="none" id=":android:app-&gt;:platform:log:android" style="stroke: #A80036; stroke-width: 1.0;"/><polygon fill="#A80036" points="2710.3743,350.8787,2703.9168,343.4423,2705.8453,348.7603,2700.5273,350.6887,2710.3743,350.8787" style="stroke: #A80036; stroke-width: 1.0;"/><!--MD5=[32c4354e0221cd2acf28738e9c0350e1]
link :android:app to :android:error--><path d="M1506.7119,62.7112 C1327.4262,81.4901 821.4237,134.4904 631.7761,154.3547 " fill="none" id=":android:app-&gt;:android:error" style="stroke: #A80036; stroke-width: 1.0;"/><polygon fill="#A80036" points="626.5321,154.9039,635.8998,157.9446,631.5049,154.383,635.0665,149.9881,626.5321,154.9039" style="stroke: #A80036; stroke-width: 1.0;"/><!--MD5=[de56f305491d2fe9d536387097efe455]
link :android:app to :android:main--><path d="M1506.4949,66.3567 C1383.5368,86.1646 1115.7691,129.3004 986.0857,150.1916 " fill="none" id=":android:app-&gt;:android:main" style="stroke: #A80036; stroke-width: 1.0;"/><polygon fill="#A80036" points="980.7733,151.0474,990.2949,153.565,985.7096,150.2521,989.0225,145.6668,980.7733,151.0474" style="stroke: #A80036; stroke-width: 1.0;"/><!--MD5=[5a1e6799cf09efb67c0252cf00f9b283]
@startuml
package ":core" {
[:core:backend]
[:core:domain]
[:core:api]
[:core:cli]
}
package ":platform" {
[:platform:net:smack:android]
[:platform:repo:room]
[:platform:sys:android]
[:platform:log:android]
[:platform:util:android:notification]
}
package ":android" {
[:android:error]
[:android:main]
[:android:indicator]
[:android:core]
[:android:resources]
[:android:debug]
[:android:intent]
[:android:account]
[:android:roster]
[:android:chat]
[:android:drawer]
[:android:widget]
[:android:app]
}
package ":engine" {
[:engine:paging]
[:engine:connectable]
[:engine:util]
[:engine:log]
[:engine:translator]
}
[:core:backend] - -> [:core:domain]
[:platform:net:smack:android] - -> [:core:api]
[:platform:repo:room] - -> [:core:api]
[:platform:sys:android] - -> [:android:indicator]
[:platform:log:android] - -> [:engine:log]
[:android:error] - -> [:engine:log]
[:android:main] - -> [:android:debug]
[:android:main] - -> [:android:intent]
[:android:main] - -> [:android:account]
[:android:main] - -> [:android:roster]
[:android:main] - -> [:android:chat]
[:android:main] - -> [:android:drawer]
[:android:main] - -> [:core:domain]
[:core:domain] - -> [:engine:paging]
[:core:domain] - -> [:core:api]
[:core:api] - -> [:engine:connectable]
[:engine:connectable] - -> [:engine:util]
[:engine:connectable] - -> [:engine:log]
[:android:indicator] - -> [:android:core]
[:android:indicator] - -> [:platform:util:android:notification]
[:android:core] - -> [:core:api]
[:android:core] - -> [:android:resources]
[:android:debug] - -> [:core:api]
[:android:debug] - -> [:core:cli]
[:android:debug] - -> [:android:core]
[:android:debug] - -> [:android:widget]
[:android:intent] - -> [:core:api]
[:android:account] - -> [:android:core]
[:android:roster] - -> [:android:core]
[:android:chat] - -> [:android:core]
[:android:chat] - -> [:platform:util:android:notification]
[:android:chat] - -> [:android:widget]
[:android:chat] - -> [:core:cli]
[:android:drawer] - -> [:android:core]
[:core:cli] - -> [:engine:translator]
[:core:cli] - -> [:core:api]
[:android:widget] - -> [:android:resources]
[:android:app] - -> [:core:backend]
[:android:app] - -> [:platform:net:smack:android]
[:android:app] - -> [:platform:repo:room]
[:android:app] - -> [:platform:sys:android]
[:android:app] - -> [:platform:log:android]
[:android:app] - -> [:android:error]
[:android:app] - -> [:android:main]
@enduml

PlantUML version 1.2020.15(Sun Jun 28 13:39:45 CEST 2020)
(GPL source distribution)
Java Runtime: OpenJDK Runtime Environment
JVM: OpenJDK 64-Bit Server VM
Default Encoding: UTF-8
Language: pl
Country: PL
--></g></svg>