<?xml version="1.0" encoding="UTF-8" standalone="no"?><svg xmlns="http://www.w3.org/2000/svg" xmlns:xlink="http://www.w3.org/1999/xlink" contentScriptType="application/ecmascript" contentStyleType="text/css" height="708px" preserveAspectRatio="none" style="width:2515px;height:708px;" version="1.1" viewBox="0 0 2515 708" width="2515px" zoomAndPan="magnify"><defs><filter height="300%" id="fn752cuhbl43" width="300%" x="-1" y="-1"><feGaussianBlur result="blurOut" stdDeviation="2.0"/><feColorMatrix in="blurOut" result="blurOut2" type="matrix" values="0 0 0 0 0 0 0 0 0 0 0 0 0 0 0 0 0 0 .4 0"/><feOffset dx="4.0" dy="4.0" in="blurOut2" result="blurOut3"/><feBlend in="SourceGraphic" in2="blurOut3" mode="normal"/></filter></defs><g><!--MD5=[6b3c72c52f198a8ada63b8c5ce9355bc]
entity :core:backend--><rect fill="#FEFECE" filter="url(#fn752cuhbl43)" height="46.2969" style="stroke: #A80036; stroke-width: 1.5;" width="141" x="710" y="219"/><rect fill="#FEFECE" height="10" style="stroke: #A80036; stroke-width: 1.5;" width="15" x="831" y="224"/><rect fill="#FEFECE" height="2" style="stroke: #A80036; stroke-width: 1.5;" width="4" x="829" y="226"/><rect fill="#FEFECE" height="2" style="stroke: #A80036; stroke-width: 1.5;" width="4" x="829" y="230"/><text fill="#000000" font-family="sans-serif" font-size="14" lengthAdjust="spacingAndGlyphs" textLength="101" x="725" y="251.9951">:core:backend</text><!--MD5=[47118d7c73781d94ead6ef2b9730d049]
entity :core:domain:app--><rect fill="#FEFECE" filter="url(#fn752cuhbl43)" height="46.2969" style="stroke: #A80036; stroke-width: 1.5;" width="163" x="1211" y="325"/><rect fill="#FEFECE" height="10" style="stroke: #A80036; stroke-width: 1.5;" width="15" x="1354" y="330"/><rect fill="#FEFECE" height="2" style="stroke: #A80036; stroke-width: 1.5;" width="4" x="1352" y="332"/><rect fill="#FEFECE" height="2" style="stroke: #A80036; stroke-width: 1.5;" width="4" x="1352" y="336"/><text fill="#000000" font-family="sans-serif" font-size="14" lengthAdjust="spacingAndGlyphs" textLength="123" x="1226" y="357.9951">:core:domain:app</text><!--MD5=[3ac9b0df53493c09c125e37014f215ac]
entity :core:domain:session--><rect fill="#FEFECE" filter="url(#fn752cuhbl43)" height="46.2969" style="stroke: #A80036; stroke-width: 1.5;" width="191" x="685" y="325"/><rect fill="#FEFECE" height="10" style="stroke: #A80036; stroke-width: 1.5;" width="15" x="856" y="330"/><rect fill="#FEFECE" height="2" style="stroke: #A80036; stroke-width: 1.5;" width="4" x="854" y="332"/><rect fill="#FEFECE" height="2" style="stroke: #A80036; stroke-width: 1.5;" width="4" x="854" y="336"/><text fill="#000000" font-family="sans-serif" font-size="14" lengthAdjust="spacingAndGlyphs" textLength="151" x="700" y="357.9951">:core:domain:session</text><!--MD5=[0084757e5fcb0194df9d04c73ec20e60]
entity :core:domain:account--><rect fill="#FEFECE" filter="url(#fn752cuhbl43)" height="46.2969" style="stroke: #A80036; stroke-width: 1.5;" width="193" x="911" y="325"/><rect fill="#FEFECE" height="10" style="stroke: #A80036; stroke-width: 1.5;" width="15" x="1084" y="330"/><rect fill="#FEFECE" height="2" style="stroke: #A80036; stroke-width: 1.5;" width="4" x="1082" y="332"/><rect fill="#FEFECE" height="2" style="stroke: #A80036; stroke-width: 1.5;" width="4" x="1082" y="336"/><text fill="#000000" font-family="sans-serif" font-size="14" lengthAdjust="spacingAndGlyphs" textLength="153" x="926" y="357.9951">:core:domain:account</text><!--MD5=[4f709ee184beb988ab56d37afe26e48e]
entity :core:domain:chat--><rect fill="#FEFECE" filter="url(#fn752cuhbl43)" height="46.2969" style="stroke: #A80036; stroke-width: 1.5;" width="167" x="483" y="325"/><rect fill="#FEFECE" height="10" style="stroke: #A80036; stroke-width: 1.5;" width="15" x="630" y="330"/><rect fill="#FEFECE" height="2" style="stroke: #A80036; stroke-width: 1.5;" width="4" x="628" y="332"/><rect fill="#FEFECE" height="2" style="stroke: #A80036; stroke-width: 1.5;" width="4" x="628" y="336"/><text fill="#000000" font-family="sans-serif" font-size="14" lengthAdjust="spacingAndGlyphs" textLength="127" x="498" y="357.9951">:core:domain:chat</text><!--MD5=[c3c152bb6cdd6182c77d4c39152577c5]
entity :core:domain:roster--><rect fill="#FEFECE" filter="url(#fn752cuhbl43)" height="46.2969" style="stroke: #A80036; stroke-width: 1.5;" width="178" x="198.5" y="325"/><rect fill="#FEFECE" height="10" style="stroke: #A80036; stroke-width: 1.5;" width="15" x="356.5" y="330"/><rect fill="#FEFECE" height="2" style="stroke: #A80036; stroke-width: 1.5;" width="4" x="354.5" y="332"/><rect fill="#FEFECE" height="2" style="stroke: #A80036; stroke-width: 1.5;" width="4" x="354.5" y="336"/><text fill="#000000" font-family="sans-serif" font-size="14" lengthAdjust="spacingAndGlyphs" textLength="138" x="213.5" y="357.9951">:core:domain:roster</text><!--MD5=[6074b5c11df63f0ef6be21f813bbd183]
entity :net:smack:android--><rect fill="#FEFECE" filter="url(#fn752cuhbl43)" height="46.2969" style="stroke: #A80036; stroke-width: 1.5;" width="175" x="447" y="113"/><rect fill="#FEFECE" height="10" style="stroke: #A80036; stroke-width: 1.5;" width="15" x="602" y="118"/><rect fill="#FEFECE" height="2" style="stroke: #A80036; stroke-width: 1.5;" width="4" x="600" y="120"/><rect fill="#FEFECE" height="2" style="stroke: #A80036; stroke-width: 1.5;" width="4" x="600" y="124"/><text fill="#000000" font-family="sans-serif" font-size="14" lengthAdjust="spacingAndGlyphs" textLength="135" x="462" y="145.9951">:net:smack:android</text><!--MD5=[bb042d61f43125fc2fe6ee382cb3d84b]
entity :core:api--><rect fill="#FEFECE" filter="url(#fn752cuhbl43)" height="46.2969" style="stroke: #A80036; stroke-width: 1.5;" width="101" x="1107" y="431"/><rect fill="#FEFECE" height="10" style="stroke: #A80036; stroke-width: 1.5;" width="15" x="1188" y="436"/><rect fill="#FEFECE" height="2" style="stroke: #A80036; stroke-width: 1.5;" width="4" x="1186" y="438"/><rect fill="#FEFECE" height="2" style="stroke: #A80036; stroke-width: 1.5;" width="4" x="1186" y="442"/><text fill="#000000" font-family="sans-serif" font-size="14" lengthAdjust="spacingAndGlyphs" textLength="61" x="1122" y="463.9951">:core:api</text><!--MD5=[e71e3f46b787e063366eac1cfd3b55c3]
entity :android:room--><rect fill="#FEFECE" filter="url(#fn752cuhbl43)" height="46.2969" style="stroke: #A80036; stroke-width: 1.5;" width="138" x="961.5" y="113"/><rect fill="#FEFECE" height="10" style="stroke: #A80036; stroke-width: 1.5;" width="15" x="1079.5" y="118"/><rect fill="#FEFECE" height="2" style="stroke: #A80036; stroke-width: 1.5;" width="4" x="1077.5" y="120"/><rect fill="#FEFECE" height="2" style="stroke: #A80036; stroke-width: 1.5;" width="4" x="1077.5" y="124"/><text fill="#000000" font-family="sans-serif" font-size="14" lengthAdjust="spacingAndGlyphs" textLength="98" x="976.5" y="145.9951">:android:room</text><!--MD5=[824b5ec8eead23404211dbafddd0ef71]
entity :android:sys--><rect fill="#FEFECE" filter="url(#fn752cuhbl43)" height="46.2969" style="stroke: #A80036; stroke-width: 1.5;" width="125" x="1836" y="113"/><rect fill="#FEFECE" height="10" style="stroke: #A80036; stroke-width: 1.5;" width="15" x="1941" y="118"/><rect fill="#FEFECE" height="2" style="stroke: #A80036; stroke-width: 1.5;" width="4" x="1939" y="120"/><rect fill="#FEFECE" height="2" style="stroke: #A80036; stroke-width: 1.5;" width="4" x="1939" y="124"/><text fill="#000000" font-family="sans-serif" font-size="14" lengthAdjust="spacingAndGlyphs" textLength="85" x="1851" y="145.9951">:android:sys</text><!--MD5=[b759699551f165de218e2e968fab95b2]
entity :android:indicator--><rect fill="#FEFECE" filter="url(#fn752cuhbl43)" height="46.2969" style="stroke: #A80036; stroke-width: 1.5;" width="161" x="2014" y="219"/><rect fill="#FEFECE" height="10" style="stroke: #A80036; stroke-width: 1.5;" width="15" x="2155" y="224"/><rect fill="#FEFECE" height="2" style="stroke: #A80036; stroke-width: 1.5;" width="4" x="2153" y="226"/><rect fill="#FEFECE" height="2" style="stroke: #A80036; stroke-width: 1.5;" width="4" x="2153" y="230"/><text fill="#000000" font-family="sans-serif" font-size="14" lengthAdjust="spacingAndGlyphs" textLength="121" x="2029" y="251.9951">:android:indicator</text><!--MD5=[9f0305d4f7a8645f2834b13a0602f0df]
entity :android:log--><rect fill="#FEFECE" filter="url(#fn752cuhbl43)" height="46.2969" style="stroke: #A80036; stroke-width: 1.5;" width="123" x="177" y="537"/><rect fill="#FEFECE" height="10" style="stroke: #A80036; stroke-width: 1.5;" width="15" x="280" y="542"/><rect fill="#FEFECE" height="2" style="stroke: #A80036; stroke-width: 1.5;" width="4" x="278" y="544"/><rect fill="#FEFECE" height="2" style="stroke: #A80036; stroke-width: 1.5;" width="4" x="278" y="548"/><text fill="#000000" font-family="sans-serif" font-size="14" lengthAdjust="spacingAndGlyphs" textLength="83" x="192" y="569.9951">:android:log</text><!--MD5=[f7af38a47341a5d6bbb7054022a18e1f]
entity :engine:log--><rect fill="#FEFECE" filter="url(#fn752cuhbl43)" height="46.2969" style="stroke: #A80036; stroke-width: 1.5;" width="119" x="179" y="643"/><rect fill="#FEFECE" height="10" style="stroke: #A80036; stroke-width: 1.5;" width="15" x="278" y="648"/><rect fill="#FEFECE" height="2" style="stroke: #A80036; stroke-width: 1.5;" width="4" x="276" y="650"/><rect fill="#FEFECE" height="2" style="stroke: #A80036; stroke-width: 1.5;" width="4" x="276" y="654"/><text fill="#000000" font-family="sans-serif" font-size="14" lengthAdjust="spacingAndGlyphs" textLength="79" x="194" y="675.9951">:engine:log</text><!--MD5=[37b953e512ae70b44a23cc4bd83136e2]
entity :android:error--><rect fill="#FEFECE" filter="url(#fn752cuhbl43)" height="46.2969" style="stroke: #A80036; stroke-width: 1.5;" width="135" x="7" y="537"/><rect fill="#FEFECE" height="10" style="stroke: #A80036; stroke-width: 1.5;" width="15" x="122" y="542"/><rect fill="#FEFECE" height="2" style="stroke: #A80036; stroke-width: 1.5;" width="4" x="120" y="544"/><rect fill="#FEFECE" height="2" style="stroke: #A80036; stroke-width: 1.5;" width="4" x="120" y="548"/><text fill="#000000" font-family="sans-serif" font-size="14" lengthAdjust="spacingAndGlyphs" textLength="95" x="22" y="569.9951">:android:error</text><!--MD5=[8b23712cbce6b2745bbd08e1acd8155e]
entity :android:main--><rect fill="#FEFECE" filter="url(#fn752cuhbl43)" height="46.2969" style="stroke: #A80036; stroke-width: 1.5;" width="135" x="1470" y="113"/><rect fill="#FEFECE" height="10" style="stroke: #A80036; stroke-width: 1.5;" width="15" x="1585" y="118"/><rect fill="#FEFECE" height="2" style="stroke: #A80036; stroke-width: 1.5;" width="4" x="1583" y="120"/><rect fill="#FEFECE" height="2" style="stroke: #A80036; stroke-width: 1.5;" width="4" x="1583" y="124"/><text fill="#000000" font-family="sans-serif" font-size="14" lengthAdjust="spacingAndGlyphs" textLength="95" x="1485" y="145.9951">:android:main</text><!--MD5=[7b0e00ffb091306e7adce213ff533c85]
entity :android:intent--><rect fill="#FEFECE" filter="url(#fn752cuhbl43)" height="46.2969" style="stroke: #A80036; stroke-width: 1.5;" width="142" x="1281.5" y="219"/><rect fill="#FEFECE" height="10" style="stroke: #A80036; stroke-width: 1.5;" width="15" x="1403.5" y="224"/><rect fill="#FEFECE" height="2" style="stroke: #A80036; stroke-width: 1.5;" width="4" x="1401.5" y="226"/><rect fill="#FEFECE" height="2" style="stroke: #A80036; stroke-width: 1.5;" width="4" x="1401.5" y="230"/><text fill="#000000" font-family="sans-serif" font-size="14" lengthAdjust="spacingAndGlyphs" textLength="102" x="1296.5" y="251.9951">:android:intent</text><!--MD5=[537263759804c0f37bfe27ff6520266d]
entity :android:account--><rect fill="#FEFECE" filter="url(#fn752cuhbl43)" height="46.2969" style="stroke: #A80036; stroke-width: 1.5;" width="158" x="1458.5" y="219"/><rect fill="#FEFECE" height="10" style="stroke: #A80036; stroke-width: 1.5;" width="15" x="1596.5" y="224"/><rect fill="#FEFECE" height="2" style="stroke: #A80036; stroke-width: 1.5;" width="4" x="1594.5" y="226"/><rect fill="#FEFECE" height="2" style="stroke: #A80036; stroke-width: 1.5;" width="4" x="1594.5" y="230"/><text fill="#000000" font-family="sans-serif" font-size="14" lengthAdjust="spacingAndGlyphs" textLength="118" x="1473.5" y="251.9951">:android:account</text><!--MD5=[a40cbfa6716f14d6e2acc0c2f4f85b3d]
entity :android:roster--><rect fill="#FEFECE" filter="url(#fn752cuhbl43)" height="46.2969" style="stroke: #A80036; stroke-width: 1.5;" width="143" x="1652" y="219"/><rect fill="#FEFECE" height="10" style="stroke: #A80036; stroke-width: 1.5;" width="15" x="1775" y="224"/><rect fill="#FEFECE" height="2" style="stroke: #A80036; stroke-width: 1.5;" width="4" x="1773" y="226"/><rect fill="#FEFECE" height="2" style="stroke: #A80036; stroke-width: 1.5;" width="4" x="1773" y="230"/><text fill="#000000" font-family="sans-serif" font-size="14" lengthAdjust="spacingAndGlyphs" textLength="103" x="1667" y="251.9951">:android:roster</text><!--MD5=[1abf9466b7c9941f0b2d230b4b5f13c9]
entity :android:chat--><rect fill="#FEFECE" filter="url(#fn752cuhbl43)" height="46.2969" style="stroke: #A80036; stroke-width: 1.5;" width="132" x="2210.5" y="219"/><rect fill="#FEFECE" height="10" style="stroke: #A80036; stroke-width: 1.5;" width="15" x="2322.5" y="224"/><rect fill="#FEFECE" height="2" style="stroke: #A80036; stroke-width: 1.5;" width="4" x="2320.5" y="226"/><rect fill="#FEFECE" height="2" style="stroke: #A80036; stroke-width: 1.5;" width="4" x="2320.5" y="230"/><text fill="#000000" font-family="sans-serif" font-size="14" lengthAdjust="spacingAndGlyphs" textLength="92" x="2225.5" y="251.9951">:android:chat</text><!--MD5=[ff52f1825a9f6fbfff2d66c588103d9f]
entity :android:drawer--><rect fill="#FEFECE" filter="url(#fn752cuhbl43)" height="46.2969" style="stroke: #A80036; stroke-width: 1.5;" width="149" x="1830" y="219"/><rect fill="#FEFECE" height="10" style="stroke: #A80036; stroke-width: 1.5;" width="15" x="1959" y="224"/><rect fill="#FEFECE" height="2" style="stroke: #A80036; stroke-width: 1.5;" width="4" x="1957" y="226"/><rect fill="#FEFECE" height="2" style="stroke: #A80036; stroke-width: 1.5;" width="4" x="1957" y="230"/><text fill="#000000" font-family="sans-serif" font-size="14" lengthAdjust="spacingAndGlyphs" textLength="109" x="1845" y="251.9951">:android:drawer</text><!--MD5=[8725e2f32c833bede44e6c458fce3254]
entity :engine:paging--><rect fill="#FEFECE" filter="url(#fn752cuhbl43)" height="46.2969" style="stroke: #A80036; stroke-width: 1.5;" width="145" x="354" y="431"/><rect fill="#FEFECE" height="10" style="stroke: #A80036; stroke-width: 1.5;" width="15" x="479" y="436"/><rect fill="#FEFECE" height="2" style="stroke: #A80036; stroke-width: 1.5;" width="4" x="477" y="438"/><rect fill="#FEFECE" height="2" style="stroke: #A80036; stroke-width: 1.5;" width="4" x="477" y="442"/><text fill="#000000" font-family="sans-serif" font-size="14" lengthAdjust="spacingAndGlyphs" textLength="105" x="369" y="463.9951">:engine:paging</text><!--MD5=[474bc7754ff50e9887f34633b92b9e02]
entity :engine:connectable--><rect fill="#FEFECE" filter="url(#fn752cuhbl43)" height="46.2969" style="stroke: #A80036; stroke-width: 1.5;" width="184" x="700.5" y="537"/><rect fill="#FEFECE" height="10" style="stroke: #A80036; stroke-width: 1.5;" width="15" x="864.5" y="542"/><rect fill="#FEFECE" height="2" style="stroke: #A80036; stroke-width: 1.5;" width="4" x="862.5" y="544"/><rect fill="#FEFECE" height="2" style="stroke: #A80036; stroke-width: 1.5;" width="4" x="862.5" y="548"/><text fill="#000000" font-family="sans-serif" font-size="14" lengthAdjust="spacingAndGlyphs" textLength="144" x="715.5" y="569.9951">:engine:connectable</text><!--MD5=[8e94acc19a10f03efd288fb36eb4472b]
entity :engine:util--><rect fill="#FEFECE" filter="url(#fn752cuhbl43)" height="46.2969" style="stroke: #A80036; stroke-width: 1.5;" width="118" x="733.5" y="643"/><rect fill="#FEFECE" height="10" style="stroke: #A80036; stroke-width: 1.5;" width="15" x="831.5" y="648"/><rect fill="#FEFECE" height="2" style="stroke: #A80036; stroke-width: 1.5;" width="4" x="829.5" y="650"/><rect fill="#FEFECE" height="2" style="stroke: #A80036; stroke-width: 1.5;" width="4" x="829.5" y="654"/><text fill="#000000" font-family="sans-serif" font-size="14" lengthAdjust="spacingAndGlyphs" textLength="78" x="748.5" y="675.9951">:engine:util</text><!--MD5=[4243627ae140629495d6edbad54f8b36]
entity :android:core--><rect fill="#FEFECE" filter="url(#fn752cuhbl43)" height="46.2969" style="stroke: #A80036; stroke-width: 1.5;" width="133" x="1748" y="325"/><rect fill="#FEFECE" height="10" style="stroke: #A80036; stroke-width: 1.5;" width="15" x="1861" y="330"/><rect fill="#FEFECE" height="2" style="stroke: #A80036; stroke-width: 1.5;" width="4" x="1859" y="332"/><rect fill="#FEFECE" height="2" style="stroke: #A80036; stroke-width: 1.5;" width="4" x="1859" y="336"/><text fill="#000000" font-family="sans-serif" font-size="14" lengthAdjust="spacingAndGlyphs" textLength="93" x="1763" y="357.9951">:android:core</text><!--MD5=[f10ce6782b0e7f5580bd12ce8877f965]
entity :android:notification--><rect fill="#FEFECE" filter="url(#fn752cuhbl43)" height="46.2969" style="stroke: #A80036; stroke-width: 1.5;" width="177" x="2006" y="325"/><rect fill="#FEFECE" height="10" style="stroke: #A80036; stroke-width: 1.5;" width="15" x="2163" y="330"/><rect fill="#FEFECE" height="2" style="stroke: #A80036; stroke-width: 1.5;" width="4" x="2161" y="332"/><rect fill="#FEFECE" height="2" style="stroke: #A80036; stroke-width: 1.5;" width="4" x="2161" y="336"/><text fill="#000000" font-family="sans-serif" font-size="14" lengthAdjust="spacingAndGlyphs" textLength="137" x="2021" y="357.9951">:android:notification</text><!--MD5=[81a55ae8ee37e126e15aacb863ec98ad]
entity :android:debug--><rect fill="#FEFECE" filter="url(#fn752cuhbl43)" height="46.2969" style="stroke: #A80036; stroke-width: 1.5;" width="147" x="1741" y="431"/><rect fill="#FEFECE" height="10" style="stroke: #A80036; stroke-width: 1.5;" width="15" x="1868" y="436"/><rect fill="#FEFECE" height="2" style="stroke: #A80036; stroke-width: 1.5;" width="4" x="1866" y="438"/><rect fill="#FEFECE" height="2" style="stroke: #A80036; stroke-width: 1.5;" width="4" x="1866" y="442"/><text fill="#000000" font-family="sans-serif" font-size="14" lengthAdjust="spacingAndGlyphs" textLength="107" x="1756" y="463.9951">:android:debug</text><!--MD5=[ccc75cd529beb82693de2a4497c4bb10]
entity :android:widget--><rect fill="#FEFECE" filter="url(#fn752cuhbl43)" height="46.2969" style="stroke: #A80036; stroke-width: 1.5;" width="148" x="2348.5" y="325"/><rect fill="#FEFECE" height="10" style="stroke: #A80036; stroke-width: 1.5;" width="15" x="2476.5" y="330"/><rect fill="#FEFECE" height="2" style="stroke: #A80036; stroke-width: 1.5;" width="4" x="2474.5" y="332"/><rect fill="#FEFECE" height="2" style="stroke: #A80036; stroke-width: 1.5;" width="4" x="2474.5" y="336"/><text fill="#000000" font-family="sans-serif" font-size="14" lengthAdjust="spacingAndGlyphs" textLength="108" x="2363.5" y="357.9951">:android:widget</text><!--MD5=[b4e25f7522ba1111eb2df4fe1b5db7c7]
entity :core:cli--><rect fill="#FEFECE" filter="url(#fn752cuhbl43)" height="46.2969" style="stroke: #A80036; stroke-width: 1.5;" width="95" x="2218" y="325"/><rect fill="#FEFECE" height="10" style="stroke: #A80036; stroke-width: 1.5;" width="15" x="2293" y="330"/><rect fill="#FEFECE" height="2" style="stroke: #A80036; stroke-width: 1.5;" width="4" x="2291" y="332"/><rect fill="#FEFECE" height="2" style="stroke: #A80036; stroke-width: 1.5;" width="4" x="2291" y="336"/><text fill="#000000" font-family="sans-serif" font-size="14" lengthAdjust="spacingAndGlyphs" textLength="55" x="2233" y="357.9951">:core:cli</text><!--MD5=[9cb9b296c1f7d1e8bceacf7e776ceb9f]
entity :engine:translator--><rect fill="#FEFECE" filter="url(#fn752cuhbl43)" height="46.2969" style="stroke: #A80036; stroke-width: 1.5;" width="163" x="2184" y="431"/><rect fill="#FEFECE" height="10" style="stroke: #A80036; stroke-width: 1.5;" width="15" x="2327" y="436"/><rect fill="#FEFECE" height="2" style="stroke: #A80036; stroke-width: 1.5;" width="4" x="2325" y="438"/><rect fill="#FEFECE" height="2" style="stroke: #A80036; stroke-width: 1.5;" width="4" x="2325" y="442"/><text fill="#000000" font-family="sans-serif" font-size="14" lengthAdjust="spacingAndGlyphs" textLength="123" x="2199" y="463.9951">:engine:translator</text><!--MD5=[b6d98d9177c5b22a205e5ab6c49b37ef]
entity :android:app--><rect fill="#FEFECE" filter="url(#fn752cuhbl43)" height="46.2969" style="stroke: #A80036; stroke-width: 1.5;" width="128" x="716.5" y="7"/><rect fill="#FEFECE" height="10" style="stroke: #A80036; stroke-width: 1.5;" width="15" x="824.5" y="12"/><rect fill="#FEFECE" height="2" style="stroke: #A80036; stroke-width: 1.5;" width="4" x="822.5" y="14"/><rect fill="#FEFECE" height="2" style="stroke: #A80036; stroke-width: 1.5;" width="4" x="822.5" y="18"/><text fill="#000000" font-family="sans-serif" font-size="14" lengthAdjust="spacingAndGlyphs" textLength="88" x="731.5" y="39.9951">:android:app</text><!--MD5=[6084f87cb11c9c8e7b98e1b6385e3a51]
link :core:backend to :core:domain:app--><path d="M851.1539,256.6276 C943.6856,275.7845 1105.8495,309.3575 1205.7378,330.0375 " fill="none" id=":core:backend-&gt;:core:domain:app" style="stroke: #A80036; stroke-width: 1.0;"/><polygon fill="#A80036" points="1210.7428,331.0737,1202.7408,325.3319,1205.8467,330.0598,1201.1187,333.1657,1210.7428,331.0737" style="stroke: #A80036; stroke-width: 1.0;"/><!--MD5=[64d379cf4fc32ff0b351faeb9dde2472]
link :core:backend to :core:domain:session--><path d="M780.5,265.0004 C780.5,281.003 780.5,302.4461 780.5,319.528 " fill="none" id=":core:backend-&gt;:core:domain:session" style="stroke: #A80036; stroke-width: 1.0;"/><polygon fill="#A80036" points="780.5,324.6784,784.5,315.6784,780.5,319.6784,776.5,315.6784,780.5,324.6784" style="stroke: #A80036; stroke-width: 1.0;"/><!--MD5=[c6a5a6f4626caa42ca04d1aec387f400]
link :core:backend to :core:domain:account--><path d="M829.7556,265.0004 C866.0703,281.9579 915.468,305.0247 952.9717,322.5375 " fill="none" id=":core:backend-&gt;:core:domain:account" style="stroke: #A80036; stroke-width: 1.0;"/><polygon fill="#A80036" points="957.9491,324.8617,951.4868,317.4294,953.4187,322.7461,948.102,324.678,957.9491,324.8617" style="stroke: #A80036; stroke-width: 1.0;"/><!--MD5=[d7e8e2dc0a0071dfc163bed50f54849b]
link :core:backend to :core:domain:chat--><path d="M734.0652,265.0004 C699.8302,281.9579 653.2614,305.0247 617.9055,322.5375 " fill="none" id=":core:backend-&gt;:core:domain:chat" style="stroke: #A80036; stroke-width: 1.0;"/><polygon fill="#A80036" points="613.2132,324.8617,623.0535,324.4511,617.6936,322.6423,619.5024,317.2824,613.2132,324.8617" style="stroke: #A80036; stroke-width: 1.0;"/><!--MD5=[704cc349d7da7a8c75399283440f8ee2]
link :core:backend to :core:domain:roster--><path d="M709.8651,257.1872 C623.6786,275.7182 477.6415,307.1177 381.8853,327.7062 " fill="none" id=":core:backend-&gt;:core:domain:roster" style="stroke: #A80036; stroke-width: 1.0;"/><polygon fill="#A80036" points="376.7942,328.8008,386.434,330.8194,381.6825,327.7497,384.7522,322.9981,376.7942,328.8008" style="stroke: #A80036; stroke-width: 1.0;"/><!--MD5=[0a09f885cf7bf6af5f5d05ae3e988d1e]
link :net:smack:android to :core:api--><path d="M515.2408,159.1051 C479.3103,205.0914 410.4714,308.9768 465.5,371 C507.6038,418.4556 945.1487,443.8615 1101.9635,451.496 " fill="none" id=":net:smack:android-&gt;:core:api" style="stroke: #A80036; stroke-width: 1.0;"/><polygon fill="#A80036" points="1106.9718,451.7385,1098.1758,447.3078,1101.9777,451.4966,1097.7888,455.2985,1106.9718,451.7385" style="stroke: #A80036; stroke-width: 1.0;"/><!--MD5=[07f4dd57ae6d7d38c578a637e51bb3a8]
link :android:room to :core:api--><path d="M1043.3692,159.2786 C1062.3882,194.3792 1098.2526,263.3193 1121.5,325 C1134.2619,358.8601 1144.8116,399.225 1151.1225,425.6728 " fill="none" id=":android:room-&gt;:core:api" style="stroke: #A80036; stroke-width: 1.0;"/><polygon fill="#A80036" points="1152.3276,430.7708,1154.1498,421.092,1151.1773,425.9049,1146.3644,422.9324,1152.3276,430.7708" style="stroke: #A80036; stroke-width: 1.0;"/><!--MD5=[43b2687f309875f3345c641c0049e239]
link :android:sys to :android:indicator--><path d="M1941.0291,159.0004 C1972.2565,175.8887 2014.6883,198.8365 2047.0213,216.3227 " fill="none" id=":android:sys-&gt;:android:indicator" style="stroke: #A80036; stroke-width: 1.0;"/><polygon fill="#A80036" points="2051.7159,218.8617,2045.7024,211.0619,2047.3179,216.4831,2041.8966,218.0987,2051.7159,218.8617" style="stroke: #A80036; stroke-width: 1.0;"/><!--MD5=[c4882aab63b29c15f029a73a0bc261e2]
link :android:log to :engine:log--><path d="M238.5,583.0004 C238.5,599.003 238.5,620.4461 238.5,637.528 " fill="none" id=":android:log-&gt;:engine:log" style="stroke: #A80036; stroke-width: 1.0;"/><polygon fill="#A80036" points="238.5,642.6784,242.5,633.6784,238.5,637.6784,234.5,633.6784,238.5,642.6784" style="stroke: #A80036; stroke-width: 1.0;"/><!--MD5=[45517b2139f254912330f96b0a200dca]
link :android:error to :engine:log--><path d="M110.0856,583.0004 C136.1075,599.8195 171.4279,622.6485 198.4399,640.1075 " fill="none" id=":android:error-&gt;:engine:log" style="stroke: #A80036; stroke-width: 1.0;"/><polygon fill="#A80036" points="202.7011,642.8617,197.3139,634.6168,198.5019,640.1475,192.9712,641.3355,202.7011,642.8617" style="stroke: #A80036; stroke-width: 1.0;"/><!--MD5=[40bb589868918ba3fd0f378e218e8999]
link :android:main to :android:intent--><path d="M1497.3578,159.0004 C1467.8829,175.8887 1427.8325,198.8365 1397.3141,216.3227 " fill="none" id=":android:main-&gt;:android:intent" style="stroke: #A80036; stroke-width: 1.0;"/><polygon fill="#A80036" points="1392.8829,218.8617,1402.6805,217.8578,1397.2212,216.3759,1398.7031,210.9166,1392.8829,218.8617" style="stroke: #A80036; stroke-width: 1.0;"/><!--MD5=[3c34b3746a69b84c5d3b588540e90496]
link :android:main to :android:account--><path d="M1537.5,159.0004 C1537.5,175.003 1537.5,196.4461 1537.5,213.528 " fill="none" id=":android:main-&gt;:android:account" style="stroke: #A80036; stroke-width: 1.0;"/><polygon fill="#A80036" points="1537.5,218.6784,1541.5,209.6784,1537.5,213.6784,1533.5,209.6784,1537.5,218.6784" style="stroke: #A80036; stroke-width: 1.0;"/><!--MD5=[1debbca0f57afdab46daa5823379ab8a]
link :android:main to :android:roster--><path d="M1577.8592,159.0004 C1607.4934,175.8887 1647.7603,198.8365 1678.4437,216.3227 " fill="none" id=":android:main-&gt;:android:roster" style="stroke: #A80036; stroke-width: 1.0;"/><polygon fill="#A80036" points="1682.8988,218.8617,1677.06,210.9302,1678.5547,216.386,1673.0989,217.8807,1682.8988,218.8617" style="stroke: #A80036; stroke-width: 1.0;"/><!--MD5=[2457458197666786eab65f67e2b0c236]
link :android:main to :android:chat--><path d="M1605.4266,141.4223 C1724.9506,151.6699 1980.316,176.7272 2192.5,219 C2196.6567,219.8281 2200.9102,220.7507 2205.1895,221.737 " fill="none" id=":android:main-&gt;:android:chat" style="stroke: #A80036; stroke-width: 1.0;"/><polygon fill="#A80036" points="2210.2206,222.9223,2202.3779,216.9648,2205.3539,221.7756,2200.5431,224.7516,2210.2206,222.9223" style="stroke: #A80036; stroke-width: 1.0;"/><!--MD5=[6898d34d0d822ea23a237867119598dc]
link :android:main to :android:drawer--><path d="M1605.2411,155.5656 C1667.3117,173.4933 1759.2497,200.0476 1824.8236,218.9872 " fill="none" id=":android:main-&gt;:android:drawer" style="stroke: #A80036; stroke-width: 1.0;"/><polygon fill="#A80036" points="1829.8939,220.4516,1822.3575,214.1111,1825.0903,219.064,1820.1373,221.7968,1829.8939,220.4516" style="stroke: #A80036; stroke-width: 1.0;"/><!--MD5=[81be17caab1f50a1452d24f3f9fc473c]
link :android:main to :core:domain:app--><path d="M1469.7321,147.1921 C1397.1515,160.7237 1289.0565,185.8678 1264.5,219 C1242.4797,248.7103 1259.3452,292.2209 1274.8232,320.3292 " fill="none" id=":android:main-&gt;:core:domain:app" style="stroke: #A80036; stroke-width: 1.0;"/><polygon fill="#A80036" points="1277.2893,324.7037,1276.354,314.8994,1274.8339,320.3481,1269.3851,318.828,1277.2893,324.7037" style="stroke: #A80036; stroke-width: 1.0;"/><!--MD5=[cec0b78861792eaab7fa2279ffc7a7e2]
link :core:domain:app to :core:api--><path d="M1263.207,371.0004 C1242.0358,387.6237 1213.3875,410.1179 1191.2555,427.4957 " fill="none" id=":core:domain:app-&gt;:core:api" style="stroke: #A80036; stroke-width: 1.0;"/><polygon fill="#A80036" points="1187.202,430.6784,1196.751,428.2665,1191.1346,427.5906,1191.8105,421.9743,1187.202,430.6784" style="stroke: #A80036; stroke-width: 1.0;"/><!--MD5=[c67c764a5326e4d24cf2e4300865ef19]
link :core:domain:session to :core:api--><path d="M862.3034,371.0004 C934.803,391.3849 1038.7006,420.5975 1101.9399,438.3783 " fill="none" id=":core:domain:session-&gt;:core:api" style="stroke: #A80036; stroke-width: 1.0;"/><polygon fill="#A80036" points="1106.7983,439.7444,1099.2171,433.4575,1101.985,438.391,1097.0515,441.1589,1106.7983,439.7444" style="stroke: #A80036; stroke-width: 1.0;"/><!--MD5=[2c707074e348eff90fbc0f3bb90cfb10]
link :core:domain:account to :core:api--><path d="M1040.0478,371.0004 C1063.7504,387.7503 1095.8878,410.4607 1120.5542,427.8917 " fill="none" id=":core:domain:account-&gt;:core:api" style="stroke: #A80036; stroke-width: 1.0;"/><polygon fill="#A80036" points="1124.7571,430.8617,1119.7155,422.4011,1120.6737,427.9762,1115.0986,428.9344,1124.7571,430.8617" style="stroke: #A80036; stroke-width: 1.0;"/><!--MD5=[01174190b578bab423e164a6f26b4f28]
link :core:domain:chat to :engine:paging--><path d="M536.1221,371.0004 C514.1668,387.6237 484.4574,410.1179 461.5057,427.4957 " fill="none" id=":core:domain:chat-&gt;:engine:paging" style="stroke: #A80036; stroke-width: 1.0;"/><polygon fill="#A80036" points="457.3021,430.6784,466.8919,428.4345,461.2883,427.6601,462.0627,422.0565,457.3021,430.6784" style="stroke: #A80036; stroke-width: 1.0;"/><!--MD5=[ff59cb87d49bbcbfa2818e0d8d187e1a]
link :core:domain:roster to :engine:paging--><path d="M317.6609,371.0004 C339.4594,387.6237 368.9565,410.1179 391.7444,427.4957 " fill="none" id=":core:domain:roster-&gt;:engine:paging" style="stroke: #A80036; stroke-width: 1.0;"/><polygon fill="#A80036" points="395.9179,430.6784,391.187,422.0402,391.9421,427.6464,386.3358,428.4015,395.9179,430.6784" style="stroke: #A80036; stroke-width: 1.0;"/><!--MD5=[eaf14edc6043f7290cbfd1583ac6425c]
link :core:api to :engine:connectable--><path d="M1106.7483,468.7388 C1047.3522,485.9881 948.0896,514.8151 877.0135,535.4564 " fill="none" id=":core:api-&gt;:engine:connectable" style="stroke: #A80036; stroke-width: 1.0;"/><polygon fill="#A80036" points="871.9457,536.9281,881.7042,538.2592,876.7473,535.5336,879.4729,530.5767,871.9457,536.9281" style="stroke: #A80036; stroke-width: 1.0;"/><!--MD5=[bca29f017d1f9d57df28eb8d83e96ded]
link :engine:connectable to :engine:util--><path d="M792.5,583.0004 C792.5,599.003 792.5,620.4461 792.5,637.528 " fill="none" id=":engine:connectable-&gt;:engine:util" style="stroke: #A80036; stroke-width: 1.0;"/><polygon fill="#A80036" points="792.5,642.6784,796.5,633.6784,792.5,637.6784,788.5,633.6784,792.5,642.6784" style="stroke: #A80036; stroke-width: 1.0;"/><!--MD5=[6eb7bccd1a3c6d4cd083766ccbfc4317]
link :engine:connectable to :engine:log--><path d="M700.3963,577.6227 C588.2535,599.0797 401.7019,634.7736 303.5103,653.5612 " fill="none" id=":engine:connectable-&gt;:engine:log" style="stroke: #A80036; stroke-width: 1.0;"/><polygon fill="#A80036" points="298.3254,654.5533,307.9168,656.7906,303.2363,653.6136,306.4133,648.9331,298.3254,654.5533" style="stroke: #A80036; stroke-width: 1.0;"/><!--MD5=[96dc4ca78ce9f4597c88082d6f3e186c]
link :android:indicator to :android:core--><path d="M2033.7442,265.0004 C1988.4937,282.131 1926.7745,305.4961 1880.348,323.0718 " fill="none" id=":android:indicator-&gt;:android:core" style="stroke: #A80036; stroke-width: 1.0;"/><polygon fill="#A80036" points="1875.6201,324.8617,1885.4533,325.4161,1880.2962,323.0914,1882.6209,317.9343,1875.6201,324.8617" style="stroke: #A80036; stroke-width: 1.0;"/><!--MD5=[bd9cb8a7c84ee4f7ab758a69f4cf00fb]
link :android:indicator to :android:notification--><path d="M2094.5,265.0004 C2094.5,281.003 2094.5,302.4461 2094.5,319.528 " fill="none" id=":android:indicator-&gt;:android:notification" style="stroke: #A80036; stroke-width: 1.0;"/><polygon fill="#A80036" points="2094.5,324.6784,2098.5,315.6784,2094.5,319.6784,2090.5,315.6784,2094.5,324.6784" style="stroke: #A80036; stroke-width: 1.0;"/><!--MD5=[02e6d1eeca9a10220a158005479957f9]
link :android:core to :core:api--><path d="M1747.8878,358.7472 C1618.1832,379.6736 1333.9068,425.5386 1213.3355,444.9915 " fill="none" id=":android:core-&gt;:core:api" style="stroke: #A80036; stroke-width: 1.0;"/><polygon fill="#A80036" points="1208.0678,445.8414,1217.59,448.3568,1213.004,445.045,1216.3157,440.4589,1208.0678,445.8414" style="stroke: #A80036; stroke-width: 1.0;"/><!--MD5=[823f6d265fa7b51d9d7161f2d93b9088]
link :android:core to :android:debug--><path d="M1814.5,371.0004 C1814.5,387.003 1814.5,408.4461 1814.5,425.528 " fill="none" id=":android:core-&gt;:android:debug" style="stroke: #A80036; stroke-width: 1.0;"/><polygon fill="#A80036" points="1814.5,430.6784,1818.5,421.6784,1814.5,425.6784,1810.5,421.6784,1814.5,430.6784" style="stroke: #A80036; stroke-width: 1.0;"/><!--MD5=[49c315795c2cf8a16b9fc4140ea8e080]
link :android:intent to :core:api--><path d="M1370.8554,265.3795 C1390.0089,292.8294 1414.3125,338.7034 1391.5,371 C1370.5163,400.7075 1275.5134,427.316 1213.197,442.0018 " fill="none" id=":android:intent-&gt;:core:api" style="stroke: #A80036; stroke-width: 1.0;"/><polygon fill="#A80036" points="1208.0213,443.2119,1217.6957,445.0577,1212.89,442.0735,1215.8742,437.2678,1208.0213,443.2119" style="stroke: #A80036; stroke-width: 1.0;"/><!--MD5=[99eb1f9ce8f3a5e1f5d168a23a4e6130]
link :android:account to :android:core--><path d="M1597.6049,265.0004 C1642.3705,282.131 1703.4285,305.4961 1749.3575,323.0718 " fill="none" id=":android:account-&gt;:android:core" style="stroke: #A80036; stroke-width: 1.0;"/><polygon fill="#A80036" points="1754.0348,324.8617,1747.059,317.9091,1749.3651,323.0746,1744.1996,325.3806,1754.0348,324.8617" style="stroke: #A80036; stroke-width: 1.0;"/><!--MD5=[ea06712275b471b139755bf35b876505]
link :android:roster to :android:core--><path d="M1743.2456,265.0004 C1757.339,281.4168 1776.3477,303.5588 1791.1872,320.8444 " fill="none" id=":android:roster-&gt;:android:core" style="stroke: #A80036; stroke-width: 1.0;"/><polygon fill="#A80036" points="1794.4786,324.6784,1791.651,315.2442,1791.2216,320.8847,1785.5811,320.4553,1794.4786,324.6784" style="stroke: #A80036; stroke-width: 1.0;"/><!--MD5=[27504143436bfd555a82356c36796927]
link :android:chat to :android:core--><path d="M2210.0961,260.5188 C2204.1559,262.0734 2198.2254,263.5886 2192.5,265 C2086.3763,291.1619 1962.4869,317.5904 1886.2646,333.3822 " fill="none" id=":android:chat-&gt;:android:core" style="stroke: #A80036; stroke-width: 1.0;"/><polygon fill="#A80036" points="1881.3136,334.4068,1890.9375,336.4996,1886.2098,333.3934,1889.3161,328.6657,1881.3136,334.4068" style="stroke: #A80036; stroke-width: 1.0;"/><!--MD5=[efb42bc9aa58ba14b70407a353d00396]
link :android:chat to :android:notification--><path d="M2237.0087,265.0004 C2208.0118,281.8887 2168.6109,304.8365 2138.5874,322.3227 " fill="none" id=":android:chat-&gt;:android:notification" style="stroke: #A80036; stroke-width: 1.0;"/><polygon fill="#A80036" points="2134.2281,324.8617,2144.0183,323.7886,2138.5487,322.3453,2139.992,316.8756,2134.2281,324.8617" style="stroke: #A80036; stroke-width: 1.0;"/><!--MD5=[5767c1eae9a459def5cf537ae8640123]
link :android:chat to :android:widget--><path d="M2308.1798,265.0004 C2331.2504,281.7503 2362.5308,304.4607 2386.5395,321.8917 " fill="none" id=":android:chat-&gt;:android:widget" style="stroke: #A80036; stroke-width: 1.0;"/><polygon fill="#A80036" points="2390.6302,324.8617,2385.6973,316.3373,2386.5841,321.9242,2380.9972,322.811,2390.6302,324.8617" style="stroke: #A80036; stroke-width: 1.0;"/><!--MD5=[d0c9adee400d99d2c7e70b3cbab35cf4]
link :android:chat to :core:cli--><path d="M2274.1132,265.0004 C2272.4525,281.003 2270.2273,302.4461 2268.4546,319.528 " fill="none" id=":android:chat-&gt;:core:cli" style="stroke: #A80036; stroke-width: 1.0;"/><polygon fill="#A80036" points="2267.9202,324.6784,2272.8279,316.1394,2268.4363,319.7051,2264.8706,315.3136,2267.9202,324.6784" style="stroke: #A80036; stroke-width: 1.0;"/><!--MD5=[43e23cfb2d1172d7fb8288cf83bc1bf5]
link :android:drawer to :android:core--><path d="M1884.9713,265.0004 C1871.0329,281.4168 1852.2331,303.5588 1837.5566,320.8444 " fill="none" id=":android:drawer-&gt;:android:core" style="stroke: #A80036; stroke-width: 1.0;"/><polygon fill="#A80036" points="1834.3013,324.6784,1843.1755,320.4065,1837.5374,320.8669,1837.0771,315.2288,1834.3013,324.6784" style="stroke: #A80036; stroke-width: 1.0;"/><!--MD5=[e5b52aacd6c9e8567a26aa6a4b3cfc3a]
link :core:cli to :engine:translator--><path d="M2265.5,371.0004 C2265.5,387.003 2265.5,408.4461 2265.5,425.528 " fill="none" id=":core:cli-&gt;:engine:translator" style="stroke: #A80036; stroke-width: 1.0;"/><polygon fill="#A80036" points="2265.5,430.6784,2269.5,421.6784,2265.5,425.6784,2261.5,421.6784,2265.5,430.6784" style="stroke: #A80036; stroke-width: 1.0;"/><!--MD5=[c2bb4decd7a24ab2954465b21eb4e89b]
link :core:cli to :core:api--><path d="M2217.9853,366.3991 C2212.159,368.1823 2206.2369,369.7787 2200.5,371 C2009.0791,411.7507 1400.9361,442.7053 1213.2263,451.4831 " fill="none" id=":core:cli-&gt;:core:api" style="stroke: #A80036; stroke-width: 1.0;"/><polygon fill="#A80036" points="1208.0643,451.7238,1217.2409,455.3001,1213.0589,451.4908,1216.8681,447.3087,1208.0643,451.7238" style="stroke: #A80036; stroke-width: 1.0;"/><!--MD5=[c092ee46ff50f3ad0966693409762b2d]
link :android:app to :core:backend--><path d="M780.5,53.0913 C780.5,92.1987 780.5,171.3349 780.5,213.7081 " fill="none" id=":android:app-&gt;:core:backend" style="stroke: #A80036; stroke-width: 1.0;"/><polygon fill="#A80036" points="780.5,218.9372,784.5,209.9372,780.5,213.9372,776.5,209.9372,780.5,218.9372" style="stroke: #A80036; stroke-width: 1.0;"/><!--MD5=[f628b0d0476bcd96ad7e4bc9c88fe729]
link :android:app to :net:smack:android--><path d="M727.1217,53.0004 C687.6068,70.0271 633.7979,93.2131 593.0953,110.7516 " fill="none" id=":android:app-&gt;:net:smack:android" style="stroke: #A80036; stroke-width: 1.0;"/><polygon fill="#A80036" points="588.1984,112.8617,598.0466,112.9735,592.7902,110.883,594.8807,105.6266,588.1984,112.8617" style="stroke: #A80036; stroke-width: 1.0;"/><!--MD5=[a35988381a2e6516f16fc9d849ebccf6]
link :android:app to :android:room--><path d="M834.7463,53.0004 C874.9852,70.0617 929.8099,93.3074 971.204,110.8585 " fill="none" id=":android:app-&gt;:android:room" style="stroke: #A80036; stroke-width: 1.0;"/><polygon fill="#A80036" points="975.9285,112.8617,969.2041,105.6657,971.3252,110.9098,966.0811,113.031,975.9285,112.8617" style="stroke: #A80036; stroke-width: 1.0;"/><!--MD5=[e9fec9df6cff927a3d769895582165d1]
link :android:app to :android:sys--><path d="M844.624,36.0797 C1040.4296,54.6445 1629.4196,110.4879 1830.4187,129.5451 " fill="none" id=":android:app-&gt;:android:sys" style="stroke: #A80036; stroke-width: 1.0;"/><polygon fill="#A80036" points="1835.6734,130.0433,1827.0912,125.2115,1830.6957,129.5713,1826.336,133.1758,1835.6734,130.0433" style="stroke: #A80036; stroke-width: 1.0;"/><!--MD5=[ac117d8559748edfbe600e9405f9bdee]
link :android:app to :android:log--><path d="M716.4126,37.5153 C555.1808,58.1974 145.5,122.5065 145.5,242 C145.5,242 145.5,242 145.5,348 C145.5,419.5459 190.4686,494.0998 217.8666,532.8835 " fill="none" id=":android:app-&gt;:android:log" style="stroke: #A80036; stroke-width: 1.0;"/><polygon fill="#A80036" points="220.7885,536.9787,218.8173,527.3291,217.8844,532.9085,212.305,531.9756,220.7885,536.9787" style="stroke: #A80036; stroke-width: 1.0;"/><!--MD5=[32c4354e0221cd2acf28738e9c0350e1]
link :android:app to :android:error--><path d="M716.0356,34.7459 C587.482,44.976 304.0676,71.5833 216.5,113 C139.4214,149.4557 74.5,156.735 74.5,242 C74.5,242 74.5,242 74.5,348 C74.5,413.6929 74.5,490.8362 74.5,531.5296 " fill="none" id=":android:app-&gt;:android:error" style="stroke: #A80036; stroke-width: 1.0;"/><polygon fill="#A80036" points="74.5,536.786,78.5,527.786,74.5,531.786,70.5,527.786,74.5,536.786" style="stroke: #A80036; stroke-width: 1.0;"/><!--MD5=[de56f305491d2fe9d536387097efe455]
link :android:app to :android:main--><path d="M844.7148,38.9918 C984.7827,58.605 1317,105.1242 1464.6261,125.7957 " fill="none" id=":android:app-&gt;:android:main" style="stroke: #A80036; stroke-width: 1.0;"/><polygon fill="#A80036" points="1469.7991,126.5201,1461.4408,121.3106,1464.8474,125.8267,1460.3313,129.2333,1469.7991,126.5201" style="stroke: #A80036; stroke-width: 1.0;"/><!--MD5=[bc60b734ef404310a4a6235e48fe9d45]
@startuml
[:core:backend] - -> [:core:domain:app]
[:core:backend] - -> [:core:domain:session]
[:core:backend] - -> [:core:domain:account]
[:core:backend] - -> [:core:domain:chat]
[:core:backend] - -> [:core:domain:roster]
[:net:smack:android] - -> [:core:api]
[:android:room] - -> [:core:api]
[:android:sys] - -> [:android:indicator]
[:android:log] - -> [:engine:log]
[:android:error] - -> [:engine:log]
[:android:main] - -> [:android:intent]
[:android:main] - -> [:android:account]
[:android:main] - -> [:android:roster]
[:android:main] - -> [:android:chat]
[:android:main] - -> [:android:drawer]
[:android:main] - -> [:core:domain:app]
[:core:domain:app] - -> [:core:api]
[:core:domain:session] - -> [:core:api]
[:core:domain:account] - -> [:core:api]
[:core:domain:chat] - -> [:engine:paging]
[:core:domain:roster] - -> [:engine:paging]
[:core:api] - -> [:engine:connectable]
[:engine:connectable] - -> [:engine:util]
[:engine:connectable] - -> [:engine:log]
[:android:indicator] - -> [:android:core]
[:android:indicator] - -> [:android:notification]
[:android:core] - -> [:core:api]
[:android:core] - -> [:android:debug]
[:android:intent] - -> [:core:api]
[:android:account] - -> [:android:core]
[:android:roster] - -> [:android:core]
[:android:chat] - -> [:android:core]
[:android:chat] - -> [:android:notification]
[:android:chat] - -> [:android:widget]
[:android:chat] - -> [:core:cli]
[:android:drawer] - -> [:android:core]
[:core:cli] - -> [:engine:translator]
[:core:cli] - -> [:core:api]
[:android:app] - -> [:core:backend]
[:android:app] - -> [:net:smack:android]
[:android:app] - -> [:android:room]
[:android:app] - -> [:android:sys]
[:android:app] - -> [:android:log]
[:android:app] - -> [:android:error]
[:android:app] - -> [:android:main]
@enduml

PlantUML version 1.2020.15(Sun Jun 28 13:39:45 CEST 2020)
(GPL source distribution)
Java Runtime: OpenJDK Runtime Environment
JVM: OpenJDK 64-Bit Server VM
Default Encoding: UTF-8
Language: pl
Country: PL
--></g></svg>