<?xml version="1.0" encoding="UTF-8" standalone="no"?><svg xmlns="http://www.w3.org/2000/svg" xmlns:xlink="http://www.w3.org/1999/xlink" contentScriptType="application/ecmascript" contentStyleType="text/css" height="735px" preserveAspectRatio="none" style="width:2553px;height:735px;" version="1.1" viewBox="0 0 2553 735" width="2553px" zoomAndPan="magnify"><defs><filter height="300%" id="f14jiano0dnm6j" width="300%" x="-1" y="-1"><feGaussianBlur result="blurOut" stdDeviation="2.0"/><feColorMatrix in="blurOut" result="blurOut2" type="matrix" values="0 0 0 0 0 0 0 0 0 0 0 0 0 0 0 0 0 0 .4 0"/><feOffset dx="4.0" dy="4.0" in="blurOut2" result="blurOut3"/><feBlend in="SourceGraphic" in2="blurOut3" mode="normal"/></filter></defs><g><!--MD5=[30404b2edc0ff233b9122d63ae72b243]
cluster :core--><polygon fill="#FFFFFF" filter="url(#f14jiano0dnm6j)" points="1274,218,1322,218,1329,240.2969,1553,240.2969,1553,511,1274,511,1274,218" style="stroke: #000000; stroke-width: 1.5;"/><line style="stroke: #000000; stroke-width: 1.5;" x1="1274" x2="1329" y1="240.2969" y2="240.2969"/><text fill="#000000" font-family="sans-serif" font-size="14" font-weight="bold" lengthAdjust="spacingAndGlyphs" textLength="42" x="1278" y="232.9951">:core</text><!--MD5=[aae699ec891e4c0fc5af03006e3188bf]
cluster :platform--><polygon fill="#FFFFFF" filter="url(#f14jiano0dnm6j)" points="1624,112,1702,112,1709,134.2969,2531,134.2969,2531,405,1624,405,1624,112" style="stroke: #000000; stroke-width: 1.5;"/><line style="stroke: #000000; stroke-width: 1.5;" x1="1624" x2="1709" y1="134.2969" y2="134.2969"/><text fill="#000000" font-family="sans-serif" font-size="14" font-weight="bold" lengthAdjust="spacingAndGlyphs" textLength="72" x="1628" y="126.9951">:platform</text><!--MD5=[8e4c312b0b41d0712f148ccd6208f491]
cluster :app--><polygon fill="#FFFFFF" filter="url(#f14jiano0dnm6j)" points="16,6,57,6,64,28.2969,1266,28.2969,1266,511,16,511,16,6" style="stroke: #000000; stroke-width: 1.5;"/><line style="stroke: #000000; stroke-width: 1.5;" x1="16" x2="64" y1="28.2969" y2="28.2969"/><text fill="#000000" font-family="sans-serif" font-size="14" font-weight="bold" lengthAdjust="spacingAndGlyphs" textLength="35" x="20" y="20.9951">:app</text><!--MD5=[6ed0a4222646c4be5d3ab2314135a570]
cluster :engine--><polygon fill="#FFFFFF" filter="url(#f14jiano0dnm6j)" points="992,536,1058,536,1065,558.2969,1571,558.2969,1571,723,992,723,992,536" style="stroke: #000000; stroke-width: 1.5;"/><line style="stroke: #000000; stroke-width: 1.5;" x1="992" x2="1065" y1="558.2969" y2="558.2969"/><text fill="#000000" font-family="sans-serif" font-size="14" font-weight="bold" lengthAdjust="spacingAndGlyphs" textLength="60" x="996" y="550.9951">:engine</text><!--MD5=[6b3c72c52f198a8ada63b8c5ce9355bc]
entity :core:backend--><rect fill="#FEFECE" filter="url(#f14jiano0dnm6j)" height="46.2969" style="stroke: #A80036; stroke-width: 1.5;" width="141" x="1379.5" y="245"/><rect fill="#FEFECE" height="10" style="stroke: #A80036; stroke-width: 1.5;" width="15" x="1500.5" y="250"/><rect fill="#FEFECE" height="2" style="stroke: #A80036; stroke-width: 1.5;" width="4" x="1498.5" y="252"/><rect fill="#FEFECE" height="2" style="stroke: #A80036; stroke-width: 1.5;" width="4" x="1498.5" y="256"/><text fill="#000000" font-family="sans-serif" font-size="14" lengthAdjust="spacingAndGlyphs" textLength="101" x="1394.5" y="277.9951">:core:backend</text><!--MD5=[c0f778923607b3b2b1776544ac20a677]
entity :core:domain--><rect fill="#FEFECE" filter="url(#f14jiano0dnm6j)" height="46.2969" style="stroke: #A80036; stroke-width: 1.5;" width="132" x="1413" y="351"/><rect fill="#FEFECE" height="10" style="stroke: #A80036; stroke-width: 1.5;" width="15" x="1525" y="356"/><rect fill="#FEFECE" height="2" style="stroke: #A80036; stroke-width: 1.5;" width="4" x="1523" y="358"/><rect fill="#FEFECE" height="2" style="stroke: #A80036; stroke-width: 1.5;" width="4" x="1523" y="362"/><text fill="#000000" font-family="sans-serif" font-size="14" lengthAdjust="spacingAndGlyphs" textLength="92" x="1428" y="383.9951">:core:domain</text><!--MD5=[bb042d61f43125fc2fe6ee382cb3d84b]
entity :core:api--><rect fill="#FEFECE" filter="url(#f14jiano0dnm6j)" height="46.2969" style="stroke: #A80036; stroke-width: 1.5;" width="101" x="1426.5" y="457"/><rect fill="#FEFECE" height="10" style="stroke: #A80036; stroke-width: 1.5;" width="15" x="1507.5" y="462"/><rect fill="#FEFECE" height="2" style="stroke: #A80036; stroke-width: 1.5;" width="4" x="1505.5" y="464"/><rect fill="#FEFECE" height="2" style="stroke: #A80036; stroke-width: 1.5;" width="4" x="1505.5" y="468"/><text fill="#000000" font-family="sans-serif" font-size="14" lengthAdjust="spacingAndGlyphs" textLength="61" x="1441.5" y="489.9951">:core:api</text><!--MD5=[b4e25f7522ba1111eb2df4fe1b5db7c7]
entity :core:cli--><rect fill="#FEFECE" filter="url(#f14jiano0dnm6j)" height="46.2969" style="stroke: #A80036; stroke-width: 1.5;" width="95" x="1282.5" y="351"/><rect fill="#FEFECE" height="10" style="stroke: #A80036; stroke-width: 1.5;" width="15" x="1357.5" y="356"/><rect fill="#FEFECE" height="2" style="stroke: #A80036; stroke-width: 1.5;" width="4" x="1355.5" y="358"/><rect fill="#FEFECE" height="2" style="stroke: #A80036; stroke-width: 1.5;" width="4" x="1355.5" y="362"/><text fill="#000000" font-family="sans-serif" font-size="14" lengthAdjust="spacingAndGlyphs" textLength="55" x="1297.5" y="383.9951">:core:cli</text><!--MD5=[7555348684aac615abf32a194ed657e7]
entity :platform:net:smack:android--><rect fill="#FEFECE" filter="url(#f14jiano0dnm6j)" height="46.2969" style="stroke: #A80036; stroke-width: 1.5;" width="236" x="2068" y="139"/><rect fill="#FEFECE" height="10" style="stroke: #A80036; stroke-width: 1.5;" width="15" x="2284" y="144"/><rect fill="#FEFECE" height="2" style="stroke: #A80036; stroke-width: 1.5;" width="4" x="2282" y="146"/><rect fill="#FEFECE" height="2" style="stroke: #A80036; stroke-width: 1.5;" width="4" x="2282" y="150"/><text fill="#000000" font-family="sans-serif" font-size="14" lengthAdjust="spacingAndGlyphs" textLength="196" x="2083" y="171.9951">:platform:net:smack:android</text><!--MD5=[7d05a7b213c691ded4410087562381da]
entity :platform:repo:room--><rect fill="#FEFECE" filter="url(#f14jiano0dnm6j)" height="46.2969" style="stroke: #A80036; stroke-width: 1.5;" width="179" x="1853.5" y="139"/><rect fill="#FEFECE" height="10" style="stroke: #A80036; stroke-width: 1.5;" width="15" x="2012.5" y="144"/><rect fill="#FEFECE" height="2" style="stroke: #A80036; stroke-width: 1.5;" width="4" x="2010.5" y="146"/><rect fill="#FEFECE" height="2" style="stroke: #A80036; stroke-width: 1.5;" width="4" x="2010.5" y="150"/><text fill="#000000" font-family="sans-serif" font-size="14" lengthAdjust="spacingAndGlyphs" textLength="139" x="1868.5" y="171.9951">:platform:repo:room</text><!--MD5=[f97ec7d7f57fc74a6f53143a60b8d412]
entity :platform:sys:android--><rect fill="#FEFECE" filter="url(#f14jiano0dnm6j)" height="46.2969" style="stroke: #A80036; stroke-width: 1.5;" width="186" x="1632" y="139"/><rect fill="#FEFECE" height="10" style="stroke: #A80036; stroke-width: 1.5;" width="15" x="1798" y="144"/><rect fill="#FEFECE" height="2" style="stroke: #A80036; stroke-width: 1.5;" width="4" x="1796" y="146"/><rect fill="#FEFECE" height="2" style="stroke: #A80036; stroke-width: 1.5;" width="4" x="1796" y="150"/><text fill="#000000" font-family="sans-serif" font-size="14" lengthAdjust="spacingAndGlyphs" textLength="146" x="1647" y="171.9951">:platform:sys:android</text><!--MD5=[0192921ae83855e3782d4a30a6a736d2]
entity :platform:log:android--><rect fill="#FEFECE" filter="url(#f14jiano0dnm6j)" height="46.2969" style="stroke: #A80036; stroke-width: 1.5;" width="184" x="2339" y="139"/><rect fill="#FEFECE" height="10" style="stroke: #A80036; stroke-width: 1.5;" width="15" x="2503" y="144"/><rect fill="#FEFECE" height="2" style="stroke: #A80036; stroke-width: 1.5;" width="4" x="2501" y="146"/><rect fill="#FEFECE" height="2" style="stroke: #A80036; stroke-width: 1.5;" width="4" x="2501" y="150"/><text fill="#000000" font-family="sans-serif" font-size="14" lengthAdjust="spacingAndGlyphs" textLength="144" x="2354" y="171.9951">:platform:log:android</text><!--MD5=[c4c8b9cb9b5eba97e0361bb7b64acfa2]
entity :platform:repo:data--><rect fill="#FEFECE" filter="url(#f14jiano0dnm6j)" height="46.2969" style="stroke: #A80036; stroke-width: 1.5;" width="173" x="1923.5" y="245"/><rect fill="#FEFECE" height="10" style="stroke: #A80036; stroke-width: 1.5;" width="15" x="2076.5" y="250"/><rect fill="#FEFECE" height="2" style="stroke: #A80036; stroke-width: 1.5;" width="4" x="2074.5" y="252"/><rect fill="#FEFECE" height="2" style="stroke: #A80036; stroke-width: 1.5;" width="4" x="2074.5" y="256"/><text fill="#000000" font-family="sans-serif" font-size="14" lengthAdjust="spacingAndGlyphs" textLength="133" x="1938.5" y="277.9951">:platform:repo:data</text><!--MD5=[9d0aad4d3ae0428033bb73bfe8791804]
entity :platform:util:android:indicator--><rect fill="#FEFECE" filter="url(#f14jiano0dnm6j)" height="46.2969" style="stroke: #A80036; stroke-width: 1.5;" width="247" x="1641.5" y="245"/><rect fill="#FEFECE" height="10" style="stroke: #A80036; stroke-width: 1.5;" width="15" x="1868.5" y="250"/><rect fill="#FEFECE" height="2" style="stroke: #A80036; stroke-width: 1.5;" width="4" x="1866.5" y="252"/><rect fill="#FEFECE" height="2" style="stroke: #A80036; stroke-width: 1.5;" width="4" x="1866.5" y="256"/><text fill="#000000" font-family="sans-serif" font-size="14" lengthAdjust="spacingAndGlyphs" textLength="207" x="1656.5" y="277.9951">:platform:util:android:indicator</text><!--MD5=[e250328d3e47e8639d241f05ebb3f883]
entity :platform:util:android:notification--><rect fill="#FEFECE" filter="url(#f14jiano0dnm6j)" height="46.2969" style="stroke: #A80036; stroke-width: 1.5;" width="263" x="1651.5" y="351"/><rect fill="#FEFECE" height="10" style="stroke: #A80036; stroke-width: 1.5;" width="15" x="1894.5" y="356"/><rect fill="#FEFECE" height="2" style="stroke: #A80036; stroke-width: 1.5;" width="4" x="1892.5" y="358"/><rect fill="#FEFECE" height="2" style="stroke: #A80036; stroke-width: 1.5;" width="4" x="1892.5" y="362"/><text fill="#000000" font-family="sans-serif" font-size="14" lengthAdjust="spacingAndGlyphs" textLength="223" x="1666.5" y="383.9951">:platform:util:android:notification</text><!--MD5=[6966d1724e2ee2dac7be3557de6a919b]
entity :app:android:error--><rect fill="#FEFECE" filter="url(#f14jiano0dnm6j)" height="46.2969" style="stroke: #A80036; stroke-width: 1.5;" width="166" x="1092" y="139"/><rect fill="#FEFECE" height="10" style="stroke: #A80036; stroke-width: 1.5;" width="15" x="1238" y="144"/><rect fill="#FEFECE" height="2" style="stroke: #A80036; stroke-width: 1.5;" width="4" x="1236" y="146"/><rect fill="#FEFECE" height="2" style="stroke: #A80036; stroke-width: 1.5;" width="4" x="1236" y="150"/><text fill="#000000" font-family="sans-serif" font-size="14" lengthAdjust="spacingAndGlyphs" textLength="126" x="1107" y="171.9951">:app:android:error</text><!--MD5=[0bcff9db8b7fec1d2df77b4c8215df11]
entity :app:android:main--><rect fill="#FEFECE" filter="url(#f14jiano0dnm6j)" height="46.2969" style="stroke: #A80036; stroke-width: 1.5;" width="166" x="785" y="139"/><rect fill="#FEFECE" height="10" style="stroke: #A80036; stroke-width: 1.5;" width="15" x="931" y="144"/><rect fill="#FEFECE" height="2" style="stroke: #A80036; stroke-width: 1.5;" width="4" x="929" y="146"/><rect fill="#FEFECE" height="2" style="stroke: #A80036; stroke-width: 1.5;" width="4" x="929" y="150"/><text fill="#000000" font-family="sans-serif" font-size="14" lengthAdjust="spacingAndGlyphs" textLength="126" x="800" y="171.9951">:app:android:main</text><!--MD5=[17f4981cfa4b746a3d7e6da3bb3d1db3]
entity :app:android:debug--><rect fill="#FEFECE" filter="url(#f14jiano0dnm6j)" height="46.2969" style="stroke: #A80036; stroke-width: 1.5;" width="178" x="673" y="245"/><rect fill="#FEFECE" height="10" style="stroke: #A80036; stroke-width: 1.5;" width="15" x="831" y="250"/><rect fill="#FEFECE" height="2" style="stroke: #A80036; stroke-width: 1.5;" width="4" x="829" y="252"/><rect fill="#FEFECE" height="2" style="stroke: #A80036; stroke-width: 1.5;" width="4" x="829" y="256"/><text fill="#000000" font-family="sans-serif" font-size="14" lengthAdjust="spacingAndGlyphs" textLength="138" x="688" y="277.9951">:app:android:debug</text><!--MD5=[a2bad94cd4b420930ded4458f774e3be]
entity :app:android:intent--><rect fill="#FEFECE" filter="url(#f14jiano0dnm6j)" height="46.2969" style="stroke: #A80036; stroke-width: 1.5;" width="173" x="886.5" y="245"/><rect fill="#FEFECE" height="10" style="stroke: #A80036; stroke-width: 1.5;" width="15" x="1039.5" y="250"/><rect fill="#FEFECE" height="2" style="stroke: #A80036; stroke-width: 1.5;" width="4" x="1037.5" y="252"/><rect fill="#FEFECE" height="2" style="stroke: #A80036; stroke-width: 1.5;" width="4" x="1037.5" y="256"/><text fill="#000000" font-family="sans-serif" font-size="14" lengthAdjust="spacingAndGlyphs" textLength="133" x="901.5" y="277.9951">:app:android:intent</text><!--MD5=[4e93f4d53c197f992c0f8773e16fdbed]
entity :app:android:account--><rect fill="#FEFECE" filter="url(#f14jiano0dnm6j)" height="46.2969" style="stroke: #A80036; stroke-width: 1.5;" width="189" x="24.5" y="245"/><rect fill="#FEFECE" height="10" style="stroke: #A80036; stroke-width: 1.5;" width="15" x="193.5" y="250"/><rect fill="#FEFECE" height="2" style="stroke: #A80036; stroke-width: 1.5;" width="4" x="191.5" y="252"/><rect fill="#FEFECE" height="2" style="stroke: #A80036; stroke-width: 1.5;" width="4" x="191.5" y="256"/><text fill="#000000" font-family="sans-serif" font-size="14" lengthAdjust="spacingAndGlyphs" textLength="149" x="39.5" y="277.9951">:app:android:account</text><!--MD5=[e5d9953ef7aef44001e1425c1d4f233f]
entity :app:android:roster--><rect fill="#FEFECE" filter="url(#f14jiano0dnm6j)" height="46.2969" style="stroke: #A80036; stroke-width: 1.5;" width="174" x="249" y="245"/><rect fill="#FEFECE" height="10" style="stroke: #A80036; stroke-width: 1.5;" width="15" x="403" y="250"/><rect fill="#FEFECE" height="2" style="stroke: #A80036; stroke-width: 1.5;" width="4" x="401" y="252"/><rect fill="#FEFECE" height="2" style="stroke: #A80036; stroke-width: 1.5;" width="4" x="401" y="256"/><text fill="#000000" font-family="sans-serif" font-size="14" lengthAdjust="spacingAndGlyphs" textLength="134" x="264" y="277.9951">:app:android:roster</text><!--MD5=[3c5d1542ec55f5c9ca1dd1bf447ad775]
entity :app:android:chat--><rect fill="#FEFECE" filter="url(#f14jiano0dnm6j)" height="46.2969" style="stroke: #A80036; stroke-width: 1.5;" width="163" x="1094.5" y="245"/><rect fill="#FEFECE" height="10" style="stroke: #A80036; stroke-width: 1.5;" width="15" x="1237.5" y="250"/><rect fill="#FEFECE" height="2" style="stroke: #A80036; stroke-width: 1.5;" width="4" x="1235.5" y="252"/><rect fill="#FEFECE" height="2" style="stroke: #A80036; stroke-width: 1.5;" width="4" x="1235.5" y="256"/><text fill="#000000" font-family="sans-serif" font-size="14" lengthAdjust="spacingAndGlyphs" textLength="123" x="1109.5" y="277.9951">:app:android:chat</text><!--MD5=[ffb3e5b1032d4ec17792ff7faca81f8a]
entity :app:android:drawer--><rect fill="#FEFECE" filter="url(#f14jiano0dnm6j)" height="46.2969" style="stroke: #A80036; stroke-width: 1.5;" width="180" x="458" y="245"/><rect fill="#FEFECE" height="10" style="stroke: #A80036; stroke-width: 1.5;" width="15" x="618" y="250"/><rect fill="#FEFECE" height="2" style="stroke: #A80036; stroke-width: 1.5;" width="4" x="616" y="252"/><rect fill="#FEFECE" height="2" style="stroke: #A80036; stroke-width: 1.5;" width="4" x="616" y="256"/><text fill="#000000" font-family="sans-serif" font-size="14" lengthAdjust="spacingAndGlyphs" textLength="140" x="473" y="277.9951">:app:android:drawer</text><!--MD5=[e206c0a48d3695938be9cb0a783f6a16]
entity :app:android:core--><rect fill="#FEFECE" filter="url(#f14jiano0dnm6j)" height="46.2969" style="stroke: #A80036; stroke-width: 1.5;" width="164" x="505" y="351"/><rect fill="#FEFECE" height="10" style="stroke: #A80036; stroke-width: 1.5;" width="15" x="649" y="356"/><rect fill="#FEFECE" height="2" style="stroke: #A80036; stroke-width: 1.5;" width="4" x="647" y="358"/><rect fill="#FEFECE" height="2" style="stroke: #A80036; stroke-width: 1.5;" width="4" x="647" y="362"/><text fill="#000000" font-family="sans-serif" font-size="14" lengthAdjust="spacingAndGlyphs" textLength="124" x="520" y="383.9951">:app:android:core</text><!--MD5=[727c968f75d7b2259691a75cae745665]
entity :app:android:widget--><rect fill="#FEFECE" filter="url(#f14jiano0dnm6j)" height="46.2969" style="stroke: #A80036; stroke-width: 1.5;" width="179" x="704.5" y="351"/><rect fill="#FEFECE" height="10" style="stroke: #A80036; stroke-width: 1.5;" width="15" x="863.5" y="356"/><rect fill="#FEFECE" height="2" style="stroke: #A80036; stroke-width: 1.5;" width="4" x="861.5" y="358"/><rect fill="#FEFECE" height="2" style="stroke: #A80036; stroke-width: 1.5;" width="4" x="861.5" y="362"/><text fill="#000000" font-family="sans-serif" font-size="14" lengthAdjust="spacingAndGlyphs" textLength="139" x="719.5" y="383.9951">:app:android:widget</text><!--MD5=[160f3e64bd94fe379cd5aac6ec6060c4]
entity :app:android:resources--><rect fill="#FEFECE" filter="url(#f14jiano0dnm6j)" height="46.2969" style="stroke: #A80036; stroke-width: 1.5;" width="203" x="588.5" y="457"/><rect fill="#FEFECE" height="10" style="stroke: #A80036; stroke-width: 1.5;" width="15" x="771.5" y="462"/><rect fill="#FEFECE" height="2" style="stroke: #A80036; stroke-width: 1.5;" width="4" x="769.5" y="464"/><rect fill="#FEFECE" height="2" style="stroke: #A80036; stroke-width: 1.5;" width="4" x="769.5" y="468"/><text fill="#000000" font-family="sans-serif" font-size="14" lengthAdjust="spacingAndGlyphs" textLength="163" x="603.5" y="489.9951">:app:android:resources</text><!--MD5=[766df838d575ad6f8bccedd2c6cbc45f]
entity :app:android:app--><rect fill="#FEFECE" filter="url(#f14jiano0dnm6j)" height="46.2969" style="stroke: #A80036; stroke-width: 1.5;" width="159" x="1099.5" y="33"/><rect fill="#FEFECE" height="10" style="stroke: #A80036; stroke-width: 1.5;" width="15" x="1238.5" y="38"/><rect fill="#FEFECE" height="2" style="stroke: #A80036; stroke-width: 1.5;" width="4" x="1236.5" y="40"/><rect fill="#FEFECE" height="2" style="stroke: #A80036; stroke-width: 1.5;" width="4" x="1236.5" y="44"/><text fill="#000000" font-family="sans-serif" font-size="14" lengthAdjust="spacingAndGlyphs" textLength="119" x="1114.5" y="65.9951">:app:android:app</text><!--MD5=[8725e2f32c833bede44e6c458fce3254]
entity :engine:paging--><rect fill="#FEFECE" filter="url(#f14jiano0dnm6j)" height="46.2969" style="stroke: #A80036; stroke-width: 1.5;" width="145" x="1198.5" y="563"/><rect fill="#FEFECE" height="10" style="stroke: #A80036; stroke-width: 1.5;" width="15" x="1323.5" y="568"/><rect fill="#FEFECE" height="2" style="stroke: #A80036; stroke-width: 1.5;" width="4" x="1321.5" y="570"/><rect fill="#FEFECE" height="2" style="stroke: #A80036; stroke-width: 1.5;" width="4" x="1321.5" y="574"/><text fill="#000000" font-family="sans-serif" font-size="14" lengthAdjust="spacingAndGlyphs" textLength="105" x="1213.5" y="595.9951">:engine:paging</text><!--MD5=[474bc7754ff50e9887f34633b92b9e02]
entity :engine:connectable--><rect fill="#FEFECE" filter="url(#f14jiano0dnm6j)" height="46.2969" style="stroke: #A80036; stroke-width: 1.5;" width="184" x="1379" y="563"/><rect fill="#FEFECE" height="10" style="stroke: #A80036; stroke-width: 1.5;" width="15" x="1543" y="568"/><rect fill="#FEFECE" height="2" style="stroke: #A80036; stroke-width: 1.5;" width="4" x="1541" y="570"/><rect fill="#FEFECE" height="2" style="stroke: #A80036; stroke-width: 1.5;" width="4" x="1541" y="574"/><text fill="#000000" font-family="sans-serif" font-size="14" lengthAdjust="spacingAndGlyphs" textLength="144" x="1394" y="595.9951">:engine:connectable</text><!--MD5=[8e94acc19a10f03efd288fb36eb4472b]
entity :engine:util--><rect fill="#FEFECE" filter="url(#f14jiano0dnm6j)" height="46.2969" style="stroke: #A80036; stroke-width: 1.5;" width="118" x="1290" y="669"/><rect fill="#FEFECE" height="10" style="stroke: #A80036; stroke-width: 1.5;" width="15" x="1388" y="674"/><rect fill="#FEFECE" height="2" style="stroke: #A80036; stroke-width: 1.5;" width="4" x="1386" y="676"/><rect fill="#FEFECE" height="2" style="stroke: #A80036; stroke-width: 1.5;" width="4" x="1386" y="680"/><text fill="#000000" font-family="sans-serif" font-size="14" lengthAdjust="spacingAndGlyphs" textLength="78" x="1305" y="701.9951">:engine:util</text><!--MD5=[f7af38a47341a5d6bbb7054022a18e1f]
entity :engine:log--><rect fill="#FEFECE" filter="url(#f14jiano0dnm6j)" height="46.2969" style="stroke: #A80036; stroke-width: 1.5;" width="119" x="1443.5" y="669"/><rect fill="#FEFECE" height="10" style="stroke: #A80036; stroke-width: 1.5;" width="15" x="1542.5" y="674"/><rect fill="#FEFECE" height="2" style="stroke: #A80036; stroke-width: 1.5;" width="4" x="1540.5" y="676"/><rect fill="#FEFECE" height="2" style="stroke: #A80036; stroke-width: 1.5;" width="4" x="1540.5" y="680"/><text fill="#000000" font-family="sans-serif" font-size="14" lengthAdjust="spacingAndGlyphs" textLength="79" x="1458.5" y="701.9951">:engine:log</text><!--MD5=[9cb9b296c1f7d1e8bceacf7e776ceb9f]
entity :engine:translator--><rect fill="#FEFECE" filter="url(#f14jiano0dnm6j)" height="46.2969" style="stroke: #A80036; stroke-width: 1.5;" width="163" x="1000.5" y="563"/><rect fill="#FEFECE" height="10" style="stroke: #A80036; stroke-width: 1.5;" width="15" x="1143.5" y="568"/><rect fill="#FEFECE" height="2" style="stroke: #A80036; stroke-width: 1.5;" width="4" x="1141.5" y="570"/><rect fill="#FEFECE" height="2" style="stroke: #A80036; stroke-width: 1.5;" width="4" x="1141.5" y="574"/><text fill="#000000" font-family="sans-serif" font-size="14" lengthAdjust="spacingAndGlyphs" textLength="123" x="1015.5" y="595.9951">:engine:translator</text><!--MD5=[d2e99a31c5c69c260843e58b87a30949]
link :core:backend to :core:domain--><path d="M1456.2926,291.0004 C1460.6706,307.003 1466.5371,328.4461 1471.2105,345.528 " fill="none" id=":core:backend-&gt;:core:domain" style="stroke: #A80036; stroke-width: 1.0;"/><polygon fill="#A80036" points="1472.6196,350.6784,1474.1025,340.9418,1471.3,345.8557,1466.3862,343.0531,1472.6196,350.6784" style="stroke: #A80036; stroke-width: 1.0;"/><!--MD5=[d5e4b706dadef8c45d2b97abed780e73]
link :platform:net:smack:android to :core:api--><path d="M2183.2806,185.194 C2175.9185,236.0065 2150.4702,356.4761 2071,405 C1981.3116,459.7631 1662.7422,474.8065 1532.7982,478.7109 " fill="none" id=":platform:net:smack:android-&gt;:core:api" style="stroke: #A80036; stroke-width: 1.0;"/><polygon fill="#A80036" points="1527.5044,478.8669,1536.6184,482.5998,1532.5022,478.7195,1536.3825,474.6033,1527.5044,478.8669" style="stroke: #A80036; stroke-width: 1.0;"/><!--MD5=[12b3229dbc72ddecfb6c2620af34bdbb]
link :platform:repo:room to :core:api--><path d="M2032.8262,181.2675 C2068.4977,190.9005 2103.5505,203.5824 2114,218 C2170.4543,295.8924 2090.5732,361.0506 2005,405 C1923.3395,446.9398 1651.3735,468.9074 1532.9287,476.6792 " fill="none" id=":platform:repo:room-&gt;:core:api" style="stroke: #A80036; stroke-width: 1.0;"/><polygon fill="#A80036" points="1527.7491,477.0164,1536.9901,480.4229,1532.7385,476.6914,1536.4701,472.4399,1527.7491,477.0164" style="stroke: #A80036; stroke-width: 1.0;"/><!--MD5=[d44a6179b39683f158a574c68bd02e51]
link :platform:repo:room to :platform:repo:data--><path d="M1957.538,185.0004 C1967.8272,201.2789 1981.6749,223.1871 1992.5595,240.4076 " fill="none" id=":platform:repo:room-&gt;:platform:repo:data" style="stroke: #A80036; stroke-width: 1.0;"/><polygon fill="#A80036" points="1995.259,244.6784,1993.8317,234.9335,1992.5876,240.4519,1987.0692,239.2078,1995.259,244.6784" style="stroke: #A80036; stroke-width: 1.0;"/><!--MD5=[ac91a781197ae7c7ba61cf1859f3f5e0]
link :platform:sys:android to :platform:util:android:indicator--><path d="M1733.6794,185.0004 C1739.7702,201.1409 1747.9495,222.8162 1754.4222,239.9688 " fill="none" id=":platform:sys:android-&gt;:platform:util:android:indicator" style="stroke: #A80036; stroke-width: 1.0;"/><polygon fill="#A80036" points="1756.1994,244.6784,1756.7641,234.8457,1754.434,240.0004,1749.2794,237.6703,1756.1994,244.6784" style="stroke: #A80036; stroke-width: 1.0;"/><!--MD5=[c659df04a6a924d0d4c66d0178f0f325]
link :platform:log:android to :engine:log--><path d="M2417.9976,185.0201 C2397.7541,223.0865 2361,302.1002 2361,374 C2361,374 2361,374 2361,480 C2361,643.3061 1767.7935,681.6092 1567.8762,689.8808 " fill="none" id=":platform:log:android-&gt;:engine:log" style="stroke: #A80036; stroke-width: 1.0;"/><polygon fill="#A80036" points="1562.6517,690.0938,1571.8073,693.7235,1567.6475,689.8899,1571.4811,685.7302,1562.6517,690.0938" style="stroke: #A80036; stroke-width: 1.0;"/><!--MD5=[3eca8ae82ae29a6fbfbc0a88a0eff88b]
link :app:android:error to :engine:log--><path d="M1258.153,168.5309 C1365.4357,177.7878 1540.7764,196.0624 1561,218 C1619.9703,281.9682 1613.0427,528.1131 1581,609 C1572.2721,631.0323 1554.6219,650.6261 1538.3159,665.2359 " fill="none" id=":app:android:error-&gt;:engine:log" style="stroke: #A80036; stroke-width: 1.0;"/><polygon fill="#A80036" points="1534.2055,668.8414,1543.6092,665.9138,1537.9644,665.5443,1538.3339,659.8996,1534.2055,668.8414" style="stroke: #A80036; stroke-width: 1.0;"/><!--MD5=[fceee475146789e06c179ed8cf9756d0]
link :app:android:main to :app:android:debug--><path d="M844.9996,185.0004 C828.5832,201.4168 806.4412,223.5588 789.1556,240.8444 " fill="none" id=":app:android:main-&gt;:app:android:debug" style="stroke: #A80036; stroke-width: 1.0;"/><polygon fill="#A80036" points="785.3216,244.6784,794.514,241.1429,788.8571,241.1429,788.8571,235.486,785.3216,244.6784" style="stroke: #A80036; stroke-width: 1.0;"/><!--MD5=[aafa773f6f23b0f642f0040897ca4647]
link :app:android:main to :app:android:intent--><path d="M890.7834,185.0004 C907.045,201.4168 928.9781,223.5588 946.1006,240.8444 " fill="none" id=":app:android:main-&gt;:app:android:intent" style="stroke: #A80036; stroke-width: 1.0;"/><polygon fill="#A80036" points="949.8984,244.6784,946.4065,235.4693,946.3797,241.1261,940.7229,241.0993,949.8984,244.6784" style="stroke: #A80036; stroke-width: 1.0;"/><!--MD5=[9665dfce6a97d167b2bd7daf59c5a77c]
link :app:android:main to :app:android:account--><path d="M784.7701,165.933 C636.8963,173.4848 334.3059,191.6369 232,218 C209.8805,223.7 186.6128,233.3081 166.9787,242.5873 " fill="none" id=":app:android:main-&gt;:app:android:account" style="stroke: #A80036; stroke-width: 1.0;"/><polygon fill="#A80036" points="162.0681,244.9367,171.9131,244.6605,166.5784,242.7787,168.4603,237.444,162.0681,244.9367" style="stroke: #A80036; stroke-width: 1.0;"/><!--MD5=[ad9723e8d0c90f120ded1b7c69b6992c]
link :app:android:main to :app:android:roster--><path d="M784.9512,165.1947 C697.7259,170.3192 557.3331,183.6124 441,218 C420.6515,224.0149 399.3145,233.5178 381.2299,242.6311 " fill="none" id=":app:android:main-&gt;:app:android:roster" style="stroke: #A80036; stroke-width: 1.0;"/><polygon fill="#A80036" points="376.7048,244.9373,386.5398,244.4144,381.1596,242.6669,382.9071,237.2867,376.7048,244.9373" style="stroke: #A80036; stroke-width: 1.0;"/><!--MD5=[7eb08d147ea094ad26a8d4d686881611]
link :app:android:main to :app:android:chat--><path d="M951.1318,180.1035 C989.9654,189.6132 1036.4669,202.5237 1077,218 C1094.9225,224.8432 1113.8899,233.9332 1130.3742,242.4847 " fill="none" id=":app:android:main-&gt;:app:android:chat" style="stroke: #A80036; stroke-width: 1.0;"/><polygon fill="#A80036" points="1134.9548,244.88,1128.833,237.1649,1130.524,242.563,1125.1259,244.2541,1134.9548,244.88" style="stroke: #A80036; stroke-width: 1.0;"/><!--MD5=[7496dee169bf1250af3f6996ace85eae]
link :app:android:main to :app:android:drawer--><path d="M784.9202,180.368 C745.375,190.0146 697.7222,202.963 656,218 C636.5574,225.0073 615.8207,234.1718 597.7692,242.7381 " fill="none" id=":app:android:main-&gt;:app:android:drawer" style="stroke: #A80036; stroke-width: 1.0;"/><polygon fill="#A80036" points="593.2402,244.9014,603.0854,244.6315,597.7519,242.7463,599.6371,237.4128,593.2402,244.9014" style="stroke: #A80036; stroke-width: 1.0;"/><!--MD5=[fafc0da3d79171795b76f5d6fc784b1e]
link :app:android:main to :core:domain--><path d="M951.1772,170.9479 C1061.5918,183.2088 1246.067,205.1685 1275,218 C1321.1412,238.4632 1322.0497,260.15 1362,291 C1387.7009,310.8464 1417.5721,332.0071 1440.6988,347.995 " fill="none" id=":app:android:main-&gt;:core:domain" style="stroke: #A80036; stroke-width: 1.0;"/><polygon fill="#A80036" points="1444.936,350.9186,1439.7999,342.515,1440.8206,348.079,1435.2566,349.0997,1444.936,350.9186" style="stroke: #A80036; stroke-width: 1.0;"/><!--MD5=[65eb7b96c45847cf49dcf75272b402ce]
link :core:domain to :engine:paging--><path d="M1456.3444,397.0913 C1417.506,436.6766 1338.4283,517.275 1297.2503,559.2448 " fill="none" id=":core:domain-&gt;:engine:paging" style="stroke: #A80036; stroke-width: 1.0;"/><polygon fill="#A80036" points="1293.6277,562.9372,1302.786,559.3142,1297.1294,559.3681,1297.0754,553.7115,1293.6277,562.9372" style="stroke: #A80036; stroke-width: 1.0;"/><!--MD5=[12ebccdcc75f98176baa7aae27ae41f5]
link :core:domain to :core:api--><path d="M1478.566,397.0004 C1478.2641,413.003 1477.8595,434.4461 1477.5372,451.528 " fill="none" id=":core:domain-&gt;:core:api" style="stroke: #A80036; stroke-width: 1.0;"/><polygon fill="#A80036" points="1477.44,456.6784,1481.6093,447.7555,1477.5344,451.6793,1473.6107,447.6045,1477.44,456.6784" style="stroke: #A80036; stroke-width: 1.0;"/><!--MD5=[eaf14edc6043f7290cbfd1583ac6425c]
link :core:api to :engine:connectable--><path d="M1475.6981,503.0004 C1474.7923,519.003 1473.5785,540.4461 1472.6116,557.528 " fill="none" id=":core:api-&gt;:engine:connectable" style="stroke: #A80036; stroke-width: 1.0;"/><polygon fill="#A80036" points="1472.3201,562.6784,1476.8223,553.9188,1472.6027,557.6864,1468.8351,553.4667,1472.3201,562.6784" style="stroke: #A80036; stroke-width: 1.0;"/><!--MD5=[bca29f017d1f9d57df28eb8d83e96ded]
link :engine:connectable to :engine:util--><path d="M1444.5278,609.0004 C1425.4747,625.5548 1399.7205,647.9314 1379.7542,665.2791 " fill="none" id=":engine:connectable-&gt;:engine:util" style="stroke: #A80036; stroke-width: 1.0;"/><polygon fill="#A80036" points="1375.8418,668.6784,1385.2591,665.795,1379.6162,665.399,1380.0121,659.7561,1375.8418,668.6784" style="stroke: #A80036; stroke-width: 1.0;"/><!--MD5=[6eb7bccd1a3c6d4cd083766ccbfc4317]
link :engine:connectable to :engine:log--><path d="M1477.9435,609.0004 C1482.7745,625.003 1489.2479,646.4461 1494.4047,663.528 " fill="none" id=":engine:connectable-&gt;:engine:log" style="stroke: #A80036; stroke-width: 1.0;"/><polygon fill="#A80036" points="1495.9595,668.6784,1497.1876,658.9064,1494.5144,663.8918,1489.529,661.2186,1495.9595,668.6784" style="stroke: #A80036; stroke-width: 1.0;"/><!--MD5=[50d22dc2b9a67ebc2ea5da74b6a2e202]
link :platform:repo:data to :core:api--><path d="M2009.0653,291.1909 C2006.4825,322.1891 1997.0388,376.5202 1963,405 C1898.6257,458.8609 1646.4254,474.2289 1532.9081,478.4601 " fill="none" id=":platform:repo:data-&gt;:core:api" style="stroke: #A80036; stroke-width: 1.0;"/><polygon fill="#A80036" points="1527.6087,478.6533,1536.7484,482.3228,1532.6054,478.4712,1536.457,474.3281,1527.6087,478.6533" style="stroke: #A80036; stroke-width: 1.0;"/><!--MD5=[a768ee17485b5470b9ece51418214518]
link :platform:util:android:indicator to :core:api--><path d="M1853.8285,291.1283 C1883.9691,303.6813 1914.434,322.6537 1932,351 C1944.642,371.4005 1947.5293,386.7014 1932,405 C1906.3824,435.1859 1648.6943,463.502 1532.8692,474.8153 " fill="none" id=":platform:util:android:indicator-&gt;:core:api" style="stroke: #A80036; stroke-width: 1.0;"/><polygon fill="#A80036" points="1527.7988,475.3085,1537.1439,478.418,1532.7753,474.8242,1536.3691,470.4556,1527.7988,475.3085" style="stroke: #A80036; stroke-width: 1.0;"/><!--MD5=[24ffc3eb01fe4b0d7b27b2fc661eda08]
link :platform:util:android:indicator to :platform:util:android:notification--><path d="M1768.9057,291.0004 C1771.6231,307.003 1775.2644,328.4461 1778.1651,345.528 " fill="none" id=":platform:util:android:indicator-&gt;:platform:util:android:notification" style="stroke: #A80036; stroke-width: 1.0;"/><polygon fill="#A80036" points="1779.0397,350.6784,1781.4764,341.1357,1778.2026,345.749,1773.5893,342.4752,1779.0397,350.6784" style="stroke: #A80036; stroke-width: 1.0;"/><!--MD5=[d575d75358388f5bbadaeec3089cd394]
link :app:android:debug to :core:api--><path d="M817.4473,291.0671 C889.6159,320.4613 1020.1005,371.4696 1135,405 C1234.3811,434.0017 1352.8994,457.6099 1421.1049,470.1648 " fill="none" id=":app:android:debug-&gt;:core:api" style="stroke: #A80036; stroke-width: 1.0;"/><polygon fill="#A80036" points="1426.3319,471.1234,1418.2013,465.5652,1421.414,470.2213,1416.7579,473.4339,1426.3319,471.1234" style="stroke: #A80036; stroke-width: 1.0;"/><!--MD5=[e8aec821aea148b616c960ed68bebe96]
link :app:android:debug to :core:cli--><path d="M851.2419,287.6341 C857.2433,288.8151 863.2043,289.9489 869,291 C1048.0441,323.4705 1098.5501,302.7461 1274,351 C1275.1116,351.3057 1276.2307,351.6275 1277.3547,351.9633 " fill="none" id=":app:android:debug-&gt;:core:cli" style="stroke: #A80036; stroke-width: 1.0;"/><polygon fill="#A80036" points="1282.3057,353.5201,1274.9201,347.0046,1277.536,352.0202,1272.5203,354.6361,1282.3057,353.5201" style="stroke: #A80036; stroke-width: 1.0;"/><!--MD5=[ee2f5633b367fcc48a9e04396485cb5b]
link :app:android:debug to :app:android:core--><path d="M724.0276,291.0004 C696.2603,307.8195 658.5708,330.6485 629.7471,348.1075 " fill="none" id=":app:android:debug-&gt;:app:android:core" style="stroke: #A80036; stroke-width: 1.0;"/><polygon fill="#A80036" points="625.2001,350.8617,634.9704,349.6202,629.4767,348.2712,630.8257,342.7776,625.2001,350.8617" style="stroke: #A80036; stroke-width: 1.0;"/><!--MD5=[c8ce623b3aeae345ce4d46c8f73b6dbd]
link :app:android:debug to :app:android:widget--><path d="M768.9435,291.0004 C773.7745,307.003 780.2479,328.4461 785.4047,345.528 " fill="none" id=":app:android:debug-&gt;:app:android:widget" style="stroke: #A80036; stroke-width: 1.0;"/><polygon fill="#A80036" points="786.9595,350.6784,788.1876,340.9064,785.5144,345.8918,780.529,343.2186,786.9595,350.6784" style="stroke: #A80036; stroke-width: 1.0;"/><!--MD5=[158db574f8c13af48b8082abe11fc025]
link :app:android:intent to :core:api--><path d="M1018.3996,291.0101 C1075.2992,319.4495 1176.1535,368.5457 1265,405 C1317.3415,426.4761 1378.358,447.6711 1421.4557,462.0214 " fill="none" id=":app:android:intent-&gt;:core:api" style="stroke: #A80036; stroke-width: 1.0;"/><polygon fill="#A80036" points="1426.3573,463.6497,1419.0775,457.0161,1421.6123,462.0733,1416.5552,464.6081,1426.3573,463.6497" style="stroke: #A80036; stroke-width: 1.0;"/><!--MD5=[69828452976e949fde7e95d6ece63934]
link :app:android:account to :app:android:core--><path d="M213.7068,289.4507 C297.3399,308.3932 418.297,335.7895 499.6449,354.2144 " fill="none" id=":app:android:account-&gt;:app:android:core" style="stroke: #A80036; stroke-width: 1.0;"/><polygon fill="#A80036" points="504.9451,355.4149,497.0511,349.5255,500.0686,354.3103,495.2838,357.3278,504.9451,355.4149" style="stroke: #A80036; stroke-width: 1.0;"/><!--MD5=[b4dd1eff9d0a0e12e68d43b54e1ed582]
link :app:android:roster to :app:android:core--><path d="M390.4633,291.0004 C430.8632,308.0617 485.9071,331.3074 527.4668,348.8585 " fill="none" id=":app:android:roster-&gt;:app:android:core" style="stroke: #A80036; stroke-width: 1.0;"/><polygon fill="#A80036" points="532.2102,350.8617,525.4755,343.6754,527.6041,348.9164,522.363,351.0451,532.2102,350.8617" style="stroke: #A80036; stroke-width: 1.0;"/><!--MD5=[852b991e641e471ff4711703b30b74cf]
link :app:android:chat to :app:android:core--><path d="M1094.2577,287.4996 C1088.4279,288.7337 1082.631,289.9144 1077,291 C904.7987,324.2002 859.2379,317.9897 687,351 C682.7873,351.8074 678.4824,352.6664 674.14,353.5601 " fill="none" id=":app:android:chat-&gt;:app:android:core" style="stroke: #A80036; stroke-width: 1.0;"/><polygon fill="#A80036" points="669.0283,354.6242,678.6546,356.7061,673.9234,353.6052,677.0242,348.874,669.0283,354.6242" style="stroke: #A80036; stroke-width: 1.0;"/><!--MD5=[54bdc77988d62928c5d4905026293d94]
link :app:android:chat to :platform:util:android:notification--><path d="M1257.843,289.252 C1260.5909,289.858 1263.3156,290.4427 1266,291 C1394.1232,317.5983 1541.6199,340.5266 1646.1952,355.5026 " fill="none" id=":app:android:chat-&gt;:platform:util:android:notification" style="stroke: #A80036; stroke-width: 1.0;"/><polygon fill="#A80036" points="1651.4545,356.2543,1643.111,351.0212,1646.5048,355.5469,1641.9791,358.9407,1651.4545,356.2543" style="stroke: #A80036; stroke-width: 1.0;"/><!--MD5=[c794bb4f0016a9b0b859ee0c8f377eb8]
link :app:android:chat to :app:android:widget--><path d="M1094.0514,290.7397 C1031.6625,308.0518 945.9285,331.8418 882.0763,349.56 " fill="none" id=":app:android:chat-&gt;:app:android:widget" style="stroke: #A80036; stroke-width: 1.0;"/><polygon fill="#A80036" points="877.1312,350.9322,886.8731,352.38,881.9491,349.5952,884.7339,344.6713,877.1312,350.9322" style="stroke: #A80036; stroke-width: 1.0;"/><!--MD5=[ebeee0e59d51c15c253e93c8615e14c8]
link :app:android:chat to :core:cli--><path d="M1209.4157,291.0004 C1233.7504,307.7503 1266.7448,330.4607 1292.069,347.8917 " fill="none" id=":app:android:chat-&gt;:core:cli" style="stroke: #A80036; stroke-width: 1.0;"/><polygon fill="#A80036" points="1296.3839,350.8617,1291.2383,342.4639,1292.2653,348.0268,1286.7024,349.0537,1296.3839,350.8617" style="stroke: #A80036; stroke-width: 1.0;"/><!--MD5=[c2d20016ff4fa80c752f3855240abbdf]
link :app:android:drawer to :app:android:core--><path d="M556.4624,291.0004 C562.4009,307.1409 570.3758,328.8162 576.6866,345.9688 " fill="none" id=":app:android:drawer-&gt;:app:android:core" style="stroke: #A80036; stroke-width: 1.0;"/><polygon fill="#A80036" points="578.4194,350.6784,579.0658,340.8508,576.693,345.9859,571.5578,343.6131,578.4194,350.6784" style="stroke: #A80036; stroke-width: 1.0;"/><!--MD5=[e5b52aacd6c9e8567a26aa6a4b3cfc3a]
link :core:cli to :engine:translator--><path d="M1326.9489,397.012 C1321.6681,427.5519 1307.9189,481.0893 1274,511 C1241.8981,539.3084 1220.979,520.7165 1181,536 C1163.0803,542.8505 1144.1135,551.9421 1127.6289,560.4929 " fill="none" id=":core:cli-&gt;:engine:translator" style="stroke: #A80036; stroke-width: 1.0;"/><polygon fill="#A80036" points="1123.0482,562.8879,1132.8772,562.2626,1127.4791,560.5712,1129.1705,555.1732,1123.0482,562.8879" style="stroke: #A80036; stroke-width: 1.0;"/><!--MD5=[c2bb4decd7a24ab2954465b21eb4e89b]
link :core:cli to :core:api--><path d="M1361.8968,397.0004 C1385.1254,413.7503 1416.6201,436.4607 1440.7931,453.8917 " fill="none" id=":core:cli-&gt;:core:api" style="stroke: #A80036; stroke-width: 1.0;"/><polygon fill="#A80036" points="1444.9119,456.8617,1439.9513,448.3533,1440.8563,453.9373,1435.2723,454.8423,1444.9119,456.8617" style="stroke: #A80036; stroke-width: 1.0;"/><!--MD5=[d2b08a756afcb67ecb991f5e07025c5b]
link :app:android:core to :core:api--><path d="M654.55,397.0604 C665.3085,400.1168 676.3891,402.91 687,405 C943.9731,455.616 1013.4133,430.6995 1274,457 C1323.6462,462.0107 1380.0327,468.4602 1420.7582,473.2539 " fill="none" id=":app:android:core-&gt;:core:api" style="stroke: #A80036; stroke-width: 1.0;"/><polygon fill="#A80036" points="1426.1469,473.8893,1417.6773,468.8628,1421.1813,473.3037,1416.7404,476.8077,1426.1469,473.8893" style="stroke: #A80036; stroke-width: 1.0;"/><!--MD5=[3f0a006f360432af92f6703e46b4827b]
link :app:android:core to :app:android:resources--><path d="M609.3495,397.0004 C625.3012,413.4168 646.8166,435.5588 663.613,452.8444 " fill="none" id=":app:android:core-&gt;:app:android:resources" style="stroke: #A80036; stroke-width: 1.0;"/><polygon fill="#A80036" points="667.3385,456.6784,663.9354,447.4362,663.8541,453.0924,658.1978,453.0112,667.3385,456.6784" style="stroke: #A80036; stroke-width: 1.0;"/><!--MD5=[d70ca3e7227433cd99cedf83ab143fcc]
link :app:android:widget to :app:android:resources--><path d="M771.4335,397.0004 C755.3269,413.4168 733.6027,435.5588 716.6432,452.8444 " fill="none" id=":app:android:widget-&gt;:app:android:resources" style="stroke: #A80036; stroke-width: 1.0;"/><polygon fill="#A80036" points="712.8816,456.6784,722.0399,453.0556,716.3833,453.1094,716.3295,447.4528,712.8816,456.6784" style="stroke: #A80036; stroke-width: 1.0;"/><!--MD5=[651a33e89f4f900071ad0f10e85ad6e2]
link :app:android:app to :core:backend--><path d="M1223.6638,79.2297 C1240.5476,88.6632 1259.6264,100.1308 1276,112 C1332.0289,152.6152 1390.639,208.3605 1423.5182,241.0443 " fill="none" id=":app:android:app-&gt;:core:backend" style="stroke: #A80036; stroke-width: 1.0;"/><polygon fill="#A80036" points="1427.3984,244.9133,1423.8495,235.7261,1423.8577,241.3829,1418.2009,241.3911,1427.3984,244.9133" style="stroke: #A80036; stroke-width: 1.0;"/><!--MD5=[e318059ab0fa8a47656d1143242b47e4]
link :app:android:app to :platform:net:smack:android--><path d="M1258.5832,58.1898 C1443.9643,63.7637 1900.1714,80.3381 2050,112 C2076.7663,117.6563 2105.3341,127.5299 2129.3427,137.017 " fill="none" id=":app:android:app-&gt;:platform:net:smack:android" style="stroke: #A80036; stroke-width: 1.0;"/><polygon fill="#A80036" points="2134.0817,138.9079,2127.2049,131.8573,2129.4377,137.0549,2124.2402,139.2877,2134.0817,138.9079" style="stroke: #A80036; stroke-width: 1.0;"/><!--MD5=[3a270a424da0b937407af8428194cfa1]
link :app:android:app to :platform:repo:room--><path d="M1258.5173,59.2848 C1408.8075,66.0688 1729.0669,83.4293 1836,112 C1857.0926,117.6356 1879.1496,127.2329 1897.7199,136.5214 " fill="none" id=":app:android:app-&gt;:platform:repo:room" style="stroke: #A80036; stroke-width: 1.0;"/><polygon fill="#A80036" points="1902.3633,138.8736,1896.1424,131.2381,1897.903,136.614,1892.5271,138.3746,1902.3633,138.8736" style="stroke: #A80036; stroke-width: 1.0;"/><!--MD5=[fe3e67ab8f1491f61e3e2c511b7ee7c2]
link :app:android:app to :platform:sys:android--><path d="M1258.6853,71.47 C1356.2911,90.4192 1521.6079,122.5136 1626.9241,142.9596 " fill="none" id=":app:android:app-&gt;:platform:sys:android" style="stroke: #A80036; stroke-width: 1.0;"/><polygon fill="#A80036" points="1631.8933,143.9243,1623.8207,138.2823,1626.985,142.9713,1622.2959,146.1356,1631.8933,143.9243" style="stroke: #A80036; stroke-width: 1.0;"/><!--MD5=[6c6003fbba16c3701e8eace4ac0b992c]
link :app:android:app to :platform:log:android--><path d="M1258.7649,58.1563 C1501.2867,64.9569 2219.5873,86.9904 2322,112 C2343.8148,117.3273 2366.5965,127.0413 2385.6579,136.4999 " fill="none" id=":app:android:app-&gt;:platform:log:android" style="stroke: #A80036; stroke-width: 1.0;"/><polygon fill="#A80036" points="2390.421,138.8963,2384.1791,131.278,2385.9545,136.649,2380.5835,138.4244,2390.421,138.8963" style="stroke: #A80036; stroke-width: 1.0;"/><!--MD5=[48846024ec65397ebde27eb1a8c0584b]
link :app:android:app to :app:android:error--><path d="M1178.1321,79.0004 C1177.5282,95.003 1176.719,116.4461 1176.0744,133.528 " fill="none" id=":app:android:app-&gt;:app:android:error" style="stroke: #A80036; stroke-width: 1.0;"/><polygon fill="#A80036" points="1175.8801,138.6784,1180.2167,129.8357,1176.0687,133.682,1172.2224,129.5339,1175.8801,138.6784" style="stroke: #A80036; stroke-width: 1.0;"/><!--MD5=[d9830d6006fc236e7422f8e834909c47]
link :app:android:app to :app:android:main--><path d="M1111.5176,79.0004 C1061.0692,96.1951 992.1916,119.671 940.5602,137.2689 " fill="none" id=":app:android:app-&gt;:app:android:main" style="stroke: #A80036; stroke-width: 1.0;"/><polygon fill="#A80036" points="935.6186,138.9531,945.4278,139.8355,940.3512,137.3399,942.8468,132.2633,935.6186,138.9531" style="stroke: #A80036; stroke-width: 1.0;"/><!--MD5=[973efb0f22796d9e99ba0286f36fa0ad]
@startuml
package ":core" {
[:core:backend]
[:core:domain]
[:core:api]
[:core:cli]
}
package ":platform" {
[:platform:net:smack:android]
[:platform:repo:room]
[:platform:sys:android]
[:platform:log:android]
[:platform:repo:data]
[:platform:util:android:indicator]
[:platform:util:android:notification]
}
package ":app" {
[:app:android:error]
[:app:android:main]
[:app:android:debug]
[:app:android:intent]
[:app:android:account]
[:app:android:roster]
[:app:android:chat]
[:app:android:drawer]
[:app:android:core]
[:app:android:widget]
[:app:android:resources]
[:app:android:app]
}
package ":engine" {
[:engine:paging]
[:engine:connectable]
[:engine:util]
[:engine:log]
[:engine:translator]
}
[:core:backend] - -> [:core:domain]
[:platform:net:smack:android] - -> [:core:api]
[:platform:repo:room] - -> [:core:api]
[:platform:repo:room] - -> [:platform:repo:data]
[:platform:sys:android] - -> [:platform:util:android:indicator]
[:platform:log:android] - -> [:engine:log]
[:app:android:error] - -> [:engine:log]
[:app:android:main] - -> [:app:android:debug]
[:app:android:main] - -> [:app:android:intent]
[:app:android:main] - -> [:app:android:account]
[:app:android:main] - -> [:app:android:roster]
[:app:android:main] - -> [:app:android:chat]
[:app:android:main] - -> [:app:android:drawer]
[:app:android:main] - -> [:core:domain]
[:core:domain] - -> [:engine:paging]
[:core:domain] - -> [:core:api]
[:core:api] - -> [:engine:connectable]
[:engine:connectable] - -> [:engine:util]
[:engine:connectable] - -> [:engine:log]
[:platform:repo:data] - -> [:core:api]
[:platform:util:android:indicator] - -> [:core:api]
[:platform:util:android:indicator] - -> [:platform:util:android:notification]
[:app:android:debug] - -> [:core:api]
[:app:android:debug] - -> [:core:cli]
[:app:android:debug] - -> [:app:android:core]
[:app:android:debug] - -> [:app:android:widget]
[:app:android:intent] - -> [:core:api]
[:app:android:account] - -> [:app:android:core]
[:app:android:roster] - -> [:app:android:core]
[:app:android:chat] - -> [:app:android:core]
[:app:android:chat] - -> [:platform:util:android:notification]
[:app:android:chat] - -> [:app:android:widget]
[:app:android:chat] - -> [:core:cli]
[:app:android:drawer] - -> [:app:android:core]
[:core:cli] - -> [:engine:translator]
[:core:cli] - -> [:core:api]
[:app:android:core] - -> [:core:api]
[:app:android:core] - -> [:app:android:resources]
[:app:android:widget] - -> [:app:android:resources]
[:app:android:app] - -> [:core:backend]
[:app:android:app] - -> [:platform:net:smack:android]
[:app:android:app] - -> [:platform:repo:room]
[:app:android:app] - -> [:platform:sys:android]
[:app:android:app] - -> [:platform:log:android]
[:app:android:app] - -> [:app:android:error]
[:app:android:app] - -> [:app:android:main]
@enduml

PlantUML version 1.2020.15(Sun Jun 28 13:39:45 CEST 2020)
(GPL source distribution)
Java Runtime: OpenJDK Runtime Environment
JVM: OpenJDK 64-Bit Server VM
Default Encoding: UTF-8
Language: pl
Country: PL
--></g></svg>