<?xml version="1.0" encoding="UTF-8" standalone="no"?><svg xmlns="http://www.w3.org/2000/svg" xmlns:xlink="http://www.w3.org/1999/xlink" contentScriptType="application/ecmascript" contentStyleType="text/css" height="735px" preserveAspectRatio="none" style="width:3095px;height:735px;" version="1.1" viewBox="0 0 3095 735" width="3095px" zoomAndPan="magnify"><defs><filter height="300%" id="f1svc7o001i82g" width="300%" x="-1" y="-1"><feGaussianBlur result="blurOut" stdDeviation="2.0"/><feColorMatrix in="blurOut" result="blurOut2" type="matrix" values="0 0 0 0 0 0 0 0 0 0 0 0 0 0 0 0 0 0 .4 0"/><feOffset dx="4.0" dy="4.0" in="blurOut2" result="blurOut3"/><feBlend in="SourceGraphic" in2="blurOut3" mode="normal"/></filter></defs><g><!--MD5=[30404b2edc0ff233b9122d63ae72b243]
cluster :core--><polygon fill="#FFFFFF" filter="url(#f1svc7o001i82g)" points="95.7848,218,143.7848,218,150.7848,240.2969,374.7848,240.2969,374.7848,511,95.7848,511,95.7848,218" style="stroke: #000000; stroke-width: 1.5;"/><line style="stroke: #000000; stroke-width: 1.5;" x1="95.7848" x2="150.7848" y1="240.2969" y2="240.2969"/><text fill="#000000" font-family="sans-serif" font-size="14" font-weight="bold" lengthAdjust="spacingAndGlyphs" textLength="42" x="99.7848" y="232.9951">:core</text><!--MD5=[aae699ec891e4c0fc5af03006e3188bf]
cluster :platform--><polygon fill="#FFFFFF" filter="url(#f1svc7o001i82g)" points="1867.7848,324,1945.7848,324,1952.7848,346.2969,3073.7848,346.2969,3073.7848,405,1867.7848,405,1867.7848,324" style="stroke: #000000; stroke-width: 1.5;"/><line style="stroke: #000000; stroke-width: 1.5;" x1="1867.7848" x2="1952.7848" y1="346.2969" y2="346.2969"/><text fill="#000000" font-family="sans-serif" font-size="14" font-weight="bold" lengthAdjust="spacingAndGlyphs" textLength="72" x="1871.7848" y="338.9951">:platform</text><!--MD5=[8e4c312b0b41d0712f148ccd6208f491]
cluster :app--><polygon fill="#FFFFFF" filter="url(#f1svc7o001i82g)" points="382.7848,6,423.7848,6,430.7848,28.2969,1859.7848,28.2969,1859.7848,511,382.7848,511,382.7848,6" style="stroke: #000000; stroke-width: 1.5;"/><line style="stroke: #000000; stroke-width: 1.5;" x1="382.7848" x2="430.7848" y1="28.2969" y2="28.2969"/><text fill="#000000" font-family="sans-serif" font-size="14" font-weight="bold" lengthAdjust="spacingAndGlyphs" textLength="35" x="386.7848" y="20.9951">:app</text><!--MD5=[6ed0a4222646c4be5d3ab2314135a570]
cluster :engine--><polygon fill="#FFFFFF" filter="url(#f1svc7o001i82g)" points="59.7848,536,125.7848,536,132.7848,558.2969,638.7848,558.2969,638.7848,723,59.7848,723,59.7848,536" style="stroke: #000000; stroke-width: 1.5;"/><line style="stroke: #000000; stroke-width: 1.5;" x1="59.7848" x2="132.7848" y1="558.2969" y2="558.2969"/><text fill="#000000" font-family="sans-serif" font-size="14" font-weight="bold" lengthAdjust="spacingAndGlyphs" textLength="60" x="63.7848" y="550.9951">:engine</text><!--MD5=[6b3c72c52f198a8ada63b8c5ce9355bc]
entity :core:backend--><rect fill="#FEFECE" filter="url(#f1svc7o001i82g)" height="46.2969" style="stroke: #A80036; stroke-width: 1.5;" width="141" x="114.2848" y="245"/><rect fill="#FEFECE" height="10" style="stroke: #A80036; stroke-width: 1.5;" width="15" x="235.2848" y="250"/><rect fill="#FEFECE" height="2" style="stroke: #A80036; stroke-width: 1.5;" width="4" x="233.2848" y="252"/><rect fill="#FEFECE" height="2" style="stroke: #A80036; stroke-width: 1.5;" width="4" x="233.2848" y="256"/><text fill="#000000" font-family="sans-serif" font-size="14" lengthAdjust="spacingAndGlyphs" textLength="101" x="129.2848" y="277.9951">:core:backend</text><!--MD5=[c0f778923607b3b2b1776544ac20a677]
entity :core:domain--><rect fill="#FEFECE" filter="url(#f1svc7o001i82g)" height="46.2969" style="stroke: #A80036; stroke-width: 1.5;" width="132" x="103.7848" y="351"/><rect fill="#FEFECE" height="10" style="stroke: #A80036; stroke-width: 1.5;" width="15" x="215.7848" y="356"/><rect fill="#FEFECE" height="2" style="stroke: #A80036; stroke-width: 1.5;" width="4" x="213.7848" y="358"/><rect fill="#FEFECE" height="2" style="stroke: #A80036; stroke-width: 1.5;" width="4" x="213.7848" y="362"/><text fill="#000000" font-family="sans-serif" font-size="14" lengthAdjust="spacingAndGlyphs" textLength="92" x="118.7848" y="383.9951">:core:domain</text><!--MD5=[bb042d61f43125fc2fe6ee382cb3d84b]
entity :core:api--><rect fill="#FEFECE" filter="url(#f1svc7o001i82g)" height="46.2969" style="stroke: #A80036; stroke-width: 1.5;" width="101" x="265.2848" y="457"/><rect fill="#FEFECE" height="10" style="stroke: #A80036; stroke-width: 1.5;" width="15" x="346.2848" y="462"/><rect fill="#FEFECE" height="2" style="stroke: #A80036; stroke-width: 1.5;" width="4" x="344.2848" y="464"/><rect fill="#FEFECE" height="2" style="stroke: #A80036; stroke-width: 1.5;" width="4" x="344.2848" y="468"/><text fill="#000000" font-family="sans-serif" font-size="14" lengthAdjust="spacingAndGlyphs" textLength="61" x="280.2848" y="489.9951">:core:api</text><!--MD5=[b4e25f7522ba1111eb2df4fe1b5db7c7]
entity :core:cli--><rect fill="#FEFECE" filter="url(#f1svc7o001i82g)" height="46.2969" style="stroke: #A80036; stroke-width: 1.5;" width="95" x="271.2848" y="351"/><rect fill="#FEFECE" height="10" style="stroke: #A80036; stroke-width: 1.5;" width="15" x="346.2848" y="356"/><rect fill="#FEFECE" height="2" style="stroke: #A80036; stroke-width: 1.5;" width="4" x="344.2848" y="358"/><rect fill="#FEFECE" height="2" style="stroke: #A80036; stroke-width: 1.5;" width="4" x="344.2848" y="362"/><text fill="#000000" font-family="sans-serif" font-size="14" lengthAdjust="spacingAndGlyphs" textLength="55" x="286.2848" y="383.9951">:core:cli</text><!--MD5=[7555348684aac615abf32a194ed657e7]
entity :platform:net:smack:android--><rect fill="#FEFECE" filter="url(#f1svc7o001i82g)" height="46.2969" style="stroke: #A80036; stroke-width: 1.5;" width="236" x="2395.7848" y="351"/><rect fill="#FEFECE" height="10" style="stroke: #A80036; stroke-width: 1.5;" width="15" x="2611.7848" y="356"/><rect fill="#FEFECE" height="2" style="stroke: #A80036; stroke-width: 1.5;" width="4" x="2609.7848" y="358"/><rect fill="#FEFECE" height="2" style="stroke: #A80036; stroke-width: 1.5;" width="4" x="2609.7848" y="362"/><text fill="#000000" font-family="sans-serif" font-size="14" lengthAdjust="spacingAndGlyphs" textLength="196" x="2410.7848" y="383.9951">:platform:net:smack:android</text><!--MD5=[7d05a7b213c691ded4410087562381da]
entity :platform:repo:room--><rect fill="#FEFECE" filter="url(#f1svc7o001i82g)" height="46.2969" style="stroke: #A80036; stroke-width: 1.5;" width="179" x="2667.2848" y="351"/><rect fill="#FEFECE" height="10" style="stroke: #A80036; stroke-width: 1.5;" width="15" x="2826.2848" y="356"/><rect fill="#FEFECE" height="2" style="stroke: #A80036; stroke-width: 1.5;" width="4" x="2824.2848" y="358"/><rect fill="#FEFECE" height="2" style="stroke: #A80036; stroke-width: 1.5;" width="4" x="2824.2848" y="362"/><text fill="#000000" font-family="sans-serif" font-size="14" lengthAdjust="spacingAndGlyphs" textLength="139" x="2682.2848" y="383.9951">:platform:repo:room</text><!--MD5=[f97ec7d7f57fc74a6f53143a60b8d412]
entity :platform:sys:android--><rect fill="#FEFECE" filter="url(#f1svc7o001i82g)" height="46.2969" style="stroke: #A80036; stroke-width: 1.5;" width="186" x="2174.7848" y="351"/><rect fill="#FEFECE" height="10" style="stroke: #A80036; stroke-width: 1.5;" width="15" x="2340.7848" y="356"/><rect fill="#FEFECE" height="2" style="stroke: #A80036; stroke-width: 1.5;" width="4" x="2338.7848" y="358"/><rect fill="#FEFECE" height="2" style="stroke: #A80036; stroke-width: 1.5;" width="4" x="2338.7848" y="362"/><text fill="#000000" font-family="sans-serif" font-size="14" lengthAdjust="spacingAndGlyphs" textLength="146" x="2189.7848" y="383.9951">:platform:sys:android</text><!--MD5=[0192921ae83855e3782d4a30a6a736d2]
entity :platform:log:android--><rect fill="#FEFECE" filter="url(#f1svc7o001i82g)" height="46.2969" style="stroke: #A80036; stroke-width: 1.5;" width="184" x="2881.7848" y="351"/><rect fill="#FEFECE" height="10" style="stroke: #A80036; stroke-width: 1.5;" width="15" x="3045.7848" y="356"/><rect fill="#FEFECE" height="2" style="stroke: #A80036; stroke-width: 1.5;" width="4" x="3043.7848" y="358"/><rect fill="#FEFECE" height="2" style="stroke: #A80036; stroke-width: 1.5;" width="4" x="3043.7848" y="362"/><text fill="#000000" font-family="sans-serif" font-size="14" lengthAdjust="spacingAndGlyphs" textLength="144" x="2896.7848" y="383.9951">:platform:log:android</text><!--MD5=[e250328d3e47e8639d241f05ebb3f883]
entity :platform:util:android:notification--><rect fill="#FEFECE" filter="url(#f1svc7o001i82g)" height="46.2969" style="stroke: #A80036; stroke-width: 1.5;" width="263" x="1876.2848" y="351"/><rect fill="#FEFECE" height="10" style="stroke: #A80036; stroke-width: 1.5;" width="15" x="2119.2848" y="356"/><rect fill="#FEFECE" height="2" style="stroke: #A80036; stroke-width: 1.5;" width="4" x="2117.2848" y="358"/><rect fill="#FEFECE" height="2" style="stroke: #A80036; stroke-width: 1.5;" width="4" x="2117.2848" y="362"/><text fill="#000000" font-family="sans-serif" font-size="14" lengthAdjust="spacingAndGlyphs" textLength="223" x="1891.2848" y="383.9951">:platform:util:android:notification</text><!--MD5=[6966d1724e2ee2dac7be3557de6a919b]
entity :app:android:error--><rect fill="#FEFECE" filter="url(#f1svc7o001i82g)" height="46.2969" style="stroke: #A80036; stroke-width: 1.5;" width="166" x="514.7848" y="139"/><rect fill="#FEFECE" height="10" style="stroke: #A80036; stroke-width: 1.5;" width="15" x="660.7848" y="144"/><rect fill="#FEFECE" height="2" style="stroke: #A80036; stroke-width: 1.5;" width="4" x="658.7848" y="146"/><rect fill="#FEFECE" height="2" style="stroke: #A80036; stroke-width: 1.5;" width="4" x="658.7848" y="150"/><text fill="#000000" font-family="sans-serif" font-size="14" lengthAdjust="spacingAndGlyphs" textLength="126" x="529.7848" y="171.9951">:app:android:error</text><!--MD5=[0bcff9db8b7fec1d2df77b4c8215df11]
entity :app:android:main--><rect fill="#FEFECE" filter="url(#f1svc7o001i82g)" height="46.2969" style="stroke: #A80036; stroke-width: 1.5;" width="166" x="930.7848" y="139"/><rect fill="#FEFECE" height="10" style="stroke: #A80036; stroke-width: 1.5;" width="15" x="1076.7848" y="144"/><rect fill="#FEFECE" height="2" style="stroke: #A80036; stroke-width: 1.5;" width="4" x="1074.7848" y="146"/><rect fill="#FEFECE" height="2" style="stroke: #A80036; stroke-width: 1.5;" width="4" x="1074.7848" y="150"/><text fill="#000000" font-family="sans-serif" font-size="14" lengthAdjust="spacingAndGlyphs" textLength="126" x="945.7848" y="171.9951">:app:android:main</text><!--MD5=[a83b9bb542e302b2c3652733cf765feb]
entity :app:android:indicator--><rect fill="#FEFECE" filter="url(#f1svc7o001i82g)" height="46.2969" style="stroke: #A80036; stroke-width: 1.5;" width="192" x="1659.7848" y="245"/><rect fill="#FEFECE" height="10" style="stroke: #A80036; stroke-width: 1.5;" width="15" x="1831.7848" y="250"/><rect fill="#FEFECE" height="2" style="stroke: #A80036; stroke-width: 1.5;" width="4" x="1829.7848" y="252"/><rect fill="#FEFECE" height="2" style="stroke: #A80036; stroke-width: 1.5;" width="4" x="1829.7848" y="256"/><text fill="#000000" font-family="sans-serif" font-size="14" lengthAdjust="spacingAndGlyphs" textLength="152" x="1674.7848" y="277.9951">:app:android:indicator</text><!--MD5=[e206c0a48d3695938be9cb0a783f6a16]
entity :app:android:core--><rect fill="#FEFECE" filter="url(#f1svc7o001i82g)" height="46.2969" style="stroke: #A80036; stroke-width: 1.5;" width="164" x="1021.7848" y="351"/><rect fill="#FEFECE" height="10" style="stroke: #A80036; stroke-width: 1.5;" width="15" x="1165.7848" y="356"/><rect fill="#FEFECE" height="2" style="stroke: #A80036; stroke-width: 1.5;" width="4" x="1163.7848" y="358"/><rect fill="#FEFECE" height="2" style="stroke: #A80036; stroke-width: 1.5;" width="4" x="1163.7848" y="362"/><text fill="#000000" font-family="sans-serif" font-size="14" lengthAdjust="spacingAndGlyphs" textLength="124" x="1036.7848" y="383.9951">:app:android:core</text><!--MD5=[160f3e64bd94fe379cd5aac6ec6060c4]
entity :app:android:resources--><rect fill="#FEFECE" filter="url(#f1svc7o001i82g)" height="46.2969" style="stroke: #A80036; stroke-width: 1.5;" width="203" x="897.2848" y="457"/><rect fill="#FEFECE" height="10" style="stroke: #A80036; stroke-width: 1.5;" width="15" x="1080.2848" y="462"/><rect fill="#FEFECE" height="2" style="stroke: #A80036; stroke-width: 1.5;" width="4" x="1078.2848" y="464"/><rect fill="#FEFECE" height="2" style="stroke: #A80036; stroke-width: 1.5;" width="4" x="1078.2848" y="468"/><text fill="#000000" font-family="sans-serif" font-size="14" lengthAdjust="spacingAndGlyphs" textLength="163" x="912.2848" y="489.9951">:app:android:resources</text><!--MD5=[17f4981cfa4b746a3d7e6da3bb3d1db3]
entity :app:android:debug--><rect fill="#FEFECE" filter="url(#f1svc7o001i82g)" height="46.2969" style="stroke: #A80036; stroke-width: 1.5;" width="178" x="599.7848" y="245"/><rect fill="#FEFECE" height="10" style="stroke: #A80036; stroke-width: 1.5;" width="15" x="757.7848" y="250"/><rect fill="#FEFECE" height="2" style="stroke: #A80036; stroke-width: 1.5;" width="4" x="755.7848" y="252"/><rect fill="#FEFECE" height="2" style="stroke: #A80036; stroke-width: 1.5;" width="4" x="755.7848" y="256"/><text fill="#000000" font-family="sans-serif" font-size="14" lengthAdjust="spacingAndGlyphs" textLength="138" x="614.7848" y="277.9951">:app:android:debug</text><!--MD5=[a2bad94cd4b420930ded4458f774e3be]
entity :app:android:intent--><rect fill="#FEFECE" filter="url(#f1svc7o001i82g)" height="46.2969" style="stroke: #A80036; stroke-width: 1.5;" width="173" x="391.2848" y="245"/><rect fill="#FEFECE" height="10" style="stroke: #A80036; stroke-width: 1.5;" width="15" x="544.2848" y="250"/><rect fill="#FEFECE" height="2" style="stroke: #A80036; stroke-width: 1.5;" width="4" x="542.2848" y="252"/><rect fill="#FEFECE" height="2" style="stroke: #A80036; stroke-width: 1.5;" width="4" x="542.2848" y="256"/><text fill="#000000" font-family="sans-serif" font-size="14" lengthAdjust="spacingAndGlyphs" textLength="133" x="406.2848" y="277.9951">:app:android:intent</text><!--MD5=[4e93f4d53c197f992c0f8773e16fdbed]
entity :app:android:account--><rect fill="#FEFECE" filter="url(#f1svc7o001i82g)" height="46.2969" style="stroke: #A80036; stroke-width: 1.5;" width="189" x="1011.2848" y="245"/><rect fill="#FEFECE" height="10" style="stroke: #A80036; stroke-width: 1.5;" width="15" x="1180.2848" y="250"/><rect fill="#FEFECE" height="2" style="stroke: #A80036; stroke-width: 1.5;" width="4" x="1178.2848" y="252"/><rect fill="#FEFECE" height="2" style="stroke: #A80036; stroke-width: 1.5;" width="4" x="1178.2848" y="256"/><text fill="#000000" font-family="sans-serif" font-size="14" lengthAdjust="spacingAndGlyphs" textLength="149" x="1026.2848" y="277.9951">:app:android:account</text><!--MD5=[e5d9953ef7aef44001e1425c1d4f233f]
entity :app:android:roster--><rect fill="#FEFECE" filter="url(#f1svc7o001i82g)" height="46.2969" style="stroke: #A80036; stroke-width: 1.5;" width="174" x="1235.7848" y="245"/><rect fill="#FEFECE" height="10" style="stroke: #A80036; stroke-width: 1.5;" width="15" x="1389.7848" y="250"/><rect fill="#FEFECE" height="2" style="stroke: #A80036; stroke-width: 1.5;" width="4" x="1387.7848" y="252"/><rect fill="#FEFECE" height="2" style="stroke: #A80036; stroke-width: 1.5;" width="4" x="1387.7848" y="256"/><text fill="#000000" font-family="sans-serif" font-size="14" lengthAdjust="spacingAndGlyphs" textLength="134" x="1250.7848" y="277.9951">:app:android:roster</text><!--MD5=[3c5d1542ec55f5c9ca1dd1bf447ad775]
entity :app:android:chat--><rect fill="#FEFECE" filter="url(#f1svc7o001i82g)" height="46.2969" style="stroke: #A80036; stroke-width: 1.5;" width="163" x="813.2848" y="245"/><rect fill="#FEFECE" height="10" style="stroke: #A80036; stroke-width: 1.5;" width="15" x="956.2848" y="250"/><rect fill="#FEFECE" height="2" style="stroke: #A80036; stroke-width: 1.5;" width="4" x="954.2848" y="252"/><rect fill="#FEFECE" height="2" style="stroke: #A80036; stroke-width: 1.5;" width="4" x="954.2848" y="256"/><text fill="#000000" font-family="sans-serif" font-size="14" lengthAdjust="spacingAndGlyphs" textLength="123" x="828.2848" y="277.9951">:app:android:chat</text><!--MD5=[ffb3e5b1032d4ec17792ff7faca81f8a]
entity :app:android:drawer--><rect fill="#FEFECE" filter="url(#f1svc7o001i82g)" height="46.2969" style="stroke: #A80036; stroke-width: 1.5;" width="180" x="1444.7848" y="245"/><rect fill="#FEFECE" height="10" style="stroke: #A80036; stroke-width: 1.5;" width="15" x="1604.7848" y="250"/><rect fill="#FEFECE" height="2" style="stroke: #A80036; stroke-width: 1.5;" width="4" x="1602.7848" y="252"/><rect fill="#FEFECE" height="2" style="stroke: #A80036; stroke-width: 1.5;" width="4" x="1602.7848" y="256"/><text fill="#000000" font-family="sans-serif" font-size="14" lengthAdjust="spacingAndGlyphs" textLength="140" x="1459.7848" y="277.9951">:app:android:drawer</text><!--MD5=[727c968f75d7b2259691a75cae745665]
entity :app:android:widget--><rect fill="#FEFECE" filter="url(#f1svc7o001i82g)" height="46.2969" style="stroke: #A80036; stroke-width: 1.5;" width="179" x="805.2848" y="351"/><rect fill="#FEFECE" height="10" style="stroke: #A80036; stroke-width: 1.5;" width="15" x="964.2848" y="356"/><rect fill="#FEFECE" height="2" style="stroke: #A80036; stroke-width: 1.5;" width="4" x="962.2848" y="358"/><rect fill="#FEFECE" height="2" style="stroke: #A80036; stroke-width: 1.5;" width="4" x="962.2848" y="362"/><text fill="#000000" font-family="sans-serif" font-size="14" lengthAdjust="spacingAndGlyphs" textLength="139" x="820.2848" y="383.9951">:app:android:widget</text><!--MD5=[766df838d575ad6f8bccedd2c6cbc45f]
entity :app:android:app--><rect fill="#FEFECE" filter="url(#f1svc7o001i82g)" height="46.2969" style="stroke: #A80036; stroke-width: 1.5;" width="159" x="1693.2848" y="33"/><rect fill="#FEFECE" height="10" style="stroke: #A80036; stroke-width: 1.5;" width="15" x="1832.2848" y="38"/><rect fill="#FEFECE" height="2" style="stroke: #A80036; stroke-width: 1.5;" width="4" x="1830.2848" y="40"/><rect fill="#FEFECE" height="2" style="stroke: #A80036; stroke-width: 1.5;" width="4" x="1830.2848" y="44"/><text fill="#000000" font-family="sans-serif" font-size="14" lengthAdjust="spacingAndGlyphs" textLength="119" x="1708.2848" y="65.9951">:app:android:app</text><!--MD5=[8725e2f32c833bede44e6c458fce3254]
entity :engine:paging--><rect fill="#FEFECE" filter="url(#f1svc7o001i82g)" height="46.2969" style="stroke: #A80036; stroke-width: 1.5;" width="145" x="68.2848" y="563"/><rect fill="#FEFECE" height="10" style="stroke: #A80036; stroke-width: 1.5;" width="15" x="193.2848" y="568"/><rect fill="#FEFECE" height="2" style="stroke: #A80036; stroke-width: 1.5;" width="4" x="191.2848" y="570"/><rect fill="#FEFECE" height="2" style="stroke: #A80036; stroke-width: 1.5;" width="4" x="191.2848" y="574"/><text fill="#000000" font-family="sans-serif" font-size="14" lengthAdjust="spacingAndGlyphs" textLength="105" x="83.2848" y="595.9951">:engine:paging</text><!--MD5=[474bc7754ff50e9887f34633b92b9e02]
entity :engine:connectable--><rect fill="#FEFECE" filter="url(#f1svc7o001i82g)" height="46.2969" style="stroke: #A80036; stroke-width: 1.5;" width="184" x="446.7848" y="563"/><rect fill="#FEFECE" height="10" style="stroke: #A80036; stroke-width: 1.5;" width="15" x="610.7848" y="568"/><rect fill="#FEFECE" height="2" style="stroke: #A80036; stroke-width: 1.5;" width="4" x="608.7848" y="570"/><rect fill="#FEFECE" height="2" style="stroke: #A80036; stroke-width: 1.5;" width="4" x="608.7848" y="574"/><text fill="#000000" font-family="sans-serif" font-size="14" lengthAdjust="spacingAndGlyphs" textLength="144" x="461.7848" y="595.9951">:engine:connectable</text><!--MD5=[8e94acc19a10f03efd288fb36eb4472b]
entity :engine:util--><rect fill="#FEFECE" filter="url(#f1svc7o001i82g)" height="46.2969" style="stroke: #A80036; stroke-width: 1.5;" width="118" x="341.7848" y="669"/><rect fill="#FEFECE" height="10" style="stroke: #A80036; stroke-width: 1.5;" width="15" x="439.7848" y="674"/><rect fill="#FEFECE" height="2" style="stroke: #A80036; stroke-width: 1.5;" width="4" x="437.7848" y="676"/><rect fill="#FEFECE" height="2" style="stroke: #A80036; stroke-width: 1.5;" width="4" x="437.7848" y="680"/><text fill="#000000" font-family="sans-serif" font-size="14" lengthAdjust="spacingAndGlyphs" textLength="78" x="356.7848" y="701.9951">:engine:util</text><!--MD5=[f7af38a47341a5d6bbb7054022a18e1f]
entity :engine:log--><rect fill="#FEFECE" filter="url(#f1svc7o001i82g)" height="46.2969" style="stroke: #A80036; stroke-width: 1.5;" width="119" x="495.2848" y="669"/><rect fill="#FEFECE" height="10" style="stroke: #A80036; stroke-width: 1.5;" width="15" x="594.2848" y="674"/><rect fill="#FEFECE" height="2" style="stroke: #A80036; stroke-width: 1.5;" width="4" x="592.2848" y="676"/><rect fill="#FEFECE" height="2" style="stroke: #A80036; stroke-width: 1.5;" width="4" x="592.2848" y="680"/><text fill="#000000" font-family="sans-serif" font-size="14" lengthAdjust="spacingAndGlyphs" textLength="79" x="510.2848" y="701.9951">:engine:log</text><!--MD5=[9cb9b296c1f7d1e8bceacf7e776ceb9f]
entity :engine:translator--><rect fill="#FEFECE" filter="url(#f1svc7o001i82g)" height="46.2969" style="stroke: #A80036; stroke-width: 1.5;" width="163" x="248.2848" y="563"/><rect fill="#FEFECE" height="10" style="stroke: #A80036; stroke-width: 1.5;" width="15" x="391.2848" y="568"/><rect fill="#FEFECE" height="2" style="stroke: #A80036; stroke-width: 1.5;" width="4" x="389.2848" y="570"/><rect fill="#FEFECE" height="2" style="stroke: #A80036; stroke-width: 1.5;" width="4" x="389.2848" y="574"/><text fill="#000000" font-family="sans-serif" font-size="14" lengthAdjust="spacingAndGlyphs" textLength="123" x="263.2848" y="595.9951">:engine:translator</text><!--MD5=[d2e99a31c5c69c260843e58b87a30949]
link :core:backend to :core:domain--><path d="M181.53,291.0004 C179.2655,307.003 176.2311,328.4461 173.8138,345.528 " fill="none" id=":core:backend-&gt;:core:domain" style="stroke: #A80036; stroke-width: 1.0;"/><polygon fill="#A80036" points="173.085,350.6784,178.3068,342.3278,173.7857,345.7277,170.3857,341.2067,173.085,350.6784" style="stroke: #A80036; stroke-width: 1.0;"/><!--MD5=[d5e4b706dadef8c45d2b97abed780e73]
link :platform:net:smack:android to :core:api--><path d="M2424.9166,397.0499 C2409.6233,400.2558 2393.8149,403.0987 2378.7848,405 C1936.8236,460.9071 811.4916,369.0089 374.7848,457 C373.6464,457.2294 372.5016,457.479 371.3527,457.7467 " fill="none" id=":platform:net:smack:android-&gt;:core:api" style="stroke: #A80036; stroke-width: 1.0;"/><polygon fill="#A80036" points="366.2972,459.0307,376.005,460.6918,371.1433,457.7997,374.0354,452.938,366.2972,459.0307" style="stroke: #A80036; stroke-width: 1.0;"/><!--MD5=[12b3229dbc72ddecfb6c2620af34bdbb]
link :platform:repo:room to :core:api--><path d="M2686.8599,397.0611 C2674.6237,400.2883 2661.9235,403.1353 2649.7848,405 C2149.9603,481.7818 870.6636,357.8833 374.7848,457 C373.6461,457.2276 372.5009,457.4756 371.3517,457.7419 " fill="none" id=":platform:repo:room-&gt;:core:api" style="stroke: #A80036; stroke-width: 1.0;"/><polygon fill="#A80036" points="366.2951,459.0202,376.001,460.6922,371.1426,457.7947,374.0401,452.9362,366.2951,459.0202" style="stroke: #A80036; stroke-width: 1.0;"/><!--MD5=[dafa5242e5c36aa798cd730675791df7]
link :platform:sys:android to :app:android:indicator--><path d="M2224.3188,350.9538 C2204.2629,341.2343 2179.833,330.6523 2156.7848,324 C2057.3256,295.2933 1939.5956,281.0825 1857.5292,274.1895 " fill="none" id=":platform:sys:android-&gt;:app:android:indicator" style="stroke: #A80036; stroke-width: 1.0;"/><polygon fill="#A80036" points="1852.1758,273.746,1860.8148,278.4755,1857.1587,274.1589,1861.4754,270.5028,1852.1758,273.746" style="stroke: #A80036; stroke-width: 1.0;"/><!--MD5=[c659df04a6a924d0d4c66d0178f0f325]
link :platform:log:android to :engine:log--><path d="M2897.8126,397.0173 C2886.4731,399.9842 2874.8706,402.7623 2863.7848,405 C1984.9091,582.4049 894.3093,667.9273 619.7949,687.5357 " fill="none" id=":platform:log:android-&gt;:engine:log" style="stroke: #A80036; stroke-width: 1.0;"/><polygon fill="#A80036" points="614.6341,687.9034,623.8958,691.2532,619.6214,687.5478,623.3269,683.2735,614.6341,687.9034" style="stroke: #A80036; stroke-width: 1.0;"/><!--MD5=[3eca8ae82ae29a6fbfbc0a88a0eff88b]
link :app:android:error to :engine:log--><path d="M514.5309,166.696 C378.8527,175.0037 121.6915,193.7301 87.7848,218 C25.5384,262.555 14.7848,297.451 14.7848,374 C14.7848,374 14.7848,374 14.7848,480 C14.7848,539.524 6,569.7899 50.7848,609 C122.8788,672.12 384.1685,648.5631 477.7848,669 C481.8016,669.8769 485.9139,670.8567 490.0466,671.904 " fill="none" id=":app:android:error-&gt;:engine:log" style="stroke: #A80036; stroke-width: 1.0;"/><polygon fill="#A80036" points="494.9028,673.1624,487.1942,667.0324,490.0627,671.908,485.1871,674.7765,494.9028,673.1624" style="stroke: #A80036; stroke-width: 1.0;"/><!--MD5=[fceee475146789e06c179ed8cf9756d0]
link :app:android:main to :app:android:debug--><path d="M930.6555,179.524 C889.5286,189.1562 839.4644,202.3377 795.7848,218 C776.5545,224.8955 756.0854,233.9971 738.2547,242.5432 " fill="none" id=":app:android:main-&gt;:app:android:debug" style="stroke: #A80036; stroke-width: 1.0;"/><polygon fill="#A80036" points="733.2987,244.9366,743.1426,244.6246,737.8011,242.7622,739.6635,237.4207,733.2987,244.9366" style="stroke: #A80036; stroke-width: 1.0;"/><!--MD5=[aafa773f6f23b0f642f0040897ca4647]
link :app:android:main to :app:android:intent--><path d="M930.7714,165.0492 C842.791,170.0574 700.5719,183.2593 582.7848,218 C562.4327,224.0028 541.095,233.5034 523.011,242.6184 " fill="none" id=":app:android:main-&gt;:app:android:intent" style="stroke: #A80036; stroke-width: 1.0;"/><polygon fill="#A80036" points="518.486,244.9251,528.3209,244.4012,522.9406,242.6542,524.6875,237.2739,518.486,244.9251" style="stroke: #A80036; stroke-width: 1.0;"/><!--MD5=[9665dfce6a97d167b2bd7daf59c5a77c]
link :app:android:main to :app:android:account--><path d="M1033.7474,185.0004 C1047.9956,201.4168 1067.2132,223.5588 1082.2158,240.8444 " fill="none" id=":app:android:main-&gt;:app:android:account" style="stroke: #A80036; stroke-width: 1.0;"/><polygon fill="#A80036" points="1085.5434,244.6784,1082.6648,235.2596,1082.266,240.9024,1076.6232,240.5035,1085.5434,244.6784" style="stroke: #A80036; stroke-width: 1.0;"/><!--MD5=[ad9723e8d0c90f120ded1b7c69b6992c]
link :app:android:main to :app:android:roster--><path d="M1097.2219,181.3535 C1134.5825,190.9224 1178.888,203.5292 1217.7848,218 C1236.5521,224.982 1256.537,234.0585 1273.9795,242.5586 " fill="none" id=":app:android:main-&gt;:app:android:roster" style="stroke: #A80036; stroke-width: 1.0;"/><polygon fill="#A80036" points="1278.8286,244.9386,1272.5117,237.3823,1274.3401,242.7356,1268.9869,244.5639,1278.8286,244.9386" style="stroke: #A80036; stroke-width: 1.0;"/><!--MD5=[7eb08d147ea094ad26a8d4d686881611]
link :app:android:main to :app:android:chat--><path d="M987.9635,185.0004 C969.379,201.5548 944.2581,223.9314 924.7827,241.2791 " fill="none" id=":app:android:main-&gt;:app:android:chat" style="stroke: #A80036; stroke-width: 1.0;"/><polygon fill="#A80036" points="920.9666,244.6784,930.3475,241.6788,924.7001,241.3526,925.0263,235.7052,920.9666,244.6784" style="stroke: #A80036; stroke-width: 1.0;"/><!--MD5=[7496dee169bf1250af3f6996ace85eae]
link :app:android:main to :app:android:drawer--><path d="M1097.0122,165.8638 C1181.7239,171.5026 1316.0966,185.1818 1427.7848,218 C1448.4597,224.0751 1470.1921,233.5887 1488.6295,242.6938 " fill="none" id=":app:android:main-&gt;:app:android:drawer" style="stroke: #A80036; stroke-width: 1.0;"/><polygon fill="#A80036" points="1493.2433,244.9975,1486.9781,237.3983,1488.7699,242.7639,1483.4044,244.5557,1493.2433,244.9975" style="stroke: #A80036; stroke-width: 1.0;"/><!--MD5=[fafc0da3d79171795b76f5d6fc784b1e]
link :app:android:main to :core:domain--><path d="M930.5962,168.0399 C763.1928,180.365 399.3424,208.0853 373.7848,218 C354.3898,225.524 254.8449,304.9942 202.326,347.5061 " fill="none" id=":app:android:main-&gt;:core:domain" style="stroke: #A80036; stroke-width: 1.0;"/><polygon fill="#A80036" points="198.3194,350.7515,207.8307,348.195,202.2047,347.6044,202.7954,341.9785,198.3194,350.7515" style="stroke: #A80036; stroke-width: 1.0;"/><!--MD5=[65eb7b96c45847cf49dcf75272b402ce]
link :core:domain to :engine:paging--><path d="M166.6261,397.0913 C161.2656,436.2784 150.4071,515.6574 144.6195,557.9665 " fill="none" id=":core:domain-&gt;:engine:paging" style="stroke: #A80036; stroke-width: 1.0;"/><polygon fill="#A80036" points="143.9396,562.9372,149.1226,554.5624,144.6173,557.9833,141.1964,553.4781,143.9396,562.9372" style="stroke: #A80036; stroke-width: 1.0;"/><!--MD5=[12ebccdcc75f98176baa7aae27ae41f5]
link :core:domain to :core:api--><path d="M201.4646,397.0004 C224.5352,413.7503 255.8156,436.4607 279.8242,453.8917 " fill="none" id=":core:domain-&gt;:core:api" style="stroke: #A80036; stroke-width: 1.0;"/><polygon fill="#A80036" points="283.915,456.8617,278.9821,448.3373,279.8689,453.9242,274.282,454.811,283.915,456.8617" style="stroke: #A80036; stroke-width: 1.0;"/><!--MD5=[eaf14edc6043f7290cbfd1583ac6425c]
link :core:api to :engine:connectable--><path d="M359.1446,503.1268 C364.3925,505.8237 369.6952,508.5015 374.7848,511 C385.3263,516.1749 439.8416,541.0448 483.1667,560.747 " fill="none" id=":core:api-&gt;:engine:connectable" style="stroke: #A80036; stroke-width: 1.0;"/><polygon fill="#A80036" points="487.8554,562.8789,481.3182,555.5124,483.3038,560.8093,478.0069,562.7949,487.8554,562.8789" style="stroke: #A80036; stroke-width: 1.0;"/><!--MD5=[bca29f017d1f9d57df28eb8d83e96ded]
link :engine:connectable to :engine:util--><path d="M508.8408,609.0004 C487.1991,625.6237 457.9143,648.1179 435.2904,665.4957 " fill="none" id=":engine:connectable-&gt;:engine:util" style="stroke: #A80036; stroke-width: 1.0;"/><polygon fill="#A80036" points="431.1468,668.6784,440.7209,666.3683,435.1121,665.6327,435.8478,660.0239,431.1468,668.6784" style="stroke: #A80036; stroke-width: 1.0;"/><!--MD5=[6eb7bccd1a3c6d4cd083766ccbfc4317]
link :engine:connectable to :engine:log--><path d="M542.2565,609.0004 C544.672,625.003 547.9087,646.4461 550.4871,663.528 " fill="none" id=":engine:connectable-&gt;:engine:log" style="stroke: #A80036; stroke-width: 1.0;"/><polygon fill="#A80036" points="551.2645,668.6784,553.8764,659.1822,550.5182,663.7344,545.966,660.3762,551.2645,668.6784" style="stroke: #A80036; stroke-width: 1.0;"/><!--MD5=[666e042c7dbf8a3daf0caa8537d59ab2]
link :app:android:indicator to :app:android:core--><path d="M1659.6761,287.8887 C1653.9661,288.9687 1648.3031,290.0141 1642.7848,291 C1484.062,319.3571 1297.9925,346.7159 1191.1976,361.8559 " fill="none" id=":app:android:indicator-&gt;:app:android:core" style="stroke: #A80036; stroke-width: 1.0;"/><polygon fill="#A80036" points="1186.1725,362.5676,1195.6445,365.266,1191.1231,361.8665,1194.5227,357.3451,1186.1725,362.5676" style="stroke: #A80036; stroke-width: 1.0;"/><!--MD5=[676d4f97b0c22b0593b9946bdc7c978f]
link :app:android:indicator to :platform:util:android:notification--><path d="M1810.465,291.0004 C1851.0259,308.0617 1906.2891,331.3074 1948.0144,348.8585 " fill="none" id=":app:android:indicator-&gt;:platform:util:android:notification" style="stroke: #A80036; stroke-width: 1.0;"/><polygon fill="#A80036" points="1952.7767,350.8617,1946.0318,343.685,1948.1679,348.923,1942.9298,351.0591,1952.7767,350.8617" style="stroke: #A80036; stroke-width: 1.0;"/><!--MD5=[d2b08a756afcb67ecb991f5e07025c5b]
link :app:android:core to :core:api--><path d="M1035.1485,397.0226 C1024.0897,400.1041 1012.6921,402.9148 1001.7848,405 C727.1354,457.5067 647.2204,394.0073 374.7848,457 C373.6534,457.2616 372.5149,457.5408 371.3719,457.8356 " fill="none" id=":app:android:core-&gt;:core:api" style="stroke: #A80036; stroke-width: 1.0;"/><polygon fill="#A80036" points="366.3388,459.2229,376.0781,460.6877,371.1591,457.8943,373.9524,452.9753,366.3388,459.2229" style="stroke: #A80036; stroke-width: 1.0;"/><!--MD5=[3f0a006f360432af92f6703e46b4827b]
link :app:android:core to :app:android:resources--><path d="M1081.0013,397.0004 C1064.7398,413.4168 1042.8067,435.5588 1025.6842,452.8444 " fill="none" id=":app:android:core-&gt;:app:android:resources" style="stroke: #A80036; stroke-width: 1.0;"/><polygon fill="#A80036" points="1021.8863,456.6784,1031.0618,453.0993,1025.405,453.1261,1025.3782,447.4693,1021.8863,456.6784" style="stroke: #A80036; stroke-width: 1.0;"/><!--MD5=[d575d75358388f5bbadaeec3089cd394]
link :app:android:debug to :core:api--><path d="M648.1572,291.0913 C577.9489,330.9952 434.4147,412.575 361.0891,454.2507 " fill="none" id=":app:android:debug-&gt;:core:api" style="stroke: #A80036; stroke-width: 1.0;"/><polygon fill="#A80036" points="356.3623,456.9372,366.1633,455.9674,360.7092,454.4665,362.2101,449.0124,356.3623,456.9372" style="stroke: #A80036; stroke-width: 1.0;"/><!--MD5=[e8aec821aea148b616c960ed68bebe96]
link :app:android:debug to :core:cli--><path d="M599.5293,287.5602 C593.5312,288.7591 587.5746,289.917 581.7848,291 C490.2112,308.1286 458.9347,284.0263 374.7848,324 C363.0414,329.5784 351.9474,338.4009 342.7796,347.0924 " fill="none" id=":app:android:debug-&gt;:core:cli" style="stroke: #A80036; stroke-width: 1.0;"/><polygon fill="#A80036" points="338.9722,350.7995,348.211,347.387,342.5546,347.3115,342.6302,341.6551,338.9722,350.7995" style="stroke: #A80036; stroke-width: 1.0;"/><!--MD5=[ee2f5633b367fcc48a9e04396485cb5b]
link :app:android:debug to :app:android:core--><path d="M778.0412,287.5551 C784.0391,288.7552 789.9954,289.9148 795.7848,291 C886.9205,308.0823 913.4059,295.9518 1001.7848,324 C1021.2006,330.1619 1041.5535,339.491 1058.9266,348.4284 " fill="none" id=":app:android:debug-&gt;:app:android:core" style="stroke: #A80036; stroke-width: 1.0;"/><polygon fill="#A80036" points="1063.7445,350.9359,1057.6078,343.2326,1059.3093,348.6275,1053.9144,350.329,1063.7445,350.9359" style="stroke: #A80036; stroke-width: 1.0;"/><!--MD5=[c8ce623b3aeae345ce4d46c8f73b6dbd]
link :app:android:debug to :app:android:widget--><path d="M733.4837,291.0004 C766.4389,307.9579 811.2668,331.0247 845.301,348.5375 " fill="none" id=":app:android:debug-&gt;:app:android:widget" style="stroke: #A80036; stroke-width: 1.0;"/><polygon fill="#A80036" points="849.8178,350.8617,843.6452,343.1871,845.3718,348.574,839.9849,350.3006,849.8178,350.8617" style="stroke: #A80036; stroke-width: 1.0;"/><!--MD5=[158db574f8c13af48b8082abe11fc025]
link :app:android:intent to :core:api--><path d="M463.0689,291.4632 C445.298,319.3016 414.0155,366.7575 383.7848,405 C370.7334,421.5102 355.0142,438.9841 341.9782,452.908 " fill="none" id=":app:android:intent-&gt;:core:api" style="stroke: #A80036; stroke-width: 1.0;"/><polygon fill="#A80036" points="338.377,456.7374,347.4566,452.9214,341.8024,453.095,341.6288,447.4408,338.377,456.7374" style="stroke: #A80036; stroke-width: 1.0;"/><!--MD5=[69828452976e949fde7e95d6ece63934]
link :app:android:account to :app:android:core--><path d="M1105.3508,291.0004 C1105.0489,307.003 1104.6443,328.4461 1104.322,345.528 " fill="none" id=":app:android:account-&gt;:app:android:core" style="stroke: #A80036; stroke-width: 1.0;"/><polygon fill="#A80036" points="1104.2248,350.6784,1108.3941,341.7555,1104.3192,345.6793,1100.3955,341.6045,1104.2248,350.6784" style="stroke: #A80036; stroke-width: 1.0;"/><!--MD5=[b4dd1eff9d0a0e12e68d43b54e1ed582]
link :app:android:roster to :app:android:core--><path d="M1275.265,291.0004 C1240.2302,307.9579 1192.5733,331.0247 1156.3913,348.5375 " fill="none" id=":app:android:roster-&gt;:app:android:core" style="stroke: #A80036; stroke-width: 1.0;"/><polygon fill="#A80036" points="1151.5894,350.8617,1161.433,350.541,1156.0899,348.6833,1157.9476,343.3402,1151.5894,350.8617" style="stroke: #A80036; stroke-width: 1.0;"/><!--MD5=[852b991e641e471ff4711703b30b74cf]
link :app:android:chat to :app:android:core--><path d="M940.1347,291.0004 C973.5697,307.9579 1019.0505,331.0247 1053.5803,348.5375 " fill="none" id=":app:android:chat-&gt;:app:android:core" style="stroke: #A80036; stroke-width: 1.0;"/><polygon fill="#A80036" points="1058.163,350.8617,1051.9457,343.2233,1053.7038,348.6,1048.327,350.358,1058.163,350.8617" style="stroke: #A80036; stroke-width: 1.0;"/><!--MD5=[54bdc77988d62928c5d4905026293d94]
link :app:android:chat to :platform:util:android:notification--><path d="M976.4058,288.243 C982.2643,289.3014 988.1007,290.2395 993.7848,291 C1379.0727,342.5502 1486.0869,250.4408 1867.7848,324 C1895.7015,329.38 1925.5151,339.3878 1950.4241,349.0446 " fill="none" id=":app:android:chat-&gt;:platform:util:android:notification" style="stroke: #A80036; stroke-width: 1.0;"/><polygon fill="#A80036" points="1955.3385,350.9698,1948.4177,343.9625,1950.683,349.146,1945.4995,351.4113,1955.3385,350.9698" style="stroke: #A80036; stroke-width: 1.0;"/><!--MD5=[c794bb4f0016a9b0b859ee0c8f377eb8]
link :app:android:chat to :app:android:widget--><path d="M894.7848,291.0004 C894.7848,307.003 894.7848,328.4461 894.7848,345.528 " fill="none" id=":app:android:chat-&gt;:app:android:widget" style="stroke: #A80036; stroke-width: 1.0;"/><polygon fill="#A80036" points="894.7848,350.6784,898.7848,341.6784,894.7848,345.6784,890.7848,341.6784,894.7848,350.6784" style="stroke: #A80036; stroke-width: 1.0;"/><!--MD5=[ebeee0e59d51c15c253e93c8615e14c8]
link :app:android:chat to :core:cli--><path d="M813.1259,287.9803 C807.2763,289.1008 801.4523,290.1246 795.7848,291 C703.0421,305.3251 461.0896,287.1503 374.7848,324 C362.6183,329.1947 351.2963,338.1302 342.0616,347.0235 " fill="none" id=":app:android:chat-&gt;:core:cli" style="stroke: #A80036; stroke-width: 1.0;"/><polygon fill="#A80036" points="338.2354,350.8213,347.4409,347.3201,341.7841,347.299,341.8053,341.6422,338.2354,350.8213" style="stroke: #A80036; stroke-width: 1.0;"/><!--MD5=[c2d20016ff4fa80c752f3855240abbdf]
link :app:android:drawer to :app:android:core--><path d="M1444.6955,290.1565 C1370.2293,308.4707 1265.1215,334.3209 1191.357,352.4625 " fill="none" id=":app:android:drawer-&gt;:app:android:core" style="stroke: #A80036; stroke-width: 1.0;"/><polygon fill="#A80036" points="1186.101,353.7552,1195.7959,355.49,1190.9563,352.5611,1193.8853,347.7215,1186.101,353.7552" style="stroke: #A80036; stroke-width: 1.0;"/><!--MD5=[e5b52aacd6c9e8567a26aa6a4b3cfc3a]
link :core:cli to :engine:translator--><path d="M291.0526,397.0286 C275.0631,412.1865 256.4574,433.5198 247.7848,457 C239.4692,479.5134 238.1087,489.037 247.7848,511 C256.3894,530.5311 272.8698,547.1875 288.8123,559.8065 " fill="none" id=":core:cli-&gt;:engine:translator" style="stroke: #A80036; stroke-width: 1.0;"/><polygon fill="#A80036" points="292.8488,562.927,288.1749,554.2578,288.893,559.8689,283.2819,560.5871,292.8488,562.927" style="stroke: #A80036; stroke-width: 1.0;"/><!--MD5=[c2bb4decd7a24ab2954465b21eb4e89b]
link :core:cli to :core:api--><path d="M318.1338,397.0004 C317.6809,413.003 317.074,434.4461 316.5906,451.528 " fill="none" id=":core:cli-&gt;:core:api" style="stroke: #A80036; stroke-width: 1.0;"/><polygon fill="#A80036" points="316.4448,456.6784,320.698,447.7953,316.5864,451.6804,312.7012,447.5688,316.4448,456.6784" style="stroke: #A80036; stroke-width: 1.0;"/><!--MD5=[d70ca3e7227433cd99cedf83ab143fcc]
link :app:android:widget to :app:android:resources--><path d="M917.3512,397.0004 C933.4579,413.4168 955.1821,435.5588 972.1415,452.8444 " fill="none" id=":app:android:widget-&gt;:app:android:resources" style="stroke: #A80036; stroke-width: 1.0;"/><polygon fill="#A80036" points="975.9032,456.6784,972.4553,447.4528,972.4015,453.1094,966.7449,453.0556,975.9032,456.6784" style="stroke: #A80036; stroke-width: 1.0;"/><!--MD5=[651a33e89f4f900071ad0f10e85ad6e2]
link :app:android:app to :core:backend--><path d="M1693.2402,59.9645 C1432.6444,73.1208 614.5968,115.8133 497.7848,139 C390.5313,160.2894 363.5875,171.1538 264.7848,218 C250.4249,224.8086 235.4576,233.639 222.4064,241.9804 " fill="none" id=":app:android:app-&gt;:core:backend" style="stroke: #A80036; stroke-width: 1.0;"/><polygon fill="#A80036" points="218.0574,244.7869,227.7884,243.2679,222.2586,242.0758,223.4507,236.546,218.0574,244.7869" style="stroke: #A80036; stroke-width: 1.0;"/><!--MD5=[e318059ab0fa8a47656d1143242b47e4]
link :app:android:app to :platform:net:smack:android--><path d="M1826.6726,79.1259 C1961.9482,137.1795 2315.0347,288.7065 2455.2033,348.8598 " fill="none" id=":app:android:app-&gt;:platform:net:smack:android" style="stroke: #A80036; stroke-width: 1.0;"/><polygon fill="#A80036" points="2460.099,350.9608,2453.4059,343.7356,2455.5043,348.9889,2450.251,351.0872,2460.099,350.9608" style="stroke: #A80036; stroke-width: 1.0;"/><!--MD5=[3a270a424da0b937407af8428194cfa1]
link :app:android:app to :platform:repo:room--><path d="M1848.4137,79.065 C1902.9924,95.7134 1978.4435,118.735 2044.7848,139 C2313.6976,221.1438 2387.3246,223.122 2649.7848,324 C2668.5041,331.1949 2688.5379,340.1902 2706.1495,348.5602 " fill="none" id=":app:android:app-&gt;:platform:repo:room" style="stroke: #A80036; stroke-width: 1.0;"/><polygon fill="#A80036" points="2711.0495,350.9023,2704.6547,343.4119,2706.5384,348.7459,2701.2044,350.6296,2711.0495,350.9023" style="stroke: #A80036; stroke-width: 1.0;"/><!--MD5=[fe3e67ab8f1491f61e3e2c511b7ee7c2]
link :app:android:app to :platform:sys:android--><path d="M1808.504,79.0611 C1873.8194,121.2161 2016.9208,213.5087 2137.7848,291 C2167.7242,310.1955 2201.5895,331.8142 2227.2483,348.1748 " fill="none" id=":app:android:app-&gt;:platform:sys:android" style="stroke: #A80036; stroke-width: 1.0;"/><polygon fill="#A80036" points="2231.6167,350.96,2226.1783,342.7488,2227.4007,348.272,2221.8775,349.4944,2231.6167,350.96" style="stroke: #A80036; stroke-width: 1.0;"/><!--MD5=[6c6003fbba16c3701e8eace4ac0b992c]
link :app:android:app to :platform:log:android--><path d="M1852.3573,72.871 C1928.754,89.2216 2047.3384,115.002 2149.7848,139 C2468.9572,213.7658 2555.1875,213.4169 2863.7848,324 C2883.5373,331.0781 2904.6471,340.2582 2923.0381,348.817 " fill="none" id=":app:android:app-&gt;:platform:log:android" style="stroke: #A80036; stroke-width: 1.0;"/><polygon fill="#A80036" points="2927.6527,350.978,2921.1987,343.5385,2923.1247,348.8574,2917.8058,350.7834,2927.6527,350.978" style="stroke: #A80036; stroke-width: 1.0;"/><!--MD5=[48846024ec65397ebde27eb1a8c0584b]
link :app:android:app to :app:android:error--><path d="M1692.946,63.2025 C1481.2875,82.2968 906.9291,134.1112 686.0126,154.0407 " fill="none" id=":app:android:app-&gt;:app:android:error" style="stroke: #A80036; stroke-width: 1.0;"/><polygon fill="#A80036" points="680.8602,154.5055,690.1832,157.6806,685.84,154.0562,689.4644,149.713,680.8602,154.5055" style="stroke: #A80036; stroke-width: 1.0;"/><!--MD5=[d9830d6006fc236e7422f8e834909c47]
link :app:android:app to :app:android:main--><path d="M1692.993,67.1435 C1549.9636,87.1186 1250.9933,128.8721 1102.0471,149.6735 " fill="none" id=":app:android:app-&gt;:app:android:main" style="stroke: #A80036; stroke-width: 1.0;"/><polygon fill="#A80036" points="1096.8124,150.4046,1106.2792,153.1211,1101.7643,149.7129,1105.1725,145.198,1096.8124,150.4046" style="stroke: #A80036; stroke-width: 1.0;"/><!--MD5=[34b44195aa2eb74016e2acfff6631733]
@startuml
package ":core" {
[:core:backend]
[:core:domain]
[:core:api]
[:core:cli]
}
package ":platform" {
[:platform:net:smack:android]
[:platform:repo:room]
[:platform:sys:android]
[:platform:log:android]
[:platform:util:android:notification]
}
package ":app" {
[:app:android:error]
[:app:android:main]
[:app:android:indicator]
[:app:android:core]
[:app:android:resources]
[:app:android:debug]
[:app:android:intent]
[:app:android:account]
[:app:android:roster]
[:app:android:chat]
[:app:android:drawer]
[:app:android:widget]
[:app:android:app]
}
package ":engine" {
[:engine:paging]
[:engine:connectable]
[:engine:util]
[:engine:log]
[:engine:translator]
}
[:core:backend] - -> [:core:domain]
[:platform:net:smack:android] - -> [:core:api]
[:platform:repo:room] - -> [:core:api]
[:platform:sys:android] - -> [:app:android:indicator]
[:platform:log:android] - -> [:engine:log]
[:app:android:error] - -> [:engine:log]
[:app:android:main] - -> [:app:android:debug]
[:app:android:main] - -> [:app:android:intent]
[:app:android:main] - -> [:app:android:account]
[:app:android:main] - -> [:app:android:roster]
[:app:android:main] - -> [:app:android:chat]
[:app:android:main] - -> [:app:android:drawer]
[:app:android:main] - -> [:core:domain]
[:core:domain] - -> [:engine:paging]
[:core:domain] - -> [:core:api]
[:core:api] - -> [:engine:connectable]
[:engine:connectable] - -> [:engine:util]
[:engine:connectable] - -> [:engine:log]
[:app:android:indicator] - -> [:app:android:core]
[:app:android:indicator] - -> [:platform:util:android:notification]
[:app:android:core] - -> [:core:api]
[:app:android:core] - -> [:app:android:resources]
[:app:android:debug] - -> [:core:api]
[:app:android:debug] - -> [:core:cli]
[:app:android:debug] - -> [:app:android:core]
[:app:android:debug] - -> [:app:android:widget]
[:app:android:intent] - -> [:core:api]
[:app:android:account] - -> [:app:android:core]
[:app:android:roster] - -> [:app:android:core]
[:app:android:chat] - -> [:app:android:core]
[:app:android:chat] - -> [:platform:util:android:notification]
[:app:android:chat] - -> [:app:android:widget]
[:app:android:chat] - -> [:core:cli]
[:app:android:drawer] - -> [:app:android:core]
[:core:cli] - -> [:engine:translator]
[:core:cli] - -> [:core:api]
[:app:android:widget] - -> [:app:android:resources]
[:app:android:app] - -> [:core:backend]
[:app:android:app] - -> [:platform:net:smack:android]
[:app:android:app] - -> [:platform:repo:room]
[:app:android:app] - -> [:platform:sys:android]
[:app:android:app] - -> [:platform:log:android]
[:app:android:app] - -> [:app:android:error]
[:app:android:app] - -> [:app:android:main]
@enduml

PlantUML version 1.2020.15(Sun Jun 28 13:39:45 CEST 2020)
(GPL source distribution)
Java Runtime: OpenJDK Runtime Environment
JVM: OpenJDK 64-Bit Server VM
Default Encoding: UTF-8
Language: pl
Country: PL
--></g></svg>