<?xml version="1.0" encoding="UTF-8" standalone="no"?><svg xmlns="http://www.w3.org/2000/svg" xmlns:xlink="http://www.w3.org/1999/xlink" contentScriptType="application/ecmascript" contentStyleType="text/css" height="735px" preserveAspectRatio="none" style="width:1878px;height:735px;" version="1.1" viewBox="0 0 1878 735" width="1878px" zoomAndPan="magnify"><defs><filter height="300%" id="fes8scs3rxsbl" width="300%" x="-1" y="-1"><feGaussianBlur result="blurOut" stdDeviation="2.0"/><feColorMatrix in="blurOut" result="blurOut2" type="matrix" values="0 0 0 0 0 0 0 0 0 0 0 0 0 0 0 0 0 0 .4 0"/><feOffset dx="4.0" dy="4.0" in="blurOut2" result="blurOut3"/><feBlend in="SourceGraphic" in2="blurOut3" mode="normal"/></filter></defs><g><!--MD5=[30404b2edc0ff233b9122d63ae72b243]
cluster :core--><polygon fill="#FFFFFF" filter="url(#fes8scs3rxsbl)" points="1424,218,1472,218,1479,240.2969,1703,240.2969,1703,511,1424,511,1424,218" style="stroke: #000000; stroke-width: 1.5;"/><line style="stroke: #000000; stroke-width: 1.5;" x1="1424" x2="1479" y1="240.2969" y2="240.2969"/><text fill="#000000" font-family="sans-serif" font-size="14" font-weight="bold" lengthAdjust="spacingAndGlyphs" textLength="42" x="1428" y="232.9951">:core</text><!--MD5=[0d8e833dcfdde072c4ae6e4a203830aa]
cluster :net--><polygon fill="#FFFFFF" filter="url(#fes8scs3rxsbl)" points="1311,112,1349,112,1356,134.2969,1503,134.2969,1503,193,1311,193,1311,112" style="stroke: #000000; stroke-width: 1.5;"/><line style="stroke: #000000; stroke-width: 1.5;" x1="1311" x2="1356" y1="134.2969" y2="134.2969"/><text fill="#000000" font-family="sans-serif" font-size="14" font-weight="bold" lengthAdjust="spacingAndGlyphs" textLength="32" x="1315" y="126.9951">:net</text><!--MD5=[6124d9865eee0f458a8c9ca898d4a94b]
cluster :android--><polygon fill="#FFFFFF" filter="url(#fes8scs3rxsbl)" points="16,6,88,6,95,28.2969,1276,28.2969,1276,511,16,511,16,6" style="stroke: #000000; stroke-width: 1.5;"/><line style="stroke: #000000; stroke-width: 1.5;" x1="16" x2="95" y1="28.2969" y2="28.2969"/><text fill="#000000" font-family="sans-serif" font-size="14" font-weight="bold" lengthAdjust="spacingAndGlyphs" textLength="66" x="20" y="20.9951">:android</text><!--MD5=[6ed0a4222646c4be5d3ab2314135a570]
cluster :engine--><polygon fill="#FFFFFF" filter="url(#fes8scs3rxsbl)" points="1160,536,1226,536,1233,558.2969,1739,558.2969,1739,723,1160,723,1160,536" style="stroke: #000000; stroke-width: 1.5;"/><line style="stroke: #000000; stroke-width: 1.5;" x1="1160" x2="1233" y1="558.2969" y2="558.2969"/><text fill="#000000" font-family="sans-serif" font-size="14" font-weight="bold" lengthAdjust="spacingAndGlyphs" textLength="60" x="1164" y="550.9951">:engine</text><!--MD5=[6b3c72c52f198a8ada63b8c5ce9355bc]
entity :core:backend--><rect fill="#FEFECE" filter="url(#fes8scs3rxsbl)" height="46.2969" style="stroke: #A80036; stroke-width: 1.5;" width="141" x="1528.5" y="245"/><rect fill="#FEFECE" height="10" style="stroke: #A80036; stroke-width: 1.5;" width="15" x="1649.5" y="250"/><rect fill="#FEFECE" height="2" style="stroke: #A80036; stroke-width: 1.5;" width="4" x="1647.5" y="252"/><rect fill="#FEFECE" height="2" style="stroke: #A80036; stroke-width: 1.5;" width="4" x="1647.5" y="256"/><text fill="#000000" font-family="sans-serif" font-size="14" lengthAdjust="spacingAndGlyphs" textLength="101" x="1543.5" y="277.9951">:core:backend</text><!--MD5=[c0f778923607b3b2b1776544ac20a677]
entity :core:domain--><rect fill="#FEFECE" filter="url(#fes8scs3rxsbl)" height="46.2969" style="stroke: #A80036; stroke-width: 1.5;" width="132" x="1563" y="351"/><rect fill="#FEFECE" height="10" style="stroke: #A80036; stroke-width: 1.5;" width="15" x="1675" y="356"/><rect fill="#FEFECE" height="2" style="stroke: #A80036; stroke-width: 1.5;" width="4" x="1673" y="358"/><rect fill="#FEFECE" height="2" style="stroke: #A80036; stroke-width: 1.5;" width="4" x="1673" y="362"/><text fill="#000000" font-family="sans-serif" font-size="14" lengthAdjust="spacingAndGlyphs" textLength="92" x="1578" y="383.9951">:core:domain</text><!--MD5=[bb042d61f43125fc2fe6ee382cb3d84b]
entity :core:api--><rect fill="#FEFECE" filter="url(#fes8scs3rxsbl)" height="46.2969" style="stroke: #A80036; stroke-width: 1.5;" width="101" x="1432.5" y="457"/><rect fill="#FEFECE" height="10" style="stroke: #A80036; stroke-width: 1.5;" width="15" x="1513.5" y="462"/><rect fill="#FEFECE" height="2" style="stroke: #A80036; stroke-width: 1.5;" width="4" x="1511.5" y="464"/><rect fill="#FEFECE" height="2" style="stroke: #A80036; stroke-width: 1.5;" width="4" x="1511.5" y="468"/><text fill="#000000" font-family="sans-serif" font-size="14" lengthAdjust="spacingAndGlyphs" textLength="61" x="1447.5" y="489.9951">:core:api</text><!--MD5=[b4e25f7522ba1111eb2df4fe1b5db7c7]
entity :core:cli--><rect fill="#FEFECE" filter="url(#fes8scs3rxsbl)" height="46.2969" style="stroke: #A80036; stroke-width: 1.5;" width="95" x="1432.5" y="351"/><rect fill="#FEFECE" height="10" style="stroke: #A80036; stroke-width: 1.5;" width="15" x="1507.5" y="356"/><rect fill="#FEFECE" height="2" style="stroke: #A80036; stroke-width: 1.5;" width="4" x="1505.5" y="358"/><rect fill="#FEFECE" height="2" style="stroke: #A80036; stroke-width: 1.5;" width="4" x="1505.5" y="362"/><text fill="#000000" font-family="sans-serif" font-size="14" lengthAdjust="spacingAndGlyphs" textLength="55" x="1447.5" y="383.9951">:core:cli</text><!--MD5=[6074b5c11df63f0ef6be21f813bbd183]
entity :net:smack:android--><rect fill="#FEFECE" filter="url(#fes8scs3rxsbl)" height="46.2969" style="stroke: #A80036; stroke-width: 1.5;" width="175" x="1319.5" y="139"/><rect fill="#FEFECE" height="10" style="stroke: #A80036; stroke-width: 1.5;" width="15" x="1474.5" y="144"/><rect fill="#FEFECE" height="2" style="stroke: #A80036; stroke-width: 1.5;" width="4" x="1472.5" y="146"/><rect fill="#FEFECE" height="2" style="stroke: #A80036; stroke-width: 1.5;" width="4" x="1472.5" y="150"/><text fill="#000000" font-family="sans-serif" font-size="14" lengthAdjust="spacingAndGlyphs" textLength="135" x="1334.5" y="171.9951">:net:smack:android</text><!--MD5=[e71e3f46b787e063366eac1cfd3b55c3]
entity :android:room--><rect fill="#FEFECE" filter="url(#fes8scs3rxsbl)" height="46.2969" style="stroke: #A80036; stroke-width: 1.5;" width="138" x="801" y="139"/><rect fill="#FEFECE" height="10" style="stroke: #A80036; stroke-width: 1.5;" width="15" x="919" y="144"/><rect fill="#FEFECE" height="2" style="stroke: #A80036; stroke-width: 1.5;" width="4" x="917" y="146"/><rect fill="#FEFECE" height="2" style="stroke: #A80036; stroke-width: 1.5;" width="4" x="917" y="150"/><text fill="#000000" font-family="sans-serif" font-size="14" lengthAdjust="spacingAndGlyphs" textLength="98" x="816" y="171.9951">:android:room</text><!--MD5=[824b5ec8eead23404211dbafddd0ef71]
entity :android:sys--><rect fill="#FEFECE" filter="url(#fes8scs3rxsbl)" height="46.2969" style="stroke: #A80036; stroke-width: 1.5;" width="125" x="256.5" y="139"/><rect fill="#FEFECE" height="10" style="stroke: #A80036; stroke-width: 1.5;" width="15" x="361.5" y="144"/><rect fill="#FEFECE" height="2" style="stroke: #A80036; stroke-width: 1.5;" width="4" x="359.5" y="146"/><rect fill="#FEFECE" height="2" style="stroke: #A80036; stroke-width: 1.5;" width="4" x="359.5" y="150"/><text fill="#000000" font-family="sans-serif" font-size="14" lengthAdjust="spacingAndGlyphs" textLength="85" x="271.5" y="171.9951">:android:sys</text><!--MD5=[9f0305d4f7a8645f2834b13a0602f0df]
entity :android:log--><rect fill="#FEFECE" filter="url(#fes8scs3rxsbl)" height="46.2969" style="stroke: #A80036; stroke-width: 1.5;" width="123" x="974.5" y="139"/><rect fill="#FEFECE" height="10" style="stroke: #A80036; stroke-width: 1.5;" width="15" x="1077.5" y="144"/><rect fill="#FEFECE" height="2" style="stroke: #A80036; stroke-width: 1.5;" width="4" x="1075.5" y="146"/><rect fill="#FEFECE" height="2" style="stroke: #A80036; stroke-width: 1.5;" width="4" x="1075.5" y="150"/><text fill="#000000" font-family="sans-serif" font-size="14" lengthAdjust="spacingAndGlyphs" textLength="83" x="989.5" y="171.9951">:android:log</text><!--MD5=[37b953e512ae70b44a23cc4bd83136e2]
entity :android:error--><rect fill="#FEFECE" filter="url(#fes8scs3rxsbl)" height="46.2969" style="stroke: #A80036; stroke-width: 1.5;" width="135" x="1132.5" y="139"/><rect fill="#FEFECE" height="10" style="stroke: #A80036; stroke-width: 1.5;" width="15" x="1247.5" y="144"/><rect fill="#FEFECE" height="2" style="stroke: #A80036; stroke-width: 1.5;" width="4" x="1245.5" y="146"/><rect fill="#FEFECE" height="2" style="stroke: #A80036; stroke-width: 1.5;" width="4" x="1245.5" y="150"/><text fill="#000000" font-family="sans-serif" font-size="14" lengthAdjust="spacingAndGlyphs" textLength="95" x="1147.5" y="171.9951">:android:error</text><!--MD5=[8b23712cbce6b2745bbd08e1acd8155e]
entity :android:main--><rect fill="#FEFECE" filter="url(#fes8scs3rxsbl)" height="46.2969" style="stroke: #A80036; stroke-width: 1.5;" width="135" x="630.5" y="139"/><rect fill="#FEFECE" height="10" style="stroke: #A80036; stroke-width: 1.5;" width="15" x="745.5" y="144"/><rect fill="#FEFECE" height="2" style="stroke: #A80036; stroke-width: 1.5;" width="4" x="743.5" y="146"/><rect fill="#FEFECE" height="2" style="stroke: #A80036; stroke-width: 1.5;" width="4" x="743.5" y="150"/><text fill="#000000" font-family="sans-serif" font-size="14" lengthAdjust="spacingAndGlyphs" textLength="95" x="645.5" y="171.9951">:android:main</text><!--MD5=[b759699551f165de218e2e968fab95b2]
entity :android:indicator--><rect fill="#FEFECE" filter="url(#fes8scs3rxsbl)" height="46.2969" style="stroke: #A80036; stroke-width: 1.5;" width="161" x="24.5" y="245"/><rect fill="#FEFECE" height="10" style="stroke: #A80036; stroke-width: 1.5;" width="15" x="165.5" y="250"/><rect fill="#FEFECE" height="2" style="stroke: #A80036; stroke-width: 1.5;" width="4" x="163.5" y="252"/><rect fill="#FEFECE" height="2" style="stroke: #A80036; stroke-width: 1.5;" width="4" x="163.5" y="256"/><text fill="#000000" font-family="sans-serif" font-size="14" lengthAdjust="spacingAndGlyphs" textLength="121" x="39.5" y="277.9951">:android:indicator</text><!--MD5=[4243627ae140629495d6edbad54f8b36]
entity :android:core--><rect fill="#FEFECE" filter="url(#fes8scs3rxsbl)" height="46.2969" style="stroke: #A80036; stroke-width: 1.5;" width="133" x="599.5" y="351"/><rect fill="#FEFECE" height="10" style="stroke: #A80036; stroke-width: 1.5;" width="15" x="712.5" y="356"/><rect fill="#FEFECE" height="2" style="stroke: #A80036; stroke-width: 1.5;" width="4" x="710.5" y="358"/><rect fill="#FEFECE" height="2" style="stroke: #A80036; stroke-width: 1.5;" width="4" x="710.5" y="362"/><text fill="#000000" font-family="sans-serif" font-size="14" lengthAdjust="spacingAndGlyphs" textLength="93" x="614.5" y="383.9951">:android:core</text><!--MD5=[f10ce6782b0e7f5580bd12ce8877f965]
entity :android:notification--><rect fill="#FEFECE" filter="url(#fes8scs3rxsbl)" height="46.2969" style="stroke: #A80036; stroke-width: 1.5;" width="177" x="205.5" y="351"/><rect fill="#FEFECE" height="10" style="stroke: #A80036; stroke-width: 1.5;" width="15" x="362.5" y="356"/><rect fill="#FEFECE" height="2" style="stroke: #A80036; stroke-width: 1.5;" width="4" x="360.5" y="358"/><rect fill="#FEFECE" height="2" style="stroke: #A80036; stroke-width: 1.5;" width="4" x="360.5" y="362"/><text fill="#000000" font-family="sans-serif" font-size="14" lengthAdjust="spacingAndGlyphs" textLength="137" x="220.5" y="383.9951">:android:notification</text><!--MD5=[dc93d87eb620fb3186cd34a04b83c7ae]
entity :android:resources--><rect fill="#FEFECE" filter="url(#fes8scs3rxsbl)" height="46.2969" style="stroke: #A80036; stroke-width: 1.5;" width="172" x="668" y="457"/><rect fill="#FEFECE" height="10" style="stroke: #A80036; stroke-width: 1.5;" width="15" x="820" y="462"/><rect fill="#FEFECE" height="2" style="stroke: #A80036; stroke-width: 1.5;" width="4" x="818" y="464"/><rect fill="#FEFECE" height="2" style="stroke: #A80036; stroke-width: 1.5;" width="4" x="818" y="468"/><text fill="#000000" font-family="sans-serif" font-size="14" lengthAdjust="spacingAndGlyphs" textLength="132" x="683" y="489.9951">:android:resources</text><!--MD5=[81a55ae8ee37e126e15aacb863ec98ad]
entity :android:debug--><rect fill="#FEFECE" filter="url(#fes8scs3rxsbl)" height="46.2969" style="stroke: #A80036; stroke-width: 1.5;" width="147" x="943.5" y="245"/><rect fill="#FEFECE" height="10" style="stroke: #A80036; stroke-width: 1.5;" width="15" x="1070.5" y="250"/><rect fill="#FEFECE" height="2" style="stroke: #A80036; stroke-width: 1.5;" width="4" x="1068.5" y="252"/><rect fill="#FEFECE" height="2" style="stroke: #A80036; stroke-width: 1.5;" width="4" x="1068.5" y="256"/><text fill="#000000" font-family="sans-serif" font-size="14" lengthAdjust="spacingAndGlyphs" textLength="107" x="958.5" y="277.9951">:android:debug</text><!--MD5=[7b0e00ffb091306e7adce213ff533c85]
entity :android:intent--><rect fill="#FEFECE" filter="url(#fes8scs3rxsbl)" height="46.2969" style="stroke: #A80036; stroke-width: 1.5;" width="142" x="1126" y="245"/><rect fill="#FEFECE" height="10" style="stroke: #A80036; stroke-width: 1.5;" width="15" x="1248" y="250"/><rect fill="#FEFECE" height="2" style="stroke: #A80036; stroke-width: 1.5;" width="4" x="1246" y="252"/><rect fill="#FEFECE" height="2" style="stroke: #A80036; stroke-width: 1.5;" width="4" x="1246" y="256"/><text fill="#000000" font-family="sans-serif" font-size="14" lengthAdjust="spacingAndGlyphs" textLength="102" x="1141" y="277.9951">:android:intent</text><!--MD5=[537263759804c0f37bfe27ff6520266d]
entity :android:account--><rect fill="#FEFECE" filter="url(#fes8scs3rxsbl)" height="46.2969" style="stroke: #A80036; stroke-width: 1.5;" width="158" x="404" y="245"/><rect fill="#FEFECE" height="10" style="stroke: #A80036; stroke-width: 1.5;" width="15" x="542" y="250"/><rect fill="#FEFECE" height="2" style="stroke: #A80036; stroke-width: 1.5;" width="4" x="540" y="252"/><rect fill="#FEFECE" height="2" style="stroke: #A80036; stroke-width: 1.5;" width="4" x="540" y="256"/><text fill="#000000" font-family="sans-serif" font-size="14" lengthAdjust="spacingAndGlyphs" textLength="118" x="419" y="277.9951">:android:account</text><!--MD5=[a40cbfa6716f14d6e2acc0c2f4f85b3d]
entity :android:roster--><rect fill="#FEFECE" filter="url(#fes8scs3rxsbl)" height="46.2969" style="stroke: #A80036; stroke-width: 1.5;" width="143" x="597.5" y="245"/><rect fill="#FEFECE" height="10" style="stroke: #A80036; stroke-width: 1.5;" width="15" x="720.5" y="250"/><rect fill="#FEFECE" height="2" style="stroke: #A80036; stroke-width: 1.5;" width="4" x="718.5" y="252"/><rect fill="#FEFECE" height="2" style="stroke: #A80036; stroke-width: 1.5;" width="4" x="718.5" y="256"/><text fill="#000000" font-family="sans-serif" font-size="14" lengthAdjust="spacingAndGlyphs" textLength="103" x="612.5" y="277.9951">:android:roster</text><!--MD5=[1abf9466b7c9941f0b2d230b4b5f13c9]
entity :android:chat--><rect fill="#FEFECE" filter="url(#fes8scs3rxsbl)" height="46.2969" style="stroke: #A80036; stroke-width: 1.5;" width="132" x="776" y="245"/><rect fill="#FEFECE" height="10" style="stroke: #A80036; stroke-width: 1.5;" width="15" x="888" y="250"/><rect fill="#FEFECE" height="2" style="stroke: #A80036; stroke-width: 1.5;" width="4" x="886" y="252"/><rect fill="#FEFECE" height="2" style="stroke: #A80036; stroke-width: 1.5;" width="4" x="886" y="256"/><text fill="#000000" font-family="sans-serif" font-size="14" lengthAdjust="spacingAndGlyphs" textLength="92" x="791" y="277.9951">:android:chat</text><!--MD5=[ff52f1825a9f6fbfff2d66c588103d9f]
entity :android:drawer--><rect fill="#FEFECE" filter="url(#fes8scs3rxsbl)" height="46.2969" style="stroke: #A80036; stroke-width: 1.5;" width="149" x="220.5" y="245"/><rect fill="#FEFECE" height="10" style="stroke: #A80036; stroke-width: 1.5;" width="15" x="349.5" y="250"/><rect fill="#FEFECE" height="2" style="stroke: #A80036; stroke-width: 1.5;" width="4" x="347.5" y="252"/><rect fill="#FEFECE" height="2" style="stroke: #A80036; stroke-width: 1.5;" width="4" x="347.5" y="256"/><text fill="#000000" font-family="sans-serif" font-size="14" lengthAdjust="spacingAndGlyphs" textLength="109" x="235.5" y="277.9951">:android:drawer</text><!--MD5=[ccc75cd529beb82693de2a4497c4bb10]
entity :android:widget--><rect fill="#FEFECE" filter="url(#fes8scs3rxsbl)" height="46.2969" style="stroke: #A80036; stroke-width: 1.5;" width="148" x="768" y="351"/><rect fill="#FEFECE" height="10" style="stroke: #A80036; stroke-width: 1.5;" width="15" x="896" y="356"/><rect fill="#FEFECE" height="2" style="stroke: #A80036; stroke-width: 1.5;" width="4" x="894" y="358"/><rect fill="#FEFECE" height="2" style="stroke: #A80036; stroke-width: 1.5;" width="4" x="894" y="362"/><text fill="#000000" font-family="sans-serif" font-size="14" lengthAdjust="spacingAndGlyphs" textLength="108" x="783" y="383.9951">:android:widget</text><!--MD5=[b6d98d9177c5b22a205e5ab6c49b37ef]
entity :android:app--><rect fill="#FEFECE" filter="url(#fes8scs3rxsbl)" height="46.2969" style="stroke: #A80036; stroke-width: 1.5;" width="128" x="972" y="33"/><rect fill="#FEFECE" height="10" style="stroke: #A80036; stroke-width: 1.5;" width="15" x="1080" y="38"/><rect fill="#FEFECE" height="2" style="stroke: #A80036; stroke-width: 1.5;" width="4" x="1078" y="40"/><rect fill="#FEFECE" height="2" style="stroke: #A80036; stroke-width: 1.5;" width="4" x="1078" y="44"/><text fill="#000000" font-family="sans-serif" font-size="14" lengthAdjust="spacingAndGlyphs" textLength="88" x="987" y="65.9951">:android:app</text><!--MD5=[8725e2f32c833bede44e6c458fce3254]
entity :engine:paging--><rect fill="#FEFECE" filter="url(#fes8scs3rxsbl)" height="46.2969" style="stroke: #A80036; stroke-width: 1.5;" width="145" x="1585.5" y="563"/><rect fill="#FEFECE" height="10" style="stroke: #A80036; stroke-width: 1.5;" width="15" x="1710.5" y="568"/><rect fill="#FEFECE" height="2" style="stroke: #A80036; stroke-width: 1.5;" width="4" x="1708.5" y="570"/><rect fill="#FEFECE" height="2" style="stroke: #A80036; stroke-width: 1.5;" width="4" x="1708.5" y="574"/><text fill="#000000" font-family="sans-serif" font-size="14" lengthAdjust="spacingAndGlyphs" textLength="105" x="1600.5" y="595.9951">:engine:paging</text><!--MD5=[474bc7754ff50e9887f34633b92b9e02]
entity :engine:connectable--><rect fill="#FEFECE" filter="url(#fes8scs3rxsbl)" height="46.2969" style="stroke: #A80036; stroke-width: 1.5;" width="184" x="1168" y="563"/><rect fill="#FEFECE" height="10" style="stroke: #A80036; stroke-width: 1.5;" width="15" x="1332" y="568"/><rect fill="#FEFECE" height="2" style="stroke: #A80036; stroke-width: 1.5;" width="4" x="1330" y="570"/><rect fill="#FEFECE" height="2" style="stroke: #A80036; stroke-width: 1.5;" width="4" x="1330" y="574"/><text fill="#000000" font-family="sans-serif" font-size="14" lengthAdjust="spacingAndGlyphs" textLength="144" x="1183" y="595.9951">:engine:connectable</text><!--MD5=[8e94acc19a10f03efd288fb36eb4472b]
entity :engine:util--><rect fill="#FEFECE" filter="url(#fes8scs3rxsbl)" height="46.2969" style="stroke: #A80036; stroke-width: 1.5;" width="118" x="1201" y="669"/><rect fill="#FEFECE" height="10" style="stroke: #A80036; stroke-width: 1.5;" width="15" x="1299" y="674"/><rect fill="#FEFECE" height="2" style="stroke: #A80036; stroke-width: 1.5;" width="4" x="1297" y="676"/><rect fill="#FEFECE" height="2" style="stroke: #A80036; stroke-width: 1.5;" width="4" x="1297" y="680"/><text fill="#000000" font-family="sans-serif" font-size="14" lengthAdjust="spacingAndGlyphs" textLength="78" x="1216" y="701.9951">:engine:util</text><!--MD5=[f7af38a47341a5d6bbb7054022a18e1f]
entity :engine:log--><rect fill="#FEFECE" filter="url(#fes8scs3rxsbl)" height="46.2969" style="stroke: #A80036; stroke-width: 1.5;" width="119" x="1611.5" y="669"/><rect fill="#FEFECE" height="10" style="stroke: #A80036; stroke-width: 1.5;" width="15" x="1710.5" y="674"/><rect fill="#FEFECE" height="2" style="stroke: #A80036; stroke-width: 1.5;" width="4" x="1708.5" y="676"/><rect fill="#FEFECE" height="2" style="stroke: #A80036; stroke-width: 1.5;" width="4" x="1708.5" y="680"/><text fill="#000000" font-family="sans-serif" font-size="14" lengthAdjust="spacingAndGlyphs" textLength="79" x="1626.5" y="701.9951">:engine:log</text><!--MD5=[9cb9b296c1f7d1e8bceacf7e776ceb9f]
entity :engine:translator--><rect fill="#FEFECE" filter="url(#fes8scs3rxsbl)" height="46.2969" style="stroke: #A80036; stroke-width: 1.5;" width="163" x="1387.5" y="563"/><rect fill="#FEFECE" height="10" style="stroke: #A80036; stroke-width: 1.5;" width="15" x="1530.5" y="568"/><rect fill="#FEFECE" height="2" style="stroke: #A80036; stroke-width: 1.5;" width="4" x="1528.5" y="570"/><rect fill="#FEFECE" height="2" style="stroke: #A80036; stroke-width: 1.5;" width="4" x="1528.5" y="574"/><text fill="#000000" font-family="sans-serif" font-size="14" lengthAdjust="spacingAndGlyphs" textLength="123" x="1402.5" y="595.9951">:engine:translator</text><!--MD5=[d2e99a31c5c69c260843e58b87a30949]
link :core:backend to :core:domain--><path d="M1605.5096,291.0004 C1610.0386,307.003 1616.1074,328.4461 1620.9419,345.528 " fill="none" id=":core:backend-&gt;:core:domain" style="stroke: #A80036; stroke-width: 1.0;"/><polygon fill="#A80036" points="1622.3996,350.6784,1623.7973,340.9292,1621.0379,345.8674,1616.0997,343.108,1622.3996,350.6784" style="stroke: #A80036; stroke-width: 1.0;"/><!--MD5=[0a09f885cf7bf6af5f5d05ae3e988d1e]
link :net:smack:android to :core:api--><path d="M1403.0202,185.3042 C1396.6387,228.6355 1387.4459,323.8424 1415,397 C1423.0504,418.3742 1438.9877,438.3134 1453.4105,453.2892 " fill="none" id=":net:smack:android-&gt;:core:api" style="stroke: #A80036; stroke-width: 1.0;"/><polygon fill="#A80036" points="1457.0389,456.9876,1453.591,447.762,1453.5372,453.4186,1447.8806,453.3648,1457.0389,456.9876" style="stroke: #A80036; stroke-width: 1.0;"/><!--MD5=[07f4dd57ae6d7d38c578a637e51bb3a8]
link :android:room to :core:api--><path d="M927.8805,185.0249 C937.4841,188.1473 947.432,190.97 957,193 C1028.7253,208.2179 1223.5634,179.5582 1286,218 C1365.1204,266.7139 1335.4624,324.8444 1394,397 C1410.7062,417.5927 1432.4235,437.9435 1450.2228,453.3399 " fill="none" id=":android:room-&gt;:core:api" style="stroke: #A80036; stroke-width: 1.0;"/><polygon fill="#A80036" points="1454.1902,456.7462,1449.9673,447.8486,1450.3966,453.4891,1444.756,453.9184,1454.1902,456.7462" style="stroke: #A80036; stroke-width: 1.0;"/><!--MD5=[43b2687f309875f3345c641c0049e239]
link :android:sys to :android:indicator--><path d="M270.6294,185.0586 C249.7724,195.0769 225.1339,207.0126 203,218 C187.1854,225.8505 170.0142,234.5507 154.528,242.4634 " fill="none" id=":android:sys-&gt;:android:indicator" style="stroke: #A80036; stroke-width: 1.0;"/><polygon fill="#A80036" points="149.7794,244.892,159.6136,244.3552,154.231,242.6153,155.9709,237.2326,149.7794,244.892" style="stroke: #A80036; stroke-width: 1.0;"/><!--MD5=[c4882aab63b29c15f029a73a0bc261e2]
link :android:log to :engine:log--><path d="M1087.5154,185.0245 C1096.5214,188.2334 1105.9179,191.0838 1115,193 C1179.8528,206.6827 1655.8336,181.2609 1711,218 C1774.7132,260.431 1784,297.451 1784,374 C1784,374 1784,374 1784,480 C1784,539.524 1777.0599,557.0516 1748,609 C1736.2344,630.0325 1718.0762,649.9573 1702.3476,665.0109 " fill="none" id=":android:log-&gt;:engine:log" style="stroke: #A80036; stroke-width: 1.0;"/><polygon fill="#A80036" points="1698.4065,668.7309,1707.6971,665.462,1702.0426,665.2988,1702.2058,659.6443,1698.4065,668.7309" style="stroke: #A80036; stroke-width: 1.0;"/><!--MD5=[45517b2139f254912330f96b0a200dca]
link :android:error to :engine:log--><path d="M1267.588,184.8819 C1279.2811,188.1073 1291.4064,191.0002 1303,193 C1358.581,202.5871 1765.7776,182.9923 1810,218 C1866.5781,262.7887 1855,301.8397 1855,374 C1855,374 1855,374 1855,480 C1855,540.7216 1848.373,561.9402 1810,609 C1789.7672,633.8131 1760.0193,652.9776 1733.2299,666.6077 " fill="none" id=":android:error-&gt;:engine:log" style="stroke: #A80036; stroke-width: 1.0;"/><polygon fill="#A80036" points="1728.6127,668.9177,1738.4513,668.4682,1733.0843,666.6806,1734.8719,661.3136,1728.6127,668.9177" style="stroke: #A80036; stroke-width: 1.0;"/><!--MD5=[18bab9f063355036a0b2f6ebbce1d0c7]
link :android:main to :android:debug--><path d="M757.7283,185.0132 C766.4649,187.9449 775.4113,190.7141 784,193 C845.926,209.4815 865.5514,196.7295 926,218 C943.4135,224.1274 961.4571,233.3536 976.8402,242.2188 " fill="none" id=":android:main-&gt;:android:debug" style="stroke: #A80036; stroke-width: 1.0;"/><polygon fill="#A80036" points="981.5252,244.9547,975.7705,236.962,977.2075,242.4333,971.7362,243.8703,981.5252,244.9547" style="stroke: #A80036; stroke-width: 1.0;"/><!--MD5=[40bb589868918ba3fd0f378e218e8999]
link :android:main to :android:intent--><path d="M755.2021,185.021 C764.6969,188.1439 774.5344,190.9678 784,193 C925.2101,223.3175 969.7871,176.0875 1108,218 C1125.8293,223.4067 1144.0236,232.8043 1159.2766,242.0035 " fill="none" id=":android:main-&gt;:android:intent" style="stroke: #A80036; stroke-width: 1.0;"/><polygon fill="#A80036" points="1163.9121,244.8475,1158.3325,236.7316,1159.6503,242.2328,1154.149,243.5505,1163.9121,244.8475" style="stroke: #A80036; stroke-width: 1.0;"/><!--MD5=[3c34b3746a69b84c5d3b588540e90496]
link :android:main to :android:account--><path d="M648.4511,185.0724 C627.2864,195.0419 602.3561,206.937 580,218 C564.3036,225.7674 547.2956,234.4445 531.9698,242.3617 " fill="none" id=":android:main-&gt;:android:account" style="stroke: #A80036; stroke-width: 1.0;"/><polygon fill="#A80036" points="527.2708,244.7925,537.1024,244.2099,531.7117,242.4951,533.4266,237.1044,527.2708,244.7925" style="stroke: #A80036; stroke-width: 1.0;"/><!--MD5=[1debbca0f57afdab46daa5823379ab8a]
link :android:main to :android:roster--><path d="M691.7074,185.0004 C687.3294,201.003 681.4629,222.4461 676.7895,239.528 " fill="none" id=":android:main-&gt;:android:roster" style="stroke: #A80036; stroke-width: 1.0;"/><polygon fill="#A80036" points="675.3804,244.6784,681.6138,237.0531,676.7,239.8557,673.8975,234.9418,675.3804,244.6784" style="stroke: #A80036; stroke-width: 1.0;"/><!--MD5=[2457458197666786eab65f67e2b0c236]
link :android:main to :android:chat--><path d="M729.2459,185.0004 C751.9222,201.6927 782.6404,224.3047 806.2877,241.7118 " fill="none" id=":android:main-&gt;:android:chat" style="stroke: #A80036; stroke-width: 1.0;"/><polygon fill="#A80036" points="810.3179,244.6784,805.4412,236.1217,806.2912,241.7143,800.6986,242.5643,810.3179,244.6784" style="stroke: #A80036; stroke-width: 1.0;"/><!--MD5=[6898d34d0d822ea23a237867119598dc]
link :android:main to :android:drawer--><path d="M630.2856,167.9006 C566.1928,174.9408 468.0005,189.5303 387,218 C369.5926,224.1183 351.5263,233.245 336.0601,242.0327 " fill="none" id=":android:main-&gt;:android:drawer" style="stroke: #A80036; stroke-width: 1.0;"/><polygon fill="#A80036" points="331.3473,244.7453,341.1429,243.7223,335.6807,242.251,337.152,236.7889,331.3473,244.7453" style="stroke: #A80036; stroke-width: 1.0;"/><!--MD5=[a52bef23a2ecdbe1ed06939fc995921c]
link :android:main to :core:domain--><path d="M754.6885,185.0934 C764.3329,188.25 774.352,191.0657 784,193 C1003.0291,236.9124 1068.9254,165.2684 1286,218 C1400.5368,245.8232 1523.7543,311.7565 1586.6974,348.3731 " fill="none" id=":android:main-&gt;:core:domain" style="stroke: #A80036; stroke-width: 1.0;"/><polygon fill="#A80036" points="1591.1242,350.9579,1585.3692,342.9654,1586.8064,348.4367,1581.3352,349.8739,1591.1242,350.9579" style="stroke: #A80036; stroke-width: 1.0;"/><!--MD5=[65eb7b96c45847cf49dcf75272b402ce]
link :core:domain to :engine:paging--><path d="M1632.1587,397.0913 C1637.5192,436.2784 1648.3777,515.6574 1654.1652,557.9665 " fill="none" id=":core:domain-&gt;:engine:paging" style="stroke: #A80036; stroke-width: 1.0;"/><polygon fill="#A80036" points="1654.8452,562.9372,1657.5884,553.4781,1654.1675,557.9833,1649.6622,554.5624,1654.8452,562.9372" style="stroke: #A80036; stroke-width: 1.0;"/><!--MD5=[12ebccdcc75f98176baa7aae27ae41f5]
link :core:domain to :core:api--><path d="M1597.3202,397.0004 C1574.2496,413.7503 1542.9692,436.4607 1518.9605,453.8917 " fill="none" id=":core:domain-&gt;:core:api" style="stroke: #A80036; stroke-width: 1.0;"/><polygon fill="#A80036" points="1514.8698,456.8617,1524.5028,454.811,1518.9159,453.9242,1519.8027,448.3373,1514.8698,456.8617" style="stroke: #A80036; stroke-width: 1.0;"/><!--MD5=[eaf14edc6043f7290cbfd1583ac6425c]
link :core:api to :engine:connectable--><path d="M1434.6123,503.0004 C1398.9376,519.9579 1350.4103,543.0247 1313.5674,560.5375 " fill="none" id=":core:api-&gt;:engine:connectable" style="stroke: #A80036; stroke-width: 1.0;"/><polygon fill="#A80036" points="1308.6778,562.8617,1318.5235,562.6104,1313.1936,560.7151,1315.0889,555.3852,1308.6778,562.8617" style="stroke: #A80036; stroke-width: 1.0;"/><!--MD5=[bca29f017d1f9d57df28eb8d83e96ded]
link :engine:connectable to :engine:util--><path d="M1260,609.0004 C1260,625.003 1260,646.4461 1260,663.528 " fill="none" id=":engine:connectable-&gt;:engine:util" style="stroke: #A80036; stroke-width: 1.0;"/><polygon fill="#A80036" points="1260,668.6784,1264,659.6784,1260,663.6784,1256,659.6784,1260,668.6784" style="stroke: #A80036; stroke-width: 1.0;"/><!--MD5=[6eb7bccd1a3c6d4cd083766ccbfc4317]
link :engine:connectable to :engine:log--><path d="M1349.1809,609.0004 C1426.7634,629.0095 1537.3265,657.5246 1606.5757,675.3845 " fill="none" id=":engine:connectable-&gt;:engine:log" style="stroke: #A80036; stroke-width: 1.0;"/><polygon fill="#A80036" points="1611.4893,676.6517,1603.7736,670.5306,1606.6478,675.4029,1601.7755,678.277,1611.4893,676.6517" style="stroke: #A80036; stroke-width: 1.0;"/><!--MD5=[96dc4ca78ce9f4597c88082d6f3e186c]
link :android:indicator to :android:core--><path d="M185.6782,287.2929 C191.5324,288.5828 197.3524,289.8319 203,291 C340.9408,319.5299 503.1924,347.2947 594.371,362.3731 " fill="none" id=":android:indicator-&gt;:android:core" style="stroke: #A80036; stroke-width: 1.0;"/><polygon fill="#A80036" points="599.4655,363.2146,591.2379,357.8011,594.5324,362.3996,589.9339,365.6941,599.4655,363.2146" style="stroke: #A80036; stroke-width: 1.0;"/><!--MD5=[bd9cb8a7c84ee4f7ab758a69f4cf00fb]
link :android:indicator to :android:notification--><path d="M146.0102,291.0004 C176.1223,307.8887 217.0387,330.8365 248.217,348.3227 " fill="none" id=":android:indicator-&gt;:android:notification" style="stroke: #A80036; stroke-width: 1.0;"/><polygon fill="#A80036" points="252.7439,350.8617,246.851,342.9704,248.383,348.4158,242.9375,349.9478,252.7439,350.8617" style="stroke: #A80036; stroke-width: 1.0;"/><!--MD5=[02e6d1eeca9a10220a158005479957f9]
link :android:core to :core:api--><path d="M732.5933,393.0477 C738.7878,394.5081 744.9929,395.8561 751,397 C985.1768,441.5948 1047.151,429.9817 1284,457 C1332.2818,462.5077 1387.1417,468.8549 1427.0155,473.4845 " fill="none" id=":android:core-&gt;:core:api" style="stroke: #A80036; stroke-width: 1.0;"/><polygon fill="#A80036" points="1432.2936,474.0974,1423.8152,469.0858,1427.327,473.5205,1422.8922,477.0323,1432.2936,474.0974" style="stroke: #A80036; stroke-width: 1.0;"/><!--MD5=[e7a76a9c57e440ed2221ace9ced348ea]
link :android:core to :android:resources--><path d="M685.0947,397.0004 C698.6089,413.2789 716.7968,435.1871 731.0931,452.4076 " fill="none" id=":android:core-&gt;:android:resources" style="stroke: #A80036; stroke-width: 1.0;"/><polygon fill="#A80036" points="734.6387,456.6784,731.9675,447.1987,731.4449,452.8314,725.8123,452.3087,734.6387,456.6784" style="stroke: #A80036; stroke-width: 1.0;"/><!--MD5=[b47fc6152ea28caa80e6f618d5f135a8]
link :android:debug to :core:api--><path d="M1050.708,291.1538 C1092.3531,319.0138 1166.0466,365.9135 1234,397 C1298.228,426.3823 1375.9614,450.6116 1427.3005,465.1566 " fill="none" id=":android:debug-&gt;:core:api" style="stroke: #A80036; stroke-width: 1.0;"/><polygon fill="#A80036" points="1432.1851,466.5338,1424.6083,460.2416,1427.3727,465.177,1422.4373,467.9414,1432.1851,466.5338" style="stroke: #A80036; stroke-width: 1.0;"/><!--MD5=[49c315795c2cf8a16b9fc4140ea8e080]
link :android:intent to :core:api--><path d="M1206.9563,291.0688 C1220.2791,319.4995 1246.4183,367.6395 1282,397 C1324.62,432.1682 1384.2057,454.2533 1427.4272,466.7199 " fill="none" id=":android:intent-&gt;:core:api" style="stroke: #A80036; stroke-width: 1.0;"/><polygon fill="#A80036" points="1432.3496,468.1186,1424.7857,461.8108,1427.54,466.7519,1422.599,469.5062,1432.3496,468.1186" style="stroke: #A80036; stroke-width: 1.0;"/><!--MD5=[99eb1f9ce8f3a5e1f5d168a23a4e6130]
link :android:account to :android:core--><path d="M522.7083,291.0004 C551.8645,307.8887 591.4819,330.8365 621.6704,348.3227 " fill="none" id=":android:account-&gt;:android:core" style="stroke: #A80036; stroke-width: 1.0;"/><polygon fill="#A80036" points="626.0537,350.8617,620.2708,342.8894,621.7271,348.3556,616.261,349.8119,626.0537,350.8617" style="stroke: #A80036; stroke-width: 1.0;"/><!--MD5=[ea06712275b471b139755bf35b876505]
link :android:roster to :android:core--><path d="M668.349,291.0004 C667.8961,307.003 667.2893,328.4461 666.8058,345.528 " fill="none" id=":android:roster-&gt;:android:core" style="stroke: #A80036; stroke-width: 1.0;"/><polygon fill="#A80036" points="666.66,350.6784,670.9132,341.7953,666.8016,345.6804,662.9164,341.5688,666.66,350.6784" style="stroke: #A80036; stroke-width: 1.0;"/><!--MD5=[27504143436bfd555a82356c36796927]
link :android:chat to :android:core--><path d="M803.8106,291.0004 C775.8846,307.8195 737.9798,330.6485 708.9914,348.1075 " fill="none" id=":android:chat-&gt;:android:core" style="stroke: #A80036; stroke-width: 1.0;"/><polygon fill="#A80036" points="704.4183,350.8617,714.1917,349.6447,708.7014,348.282,710.0642,342.7917,704.4183,350.8617" style="stroke: #A80036; stroke-width: 1.0;"/><!--MD5=[efb42bc9aa58ba14b70407a353d00396]
link :android:chat to :android:notification--><path d="M775.6533,286.7609 C769.7009,288.2638 763.752,289.7009 758,291 C630.5669,319.7821 481.627,344.9443 387.5609,359.8084 " fill="none" id=":android:chat-&gt;:android:notification" style="stroke: #A80036; stroke-width: 1.0;"/><polygon fill="#A80036" points="382.5648,360.5964,392.0781,363.1454,387.5037,359.8174,390.8317,355.2431,382.5648,360.5964" style="stroke: #A80036; stroke-width: 1.0;"/><!--MD5=[5767c1eae9a459def5cf537ae8640123]
link :android:chat to :android:widget--><path d="M842,291.0004 C842,307.003 842,328.4461 842,345.528 " fill="none" id=":android:chat-&gt;:android:widget" style="stroke: #A80036; stroke-width: 1.0;"/><polygon fill="#A80036" points="842,350.6784,846,341.6784,842,345.6784,838,341.6784,842,350.6784" style="stroke: #A80036; stroke-width: 1.0;"/><!--MD5=[d0c9adee400d99d2c7e70b3cbab35cf4]
link :android:chat to :core:cli--><path d="M908.3083,286.9365 C914.2689,288.4019 920.2302,289.7824 926,291 C1108.2964,329.4715 1327.9955,356.844 1427.0328,368.185 " fill="none" id=":android:chat-&gt;:core:cli" style="stroke: #A80036; stroke-width: 1.0;"/><polygon fill="#A80036" points="1432.2322,368.7784,1423.7439,363.7836,1427.2645,368.2114,1422.8367,371.732,1432.2322,368.7784" style="stroke: #A80036; stroke-width: 1.0;"/><!--MD5=[43e23cfb2d1172d7fb8288cf83bc1bf5]
link :android:drawer to :android:core--><path d="M369.6311,289.3232 C435.1076,308.0307 529.6931,335.0552 594.286,353.5103 " fill="none" id=":android:drawer-&gt;:android:core" style="stroke: #A80036; stroke-width: 1.0;"/><polygon fill="#A80036" points="599.2722,354.9349,591.7175,348.6161,594.4646,353.5612,589.5196,356.3083,599.2722,354.9349" style="stroke: #A80036; stroke-width: 1.0;"/><!--MD5=[7b3a637c57679a25661074470a3582ea]
link :android:widget to :android:resources--><path d="M822.9053,397.0004 C809.3911,413.2789 791.2032,435.1871 776.9069,452.4076 " fill="none" id=":android:widget-&gt;:android:resources" style="stroke: #A80036; stroke-width: 1.0;"/><polygon fill="#A80036" points="773.3613,456.6784,782.1877,452.3087,776.5551,452.8314,776.0325,447.1987,773.3613,456.6784" style="stroke: #A80036; stroke-width: 1.0;"/><!--MD5=[e5b52aacd6c9e8567a26aa6a4b3cfc3a]
link :core:cli to :engine:translator--><path d="M1507.7322,397.0286 C1523.7217,412.1865 1542.3274,433.5198 1551,457 C1559.3155,479.5134 1560.6761,489.037 1551,511 C1542.3953,530.5311 1525.915,547.1875 1509.9724,559.8065 " fill="none" id=":core:cli-&gt;:engine:translator" style="stroke: #A80036; stroke-width: 1.0;"/><polygon fill="#A80036" points="1505.9359,562.927,1515.5028,560.5871,1509.8917,559.8689,1510.6098,554.2578,1505.9359,562.927" style="stroke: #A80036; stroke-width: 1.0;"/><!--MD5=[c2bb4decd7a24ab2954465b21eb4e89b]
link :core:cli to :core:api--><path d="M1480.651,397.0004 C1481.1039,413.003 1481.7107,434.4461 1482.1942,451.528 " fill="none" id=":core:cli-&gt;:core:api" style="stroke: #A80036; stroke-width: 1.0;"/><polygon fill="#A80036" points="1482.34,456.6784,1486.0836,447.5688,1482.1984,451.6804,1478.0868,447.7953,1482.34,456.6784" style="stroke: #A80036; stroke-width: 1.0;"/><!--MD5=[c092ee46ff50f3ad0966693409762b2d]
link :android:app to :core:backend--><path d="M1100.1886,60.3364 C1221.9783,69.0316 1477.4748,89.6852 1511,112 C1556.1499,142.0523 1580.6265,203.5712 1591.6414,239.7273 " fill="none" id=":android:app-&gt;:core:backend" style="stroke: #A80036; stroke-width: 1.0;"/><polygon fill="#A80036" points="1593.1697,244.871,1594.4405,235.1045,1591.7455,240.0781,1586.7719,237.3831,1593.1697,244.871" style="stroke: #A80036; stroke-width: 1.0;"/><!--MD5=[f628b0d0476bcd96ad7e4bc9c88fe729]
link :android:app to :net:smack:android--><path d="M1100.2186,67.4948 C1150.7426,77.2561 1222.6182,92.7369 1284,112 C1306.2873,118.9943 1330.2032,128.2859 1350.966,136.9601 " fill="none" id=":android:app-&gt;:net:smack:android" style="stroke: #A80036; stroke-width: 1.0;"/><polygon fill="#A80036" points="1355.6208,138.9164,1348.8736,131.7417,1351.0114,136.9791,1345.774,139.1168,1355.6208,138.9164" style="stroke: #A80036; stroke-width: 1.0;"/><!--MD5=[a35988381a2e6516f16fc9d849ebccf6]
link :android:app to :android:room--><path d="M999.9805,79.0004 C973.6412,95.8195 937.8901,118.6485 910.5487,136.1075 " fill="none" id=":android:app-&gt;:android:room" style="stroke: #A80036; stroke-width: 1.0;"/><polygon fill="#A80036" points="906.2355,138.8617,915.9737,137.3892,910.4496,136.1707,911.6681,130.6467,906.2355,138.8617" style="stroke: #A80036; stroke-width: 1.0;"/><!--MD5=[e9fec9df6cff927a3d769895582165d1]
link :android:app to :android:sys--><path d="M971.758,63.7575 C888.7725,73.9498 739.8987,92.816 613,112 C535.1983,123.7617 446.1566,139.1802 386.6405,149.7684 " fill="none" id=":android:app-&gt;:android:sys" style="stroke: #A80036; stroke-width: 1.0;"/><polygon fill="#A80036" points="381.692,150.6498,391.254,153.0095,386.6145,149.773,389.851,145.1335,381.692,150.6498" style="stroke: #A80036; stroke-width: 1.0;"/><!--MD5=[ac117d8559748edfbe600e9405f9bdee]
link :android:app to :android:log--><path d="M1036,79.0004 C1036,95.003 1036,116.4461 1036,133.528 " fill="none" id=":android:app-&gt;:android:log" style="stroke: #A80036; stroke-width: 1.0;"/><polygon fill="#A80036" points="1036,138.6784,1040,129.6784,1036,133.6784,1032,129.6784,1036,138.6784" style="stroke: #A80036; stroke-width: 1.0;"/><!--MD5=[32c4354e0221cd2acf28738e9c0350e1]
link :android:app to :android:error--><path d="M1071.5856,79.0004 C1097.6075,95.8195 1132.9279,118.6485 1159.9399,136.1075 " fill="none" id=":android:app-&gt;:android:error" style="stroke: #A80036; stroke-width: 1.0;"/><polygon fill="#A80036" points="1164.2011,138.8617,1158.8139,130.6168,1160.0019,136.1475,1154.4712,137.3355,1164.2011,138.8617" style="stroke: #A80036; stroke-width: 1.0;"/><!--MD5=[de56f305491d2fe9d536387097efe455]
link :android:app to :android:main--><path d="M971.7488,64.6811 C919.8463,73.0082 845.5684,87.9321 784,112 C767.8192,118.3253 751.0759,127.3998 736.7105,136.0864 " fill="none" id=":android:app-&gt;:android:main" style="stroke: #A80036; stroke-width: 1.0;"/><polygon fill="#A80036" points="732.3319,138.7663,742.0964,137.4798,736.5966,136.1562,737.9202,130.6564,732.3319,138.7663" style="stroke: #A80036; stroke-width: 1.0;"/><!--MD5=[3436fb10c8ba61ce786314f80a0d5a02]
@startuml
package ":core" {
[:core:backend]
[:core:domain]
[:core:api]
[:core:cli]
}
package ":net" {
[:net:smack:android]
}
package ":android" {
[:android:room]
[:android:sys]
[:android:log]
[:android:error]
[:android:main]
[:android:indicator]
[:android:core]
[:android:notification]
[:android:resources]
[:android:debug]
[:android:intent]
[:android:account]
[:android:roster]
[:android:chat]
[:android:drawer]
[:android:widget]
[:android:app]
}
package ":engine" {
[:engine:paging]
[:engine:connectable]
[:engine:util]
[:engine:log]
[:engine:translator]
}
[:core:backend] - -> [:core:domain]
[:net:smack:android] - -> [:core:api]
[:android:room] - -> [:core:api]
[:android:sys] - -> [:android:indicator]
[:android:log] - -> [:engine:log]
[:android:error] - -> [:engine:log]
[:android:main] - -> [:android:debug]
[:android:main] - -> [:android:intent]
[:android:main] - -> [:android:account]
[:android:main] - -> [:android:roster]
[:android:main] - -> [:android:chat]
[:android:main] - -> [:android:drawer]
[:android:main] - -> [:core:domain]
[:core:domain] - -> [:engine:paging]
[:core:domain] - -> [:core:api]
[:core:api] - -> [:engine:connectable]
[:engine:connectable] - -> [:engine:util]
[:engine:connectable] - -> [:engine:log]
[:android:indicator] - -> [:android:core]
[:android:indicator] - -> [:android:notification]
[:android:core] - -> [:core:api]
[:android:core] - -> [:android:resources]
[:android:debug] - -> [:core:api]
[:android:intent] - -> [:core:api]
[:android:account] - -> [:android:core]
[:android:roster] - -> [:android:core]
[:android:chat] - -> [:android:core]
[:android:chat] - -> [:android:notification]
[:android:chat] - -> [:android:widget]
[:android:chat] - -> [:core:cli]
[:android:drawer] - -> [:android:core]
[:android:widget] - -> [:android:resources]
[:core:cli] - -> [:engine:translator]
[:core:cli] - -> [:core:api]
[:android:app] - -> [:core:backend]
[:android:app] - -> [:net:smack:android]
[:android:app] - -> [:android:room]
[:android:app] - -> [:android:sys]
[:android:app] - -> [:android:log]
[:android:app] - -> [:android:error]
[:android:app] - -> [:android:main]
@enduml

PlantUML version 1.2020.15(Sun Jun 28 13:39:45 CEST 2020)
(GPL source distribution)
Java Runtime: OpenJDK Runtime Environment
JVM: OpenJDK 64-Bit Server VM
Default Encoding: UTF-8
Language: pl
Country: PL
--></g></svg>
