<?xml version="1.0" encoding="UTF-8" standalone="no"?><svg xmlns="http://www.w3.org/2000/svg" xmlns:xlink="http://www.w3.org/1999/xlink" contentScriptType="application/ecmascript" contentStyleType="text/css" height="523px" preserveAspectRatio="none" style="width:650px;height:523px;" version="1.1" viewBox="0 0 650 523" width="650px" zoomAndPan="magnify"><defs><filter height="300%" id="f1pam4qcem82yl" width="300%" x="-1" y="-1"><feGaussianBlur result="blurOut" stdDeviation="2.0"/><feColorMatrix in="blurOut" result="blurOut2" type="matrix" values="0 0 0 0 0 0 0 0 0 0 0 0 0 0 0 0 0 0 .4 0"/><feOffset dx="4.0" dy="4.0" in="blurOut2" result="blurOut3"/><feBlend in="SourceGraphic" in2="blurOut3" mode="normal"/></filter></defs><g><!--MD5=[6ed0a4222646c4be5d3ab2314135a570]
cluster :engine--><polygon fill="#FFFFFF" filter="url(#f1pam4qcem82yl)" points="265,218,331,218,338,240.2969,628,240.2969,628,511,265,511,265,218" style="stroke: #000000; stroke-width: 1.5;"/><line style="stroke: #000000; stroke-width: 1.5;" x1="265" x2="338" y1="240.2969" y2="240.2969"/><text fill="#000000" font-family="sans-serif" font-size="14" font-weight="bold" lengthAdjust="spacingAndGlyphs" textLength="60" x="269" y="232.9951">:engine</text><!--MD5=[38bed82ef403f43335b5f79c3bac3389]
cluster :jvm--><polygon fill="#FFFFFF" filter="url(#f1pam4qcem82yl)" points="16,6,55,6,62,28.2969,126,28.2969,126,193,16,193,16,6" style="stroke: #000000; stroke-width: 1.5;"/><line style="stroke: #000000; stroke-width: 1.5;" x1="16" x2="62" y1="28.2969" y2="28.2969"/><text fill="#000000" font-family="sans-serif" font-size="14" font-weight="bold" lengthAdjust="spacingAndGlyphs" textLength="33" x="20" y="20.9951">:jvm</text><!--MD5=[30404b2edc0ff233b9122d63ae72b243]
cluster :core--><polygon fill="#FFFFFF" filter="url(#f1pam4qcem82yl)" points="139,112,187,112,194,134.2969,257,134.2969,257,299,139,299,139,112" style="stroke: #000000; stroke-width: 1.5;"/><line style="stroke: #000000; stroke-width: 1.5;" x1="139" x2="194" y1="134.2969" y2="134.2969"/><text fill="#000000" font-family="sans-serif" font-size="14" font-weight="bold" lengthAdjust="spacingAndGlyphs" textLength="42" x="143" y="126.9951">:core</text><!--MD5=[486755d95e08f80cb04a0aa885580c7b]
entity :engine:net--><rect fill="#FEFECE" filter="url(#f1pam4qcem82yl)" height="46.2969" style="stroke: #A80036; stroke-width: 1.5;" width="121" x="481.5" y="245"/><rect fill="#FEFECE" height="10" style="stroke: #A80036; stroke-width: 1.5;" width="15" x="582.5" y="250"/><rect fill="#FEFECE" height="2" style="stroke: #A80036; stroke-width: 1.5;" width="4" x="580.5" y="252"/><rect fill="#FEFECE" height="2" style="stroke: #A80036; stroke-width: 1.5;" width="4" x="580.5" y="256"/><text fill="#000000" font-family="sans-serif" font-size="14" lengthAdjust="spacingAndGlyphs" textLength="81" x="496.5" y="277.9951">:engine:net</text><!--MD5=[474bc7754ff50e9887f34633b92b9e02]
entity :engine:connectable--><rect fill="#FEFECE" filter="url(#f1pam4qcem82yl)" height="46.2969" style="stroke: #A80036; stroke-width: 1.5;" width="184" x="273" y="351"/><rect fill="#FEFECE" height="10" style="stroke: #A80036; stroke-width: 1.5;" width="15" x="437" y="356"/><rect fill="#FEFECE" height="2" style="stroke: #A80036; stroke-width: 1.5;" width="4" x="435" y="358"/><rect fill="#FEFECE" height="2" style="stroke: #A80036; stroke-width: 1.5;" width="4" x="435" y="362"/><text fill="#000000" font-family="sans-serif" font-size="14" lengthAdjust="spacingAndGlyphs" textLength="144" x="288" y="383.9951">:engine:connectable</text><!--MD5=[de9e9b3b438569aa67cb351d8b039e39]
entity :engine:json--><rect fill="#FEFECE" filter="url(#f1pam4qcem82yl)" height="46.2969" style="stroke: #A80036; stroke-width: 1.5;" width="127" x="492.5" y="351"/><rect fill="#FEFECE" height="10" style="stroke: #A80036; stroke-width: 1.5;" width="15" x="599.5" y="356"/><rect fill="#FEFECE" height="2" style="stroke: #A80036; stroke-width: 1.5;" width="4" x="597.5" y="358"/><rect fill="#FEFECE" height="2" style="stroke: #A80036; stroke-width: 1.5;" width="4" x="597.5" y="362"/><text fill="#000000" font-family="sans-serif" font-size="14" lengthAdjust="spacingAndGlyphs" textLength="87" x="507.5" y="383.9951">:engine:json</text><!--MD5=[8e94acc19a10f03efd288fb36eb4472b]
entity :engine:util--><rect fill="#FEFECE" filter="url(#f1pam4qcem82yl)" height="46.2969" style="stroke: #A80036; stroke-width: 1.5;" width="118" x="428" y="457"/><rect fill="#FEFECE" height="10" style="stroke: #A80036; stroke-width: 1.5;" width="15" x="526" y="462"/><rect fill="#FEFECE" height="2" style="stroke: #A80036; stroke-width: 1.5;" width="4" x="524" y="464"/><rect fill="#FEFECE" height="2" style="stroke: #A80036; stroke-width: 1.5;" width="4" x="524" y="468"/><text fill="#000000" font-family="sans-serif" font-size="14" lengthAdjust="spacingAndGlyphs" textLength="78" x="443" y="489.9951">:engine:util</text><!--MD5=[f7af38a47341a5d6bbb7054022a18e1f]
entity :engine:log--><rect fill="#FEFECE" filter="url(#f1pam4qcem82yl)" height="46.2969" style="stroke: #A80036; stroke-width: 1.5;" width="119" x="273.5" y="457"/><rect fill="#FEFECE" height="10" style="stroke: #A80036; stroke-width: 1.5;" width="15" x="372.5" y="462"/><rect fill="#FEFECE" height="2" style="stroke: #A80036; stroke-width: 1.5;" width="4" x="370.5" y="464"/><rect fill="#FEFECE" height="2" style="stroke: #A80036; stroke-width: 1.5;" width="4" x="370.5" y="468"/><text fill="#000000" font-family="sans-serif" font-size="14" lengthAdjust="spacingAndGlyphs" textLength="79" x="288.5" y="489.9951">:engine:log</text><!--MD5=[9cb9b296c1f7d1e8bceacf7e776ceb9f]
entity :engine:translator--><rect fill="#FEFECE" filter="url(#f1pam4qcem82yl)" height="46.2969" style="stroke: #A80036; stroke-width: 1.5;" width="163" x="283.5" y="245"/><rect fill="#FEFECE" height="10" style="stroke: #A80036; stroke-width: 1.5;" width="15" x="426.5" y="250"/><rect fill="#FEFECE" height="2" style="stroke: #A80036; stroke-width: 1.5;" width="4" x="424.5" y="252"/><rect fill="#FEFECE" height="2" style="stroke: #A80036; stroke-width: 1.5;" width="4" x="424.5" y="256"/><text fill="#000000" font-family="sans-serif" font-size="14" lengthAdjust="spacingAndGlyphs" textLength="123" x="298.5" y="277.9951">:engine:translator</text><!--MD5=[278891ff76fd9b0eb7ee7029fade1047]
entity :jvm:log--><rect fill="#FEFECE" filter="url(#f1pam4qcem82yl)" height="46.2969" style="stroke: #A80036; stroke-width: 1.5;" width="94" x="24" y="139"/><rect fill="#FEFECE" height="10" style="stroke: #A80036; stroke-width: 1.5;" width="15" x="98" y="144"/><rect fill="#FEFECE" height="2" style="stroke: #A80036; stroke-width: 1.5;" width="4" x="96" y="146"/><rect fill="#FEFECE" height="2" style="stroke: #A80036; stroke-width: 1.5;" width="4" x="96" y="150"/><text fill="#000000" font-family="sans-serif" font-size="14" lengthAdjust="spacingAndGlyphs" textLength="54" x="39" y="171.9951">:jvm:log</text><!--MD5=[a8cbaa61871035add2cbb46255d255c4]
entity :jvm:cli--><rect fill="#FEFECE" filter="url(#f1pam4qcem82yl)" height="46.2969" style="stroke: #A80036; stroke-width: 1.5;" width="87" x="30.5" y="33"/><rect fill="#FEFECE" height="10" style="stroke: #A80036; stroke-width: 1.5;" width="15" x="97.5" y="38"/><rect fill="#FEFECE" height="2" style="stroke: #A80036; stroke-width: 1.5;" width="4" x="95.5" y="40"/><rect fill="#FEFECE" height="2" style="stroke: #A80036; stroke-width: 1.5;" width="4" x="95.5" y="44"/><text fill="#000000" font-family="sans-serif" font-size="14" lengthAdjust="spacingAndGlyphs" textLength="47" x="45.5" y="65.9951">:jvm:cli</text><!--MD5=[b4e25f7522ba1111eb2df4fe1b5db7c7]
entity :core:cli--><rect fill="#FEFECE" filter="url(#f1pam4qcem82yl)" height="46.2969" style="stroke: #A80036; stroke-width: 1.5;" width="95" x="153.5" y="139"/><rect fill="#FEFECE" height="10" style="stroke: #A80036; stroke-width: 1.5;" width="15" x="228.5" y="144"/><rect fill="#FEFECE" height="2" style="stroke: #A80036; stroke-width: 1.5;" width="4" x="226.5" y="146"/><rect fill="#FEFECE" height="2" style="stroke: #A80036; stroke-width: 1.5;" width="4" x="226.5" y="150"/><text fill="#000000" font-family="sans-serif" font-size="14" lengthAdjust="spacingAndGlyphs" textLength="55" x="168.5" y="171.9951">:core:cli</text><!--MD5=[bb042d61f43125fc2fe6ee382cb3d84b]
entity :core:api--><rect fill="#FEFECE" filter="url(#f1pam4qcem82yl)" height="46.2969" style="stroke: #A80036; stroke-width: 1.5;" width="101" x="147.5" y="245"/><rect fill="#FEFECE" height="10" style="stroke: #A80036; stroke-width: 1.5;" width="15" x="228.5" y="250"/><rect fill="#FEFECE" height="2" style="stroke: #A80036; stroke-width: 1.5;" width="4" x="226.5" y="252"/><rect fill="#FEFECE" height="2" style="stroke: #A80036; stroke-width: 1.5;" width="4" x="226.5" y="256"/><text fill="#000000" font-family="sans-serif" font-size="14" lengthAdjust="spacingAndGlyphs" textLength="61" x="162.5" y="277.9951">:core:api</text><!--MD5=[d2d1f0be6436256e6d977803045f7553]
link :engine:net to :engine:connectable--><path d="M503.5936,291.0004 C475.509,307.8195 437.3888,330.6485 408.2356,348.1075 " fill="none" id=":engine:net-&gt;:engine:connectable" style="stroke: #A80036; stroke-width: 1.0;"/><polygon fill="#A80036" points="403.6366,350.8617,413.413,349.6692,407.9262,348.2927,409.3026,342.8059,403.6366,350.8617" style="stroke: #A80036; stroke-width: 1.0;"/><!--MD5=[9e0cd9895457fd564306a213d979b005]
link :engine:net to :engine:json--><path d="M545.0378,291.0004 C547.1513,307.003 549.9834,328.4461 552.2395,345.528 " fill="none" id=":engine:net-&gt;:engine:json" style="stroke: #A80036; stroke-width: 1.0;"/><polygon fill="#A80036" points="552.9198,350.6784,555.7069,341.2321,552.2651,345.7215,547.7757,342.2797,552.9198,350.6784" style="stroke: #A80036; stroke-width: 1.0;"/><!--MD5=[7e35b258ed27b7b9efdd5355b20d38a8]
link :jvm:log to :engine:log--><path d="M77.762,185.1342 C86.8365,213.7002 104.8913,262.9255 131,299 C177.6702,363.4846 250.7858,421.7304 295.0704,453.8586 " fill="none" id=":jvm:log-&gt;:engine:log" style="stroke: #A80036; stroke-width: 1.0;"/><polygon fill="#A80036" points="299.2642,456.8855,294.3076,448.3748,295.2099,453.9592,289.6255,454.8616,299.2642,456.8855" style="stroke: #A80036; stroke-width: 1.0;"/><!--MD5=[e5b52aacd6c9e8567a26aa6a4b3cfc3a]
link :core:cli to :engine:translator--><path d="M236.5856,185.0004 C262.6075,201.8195 297.9279,224.6485 324.9399,242.1075 " fill="none" id=":core:cli-&gt;:engine:translator" style="stroke: #A80036; stroke-width: 1.0;"/><polygon fill="#A80036" points="329.2011,244.8617,323.8139,236.6168,325.0019,242.1475,319.4712,243.3355,329.2011,244.8617" style="stroke: #A80036; stroke-width: 1.0;"/><!--MD5=[c2bb4decd7a24ab2954465b21eb4e89b]
link :core:cli to :core:api--><path d="M200.349,185.0004 C199.8961,201.003 199.2893,222.4461 198.8058,239.528 " fill="none" id=":core:cli-&gt;:core:api" style="stroke: #A80036; stroke-width: 1.0;"/><polygon fill="#A80036" points="198.66,244.6784,202.9132,235.7953,198.8016,239.6804,194.9164,235.5688,198.66,244.6784" style="stroke: #A80036; stroke-width: 1.0;"/><!--MD5=[bca29f017d1f9d57df28eb8d83e96ded]
link :engine:connectable to :engine:util--><path d="M391.4722,397.0004 C410.5253,413.5548 436.2795,435.9314 456.2458,453.2791 " fill="none" id=":engine:connectable-&gt;:engine:util" style="stroke: #A80036; stroke-width: 1.0;"/><polygon fill="#A80036" points="460.1582,456.6784,455.9879,447.7561,456.3838,453.399,450.7409,453.795,460.1582,456.6784" style="stroke: #A80036; stroke-width: 1.0;"/><!--MD5=[6eb7bccd1a3c6d4cd083766ccbfc4317]
link :engine:connectable to :engine:log--><path d="M358.0565,397.0004 C353.2255,413.003 346.7521,434.4461 341.5953,451.528 " fill="none" id=":engine:connectable-&gt;:engine:log" style="stroke: #A80036; stroke-width: 1.0;"/><polygon fill="#A80036" points="340.0405,456.6784,346.471,449.2186,341.4856,451.8918,338.8124,446.9064,340.0405,456.6784" style="stroke: #A80036; stroke-width: 1.0;"/><!--MD5=[eaf14edc6043f7290cbfd1583ac6425c]
link :core:api to :engine:connectable--><path d="M234.2365,291.0004 C260.7345,307.8195 296.701,330.6485 324.2071,348.1075 " fill="none" id=":core:api-&gt;:engine:connectable" style="stroke: #A80036; stroke-width: 1.0;"/><polygon fill="#A80036" points="328.5462,350.8617,323.0911,342.6616,324.3248,348.1823,318.804,349.4159,328.5462,350.8617" style="stroke: #A80036; stroke-width: 1.0;"/><!--MD5=[c05ff142796101709e7d542f158e6a97]
link :jvm:cli to :engine:net--><path d="M117.7188,66.1081 C157.0002,75.8229 215.8863,91.9654 265,112 C357.7862,149.8497 377.5256,167.3636 464,218 C476.8567,225.5285 490.621,234.1546 502.953,242.0986 " fill="none" id=":jvm:cli-&gt;:engine:net" style="stroke: #A80036; stroke-width: 1.0;"/><polygon fill="#A80036" points="507.4272,244.9912,502.0409,236.7457,503.2283,242.2766,497.6975,243.464,507.4272,244.9912" style="stroke: #A80036; stroke-width: 1.0;"/><!--MD5=[35d89bed032ef51c7a28171fa08d955c]
link :jvm:cli to :jvm:log--><path d="M73.349,79.0004 C72.8961,95.003 72.2893,116.4461 71.8058,133.528 " fill="none" id=":jvm:cli-&gt;:jvm:log" style="stroke: #A80036; stroke-width: 1.0;"/><polygon fill="#A80036" points="71.66,138.6784,75.9132,129.7953,71.8016,133.6804,67.9164,129.5688,71.66,138.6784" style="stroke: #A80036; stroke-width: 1.0;"/><!--MD5=[7d821382eab19fa928c627b89af2ab8f]
link :jvm:cli to :core:cli--><path d="M101.5571,79.0004 C121.3911,95.5548 148.2008,117.9314 168.9854,135.2791 " fill="none" id=":jvm:cli-&gt;:core:cli" style="stroke: #A80036; stroke-width: 1.0;"/><polygon fill="#A80036" points="173.0581,138.6784,168.7117,129.8405,169.2195,135.4745,163.5855,135.9823,173.0581,138.6784" style="stroke: #A80036; stroke-width: 1.0;"/><!--MD5=[03240437d20099a930692f4ac6265ee6]
@startuml
package ":engine" {
[:engine:net]
[:engine:connectable]
[:engine:json]
[:engine:util]
[:engine:log]
[:engine:translator]
}
package ":jvm" {
[:jvm:log]
[:jvm:cli]
}
package ":core" {
[:core:cli]
[:core:api]
}
[:engine:net] - -> [:engine:connectable]
[:engine:net] - -> [:engine:json]
[:jvm:log] - -> [:engine:log]
[:core:cli] - -> [:engine:translator]
[:core:cli] - -> [:core:api]
[:engine:connectable] - -> [:engine:util]
[:engine:connectable] - -> [:engine:log]
[:core:api] - -> [:engine:connectable]
[:jvm:cli] - -> [:engine:net]
[:jvm:cli] - -> [:jvm:log]
[:jvm:cli] - -> [:core:cli]
@enduml

PlantUML version 1.2020.15(Sun Jun 28 13:39:45 CEST 2020)
(GPL source distribution)
Java Runtime: OpenJDK Runtime Environment
JVM: OpenJDK 64-Bit Server VM
Default Encoding: UTF-8
Language: pl
Country: PL
--></g></svg>