<?xml version="1.0" encoding="UTF-8" standalone="no"?><svg xmlns="http://www.w3.org/2000/svg" xmlns:xlink="http://www.w3.org/1999/xlink" contentScriptType="application/ecmascript" contentStyleType="text/css" height="629px" preserveAspectRatio="none" style="width:1761px;height:629px;" version="1.1" viewBox="0 0 1761 629" width="1761px" zoomAndPan="magnify"><defs><filter height="300%" id="fg69uygt881mg" width="300%" x="-1" y="-1"><feGaussianBlur result="blurOut" stdDeviation="2.0"/><feColorMatrix in="blurOut" result="blurOut2" type="matrix" values="0 0 0 0 0 0 0 0 0 0 0 0 0 0 0 0 0 0 .4 0"/><feOffset dx="4.0" dy="4.0" in="blurOut2" result="blurOut3"/><feBlend in="SourceGraphic" in2="blurOut3" mode="normal"/></filter></defs><g><!--MD5=[aae699ec891e4c0fc5af03006e3188bf]
cluster :platform--><polygon fill="#FFFFFF" filter="url(#fg69uygt881mg)" points="16,112,94,112,101,134.2969,1089,134.2969,1089,299,16,299,16,112" style="stroke: #000000; stroke-width: 1.5;"/><line style="stroke: #000000; stroke-width: 1.5;" x1="16" x2="101" y1="134.2969" y2="134.2969"/><text fill="#000000" font-family="sans-serif" font-size="14" font-weight="bold" lengthAdjust="spacingAndGlyphs" textLength="72" x="20" y="126.9951">:platform</text><!--MD5=[6ed0a4222646c4be5d3ab2314135a570]
cluster :engine--><polygon fill="#FFFFFF" filter="url(#fg69uygt881mg)" points="1273,324,1339,324,1346,346.2969,1739,346.2969,1739,617,1273,617,1273,324" style="stroke: #000000; stroke-width: 1.5;"/><line style="stroke: #000000; stroke-width: 1.5;" x1="1273" x2="1346" y1="346.2969" y2="346.2969"/><text fill="#000000" font-family="sans-serif" font-size="14" font-weight="bold" lengthAdjust="spacingAndGlyphs" textLength="60" x="1277" y="338.9951">:engine</text><!--MD5=[30404b2edc0ff233b9122d63ae72b243]
cluster :core--><polygon fill="#FFFFFF" filter="url(#fg69uygt881mg)" points="1107,112,1155,112,1162,134.2969,1265,134.2969,1265,405,1107,405,1107,112" style="stroke: #000000; stroke-width: 1.5;"/><line style="stroke: #000000; stroke-width: 1.5;" x1="1107" x2="1162" y1="134.2969" y2="134.2969"/><text fill="#000000" font-family="sans-serif" font-size="14" font-weight="bold" lengthAdjust="spacingAndGlyphs" textLength="42" x="1111" y="126.9951">:core</text><!--MD5=[8e4c312b0b41d0712f148ccd6208f491]
cluster :app--><polygon fill="#FFFFFF" filter="url(#fg69uygt881mg)" points="786,6,827,6,834,28.2969,950,28.2969,950,87,786,87,786,6" style="stroke: #000000; stroke-width: 1.5;"/><line style="stroke: #000000; stroke-width: 1.5;" x1="786" x2="834" y1="28.2969" y2="28.2969"/><text fill="#000000" font-family="sans-serif" font-size="14" font-weight="bold" lengthAdjust="spacingAndGlyphs" textLength="35" x="790" y="20.9951">:app</text><!--MD5=[4ffd662150785d6dda3a3258ce5e13fa]
entity :platform:repo:ormlite--><rect fill="#FEFECE" filter="url(#fg69uygt881mg)" height="46.2969" style="stroke: #A80036; stroke-width: 1.5;" width="190" x="215" y="139"/><rect fill="#FEFECE" height="10" style="stroke: #A80036; stroke-width: 1.5;" width="15" x="385" y="144"/><rect fill="#FEFECE" height="2" style="stroke: #A80036; stroke-width: 1.5;" width="4" x="383" y="146"/><rect fill="#FEFECE" height="2" style="stroke: #A80036; stroke-width: 1.5;" width="4" x="383" y="150"/><text fill="#000000" font-family="sans-serif" font-size="14" lengthAdjust="spacingAndGlyphs" textLength="150" x="230" y="171.9951">:platform:repo:ormlite</text><!--MD5=[663a6ddf3744ddae5b976ce10635eef4]
entity :platform:util:ormlite:jvm--><rect fill="#FEFECE" filter="url(#fg69uygt881mg)" height="46.2969" style="stroke: #A80036; stroke-width: 1.5;" width="206" x="440" y="139"/><rect fill="#FEFECE" height="10" style="stroke: #A80036; stroke-width: 1.5;" width="15" x="626" y="144"/><rect fill="#FEFECE" height="2" style="stroke: #A80036; stroke-width: 1.5;" width="4" x="624" y="146"/><rect fill="#FEFECE" height="2" style="stroke: #A80036; stroke-width: 1.5;" width="4" x="624" y="150"/><text fill="#000000" font-family="sans-serif" font-size="14" lengthAdjust="spacingAndGlyphs" textLength="166" x="455" y="171.9951">:platform:util:ormlite:jvm</text><!--MD5=[a042e4f27832620dd3bf66665314ddfe]
entity :platform:sys:jvm--><rect fill="#FEFECE" filter="url(#fg69uygt881mg)" height="46.2969" style="stroke: #A80036; stroke-width: 1.5;" width="157" x="681.5" y="139"/><rect fill="#FEFECE" height="10" style="stroke: #A80036; stroke-width: 1.5;" width="15" x="818.5" y="144"/><rect fill="#FEFECE" height="2" style="stroke: #A80036; stroke-width: 1.5;" width="4" x="816.5" y="146"/><rect fill="#FEFECE" height="2" style="stroke: #A80036; stroke-width: 1.5;" width="4" x="816.5" y="150"/><text fill="#000000" font-family="sans-serif" font-size="14" lengthAdjust="spacingAndGlyphs" textLength="117" x="696.5" y="171.9951">:platform:sys:jvm</text><!--MD5=[06041477aeb851ec1f14a811c8a02b53]
entity :platform:net:smack:jvm--><rect fill="#FEFECE" filter="url(#fg69uygt881mg)" height="46.2969" style="stroke: #A80036; stroke-width: 1.5;" width="207" x="873.5" y="139"/><rect fill="#FEFECE" height="10" style="stroke: #A80036; stroke-width: 1.5;" width="15" x="1060.5" y="144"/><rect fill="#FEFECE" height="2" style="stroke: #A80036; stroke-width: 1.5;" width="4" x="1058.5" y="146"/><rect fill="#FEFECE" height="2" style="stroke: #A80036; stroke-width: 1.5;" width="4" x="1058.5" y="150"/><text fill="#000000" font-family="sans-serif" font-size="14" lengthAdjust="spacingAndGlyphs" textLength="167" x="888.5" y="171.9951">:platform:net:smack:jvm</text><!--MD5=[e9b68b4f7f0bf6e331dd03797eba429d]
entity :platform:log:jvm--><rect fill="#FEFECE" filter="url(#fg69uygt881mg)" height="46.2969" style="stroke: #A80036; stroke-width: 1.5;" width="155" x="24.5" y="139"/><rect fill="#FEFECE" height="10" style="stroke: #A80036; stroke-width: 1.5;" width="15" x="159.5" y="144"/><rect fill="#FEFECE" height="2" style="stroke: #A80036; stroke-width: 1.5;" width="4" x="157.5" y="146"/><rect fill="#FEFECE" height="2" style="stroke: #A80036; stroke-width: 1.5;" width="4" x="157.5" y="150"/><text fill="#000000" font-family="sans-serif" font-size="14" lengthAdjust="spacingAndGlyphs" textLength="115" x="39.5" y="171.9951">:platform:log:jvm</text><!--MD5=[9d29e2c13cd461e9c34f90ab01bc7bdd]
entity :platform:util:ormlite--><rect fill="#FEFECE" filter="url(#fg69uygt881mg)" height="46.2969" style="stroke: #A80036; stroke-width: 1.5;" width="178" x="443" y="245"/><rect fill="#FEFECE" height="10" style="stroke: #A80036; stroke-width: 1.5;" width="15" x="601" y="250"/><rect fill="#FEFECE" height="2" style="stroke: #A80036; stroke-width: 1.5;" width="4" x="599" y="252"/><rect fill="#FEFECE" height="2" style="stroke: #A80036; stroke-width: 1.5;" width="4" x="599" y="256"/><text fill="#000000" font-family="sans-serif" font-size="14" lengthAdjust="spacingAndGlyphs" textLength="138" x="458" y="277.9951">:platform:util:ormlite</text><!--MD5=[c4c8b9cb9b5eba97e0361bb7b64acfa2]
entity :platform:repo:data--><rect fill="#FEFECE" filter="url(#fg69uygt881mg)" height="46.2969" style="stroke: #A80036; stroke-width: 1.5;" width="173" x="228.5" y="245"/><rect fill="#FEFECE" height="10" style="stroke: #A80036; stroke-width: 1.5;" width="15" x="381.5" y="250"/><rect fill="#FEFECE" height="2" style="stroke: #A80036; stroke-width: 1.5;" width="4" x="379.5" y="252"/><rect fill="#FEFECE" height="2" style="stroke: #A80036; stroke-width: 1.5;" width="4" x="379.5" y="256"/><text fill="#000000" font-family="sans-serif" font-size="14" lengthAdjust="spacingAndGlyphs" textLength="133" x="243.5" y="277.9951">:platform:repo:data</text><!--MD5=[9bbd7ab922207c63f4b7b7aee4cac83f]
entity :platform:sys:mock--><rect fill="#FEFECE" filter="url(#fg69uygt881mg)" height="46.2969" style="stroke: #A80036; stroke-width: 1.5;" width="172" x="676" y="245"/><rect fill="#FEFECE" height="10" style="stroke: #A80036; stroke-width: 1.5;" width="15" x="828" y="250"/><rect fill="#FEFECE" height="2" style="stroke: #A80036; stroke-width: 1.5;" width="4" x="826" y="252"/><rect fill="#FEFECE" height="2" style="stroke: #A80036; stroke-width: 1.5;" width="4" x="826" y="256"/><text fill="#000000" font-family="sans-serif" font-size="14" lengthAdjust="spacingAndGlyphs" textLength="132" x="691" y="277.9951">:platform:sys:mock</text><!--MD5=[b1a5c1b7043cf28b088abaf3e6a555a0]
entity :engine:cli--><rect fill="#FEFECE" filter="url(#fg69uygt881mg)" height="46.2969" style="stroke: #A80036; stroke-width: 1.5;" width="112" x="1462" y="351"/><rect fill="#FEFECE" height="10" style="stroke: #A80036; stroke-width: 1.5;" width="15" x="1554" y="356"/><rect fill="#FEFECE" height="2" style="stroke: #A80036; stroke-width: 1.5;" width="4" x="1552" y="358"/><rect fill="#FEFECE" height="2" style="stroke: #A80036; stroke-width: 1.5;" width="4" x="1552" y="362"/><text fill="#000000" font-family="sans-serif" font-size="14" lengthAdjust="spacingAndGlyphs" textLength="72" x="1477" y="383.9951">:engine:cli</text><!--MD5=[486755d95e08f80cb04a0aa885580c7b]
entity :engine:net--><rect fill="#FEFECE" filter="url(#fg69uygt881mg)" height="46.2969" style="stroke: #A80036; stroke-width: 1.5;" width="121" x="1609.5" y="351"/><rect fill="#FEFECE" height="10" style="stroke: #A80036; stroke-width: 1.5;" width="15" x="1710.5" y="356"/><rect fill="#FEFECE" height="2" style="stroke: #A80036; stroke-width: 1.5;" width="4" x="1708.5" y="358"/><rect fill="#FEFECE" height="2" style="stroke: #A80036; stroke-width: 1.5;" width="4" x="1708.5" y="362"/><text fill="#000000" font-family="sans-serif" font-size="14" lengthAdjust="spacingAndGlyphs" textLength="81" x="1624.5" y="383.9951">:engine:net</text><!--MD5=[474bc7754ff50e9887f34633b92b9e02]
entity :engine:connectable--><rect fill="#FEFECE" filter="url(#fg69uygt881mg)" height="46.2969" style="stroke: #A80036; stroke-width: 1.5;" width="184" x="1333" y="457"/><rect fill="#FEFECE" height="10" style="stroke: #A80036; stroke-width: 1.5;" width="15" x="1497" y="462"/><rect fill="#FEFECE" height="2" style="stroke: #A80036; stroke-width: 1.5;" width="4" x="1495" y="464"/><rect fill="#FEFECE" height="2" style="stroke: #A80036; stroke-width: 1.5;" width="4" x="1495" y="468"/><text fill="#000000" font-family="sans-serif" font-size="14" lengthAdjust="spacingAndGlyphs" textLength="144" x="1348" y="489.9951">:engine:connectable</text><!--MD5=[8e94acc19a10f03efd288fb36eb4472b]
entity :engine:util--><rect fill="#FEFECE" filter="url(#fg69uygt881mg)" height="46.2969" style="stroke: #A80036; stroke-width: 1.5;" width="118" x="1436" y="563"/><rect fill="#FEFECE" height="10" style="stroke: #A80036; stroke-width: 1.5;" width="15" x="1534" y="568"/><rect fill="#FEFECE" height="2" style="stroke: #A80036; stroke-width: 1.5;" width="4" x="1532" y="570"/><rect fill="#FEFECE" height="2" style="stroke: #A80036; stroke-width: 1.5;" width="4" x="1532" y="574"/><text fill="#000000" font-family="sans-serif" font-size="14" lengthAdjust="spacingAndGlyphs" textLength="78" x="1451" y="595.9951">:engine:util</text><!--MD5=[f7af38a47341a5d6bbb7054022a18e1f]
entity :engine:log--><rect fill="#FEFECE" filter="url(#fg69uygt881mg)" height="46.2969" style="stroke: #A80036; stroke-width: 1.5;" width="119" x="1281.5" y="563"/><rect fill="#FEFECE" height="10" style="stroke: #A80036; stroke-width: 1.5;" width="15" x="1380.5" y="568"/><rect fill="#FEFECE" height="2" style="stroke: #A80036; stroke-width: 1.5;" width="4" x="1378.5" y="570"/><rect fill="#FEFECE" height="2" style="stroke: #A80036; stroke-width: 1.5;" width="4" x="1378.5" y="574"/><text fill="#000000" font-family="sans-serif" font-size="14" lengthAdjust="spacingAndGlyphs" textLength="79" x="1296.5" y="595.9951">:engine:log</text><!--MD5=[8725e2f32c833bede44e6c458fce3254]
entity :engine:paging--><rect fill="#FEFECE" filter="url(#fg69uygt881mg)" height="46.2969" style="stroke: #A80036; stroke-width: 1.5;" width="145" x="1281.5" y="351"/><rect fill="#FEFECE" height="10" style="stroke: #A80036; stroke-width: 1.5;" width="15" x="1406.5" y="356"/><rect fill="#FEFECE" height="2" style="stroke: #A80036; stroke-width: 1.5;" width="4" x="1404.5" y="358"/><rect fill="#FEFECE" height="2" style="stroke: #A80036; stroke-width: 1.5;" width="4" x="1404.5" y="362"/><text fill="#000000" font-family="sans-serif" font-size="14" lengthAdjust="spacingAndGlyphs" textLength="105" x="1296.5" y="383.9951">:engine:paging</text><!--MD5=[de9e9b3b438569aa67cb351d8b039e39]
entity :engine:json--><rect fill="#FEFECE" filter="url(#fg69uygt881mg)" height="46.2969" style="stroke: #A80036; stroke-width: 1.5;" width="127" x="1603.5" y="457"/><rect fill="#FEFECE" height="10" style="stroke: #A80036; stroke-width: 1.5;" width="15" x="1710.5" y="462"/><rect fill="#FEFECE" height="2" style="stroke: #A80036; stroke-width: 1.5;" width="4" x="1708.5" y="464"/><rect fill="#FEFECE" height="2" style="stroke: #A80036; stroke-width: 1.5;" width="4" x="1708.5" y="468"/><text fill="#000000" font-family="sans-serif" font-size="14" lengthAdjust="spacingAndGlyphs" textLength="87" x="1618.5" y="489.9951">:engine:json</text><!--MD5=[6b3c72c52f198a8ada63b8c5ce9355bc]
entity :core:backend--><rect fill="#FEFECE" filter="url(#fg69uygt881mg)" height="46.2969" style="stroke: #A80036; stroke-width: 1.5;" width="141" x="1115.5" y="139"/><rect fill="#FEFECE" height="10" style="stroke: #A80036; stroke-width: 1.5;" width="15" x="1236.5" y="144"/><rect fill="#FEFECE" height="2" style="stroke: #A80036; stroke-width: 1.5;" width="4" x="1234.5" y="146"/><rect fill="#FEFECE" height="2" style="stroke: #A80036; stroke-width: 1.5;" width="4" x="1234.5" y="150"/><text fill="#000000" font-family="sans-serif" font-size="14" lengthAdjust="spacingAndGlyphs" textLength="101" x="1130.5" y="171.9951">:core:backend</text><!--MD5=[bb042d61f43125fc2fe6ee382cb3d84b]
entity :core:api--><rect fill="#FEFECE" filter="url(#fg69uygt881mg)" height="46.2969" style="stroke: #A80036; stroke-width: 1.5;" width="101" x="1115.5" y="351"/><rect fill="#FEFECE" height="10" style="stroke: #A80036; stroke-width: 1.5;" width="15" x="1196.5" y="356"/><rect fill="#FEFECE" height="2" style="stroke: #A80036; stroke-width: 1.5;" width="4" x="1194.5" y="358"/><rect fill="#FEFECE" height="2" style="stroke: #A80036; stroke-width: 1.5;" width="4" x="1194.5" y="362"/><text fill="#000000" font-family="sans-serif" font-size="14" lengthAdjust="spacingAndGlyphs" textLength="61" x="1130.5" y="383.9951">:core:api</text><!--MD5=[c0f778923607b3b2b1776544ac20a677]
entity :core:domain--><rect fill="#FEFECE" filter="url(#fg69uygt881mg)" height="46.2969" style="stroke: #A80036; stroke-width: 1.5;" width="132" x="1120" y="245"/><rect fill="#FEFECE" height="10" style="stroke: #A80036; stroke-width: 1.5;" width="15" x="1232" y="250"/><rect fill="#FEFECE" height="2" style="stroke: #A80036; stroke-width: 1.5;" width="4" x="1230" y="252"/><rect fill="#FEFECE" height="2" style="stroke: #A80036; stroke-width: 1.5;" width="4" x="1230" y="256"/><text fill="#000000" font-family="sans-serif" font-size="14" lengthAdjust="spacingAndGlyphs" textLength="92" x="1135" y="277.9951">:core:domain</text><!--MD5=[f0cd64f7a976452f595a8d7c56ac45cc]
entity :app:jvm:server--><rect fill="#FEFECE" filter="url(#fg69uygt881mg)" height="46.2969" style="stroke: #A80036; stroke-width: 1.5;" width="147" x="794.5" y="33"/><rect fill="#FEFECE" height="10" style="stroke: #A80036; stroke-width: 1.5;" width="15" x="921.5" y="38"/><rect fill="#FEFECE" height="2" style="stroke: #A80036; stroke-width: 1.5;" width="4" x="919.5" y="40"/><rect fill="#FEFECE" height="2" style="stroke: #A80036; stroke-width: 1.5;" width="4" x="919.5" y="44"/><text fill="#000000" font-family="sans-serif" font-size="14" lengthAdjust="spacingAndGlyphs" textLength="107" x="809.5" y="65.9951">:app:jvm:server</text><!--MD5=[2413d62275765d44161913d3236f068e]
link :platform:repo:ormlite to :platform:util:ormlite--><path d="M358.1707,185.0004 C393.6855,201.9579 441.9952,225.0247 478.6728,242.5375 " fill="none" id=":platform:repo:ormlite-&gt;:platform:util:ormlite" style="stroke: #A80036; stroke-width: 1.0;"/><polygon fill="#A80036" points="483.5405,244.8617,477.1424,237.3741,479.0285,242.7073,473.6953,244.5933,483.5405,244.8617" style="stroke: #A80036; stroke-width: 1.0;"/><!--MD5=[6d206811ceaaf6545389c8b5b67e60a9]
link :platform:repo:ormlite to :platform:repo:data--><path d="M311.0849,185.0004 C311.8398,201.003 312.8512,222.4461 313.657,239.528 " fill="none" id=":platform:repo:ormlite-&gt;:platform:repo:data" style="stroke: #A80036; stroke-width: 1.0;"/><polygon fill="#A80036" points="313.8999,244.6784,317.4712,235.4998,313.6642,239.684,309.4801,235.877,313.8999,244.6784" style="stroke: #A80036; stroke-width: 1.0;"/><!--MD5=[f29be9954726be7729d9c3d86632164d]
link :platform:util:ormlite:jvm to :platform:util:ormlite--><path d="M540.6132,185.0004 C538.9525,201.003 536.7273,222.4461 534.9546,239.528 " fill="none" id=":platform:util:ormlite:jvm-&gt;:platform:util:ormlite" style="stroke: #A80036; stroke-width: 1.0;"/><polygon fill="#A80036" points="534.4202,244.6784,539.3279,236.1394,534.9363,239.7051,531.3706,235.3136,534.4202,244.6784" style="stroke: #A80036; stroke-width: 1.0;"/><!--MD5=[97e3a9eed82c2cc1802c2b9699a5e1d5]
link :platform:sys:jvm to :core:api--><path d="M804.222,185.0913 C880.7943,225.0748 1037.4987,306.9008 1117.1646,348.4997 " fill="none" id=":platform:sys:jvm-&gt;:core:api" style="stroke: #A80036; stroke-width: 1.0;"/><polygon fill="#A80036" points="1121.8325,350.9372,1115.7062,343.2256,1117.4004,348.6228,1112.0032,350.3169,1121.8325,350.9372" style="stroke: #A80036; stroke-width: 1.0;"/><!--MD5=[b479f99105aae462bc250f9c8d579093]
link :platform:sys:jvm to :platform:sys:mock--><path d="M760.434,185.0004 C760.7359,201.003 761.1405,222.4461 761.4628,239.528 " fill="none" id=":platform:sys:jvm-&gt;:platform:sys:mock" style="stroke: #A80036; stroke-width: 1.0;"/><polygon fill="#A80036" points="761.56,244.6784,765.3893,235.6045,761.4656,239.6793,757.3907,235.7555,761.56,244.6784" style="stroke: #A80036; stroke-width: 1.0;"/><!--MD5=[4e7adaad226bc1827d2eb345b09825bf]
link :platform:net:smack:jvm to :core:api--><path d="M997.5861,185.0913 C1032.8058,224.597 1104.442,304.9508 1141.9213,346.991 " fill="none" id=":platform:net:smack:jvm-&gt;:core:api" style="stroke: #A80036; stroke-width: 1.0;"/><polygon fill="#A80036" points="1145.4393,350.9372,1142.4359,341.5575,1142.112,347.205,1136.4644,346.8811,1145.4393,350.9372" style="stroke: #A80036; stroke-width: 1.0;"/><!--MD5=[d2e99a31c5c69c260843e58b87a30949]
link :core:backend to :core:domain--><path d="M1186,185.0004 C1186,201.003 1186,222.4461 1186,239.528 " fill="none" id=":core:backend-&gt;:core:domain" style="stroke: #A80036; stroke-width: 1.0;"/><polygon fill="#A80036" points="1186,244.6784,1190,235.6784,1186,239.6784,1182,235.6784,1186,244.6784" style="stroke: #A80036; stroke-width: 1.0;"/><!--MD5=[d2d1f0be6436256e6d977803045f7553]
link :engine:net to :engine:connectable--><path d="M1616.8386,397.0004 C1577.4844,414.0271 1523.8942,437.2131 1483.3571,454.7516 " fill="none" id=":engine:net-&gt;:engine:connectable" style="stroke: #A80036; stroke-width: 1.0;"/><polygon fill="#A80036" points="1478.4801,456.8617,1488.3285,456.959,1483.069,454.8763,1485.1518,449.6168,1478.4801,456.8617" style="stroke: #A80036; stroke-width: 1.0;"/><!--MD5=[9e0cd9895457fd564306a213d979b005]
link :engine:net to :engine:json--><path d="M1669.349,397.0004 C1668.8961,413.003 1668.2893,434.4461 1667.8058,451.528 " fill="none" id=":engine:net-&gt;:engine:json" style="stroke: #A80036; stroke-width: 1.0;"/><polygon fill="#A80036" points="1667.66,456.6784,1671.9132,447.7953,1667.8016,451.6804,1663.9164,447.5688,1667.66,456.6784" style="stroke: #A80036; stroke-width: 1.0;"/><!--MD5=[a35a9ea5d16e6716e3306a59064739c3]
link :platform:log:jvm to :engine:log--><path d="M113.9712,185.0064 C131.2031,215.7931 165.9436,269.8827 211,299 C566.1621,528.5199 1094.2172,574.5648 1276.4353,583.7381 " fill="none" id=":platform:log:jvm-&gt;:engine:log" style="stroke: #A80036; stroke-width: 1.0;"/><polygon fill="#A80036" points="1281.4629,583.9862,1272.671,579.5475,1276.469,583.7398,1272.2767,587.5378,1281.4629,583.9862" style="stroke: #A80036; stroke-width: 1.0;"/><!--MD5=[50d22dc2b9a67ebc2ea5da74b6a2e202]
link :platform:repo:data to :core:api--><path d="M390.0321,291.0145 C401.6614,294.0379 413.597,296.8332 425,299 C678.0925,347.093 986.0661,365.7552 1110.1948,371.6666 " fill="none" id=":platform:repo:data-&gt;:core:api" style="stroke: #A80036; stroke-width: 1.0;"/><polygon fill="#A80036" points="1115.2499,371.9052,1106.4485,367.4854,1110.2555,371.6695,1106.0713,375.4765,1115.2499,371.9052" style="stroke: #A80036; stroke-width: 1.0;"/><!--MD5=[eaf14edc6043f7290cbfd1583ac6425c]
link :core:api to :engine:connectable--><path d="M1216.5527,394.6895 C1258.7382,411.9546 1318.998,436.617 1363.8859,454.988 " fill="none" id=":core:api-&gt;:engine:connectable" style="stroke: #A80036; stroke-width: 1.0;"/><polygon fill="#A80036" points="1368.7298,456.9705,1361.9157,449.8594,1364.1024,455.0765,1358.8853,457.2632,1368.7298,456.9705" style="stroke: #A80036; stroke-width: 1.0;"/><!--MD5=[bca29f017d1f9d57df28eb8d83e96ded]
link :engine:connectable to :engine:util--><path d="M1440.189,503.0004 C1450.9389,519.2789 1465.4066,541.1871 1476.7786,558.4076 " fill="none" id=":engine:connectable-&gt;:engine:util" style="stroke: #A80036; stroke-width: 1.0;"/><polygon fill="#A80036" points="1479.599,562.6784,1477.9771,552.964,1476.8436,558.5061,1471.3015,557.3727,1479.599,562.6784" style="stroke: #A80036; stroke-width: 1.0;"/><!--MD5=[6eb7bccd1a3c6d4cd083766ccbfc4317]
link :engine:connectable to :engine:log--><path d="M1406.7733,503.0004 C1393.8734,519.2789 1376.5121,541.1871 1362.8657,558.4076 " fill="none" id=":engine:connectable-&gt;:engine:log" style="stroke: #A80036; stroke-width: 1.0;"/><polygon fill="#A80036" points="1359.4813,562.6784,1368.206,558.1089,1362.5867,558.7596,1361.9359,553.1403,1359.4813,562.6784" style="stroke: #A80036; stroke-width: 1.0;"/><!--MD5=[c620faf2fecf096fd9bfe35a94b28242]
link :platform:sys:mock to :core:api--><path d="M848.1726,290.6096 C927.3348,311.3799 1042.3427,341.5553 1110.1262,359.3401 " fill="none" id=":platform:sys:mock-&gt;:core:api" style="stroke: #A80036; stroke-width: 1.0;"/><polygon fill="#A80036" points="1115.3263,360.7044,1107.6362,354.5512,1110.49,359.4354,1105.6058,362.2892,1115.3263,360.7044" style="stroke: #A80036; stroke-width: 1.0;"/><!--MD5=[65eb7b96c45847cf49dcf75272b402ce]
link :core:domain to :engine:paging--><path d="M1222.4535,291.0004 C1249.1101,307.8195 1285.292,330.6485 1312.9628,348.1075 " fill="none" id=":core:domain-&gt;:engine:paging" style="stroke: #A80036; stroke-width: 1.0;"/><polygon fill="#A80036" points="1317.3279,350.8617,1311.8508,342.6762,1313.0993,348.1936,1307.5819,349.442,1317.3279,350.8617" style="stroke: #A80036; stroke-width: 1.0;"/><!--MD5=[12ebccdcc75f98176baa7aae27ae41f5]
link :core:domain to :core:api--><path d="M1181.6603,291.0004 C1178.641,307.003 1174.5951,328.4461 1171.3721,345.528 " fill="none" id=":core:domain-&gt;:core:api" style="stroke: #A80036; stroke-width: 1.0;"/><polygon fill="#A80036" points="1170.4003,350.6784,1175.9998,342.5762,1171.3274,345.7651,1168.1385,341.0928,1170.4003,350.6784" style="stroke: #A80036; stroke-width: 1.0;"/><!--MD5=[61edd4f01d0b1cd6ced4e4fc0b44ea3a]
link :app:jvm:server to :platform:repo:ormlite--><path d="M794.4729,58.6087 C704.9801,63.2865 549.962,76.2555 422,112 C400.4463,118.0207 377.714,127.5246 358.4031,136.6371 " fill="none" id=":app:jvm:server-&gt;:platform:repo:ormlite" style="stroke: #A80036; stroke-width: 1.0;"/><polygon fill="#A80036" points="353.5701,138.9431,363.4154,138.6776,358.0828,136.79,359.9704,131.4574,353.5701,138.9431" style="stroke: #A80036; stroke-width: 1.0;"/><!--MD5=[4d82dec271025f8d0323343c57735d76]
link :app:jvm:server to :platform:util:ormlite:jvm--><path d="M794.1556,73.9137 C755.1048,83.9773 706.5645,97.4262 664,112 C642.6982,119.2936 619.7646,128.4291 599.6516,136.8891 " fill="none" id=":app:jvm:server-&gt;:platform:util:ormlite:jvm" style="stroke: #A80036; stroke-width: 1.0;"/><polygon fill="#A80036" points="594.8709,138.9094,604.7181,139.0903,599.4765,136.963,601.6038,131.7214,594.8709,138.9094" style="stroke: #A80036; stroke-width: 1.0;"/><!--MD5=[09cd11fa32c515354f2a8751317486e3]
link :app:jvm:server to :platform:sys:jvm--><path d="M844.5656,79.0004 C827.8395,95.4168 805.2797,117.5588 787.668,134.8444 " fill="none" id=":app:jvm:server-&gt;:platform:sys:jvm" style="stroke: #A80036; stroke-width: 1.0;"/><polygon fill="#A80036" points="783.7616,138.6784,792.9866,135.2288,787.33,135.176,787.3828,129.5194,783.7616,138.6784" style="stroke: #A80036; stroke-width: 1.0;"/><!--MD5=[632875fb734262159536d8afd87d6443]
link :app:jvm:server to :platform:net:smack:jvm--><path d="M891.6514,79.0004 C908.5324,95.4168 931.3011,117.5588 949.0758,134.8444 " fill="none" id=":app:jvm:server-&gt;:platform:net:smack:jvm" style="stroke: #A80036; stroke-width: 1.0;"/><polygon fill="#A80036" points="953.0184,138.6784,949.3549,129.5363,949.4339,135.1926,943.7776,135.2715,953.0184,138.6784" style="stroke: #A80036; stroke-width: 1.0;"/><!--MD5=[3c4dcaa46bd698b0bbdc1250832524f8]
link :app:jvm:server to :engine:cli--><path d="M941.8378,60.3035 C1042.5315,67.1682 1216.833,82.8902 1273,112 C1381.0952,168.0228 1466.977,291.2809 1501.5305,346.4074 " fill="none" id=":app:jvm:server-&gt;:engine:cli" style="stroke: #A80036; stroke-width: 1.0;"/><polygon fill="#A80036" points="1504.3223,350.8921,1502.9617,341.1377,1501.6799,346.6474,1496.1702,345.3656,1504.3223,350.8921" style="stroke: #A80036; stroke-width: 1.0;"/><!--MD5=[bbc5faa01d2e37d317dca6c18cef5059]
link :app:jvm:server to :core:backend--><path d="M941.5033,68.678 C987.2073,77.8465 1046.6504,92.1319 1097,112 C1113.5836,118.5439 1130.8764,127.6653 1145.7604,136.3282 " fill="none" id=":app:jvm:server-&gt;:core:backend" style="stroke: #A80036; stroke-width: 1.0;"/><polygon fill="#A80036" points="1150.2989,138.9986,1144.5706,130.9869,1145.9896,136.4629,1140.5136,137.8819,1150.2989,138.9986" style="stroke: #A80036; stroke-width: 1.0;"/><!--MD5=[a035d4babeeb331d0aa7baaacbcea20d]
link :app:jvm:server to :engine:net--><path d="M941.9379,59.6423 C1057.4474,66.1705 1274.8592,82.0641 1346,112 C1476.8797,167.0738 1597.5378,291.7244 1646.7034,346.8767 " fill="none" id=":app:jvm:server-&gt;:engine:net" style="stroke: #A80036; stroke-width: 1.0;"/><polygon fill="#A80036" points="1650.1189,350.7256,1647.1371,341.339,1646.8002,346.9858,1641.1534,346.6489,1650.1189,350.7256" style="stroke: #A80036; stroke-width: 1.0;"/><!--MD5=[46f05420acec97606c865bbb7d3a679c]
link :app:jvm:server to :platform:log:jvm--><path d="M794.262,58.4455 C644.0169,64.0334 307.3259,79.8124 197,112 C178.0289,117.5348 158.4757,127.0622 142.0771,136.3254 " fill="none" id=":app:jvm:server-&gt;:platform:log:jvm" style="stroke: #A80036; stroke-width: 1.0;"/><polygon fill="#A80036" points="137.5386,138.9275,147.3359,137.9211,141.8762,136.4405,143.3568,130.9809,137.5386,138.9275" style="stroke: #A80036; stroke-width: 1.0;"/><!--MD5=[1cdb8d185906e1886a86553b374bc5b0]
@startuml
package ":platform" {
[:platform:repo:ormlite]
[:platform:util:ormlite:jvm]
[:platform:sys:jvm]
[:platform:net:smack:jvm]
[:platform:log:jvm]
[:platform:util:ormlite]
[:platform:repo:data]
[:platform:sys:mock]
}
package ":engine" {
[:engine:cli]
[:engine:net]
[:engine:connectable]
[:engine:util]
[:engine:log]
[:engine:paging]
[:engine:json]
}
package ":core" {
[:core:backend]
[:core:api]
[:core:domain]
}
package ":app" {
[:app:jvm:server]
}
[:platform:repo:ormlite] - -> [:platform:util:ormlite]
[:platform:repo:ormlite] - -> [:platform:repo:data]
[:platform:util:ormlite:jvm] - -> [:platform:util:ormlite]
[:platform:sys:jvm] - -> [:core:api]
[:platform:sys:jvm] - -> [:platform:sys:mock]
[:platform:net:smack:jvm] - -> [:core:api]
[:core:backend] - -> [:core:domain]
[:engine:net] - -> [:engine:connectable]
[:engine:net] - -> [:engine:json]
[:platform:log:jvm] - -> [:engine:log]
[:platform:repo:data] - -> [:core:api]
[:core:api] - -> [:engine:connectable]
[:engine:connectable] - -> [:engine:util]
[:engine:connectable] - -> [:engine:log]
[:platform:sys:mock] - -> [:core:api]
[:core:domain] - -> [:engine:paging]
[:core:domain] - -> [:core:api]
[:app:jvm:server] - -> [:platform:repo:ormlite]
[:app:jvm:server] - -> [:platform:util:ormlite:jvm]
[:app:jvm:server] - -> [:platform:sys:jvm]
[:app:jvm:server] - -> [:platform:net:smack:jvm]
[:app:jvm:server] - -> [:engine:cli]
[:app:jvm:server] - -> [:core:backend]
[:app:jvm:server] - -> [:engine:net]
[:app:jvm:server] - -> [:platform:log:jvm]
@enduml

PlantUML version 1.2020.15(Sun Jun 28 13:39:45 CEST 2020)
(GPL source distribution)
Java Runtime: OpenJDK Runtime Environment
JVM: OpenJDK 64-Bit Server VM
Default Encoding: UTF-8
Language: pl
Country: PL
--></g></svg>