<?xml version="1.0" encoding="UTF-8" standalone="no"?><svg xmlns="http://www.w3.org/2000/svg" xmlns:xlink="http://www.w3.org/1999/xlink" contentScriptType="application/ecmascript" contentStyleType="text/css" height="629px" preserveAspectRatio="none" style="width:1423px;height:629px;" version="1.1" viewBox="0 0 1423 629" width="1423px" zoomAndPan="magnify"><defs><filter height="300%" id="fu4vbvz1kffcz" width="300%" x="-1" y="-1"><feGaussianBlur result="blurOut" stdDeviation="2.0"/><feColorMatrix in="blurOut" result="blurOut2" type="matrix" values="0 0 0 0 0 0 0 0 0 0 0 0 0 0 0 0 0 0 .4 0"/><feOffset dx="4.0" dy="4.0" in="blurOut2" result="blurOut3"/><feBlend in="SourceGraphic" in2="blurOut3" mode="normal"/></filter></defs><g><!--MD5=[30404b2edc0ff233b9122d63ae72b243]
cluster :core--><polygon fill="#FFFFFF" filter="url(#fu4vbvz1kffcz)" points="387,112,435,112,442,134.2969,1091,134.2969,1091,405,387,405,387,112" style="stroke: #000000; stroke-width: 1.5;"/><line style="stroke: #000000; stroke-width: 1.5;" x1="387" x2="442" y1="134.2969" y2="134.2969"/><text fill="#000000" font-family="sans-serif" font-size="14" font-weight="bold" lengthAdjust="spacingAndGlyphs" textLength="42" x="391" y="126.9951">:core</text><!--MD5=[0d8e833dcfdde072c4ae6e4a203830aa]
cluster :net--><polygon fill="#FFFFFF" filter="url(#fu4vbvz1kffcz)" points="1099,112,1137,112,1144,134.2969,1261,134.2969,1261,193,1099,193,1099,112" style="stroke: #000000; stroke-width: 1.5;"/><line style="stroke: #000000; stroke-width: 1.5;" x1="1099" x2="1144" y1="134.2969" y2="134.2969"/><text fill="#000000" font-family="sans-serif" font-size="14" font-weight="bold" lengthAdjust="spacingAndGlyphs" textLength="32" x="1103" y="126.9951">:net</text><!--MD5=[6ed0a4222646c4be5d3ab2314135a570]
cluster :engine--><polygon fill="#FFFFFF" filter="url(#fu4vbvz1kffcz)" points="16,324,82,324,89,346.2969,379,346.2969,379,617,16,617,16,324" style="stroke: #000000; stroke-width: 1.5;"/><line style="stroke: #000000; stroke-width: 1.5;" x1="16" x2="89" y1="346.2969" y2="346.2969"/><text fill="#000000" font-family="sans-serif" font-size="14" font-weight="bold" lengthAdjust="spacingAndGlyphs" textLength="60" x="20" y="338.9951">:engine</text><!--MD5=[38bed82ef403f43335b5f79c3bac3389]
cluster :jvm--><polygon fill="#FFFFFF" filter="url(#fu4vbvz1kffcz)" points="1269,6,1308,6,1315,28.2969,1401,28.2969,1401,193,1269,193,1269,6" style="stroke: #000000; stroke-width: 1.5;"/><line style="stroke: #000000; stroke-width: 1.5;" x1="1269" x2="1315" y1="28.2969" y2="28.2969"/><text fill="#000000" font-family="sans-serif" font-size="14" font-weight="bold" lengthAdjust="spacingAndGlyphs" textLength="33" x="1273" y="20.9951">:jvm</text><!--MD5=[92bd3a6c071b99f0be2004a8198c45c9]
entity :core:mock:repo--><rect fill="#FEFECE" filter="url(#fu4vbvz1kffcz)" height="46.2969" style="stroke: #A80036; stroke-width: 1.5;" width="156" x="562" y="245"/><rect fill="#FEFECE" height="10" style="stroke: #A80036; stroke-width: 1.5;" width="15" x="698" y="250"/><rect fill="#FEFECE" height="2" style="stroke: #A80036; stroke-width: 1.5;" width="4" x="696" y="252"/><rect fill="#FEFECE" height="2" style="stroke: #A80036; stroke-width: 1.5;" width="4" x="696" y="256"/><text fill="#000000" font-family="sans-serif" font-size="14" lengthAdjust="spacingAndGlyphs" textLength="116" x="577" y="277.9951">:core:mock:repo</text><!--MD5=[57ec7835db8cede48f3e8c81e572e6c8]
entity :core:mock:net--><rect fill="#FEFECE" filter="url(#fu4vbvz1kffcz)" height="46.2969" style="stroke: #A80036; stroke-width: 1.5;" width="147" x="753.5" y="245"/><rect fill="#FEFECE" height="10" style="stroke: #A80036; stroke-width: 1.5;" width="15" x="880.5" y="250"/><rect fill="#FEFECE" height="2" style="stroke: #A80036; stroke-width: 1.5;" width="4" x="878.5" y="252"/><rect fill="#FEFECE" height="2" style="stroke: #A80036; stroke-width: 1.5;" width="4" x="878.5" y="256"/><text fill="#000000" font-family="sans-serif" font-size="14" lengthAdjust="spacingAndGlyphs" textLength="107" x="768.5" y="277.9951">:core:mock:net</text><!--MD5=[e43a051ee5d5ccb2f42121701afe91ab]
entity :core:mock:sys--><rect fill="#FEFECE" filter="url(#fu4vbvz1kffcz)" height="46.2969" style="stroke: #A80036; stroke-width: 1.5;" width="147" x="935.5" y="245"/><rect fill="#FEFECE" height="10" style="stroke: #A80036; stroke-width: 1.5;" width="15" x="1062.5" y="250"/><rect fill="#FEFECE" height="2" style="stroke: #A80036; stroke-width: 1.5;" width="4" x="1060.5" y="252"/><rect fill="#FEFECE" height="2" style="stroke: #A80036; stroke-width: 1.5;" width="4" x="1060.5" y="256"/><text fill="#000000" font-family="sans-serif" font-size="14" lengthAdjust="spacingAndGlyphs" textLength="107" x="950.5" y="277.9951">:core:mock:sys</text><!--MD5=[6b3c72c52f198a8ada63b8c5ce9355bc]
entity :core:backend--><rect fill="#FEFECE" filter="url(#fu4vbvz1kffcz)" height="46.2969" style="stroke: #A80036; stroke-width: 1.5;" width="141" x="478.5" y="139"/><rect fill="#FEFECE" height="10" style="stroke: #A80036; stroke-width: 1.5;" width="15" x="599.5" y="144"/><rect fill="#FEFECE" height="2" style="stroke: #A80036; stroke-width: 1.5;" width="4" x="597.5" y="146"/><rect fill="#FEFECE" height="2" style="stroke: #A80036; stroke-width: 1.5;" width="4" x="597.5" y="150"/><text fill="#000000" font-family="sans-serif" font-size="14" lengthAdjust="spacingAndGlyphs" textLength="101" x="493.5" y="171.9951">:core:backend</text><!--MD5=[bb042d61f43125fc2fe6ee382cb3d84b]
entity :core:api--><rect fill="#FEFECE" filter="url(#fu4vbvz1kffcz)" height="46.2969" style="stroke: #A80036; stroke-width: 1.5;" width="101" x="682.5" y="351"/><rect fill="#FEFECE" height="10" style="stroke: #A80036; stroke-width: 1.5;" width="15" x="763.5" y="356"/><rect fill="#FEFECE" height="2" style="stroke: #A80036; stroke-width: 1.5;" width="4" x="761.5" y="358"/><rect fill="#FEFECE" height="2" style="stroke: #A80036; stroke-width: 1.5;" width="4" x="761.5" y="362"/><text fill="#000000" font-family="sans-serif" font-size="14" lengthAdjust="spacingAndGlyphs" textLength="61" x="697.5" y="383.9951">:core:api</text><!--MD5=[c0f778923607b3b2b1776544ac20a677]
entity :core:domain--><rect fill="#FEFECE" filter="url(#fu4vbvz1kffcz)" height="46.2969" style="stroke: #A80036; stroke-width: 1.5;" width="132" x="395" y="245"/><rect fill="#FEFECE" height="10" style="stroke: #A80036; stroke-width: 1.5;" width="15" x="507" y="250"/><rect fill="#FEFECE" height="2" style="stroke: #A80036; stroke-width: 1.5;" width="4" x="505" y="252"/><rect fill="#FEFECE" height="2" style="stroke: #A80036; stroke-width: 1.5;" width="4" x="505" y="256"/><text fill="#000000" font-family="sans-serif" font-size="14" lengthAdjust="spacingAndGlyphs" textLength="92" x="410" y="277.9951">:core:domain</text><!--MD5=[7c89cb3e6f4d363cf8e7c064adc89c82]
entity :net:smack:jvm--><rect fill="#FEFECE" filter="url(#fu4vbvz1kffcz)" height="46.2969" style="stroke: #A80036; stroke-width: 1.5;" width="146" x="1107" y="139"/><rect fill="#FEFECE" height="10" style="stroke: #A80036; stroke-width: 1.5;" width="15" x="1233" y="144"/><rect fill="#FEFECE" height="2" style="stroke: #A80036; stroke-width: 1.5;" width="4" x="1231" y="146"/><rect fill="#FEFECE" height="2" style="stroke: #A80036; stroke-width: 1.5;" width="4" x="1231" y="150"/><text fill="#000000" font-family="sans-serif" font-size="14" lengthAdjust="spacingAndGlyphs" textLength="106" x="1122" y="171.9951">:net:smack:jvm</text><!--MD5=[486755d95e08f80cb04a0aa885580c7b]
entity :engine:net--><rect fill="#FEFECE" filter="url(#fu4vbvz1kffcz)" height="46.2969" style="stroke: #A80036; stroke-width: 1.5;" width="121" x="69.5" y="351"/><rect fill="#FEFECE" height="10" style="stroke: #A80036; stroke-width: 1.5;" width="15" x="170.5" y="356"/><rect fill="#FEFECE" height="2" style="stroke: #A80036; stroke-width: 1.5;" width="4" x="168.5" y="358"/><rect fill="#FEFECE" height="2" style="stroke: #A80036; stroke-width: 1.5;" width="4" x="168.5" y="362"/><text fill="#000000" font-family="sans-serif" font-size="14" lengthAdjust="spacingAndGlyphs" textLength="81" x="84.5" y="383.9951">:engine:net</text><!--MD5=[474bc7754ff50e9887f34633b92b9e02]
entity :engine:connectable--><rect fill="#FEFECE" filter="url(#fu4vbvz1kffcz)" height="46.2969" style="stroke: #A80036; stroke-width: 1.5;" width="184" x="187" y="457"/><rect fill="#FEFECE" height="10" style="stroke: #A80036; stroke-width: 1.5;" width="15" x="351" y="462"/><rect fill="#FEFECE" height="2" style="stroke: #A80036; stroke-width: 1.5;" width="4" x="349" y="464"/><rect fill="#FEFECE" height="2" style="stroke: #A80036; stroke-width: 1.5;" width="4" x="349" y="468"/><text fill="#000000" font-family="sans-serif" font-size="14" lengthAdjust="spacingAndGlyphs" textLength="144" x="202" y="489.9951">:engine:connectable</text><!--MD5=[8e94acc19a10f03efd288fb36eb4472b]
entity :engine:util--><rect fill="#FEFECE" filter="url(#fu4vbvz1kffcz)" height="46.2969" style="stroke: #A80036; stroke-width: 1.5;" width="118" x="98" y="563"/><rect fill="#FEFECE" height="10" style="stroke: #A80036; stroke-width: 1.5;" width="15" x="196" y="568"/><rect fill="#FEFECE" height="2" style="stroke: #A80036; stroke-width: 1.5;" width="4" x="194" y="570"/><rect fill="#FEFECE" height="2" style="stroke: #A80036; stroke-width: 1.5;" width="4" x="194" y="574"/><text fill="#000000" font-family="sans-serif" font-size="14" lengthAdjust="spacingAndGlyphs" textLength="78" x="113" y="595.9951">:engine:util</text><!--MD5=[f7af38a47341a5d6bbb7054022a18e1f]
entity :engine:log--><rect fill="#FEFECE" filter="url(#fu4vbvz1kffcz)" height="46.2969" style="stroke: #A80036; stroke-width: 1.5;" width="119" x="251.5" y="563"/><rect fill="#FEFECE" height="10" style="stroke: #A80036; stroke-width: 1.5;" width="15" x="350.5" y="568"/><rect fill="#FEFECE" height="2" style="stroke: #A80036; stroke-width: 1.5;" width="4" x="348.5" y="570"/><rect fill="#FEFECE" height="2" style="stroke: #A80036; stroke-width: 1.5;" width="4" x="348.5" y="574"/><text fill="#000000" font-family="sans-serif" font-size="14" lengthAdjust="spacingAndGlyphs" textLength="79" x="266.5" y="595.9951">:engine:log</text><!--MD5=[8725e2f32c833bede44e6c458fce3254]
entity :engine:paging--><rect fill="#FEFECE" filter="url(#fu4vbvz1kffcz)" height="46.2969" style="stroke: #A80036; stroke-width: 1.5;" width="145" x="225.5" y="351"/><rect fill="#FEFECE" height="10" style="stroke: #A80036; stroke-width: 1.5;" width="15" x="350.5" y="356"/><rect fill="#FEFECE" height="2" style="stroke: #A80036; stroke-width: 1.5;" width="4" x="348.5" y="358"/><rect fill="#FEFECE" height="2" style="stroke: #A80036; stroke-width: 1.5;" width="4" x="348.5" y="362"/><text fill="#000000" font-family="sans-serif" font-size="14" lengthAdjust="spacingAndGlyphs" textLength="105" x="240.5" y="383.9951">:engine:paging</text><!--MD5=[de9e9b3b438569aa67cb351d8b039e39]
entity :engine:json--><rect fill="#FEFECE" filter="url(#fu4vbvz1kffcz)" height="46.2969" style="stroke: #A80036; stroke-width: 1.5;" width="127" x="24.5" y="457"/><rect fill="#FEFECE" height="10" style="stroke: #A80036; stroke-width: 1.5;" width="15" x="131.5" y="462"/><rect fill="#FEFECE" height="2" style="stroke: #A80036; stroke-width: 1.5;" width="4" x="129.5" y="464"/><rect fill="#FEFECE" height="2" style="stroke: #A80036; stroke-width: 1.5;" width="4" x="129.5" y="468"/><text fill="#000000" font-family="sans-serif" font-size="14" lengthAdjust="spacingAndGlyphs" textLength="87" x="39.5" y="489.9951">:engine:json</text><!--MD5=[278891ff76fd9b0eb7ee7029fade1047]
entity :jvm:log--><rect fill="#FEFECE" filter="url(#fu4vbvz1kffcz)" height="46.2969" style="stroke: #A80036; stroke-width: 1.5;" width="94" x="1288" y="139"/><rect fill="#FEFECE" height="10" style="stroke: #A80036; stroke-width: 1.5;" width="15" x="1362" y="144"/><rect fill="#FEFECE" height="2" style="stroke: #A80036; stroke-width: 1.5;" width="4" x="1360" y="146"/><rect fill="#FEFECE" height="2" style="stroke: #A80036; stroke-width: 1.5;" width="4" x="1360" y="150"/><text fill="#000000" font-family="sans-serif" font-size="14" lengthAdjust="spacingAndGlyphs" textLength="54" x="1303" y="171.9951">:jvm:log</text><!--MD5=[7a8db28f95dace5dcd53803600931555]
entity :jvm:server--><rect fill="#FEFECE" filter="url(#fu4vbvz1kffcz)" height="46.2969" style="stroke: #A80036; stroke-width: 1.5;" width="116" x="1277" y="33"/><rect fill="#FEFECE" height="10" style="stroke: #A80036; stroke-width: 1.5;" width="15" x="1373" y="38"/><rect fill="#FEFECE" height="2" style="stroke: #A80036; stroke-width: 1.5;" width="4" x="1371" y="40"/><rect fill="#FEFECE" height="2" style="stroke: #A80036; stroke-width: 1.5;" width="4" x="1371" y="44"/><text fill="#000000" font-family="sans-serif" font-size="14" lengthAdjust="spacingAndGlyphs" textLength="76" x="1292" y="65.9951">:jvm:server</text><!--MD5=[d56d75fd9d79f2971a8810c55a0ec159]
link :core:mock:repo to :core:api--><path d="M660.1796,291.0004 C674.5827,307.4168 694.0092,329.5588 709.1748,346.8444 " fill="none" id=":core:mock:repo-&gt;:core:api" style="stroke: #A80036; stroke-width: 1.0;"/><polygon fill="#A80036" points="712.5386,350.6784,709.6097,341.2751,709.241,346.92,703.5962,346.5513,712.5386,350.6784" style="stroke: #A80036; stroke-width: 1.0;"/><!--MD5=[01e2c32998785bfb6966ba88c709eb09]
link :core:mock:net to :core:api--><path d="M806.6034,291.0004 C792.0455,307.4168 772.4101,329.5588 757.0814,346.8444 " fill="none" id=":core:mock:net-&gt;:core:api" style="stroke: #A80036; stroke-width: 1.0;"/><polygon fill="#A80036" points="753.6814,350.6784,762.6456,346.5988,756.9989,346.9375,756.6601,341.2908,753.6814,350.6784" style="stroke: #A80036; stroke-width: 1.0;"/><!--MD5=[06c56ae8f7dd57601222b4d226bd7120]
link :core:mock:sys to :core:api--><path d="M949.1121,291.0004 C901.2892,309.3672 834.8053,334.9009 788.2471,352.7819 " fill="none" id=":core:mock:sys-&gt;:core:api" style="stroke: #A80036; stroke-width: 1.0;"/><polygon fill="#A80036" points="783.5223,354.5965,793.3581,355.1039,788.1899,352.8039,790.4899,347.6357,783.5223,354.5965" style="stroke: #A80036; stroke-width: 1.0;"/><!--MD5=[54f45d9f7bd3d59be0d46302fee7f768]
link :net:smack:jvm to :core:api--><path d="M1172.129,185.0375 C1160.882,214.3598 1137.3448,264.3926 1100,291 C1050.3958,326.342 878.3299,354.2356 788.5281,366.7798 " fill="none" id=":net:smack:jvm-&gt;:core:api" style="stroke: #A80036; stroke-width: 1.0;"/><polygon fill="#A80036" points="783.5244,367.4747,792.9892,370.1983,788.4768,366.7867,791.8884,362.2744,783.5244,367.4747" style="stroke: #A80036; stroke-width: 1.0;"/><!--MD5=[d2e99a31c5c69c260843e58b87a30949]
link :core:backend to :core:domain--><path d="M529.9053,185.0004 C516.3911,201.2789 498.2032,223.1871 483.9069,240.4076 " fill="none" id=":core:backend-&gt;:core:domain" style="stroke: #A80036; stroke-width: 1.0;"/><polygon fill="#A80036" points="480.3613,244.6784,489.1877,240.3087,483.5551,240.8314,483.0325,235.1987,480.3613,244.6784" style="stroke: #A80036; stroke-width: 1.0;"/><!--MD5=[d2d1f0be6436256e6d977803045f7553]
link :engine:net to :engine:connectable--><path d="M162.3308,397.0004 C185.8754,413.7503 217.7986,436.4607 242.3005,453.8917 " fill="none" id=":engine:net-&gt;:engine:connectable" style="stroke: #A80036; stroke-width: 1.0;"/><polygon fill="#A80036" points="246.4754,456.8617,241.4605,448.3852,242.4012,453.9633,236.8231,454.904,246.4754,456.8617" style="stroke: #A80036; stroke-width: 1.0;"/><!--MD5=[9e0cd9895457fd564306a213d979b005]
link :engine:net to :engine:json--><path d="M120.8866,397.0004 C114.4913,413.1409 105.903,434.8162 99.1067,451.9688 " fill="none" id=":engine:net-&gt;:engine:json" style="stroke: #A80036; stroke-width: 1.0;"/><polygon fill="#A80036" points="97.2406,456.6784,104.2748,449.7849,99.0826,452.0301,96.8375,446.8378,97.2406,456.6784" style="stroke: #A80036; stroke-width: 1.0;"/><!--MD5=[7e35b258ed27b7b9efdd5355b20d38a8]
link :jvm:log to :engine:log--><path d="M1319.5153,185.3399 C1285.7173,234.3212 1200.2029,348.006 1099,405 C856.4357,541.6039 516.7697,575.1827 376.0324,583.3793 " fill="none" id=":jvm:log-&gt;:engine:log" style="stroke: #A80036; stroke-width: 1.0;"/><polygon fill="#A80036" points="370.7027,583.6831,379.9158,587.1644,375.6946,583.3985,379.4605,579.1774,370.7027,583.6831" style="stroke: #A80036; stroke-width: 1.0;"/><!--MD5=[eaf14edc6043f7290cbfd1583ac6425c]
link :core:api to :engine:connectable--><path d="M682.2419,385.851 C608.477,403.0737 470.2381,435.3497 376.4124,457.2561 " fill="none" id=":core:api-&gt;:engine:connectable" style="stroke: #A80036; stroke-width: 1.0;"/><polygon fill="#A80036" points="371.4193,458.4219,381.0931,460.2705,376.2883,457.2849,379.2739,452.4801,371.4193,458.4219" style="stroke: #A80036; stroke-width: 1.0;"/><!--MD5=[bca29f017d1f9d57df28eb8d83e96ded]
link :engine:connectable to :engine:util--><path d="M252.5278,503.0004 C233.4747,519.5548 207.7205,541.9314 187.7542,559.2791 " fill="none" id=":engine:connectable-&gt;:engine:util" style="stroke: #A80036; stroke-width: 1.0;"/><polygon fill="#A80036" points="183.8418,562.6784,193.2591,559.795,187.6162,559.399,188.0121,553.7561,183.8418,562.6784" style="stroke: #A80036; stroke-width: 1.0;"/><!--MD5=[6eb7bccd1a3c6d4cd083766ccbfc4317]
link :engine:connectable to :engine:log--><path d="M285.9435,503.0004 C290.7745,519.003 297.2479,540.4461 302.4047,557.528 " fill="none" id=":engine:connectable-&gt;:engine:log" style="stroke: #A80036; stroke-width: 1.0;"/><polygon fill="#A80036" points="303.9595,562.6784,305.1876,552.9064,302.5144,557.8918,297.529,555.2186,303.9595,562.6784" style="stroke: #A80036; stroke-width: 1.0;"/><!--MD5=[65eb7b96c45847cf49dcf75272b402ce]
link :core:domain to :engine:paging--><path d="M425.6314,291.0004 C399.7681,307.8195 364.6631,330.6485 337.8159,348.1075 " fill="none" id=":core:domain-&gt;:engine:paging" style="stroke: #A80036; stroke-width: 1.0;"/><polygon fill="#A80036" points="333.5806,350.8617,343.3062,349.3086,337.7723,348.1359,338.9449,342.6019,333.5806,350.8617" style="stroke: #A80036; stroke-width: 1.0;"/><!--MD5=[12ebccdcc75f98176baa7aae27ae41f5]
link :core:domain to :core:api--><path d="M520.0199,291.0004 C566.753,309.2126 631.5684,334.4715 677.3907,352.3287 " fill="none" id=":core:domain-&gt;:core:api" style="stroke: #A80036; stroke-width: 1.0;"/><polygon fill="#A80036" points="682.3222,354.2506,675.389,347.2556,677.6635,352.435,672.484,354.7095,682.3222,354.2506" style="stroke: #A80036; stroke-width: 1.0;"/><!--MD5=[43ba97f3576adffb510ebe0b1506f400]
link :jvm:server to :core:mock:repo--><path d="M1276.9229,60.442 C1174.641,68.7613 966.6996,88.0348 898,112 C810.2069,142.6259 720.0266,205.8629 673.0443,241.7069 " fill="none" id=":jvm:server-&gt;:core:mock:repo" style="stroke: #A80036; stroke-width: 1.0;"/><polygon fill="#A80036" points="668.9097,244.8758,678.4862,242.5757,672.8782,241.8342,673.6197,236.2262,668.9097,244.8758" style="stroke: #A80036; stroke-width: 1.0;"/><!--MD5=[327920b2245189a5df4dc933ce089df1]
link :jvm:server to :core:mock:net--><path d="M1276.9392,63.073 C1200.062,73.0208 1069.0725,92.159 1025,112 C954.7336,143.6332 887.4543,205.5548 852.2965,241.1324 " fill="none" id=":jvm:server-&gt;:core:mock:net" style="stroke: #A80036; stroke-width: 1.0;"/><polygon fill="#A80036" points="848.5827,244.9138,857.7428,241.2954,852.0862,241.3465,852.0351,235.6899,848.5827,244.9138" style="stroke: #A80036; stroke-width: 1.0;"/><!--MD5=[07de38d7994af73fe2996c306e4ce0b1]
link :jvm:server to :core:mock:sys--><path d="M1276.8949,63.6533 C1214.2588,72.8756 1119.6675,89.924 1091,112 C1048.9477,144.3833 1026.2347,204.5087 1015.9606,239.9103 " fill="none" id=":jvm:server-&gt;:core:mock:sys" style="stroke: #A80036; stroke-width: 1.0;"/><polygon fill="#A80036" points="1014.5342,244.9479,1020.835,237.3782,1015.8965,240.1371,1013.1376,235.1986,1014.5342,244.9479" style="stroke: #A80036; stroke-width: 1.0;"/><!--MD5=[b8382d6df6cce6eca2590a1eccb30dcd]
link :jvm:server to :net:smack:jvm--><path d="M1301.3673,79.0004 C1276.8746,95.7503 1243.6659,118.4607 1218.1773,135.8917 " fill="none" id=":jvm:server-&gt;:net:smack:jvm" style="stroke: #A80036; stroke-width: 1.0;"/><polygon fill="#A80036" points="1213.8343,138.8617,1223.5212,137.0832,1217.9615,136.0393,1219.0054,130.4796,1213.8343,138.8617" style="stroke: #A80036; stroke-width: 1.0;"/><!--MD5=[7a8fc7f57920d4db20fd83ebcb921977]
link :jvm:server to :core:backend--><path d="M1276.9496,58.6564 C1137.3993,65.4037 786.2298,84.6286 672,112 C647.9294,117.7677 622.4113,127.4938 600.8949,136.8428 " fill="none" id=":jvm:server-&gt;:core:backend" style="stroke: #A80036; stroke-width: 1.0;"/><polygon fill="#A80036" points="596.084,138.9556,605.9328,138.9987,600.6619,136.9449,602.7157,131.6741,596.084,138.9556" style="stroke: #A80036; stroke-width: 1.0;"/><!--MD5=[29d026dc4beabb255aa0570f19d000b9]
link :jvm:server to :engine:net--><path d="M1276.8897,56.9291 C1082.1479,60.3825 460.2415,74.2806 379,112 C267.45,163.7913 180.7577,289.8454 146.2438,346.097 " fill="none" id=":jvm:server-&gt;:engine:net" style="stroke: #A80036; stroke-width: 1.0;"/><polygon fill="#A80036" points="143.4573,350.6724,151.555,345.0664,146.0581,346.4021,144.7225,340.9051,143.4573,350.6724" style="stroke: #A80036; stroke-width: 1.0;"/><!--MD5=[91dfe211f93554157885152baf2b229d]
link :jvm:server to :jvm:log--><path d="M1335,79.0004 C1335,95.003 1335,116.4461 1335,133.528 " fill="none" id=":jvm:server-&gt;:jvm:log" style="stroke: #A80036; stroke-width: 1.0;"/><polygon fill="#A80036" points="1335,138.6784,1339,129.6784,1335,133.6784,1331,129.6784,1335,138.6784" style="stroke: #A80036; stroke-width: 1.0;"/><!--MD5=[0fc85ea33d8caa7f2a5413f6c44c3830]
@startuml
package ":core" {
[:core:mock:repo]
[:core:mock:net]
[:core:mock:sys]
[:core:backend]
[:core:api]
[:core:domain]
}
package ":net" {
[:net:smack:jvm]
}
package ":engine" {
[:engine:net]
[:engine:connectable]
[:engine:util]
[:engine:log]
[:engine:paging]
[:engine:json]
}
package ":jvm" {
[:jvm:log]
[:jvm:server]
}
[:core:mock:repo] - -> [:core:api]
[:core:mock:net] - -> [:core:api]
[:core:mock:sys] - -> [:core:api]
[:net:smack:jvm] - -> [:core:api]
[:core:backend] - -> [:core:domain]
[:engine:net] - -> [:engine:connectable]
[:engine:net] - -> [:engine:json]
[:jvm:log] - -> [:engine:log]
[:core:api] - -> [:engine:connectable]
[:engine:connectable] - -> [:engine:util]
[:engine:connectable] - -> [:engine:log]
[:core:domain] - -> [:engine:paging]
[:core:domain] - -> [:core:api]
[:jvm:server] - -> [:core:mock:repo]
[:jvm:server] - -> [:core:mock:net]
[:jvm:server] - -> [:core:mock:sys]
[:jvm:server] - -> [:net:smack:jvm]
[:jvm:server] - -> [:core:backend]
[:jvm:server] - -> [:engine:net]
[:jvm:server] - -> [:jvm:log]
@enduml

PlantUML version 1.2020.15(Sun Jun 28 13:39:45 CEST 2020)
(GPL source distribution)
Java Runtime: OpenJDK Runtime Environment
JVM: OpenJDK 64-Bit Server VM
Default Encoding: UTF-8
Language: pl
Country: PL
--></g></svg>