<?xml version="1.0" encoding="UTF-8" standalone="no"?><svg xmlns="http://www.w3.org/2000/svg" xmlns:xlink="http://www.w3.org/1999/xlink" contentScriptType="application/ecmascript" contentStyleType="text/css" height="496px" preserveAspectRatio="none" style="width:629px;height:496px;" version="1.1" viewBox="0 0 629 496" width="629px" zoomAndPan="magnify"><defs><filter height="300%" id="fgeeq1yn0yf42" width="300%" x="-1" y="-1"><feGaussianBlur result="blurOut" stdDeviation="2.0"/><feColorMatrix in="blurOut" result="blurOut2" type="matrix" values="0 0 0 0 0 0 0 0 0 0 0 0 0 0 0 0 0 0 .4 0"/><feOffset dx="4.0" dy="4.0" in="blurOut2" result="blurOut3"/><feBlend in="SourceGraphic" in2="blurOut3" mode="normal"/></filter></defs><g><!--MD5=[486755d95e08f80cb04a0aa885580c7b]
entity :engine:net--><rect fill="#FEFECE" filter="url(#fgeeq1yn0yf42)" height="46.2969" style="stroke: #A80036; stroke-width: 1.5;" width="121" x="119.5" y="113"/><rect fill="#FEFECE" height="10" style="stroke: #A80036; stroke-width: 1.5;" width="15" x="220.5" y="118"/><rect fill="#FEFECE" height="2" style="stroke: #A80036; stroke-width: 1.5;" width="4" x="218.5" y="120"/><rect fill="#FEFECE" height="2" style="stroke: #A80036; stroke-width: 1.5;" width="4" x="218.5" y="124"/><text fill="#000000" font-family="sans-serif" font-size="14" lengthAdjust="spacingAndGlyphs" textLength="81" x="134.5" y="145.9951">:engine:net</text><!--MD5=[474bc7754ff50e9887f34633b92b9e02]
entity :engine:connectable--><rect fill="#FEFECE" filter="url(#fgeeq1yn0yf42)" height="46.2969" style="stroke: #A80036; stroke-width: 1.5;" width="184" x="166" y="325"/><rect fill="#FEFECE" height="10" style="stroke: #A80036; stroke-width: 1.5;" width="15" x="330" y="330"/><rect fill="#FEFECE" height="2" style="stroke: #A80036; stroke-width: 1.5;" width="4" x="328" y="332"/><rect fill="#FEFECE" height="2" style="stroke: #A80036; stroke-width: 1.5;" width="4" x="328" y="336"/><text fill="#000000" font-family="sans-serif" font-size="14" lengthAdjust="spacingAndGlyphs" textLength="144" x="181" y="357.9951">:engine:connectable</text><!--MD5=[de9e9b3b438569aa67cb351d8b039e39]
entity :engine:json--><rect fill="#FEFECE" filter="url(#fgeeq1yn0yf42)" height="46.2969" style="stroke: #A80036; stroke-width: 1.5;" width="127" x="77.5" y="219"/><rect fill="#FEFECE" height="10" style="stroke: #A80036; stroke-width: 1.5;" width="15" x="184.5" y="224"/><rect fill="#FEFECE" height="2" style="stroke: #A80036; stroke-width: 1.5;" width="4" x="182.5" y="226"/><rect fill="#FEFECE" height="2" style="stroke: #A80036; stroke-width: 1.5;" width="4" x="182.5" y="230"/><text fill="#000000" font-family="sans-serif" font-size="14" lengthAdjust="spacingAndGlyphs" textLength="87" x="92.5" y="251.9951">:engine:json</text><!--MD5=[278891ff76fd9b0eb7ee7029fade1047]
entity :jvm:log--><rect fill="#FEFECE" filter="url(#fgeeq1yn0yf42)" height="46.2969" style="stroke: #A80036; stroke-width: 1.5;" width="94" x="7" y="325"/><rect fill="#FEFECE" height="10" style="stroke: #A80036; stroke-width: 1.5;" width="15" x="81" y="330"/><rect fill="#FEFECE" height="2" style="stroke: #A80036; stroke-width: 1.5;" width="4" x="79" y="332"/><rect fill="#FEFECE" height="2" style="stroke: #A80036; stroke-width: 1.5;" width="4" x="79" y="336"/><text fill="#000000" font-family="sans-serif" font-size="14" lengthAdjust="spacingAndGlyphs" textLength="54" x="22" y="357.9951">:jvm:log</text><!--MD5=[f7af38a47341a5d6bbb7054022a18e1f]
entity :engine:log--><rect fill="#FEFECE" filter="url(#fgeeq1yn0yf42)" height="46.2969" style="stroke: #A80036; stroke-width: 1.5;" width="119" x="34.5" y="431"/><rect fill="#FEFECE" height="10" style="stroke: #A80036; stroke-width: 1.5;" width="15" x="133.5" y="436"/><rect fill="#FEFECE" height="2" style="stroke: #A80036; stroke-width: 1.5;" width="4" x="131.5" y="438"/><rect fill="#FEFECE" height="2" style="stroke: #A80036; stroke-width: 1.5;" width="4" x="131.5" y="442"/><text fill="#000000" font-family="sans-serif" font-size="14" lengthAdjust="spacingAndGlyphs" textLength="79" x="49.5" y="463.9951">:engine:log</text><!--MD5=[b4e25f7522ba1111eb2df4fe1b5db7c7]
entity :core:cli--><rect fill="#FEFECE" filter="url(#fgeeq1yn0yf42)" height="46.2969" style="stroke: #A80036; stroke-width: 1.5;" width="95" x="314.5" y="113"/><rect fill="#FEFECE" height="10" style="stroke: #A80036; stroke-width: 1.5;" width="15" x="389.5" y="118"/><rect fill="#FEFECE" height="2" style="stroke: #A80036; stroke-width: 1.5;" width="4" x="387.5" y="120"/><rect fill="#FEFECE" height="2" style="stroke: #A80036; stroke-width: 1.5;" width="4" x="387.5" y="124"/><text fill="#000000" font-family="sans-serif" font-size="14" lengthAdjust="spacingAndGlyphs" textLength="55" x="329.5" y="145.9951">:core:cli</text><!--MD5=[9cb9b296c1f7d1e8bceacf7e776ceb9f]
entity :engine:translator--><rect fill="#FEFECE" filter="url(#fgeeq1yn0yf42)" height="46.2969" style="stroke: #A80036; stroke-width: 1.5;" width="163" x="447.5" y="219"/><rect fill="#FEFECE" height="10" style="stroke: #A80036; stroke-width: 1.5;" width="15" x="590.5" y="224"/><rect fill="#FEFECE" height="2" style="stroke: #A80036; stroke-width: 1.5;" width="4" x="588.5" y="226"/><rect fill="#FEFECE" height="2" style="stroke: #A80036; stroke-width: 1.5;" width="4" x="588.5" y="230"/><text fill="#000000" font-family="sans-serif" font-size="14" lengthAdjust="spacingAndGlyphs" textLength="123" x="462.5" y="251.9951">:engine:translator</text><!--MD5=[bb042d61f43125fc2fe6ee382cb3d84b]
entity :core:api--><rect fill="#FEFECE" filter="url(#fgeeq1yn0yf42)" height="46.2969" style="stroke: #A80036; stroke-width: 1.5;" width="101" x="311.5" y="219"/><rect fill="#FEFECE" height="10" style="stroke: #A80036; stroke-width: 1.5;" width="15" x="392.5" y="224"/><rect fill="#FEFECE" height="2" style="stroke: #A80036; stroke-width: 1.5;" width="4" x="390.5" y="226"/><rect fill="#FEFECE" height="2" style="stroke: #A80036; stroke-width: 1.5;" width="4" x="390.5" y="230"/><text fill="#000000" font-family="sans-serif" font-size="14" lengthAdjust="spacingAndGlyphs" textLength="61" x="326.5" y="251.9951">:core:api</text><!--MD5=[8e94acc19a10f03efd288fb36eb4472b]
entity :engine:util--><rect fill="#FEFECE" filter="url(#fgeeq1yn0yf42)" height="46.2969" style="stroke: #A80036; stroke-width: 1.5;" width="118" x="199" y="431"/><rect fill="#FEFECE" height="10" style="stroke: #A80036; stroke-width: 1.5;" width="15" x="297" y="436"/><rect fill="#FEFECE" height="2" style="stroke: #A80036; stroke-width: 1.5;" width="4" x="295" y="438"/><rect fill="#FEFECE" height="2" style="stroke: #A80036; stroke-width: 1.5;" width="4" x="295" y="442"/><text fill="#000000" font-family="sans-serif" font-size="14" lengthAdjust="spacingAndGlyphs" textLength="78" x="214" y="463.9951">:engine:util</text><!--MD5=[a8cbaa61871035add2cbb46255d255c4]
entity :jvm:cli--><rect fill="#FEFECE" filter="url(#fgeeq1yn0yf42)" height="46.2969" style="stroke: #A80036; stroke-width: 1.5;" width="87" x="136.5" y="7"/><rect fill="#FEFECE" height="10" style="stroke: #A80036; stroke-width: 1.5;" width="15" x="203.5" y="12"/><rect fill="#FEFECE" height="2" style="stroke: #A80036; stroke-width: 1.5;" width="4" x="201.5" y="14"/><rect fill="#FEFECE" height="2" style="stroke: #A80036; stroke-width: 1.5;" width="4" x="201.5" y="18"/><text fill="#000000" font-family="sans-serif" font-size="14" lengthAdjust="spacingAndGlyphs" textLength="47" x="151.5" y="39.9951">:jvm:cli</text><!--MD5=[d2d1f0be6436256e6d977803045f7553]
link :engine:net to :engine:connectable--><path d="M193.209,159.0504 C202.1921,175.4024 213.8762,198.0737 222,219 C235.0953,252.7326 245.573,293.125 251.7763,319.614 " fill="none" id=":engine:net-&gt;:engine:connectable" style="stroke: #A80036; stroke-width: 1.0;"/><polygon fill="#A80036" points="252.9594,324.7203,254.8245,315.0497,251.8307,319.8494,247.031,316.8556,252.9594,324.7203" style="stroke: #A80036; stroke-width: 1.0;"/><!--MD5=[9e0cd9895457fd564306a213d979b005]
link :engine:net to :engine:json--><path d="M171.5376,159.0004 C165.5991,175.1409 157.6242,196.8162 151.3134,213.9688 " fill="none" id=":engine:net-&gt;:engine:json" style="stroke: #A80036; stroke-width: 1.0;"/><polygon fill="#A80036" points="149.5806,218.6784,156.4422,211.6131,151.307,213.9859,148.9342,208.8508,149.5806,218.6784" style="stroke: #A80036; stroke-width: 1.0;"/><!--MD5=[7e35b258ed27b7b9efdd5355b20d38a8]
link :jvm:log to :engine:log--><path d="M62.6794,371.0004 C68.7702,387.1409 76.9495,408.8162 83.4222,425.9688 " fill="none" id=":jvm:log-&gt;:engine:log" style="stroke: #A80036; stroke-width: 1.0;"/><polygon fill="#A80036" points="85.1994,430.6784,85.7641,420.8457,83.434,426.0004,78.2794,423.6703,85.1994,430.6784" style="stroke: #A80036; stroke-width: 1.0;"/><!--MD5=[e5b52aacd6c9e8567a26aa6a4b3cfc3a]
link :core:cli to :engine:translator--><path d="M398.2365,159.0004 C424.7345,175.8195 460.701,198.6485 488.2071,216.1075 " fill="none" id=":core:cli-&gt;:engine:translator" style="stroke: #A80036; stroke-width: 1.0;"/><polygon fill="#A80036" points="492.5462,218.8617,487.0911,210.6616,488.3248,216.1823,482.804,217.4159,492.5462,218.8617" style="stroke: #A80036; stroke-width: 1.0;"/><!--MD5=[c2bb4decd7a24ab2954465b21eb4e89b]
link :core:cli to :core:api--><path d="M362,159.0004 C362,175.003 362,196.4461 362,213.528 " fill="none" id=":core:cli-&gt;:core:api" style="stroke: #A80036; stroke-width: 1.0;"/><polygon fill="#A80036" points="362,218.6784,366,209.6784,362,213.6784,358,209.6784,362,218.6784" style="stroke: #A80036; stroke-width: 1.0;"/><!--MD5=[bca29f017d1f9d57df28eb8d83e96ded]
link :engine:connectable to :engine:util--><path d="M258,371.0004 C258,387.003 258,408.4461 258,425.528 " fill="none" id=":engine:connectable-&gt;:engine:util" style="stroke: #A80036; stroke-width: 1.0;"/><polygon fill="#A80036" points="258,430.6784,262,421.6784,258,425.6784,254,421.6784,258,430.6784" style="stroke: #A80036; stroke-width: 1.0;"/><!--MD5=[6eb7bccd1a3c6d4cd083766ccbfc4317]
link :engine:connectable to :engine:log--><path d="M222.4144,371.0004 C196.3925,387.8195 161.0721,410.6485 134.0601,428.1075 " fill="none" id=":engine:connectable-&gt;:engine:log" style="stroke: #A80036; stroke-width: 1.0;"/><polygon fill="#A80036" points="129.7989,430.8617,139.5288,429.3355,133.9981,428.1475,135.1861,422.6168,129.7989,430.8617" style="stroke: #A80036; stroke-width: 1.0;"/><!--MD5=[eaf14edc6043f7290cbfd1583ac6425c]
link :core:api to :engine:connectable--><path d="M339.4335,265.0004 C323.3269,281.4168 301.6027,303.5588 284.6432,320.8444 " fill="none" id=":core:api-&gt;:engine:connectable" style="stroke: #A80036; stroke-width: 1.0;"/><polygon fill="#A80036" points="280.8816,324.6784,290.0399,321.0556,284.3833,321.1094,284.3295,315.4528,280.8816,324.6784" style="stroke: #A80036; stroke-width: 1.0;"/><!--MD5=[c05ff142796101709e7d542f158e6a97]
link :jvm:cli to :engine:net--><path d="M180,53.0004 C180,69.003 180,90.4461 180,107.528 " fill="none" id=":jvm:cli-&gt;:engine:net" style="stroke: #A80036; stroke-width: 1.0;"/><polygon fill="#A80036" points="180,112.6784,184,103.6784,180,107.6784,176,103.6784,180,112.6784" style="stroke: #A80036; stroke-width: 1.0;"/><!--MD5=[35d89bed032ef51c7a28171fa08d955c]
link :jvm:cli to :jvm:log--><path d="M153.4186,53.3441 C136.9101,68.9396 116.205,90.632 102,113 C74.8338,155.7773 70.6559,169.4586 60,219 C52.663,253.1111 52.0291,293.4218 52.66,319.7886 " fill="none" id=":jvm:cli-&gt;:jvm:log" style="stroke: #A80036; stroke-width: 1.0;"/><polygon fill="#A80036" points="52.8015,324.87,56.5492,315.7621,52.6622,319.8719,48.5523,315.9849,52.8015,324.87" style="stroke: #A80036; stroke-width: 1.0;"/><!--MD5=[7d821382eab19fa928c627b89af2ab8f]
link :jvm:cli to :core:cli--><path d="M219.4913,53.0004 C248.4882,69.8887 287.8891,92.8365 317.9126,110.3227 " fill="none" id=":jvm:cli-&gt;:core:cli" style="stroke: #A80036; stroke-width: 1.0;"/><polygon fill="#A80036" points="322.2719,112.8617,316.508,104.8756,317.9513,110.3453,312.4817,111.7886,322.2719,112.8617" style="stroke: #A80036; stroke-width: 1.0;"/><!--MD5=[e3066f4bbc50d37b7112537d5c54645c]
@startuml
[:engine:net] - -> [:engine:connectable]
[:engine:net] - -> [:engine:json]
[:jvm:log] - -> [:engine:log]
[:core:cli] - -> [:engine:translator]
[:core:cli] - -> [:core:api]
[:engine:connectable] - -> [:engine:util]
[:engine:connectable] - -> [:engine:log]
[:core:api] - -> [:engine:connectable]
[:jvm:cli] - -> [:engine:net]
[:jvm:cli] - -> [:jvm:log]
[:jvm:cli] - -> [:core:cli]
@enduml

PlantUML version 1.2020.15(Sun Jun 28 13:39:45 CEST 2020)
(GPL source distribution)
Java Runtime: OpenJDK Runtime Environment
JVM: OpenJDK 64-Bit Server VM
Default Encoding: UTF-8
Language: pl
Country: PL
--></g></svg>