<?xml version="1.0" encoding="UTF-8" standalone="no"?><svg xmlns="http://www.w3.org/2000/svg" xmlns:xlink="http://www.w3.org/1999/xlink" contentScriptType="application/ecmascript" contentStyleType="text/css" height="629px" preserveAspectRatio="none" style="width:1630px;height:629px;" version="1.1" viewBox="0 0 1630 629" width="1630px" zoomAndPan="magnify"><defs><filter height="300%" id="f1r7pdp52i5uox" width="300%" x="-1" y="-1"><feGaussianBlur result="blurOut" stdDeviation="2.0"/><feColorMatrix in="blurOut" result="blurOut2" type="matrix" values="0 0 0 0 0 0 0 0 0 0 0 0 0 0 0 0 0 0 .4 0"/><feOffset dx="4.0" dy="4.0" in="blurOut2" result="blurOut3"/><feBlend in="SourceGraphic" in2="blurOut3" mode="normal"/></filter></defs><g><!--MD5=[aae699ec891e4c0fc5af03006e3188bf]
cluster :platform--><polygon fill="#FFFFFF" filter="url(#f1r7pdp52i5uox)" points="564,112,642,112,649,134.2969,1608,134.2969,1608,193,564,193,564,112" style="stroke: #000000; stroke-width: 1.5;"/><line style="stroke: #000000; stroke-width: 1.5;" x1="564" x2="649" y1="134.2969" y2="134.2969"/><text fill="#000000" font-family="sans-serif" font-size="14" font-weight="bold" lengthAdjust="spacingAndGlyphs" textLength="72" x="568" y="126.9951">:platform</text><!--MD5=[30404b2edc0ff233b9122d63ae72b243]
cluster :core--><polygon fill="#FFFFFF" filter="url(#f1r7pdp52i5uox)" points="387,112,435,112,442,134.2969,545,134.2969,545,405,387,405,387,112" style="stroke: #000000; stroke-width: 1.5;"/><line style="stroke: #000000; stroke-width: 1.5;" x1="387" x2="442" y1="134.2969" y2="134.2969"/><text fill="#000000" font-family="sans-serif" font-size="14" font-weight="bold" lengthAdjust="spacingAndGlyphs" textLength="42" x="391" y="126.9951">:core</text><!--MD5=[6ed0a4222646c4be5d3ab2314135a570]
cluster :engine--><polygon fill="#FFFFFF" filter="url(#f1r7pdp52i5uox)" points="16,324,82,324,89,346.2969,379,346.2969,379,617,16,617,16,324" style="stroke: #000000; stroke-width: 1.5;"/><line style="stroke: #000000; stroke-width: 1.5;" x1="16" x2="89" y1="346.2969" y2="346.2969"/><text fill="#000000" font-family="sans-serif" font-size="14" font-weight="bold" lengthAdjust="spacingAndGlyphs" textLength="60" x="20" y="338.9951">:engine</text><!--MD5=[38bed82ef403f43335b5f79c3bac3389]
cluster :jvm--><polygon fill="#FFFFFF" filter="url(#f1r7pdp52i5uox)" points="799,6,838,6,845,28.2969,931,28.2969,931,87,799,87,799,6" style="stroke: #000000; stroke-width: 1.5;"/><line style="stroke: #000000; stroke-width: 1.5;" x1="799" x2="845" y1="28.2969" y2="28.2969"/><text fill="#000000" font-family="sans-serif" font-size="14" font-weight="bold" lengthAdjust="spacingAndGlyphs" textLength="33" x="803" y="20.9951">:jvm</text><!--MD5=[509c3f3d1427c0c11aaaf0eb5ab1e0ae]
entity :platform:repo:mock--><rect fill="#FEFECE" filter="url(#f1r7pdp52i5uox)" height="46.2969" style="stroke: #A80036; stroke-width: 1.5;" width="181" x="1228.5" y="139"/><rect fill="#FEFECE" height="10" style="stroke: #A80036; stroke-width: 1.5;" width="15" x="1389.5" y="144"/><rect fill="#FEFECE" height="2" style="stroke: #A80036; stroke-width: 1.5;" width="4" x="1387.5" y="146"/><rect fill="#FEFECE" height="2" style="stroke: #A80036; stroke-width: 1.5;" width="4" x="1387.5" y="150"/><text fill="#000000" font-family="sans-serif" font-size="14" lengthAdjust="spacingAndGlyphs" textLength="141" x="1243.5" y="171.9951">:platform:repo:mock</text><!--MD5=[1c225b802cc530de3307e5232f6a8997]
entity :platform:net:mock--><rect fill="#FEFECE" filter="url(#f1r7pdp52i5uox)" height="46.2969" style="stroke: #A80036; stroke-width: 1.5;" width="172" x="572" y="139"/><rect fill="#FEFECE" height="10" style="stroke: #A80036; stroke-width: 1.5;" width="15" x="724" y="144"/><rect fill="#FEFECE" height="2" style="stroke: #A80036; stroke-width: 1.5;" width="4" x="722" y="146"/><rect fill="#FEFECE" height="2" style="stroke: #A80036; stroke-width: 1.5;" width="4" x="722" y="150"/><text fill="#000000" font-family="sans-serif" font-size="14" lengthAdjust="spacingAndGlyphs" textLength="132" x="587" y="171.9951">:platform:net:mock</text><!--MD5=[9bbd7ab922207c63f4b7b7aee4cac83f]
entity :platform:sys:mock--><rect fill="#FEFECE" filter="url(#f1r7pdp52i5uox)" height="46.2969" style="stroke: #A80036; stroke-width: 1.5;" width="172" x="779" y="139"/><rect fill="#FEFECE" height="10" style="stroke: #A80036; stroke-width: 1.5;" width="15" x="931" y="144"/><rect fill="#FEFECE" height="2" style="stroke: #A80036; stroke-width: 1.5;" width="4" x="929" y="146"/><rect fill="#FEFECE" height="2" style="stroke: #A80036; stroke-width: 1.5;" width="4" x="929" y="150"/><text fill="#000000" font-family="sans-serif" font-size="14" lengthAdjust="spacingAndGlyphs" textLength="132" x="794" y="171.9951">:platform:sys:mock</text><!--MD5=[06041477aeb851ec1f14a811c8a02b53]
entity :platform:net:smack:jvm--><rect fill="#FEFECE" filter="url(#f1r7pdp52i5uox)" height="46.2969" style="stroke: #A80036; stroke-width: 1.5;" width="207" x="986.5" y="139"/><rect fill="#FEFECE" height="10" style="stroke: #A80036; stroke-width: 1.5;" width="15" x="1173.5" y="144"/><rect fill="#FEFECE" height="2" style="stroke: #A80036; stroke-width: 1.5;" width="4" x="1171.5" y="146"/><rect fill="#FEFECE" height="2" style="stroke: #A80036; stroke-width: 1.5;" width="4" x="1171.5" y="150"/><text fill="#000000" font-family="sans-serif" font-size="14" lengthAdjust="spacingAndGlyphs" textLength="167" x="1001.5" y="171.9951">:platform:net:smack:jvm</text><!--MD5=[e9b68b4f7f0bf6e331dd03797eba429d]
entity :platform:log:jvm--><rect fill="#FEFECE" filter="url(#f1r7pdp52i5uox)" height="46.2969" style="stroke: #A80036; stroke-width: 1.5;" width="155" x="1444.5" y="139"/><rect fill="#FEFECE" height="10" style="stroke: #A80036; stroke-width: 1.5;" width="15" x="1579.5" y="144"/><rect fill="#FEFECE" height="2" style="stroke: #A80036; stroke-width: 1.5;" width="4" x="1577.5" y="146"/><rect fill="#FEFECE" height="2" style="stroke: #A80036; stroke-width: 1.5;" width="4" x="1577.5" y="150"/><text fill="#000000" font-family="sans-serif" font-size="14" lengthAdjust="spacingAndGlyphs" textLength="115" x="1459.5" y="171.9951">:platform:log:jvm</text><!--MD5=[6b3c72c52f198a8ada63b8c5ce9355bc]
entity :core:backend--><rect fill="#FEFECE" filter="url(#f1r7pdp52i5uox)" height="46.2969" style="stroke: #A80036; stroke-width: 1.5;" width="141" x="395.5" y="139"/><rect fill="#FEFECE" height="10" style="stroke: #A80036; stroke-width: 1.5;" width="15" x="516.5" y="144"/><rect fill="#FEFECE" height="2" style="stroke: #A80036; stroke-width: 1.5;" width="4" x="514.5" y="146"/><rect fill="#FEFECE" height="2" style="stroke: #A80036; stroke-width: 1.5;" width="4" x="514.5" y="150"/><text fill="#000000" font-family="sans-serif" font-size="14" lengthAdjust="spacingAndGlyphs" textLength="101" x="410.5" y="171.9951">:core:backend</text><!--MD5=[bb042d61f43125fc2fe6ee382cb3d84b]
entity :core:api--><rect fill="#FEFECE" filter="url(#f1r7pdp52i5uox)" height="46.2969" style="stroke: #A80036; stroke-width: 1.5;" width="101" x="435.5" y="351"/><rect fill="#FEFECE" height="10" style="stroke: #A80036; stroke-width: 1.5;" width="15" x="516.5" y="356"/><rect fill="#FEFECE" height="2" style="stroke: #A80036; stroke-width: 1.5;" width="4" x="514.5" y="358"/><rect fill="#FEFECE" height="2" style="stroke: #A80036; stroke-width: 1.5;" width="4" x="514.5" y="362"/><text fill="#000000" font-family="sans-serif" font-size="14" lengthAdjust="spacingAndGlyphs" textLength="61" x="450.5" y="383.9951">:core:api</text><!--MD5=[c0f778923607b3b2b1776544ac20a677]
entity :core:domain--><rect fill="#FEFECE" filter="url(#f1r7pdp52i5uox)" height="46.2969" style="stroke: #A80036; stroke-width: 1.5;" width="132" x="400" y="245"/><rect fill="#FEFECE" height="10" style="stroke: #A80036; stroke-width: 1.5;" width="15" x="512" y="250"/><rect fill="#FEFECE" height="2" style="stroke: #A80036; stroke-width: 1.5;" width="4" x="510" y="252"/><rect fill="#FEFECE" height="2" style="stroke: #A80036; stroke-width: 1.5;" width="4" x="510" y="256"/><text fill="#000000" font-family="sans-serif" font-size="14" lengthAdjust="spacingAndGlyphs" textLength="92" x="415" y="277.9951">:core:domain</text><!--MD5=[486755d95e08f80cb04a0aa885580c7b]
entity :engine:net--><rect fill="#FEFECE" filter="url(#f1r7pdp52i5uox)" height="46.2969" style="stroke: #A80036; stroke-width: 1.5;" width="121" x="69.5" y="351"/><rect fill="#FEFECE" height="10" style="stroke: #A80036; stroke-width: 1.5;" width="15" x="170.5" y="356"/><rect fill="#FEFECE" height="2" style="stroke: #A80036; stroke-width: 1.5;" width="4" x="168.5" y="358"/><rect fill="#FEFECE" height="2" style="stroke: #A80036; stroke-width: 1.5;" width="4" x="168.5" y="362"/><text fill="#000000" font-family="sans-serif" font-size="14" lengthAdjust="spacingAndGlyphs" textLength="81" x="84.5" y="383.9951">:engine:net</text><!--MD5=[474bc7754ff50e9887f34633b92b9e02]
entity :engine:connectable--><rect fill="#FEFECE" filter="url(#f1r7pdp52i5uox)" height="46.2969" style="stroke: #A80036; stroke-width: 1.5;" width="184" x="187" y="457"/><rect fill="#FEFECE" height="10" style="stroke: #A80036; stroke-width: 1.5;" width="15" x="351" y="462"/><rect fill="#FEFECE" height="2" style="stroke: #A80036; stroke-width: 1.5;" width="4" x="349" y="464"/><rect fill="#FEFECE" height="2" style="stroke: #A80036; stroke-width: 1.5;" width="4" x="349" y="468"/><text fill="#000000" font-family="sans-serif" font-size="14" lengthAdjust="spacingAndGlyphs" textLength="144" x="202" y="489.9951">:engine:connectable</text><!--MD5=[8e94acc19a10f03efd288fb36eb4472b]
entity :engine:util--><rect fill="#FEFECE" filter="url(#f1r7pdp52i5uox)" height="46.2969" style="stroke: #A80036; stroke-width: 1.5;" width="118" x="98" y="563"/><rect fill="#FEFECE" height="10" style="stroke: #A80036; stroke-width: 1.5;" width="15" x="196" y="568"/><rect fill="#FEFECE" height="2" style="stroke: #A80036; stroke-width: 1.5;" width="4" x="194" y="570"/><rect fill="#FEFECE" height="2" style="stroke: #A80036; stroke-width: 1.5;" width="4" x="194" y="574"/><text fill="#000000" font-family="sans-serif" font-size="14" lengthAdjust="spacingAndGlyphs" textLength="78" x="113" y="595.9951">:engine:util</text><!--MD5=[f7af38a47341a5d6bbb7054022a18e1f]
entity :engine:log--><rect fill="#FEFECE" filter="url(#f1r7pdp52i5uox)" height="46.2969" style="stroke: #A80036; stroke-width: 1.5;" width="119" x="251.5" y="563"/><rect fill="#FEFECE" height="10" style="stroke: #A80036; stroke-width: 1.5;" width="15" x="350.5" y="568"/><rect fill="#FEFECE" height="2" style="stroke: #A80036; stroke-width: 1.5;" width="4" x="348.5" y="570"/><rect fill="#FEFECE" height="2" style="stroke: #A80036; stroke-width: 1.5;" width="4" x="348.5" y="574"/><text fill="#000000" font-family="sans-serif" font-size="14" lengthAdjust="spacingAndGlyphs" textLength="79" x="266.5" y="595.9951">:engine:log</text><!--MD5=[8725e2f32c833bede44e6c458fce3254]
entity :engine:paging--><rect fill="#FEFECE" filter="url(#f1r7pdp52i5uox)" height="46.2969" style="stroke: #A80036; stroke-width: 1.5;" width="145" x="225.5" y="351"/><rect fill="#FEFECE" height="10" style="stroke: #A80036; stroke-width: 1.5;" width="15" x="350.5" y="356"/><rect fill="#FEFECE" height="2" style="stroke: #A80036; stroke-width: 1.5;" width="4" x="348.5" y="358"/><rect fill="#FEFECE" height="2" style="stroke: #A80036; stroke-width: 1.5;" width="4" x="348.5" y="362"/><text fill="#000000" font-family="sans-serif" font-size="14" lengthAdjust="spacingAndGlyphs" textLength="105" x="240.5" y="383.9951">:engine:paging</text><!--MD5=[de9e9b3b438569aa67cb351d8b039e39]
entity :engine:json--><rect fill="#FEFECE" filter="url(#f1r7pdp52i5uox)" height="46.2969" style="stroke: #A80036; stroke-width: 1.5;" width="127" x="24.5" y="457"/><rect fill="#FEFECE" height="10" style="stroke: #A80036; stroke-width: 1.5;" width="15" x="131.5" y="462"/><rect fill="#FEFECE" height="2" style="stroke: #A80036; stroke-width: 1.5;" width="4" x="129.5" y="464"/><rect fill="#FEFECE" height="2" style="stroke: #A80036; stroke-width: 1.5;" width="4" x="129.5" y="468"/><text fill="#000000" font-family="sans-serif" font-size="14" lengthAdjust="spacingAndGlyphs" textLength="87" x="39.5" y="489.9951">:engine:json</text><!--MD5=[7a8db28f95dace5dcd53803600931555]
entity :jvm:server--><rect fill="#FEFECE" filter="url(#f1r7pdp52i5uox)" height="46.2969" style="stroke: #A80036; stroke-width: 1.5;" width="116" x="807" y="33"/><rect fill="#FEFECE" height="10" style="stroke: #A80036; stroke-width: 1.5;" width="15" x="903" y="38"/><rect fill="#FEFECE" height="2" style="stroke: #A80036; stroke-width: 1.5;" width="4" x="901" y="40"/><rect fill="#FEFECE" height="2" style="stroke: #A80036; stroke-width: 1.5;" width="4" x="901" y="44"/><text fill="#000000" font-family="sans-serif" font-size="14" lengthAdjust="spacingAndGlyphs" textLength="76" x="822" y="65.9951">:jvm:server</text><!--MD5=[07e25c34b77ca4ed202fe1bbdfd10503]
link :platform:repo:mock to :core:api--><path d="M1240.0502,185.0052 C1230.281,187.7503 1220.4205,190.4729 1211,193 C962.2791,259.7215 663.3813,331.7945 541.6558,360.8056 " fill="none" id=":platform:repo:mock-&gt;:core:api" style="stroke: #A80036; stroke-width: 1.0;"/><polygon fill="#A80036" points="536.6967,361.987,546.3787,363.7921,541.5606,360.8281,544.5245,356.01,536.6967,361.987" style="stroke: #A80036; stroke-width: 1.0;"/><!--MD5=[4c1f13cea14ac3861d0e0770cadffd30]
link :platform:net:mock to :core:api--><path d="M639.2656,185.0913 C607.2138,224.597 542.0211,304.9508 507.9129,346.991 " fill="none" id=":platform:net:mock-&gt;:core:api" style="stroke: #A80036; stroke-width: 1.0;"/><polygon fill="#A80036" points="504.7113,350.9372,513.4878,346.4682,507.8614,347.0543,507.2753,341.4279,504.7113,350.9372" style="stroke: #A80036; stroke-width: 1.0;"/><!--MD5=[c620faf2fecf096fd9bfe35a94b28242]
link :platform:sys:mock to :core:api--><path d="M823.7189,185.0913 C752.3812,224.9952 606.5381,306.575 532.033,348.2507 " fill="none" id=":platform:sys:mock-&gt;:core:api" style="stroke: #A80036; stroke-width: 1.0;"/><polygon fill="#A80036" points="527.2302,350.9372,537.0376,350.0344,531.5939,348.4962,533.132,343.0525,527.2302,350.9372" style="stroke: #A80036; stroke-width: 1.0;"/><!--MD5=[4e7adaad226bc1827d2eb345b09825bf]
link :platform:net:smack:jvm to :core:api--><path d="M1024.2116,185.0913 C904.6073,227.0716 653.5875,315.1779 541.7821,354.4208 " fill="none" id=":platform:net:smack:jvm-&gt;:core:api" style="stroke: #A80036; stroke-width: 1.0;"/><polygon fill="#A80036" points="536.8889,356.1383,546.7057,356.9318,541.6067,354.4823,544.0562,349.3833,536.8889,356.1383" style="stroke: #A80036; stroke-width: 1.0;"/><!--MD5=[d2e99a31c5c69c260843e58b87a30949]
link :core:backend to :core:domain--><path d="M466,185.0004 C466,201.003 466,222.4461 466,239.528 " fill="none" id=":core:backend-&gt;:core:domain" style="stroke: #A80036; stroke-width: 1.0;"/><polygon fill="#A80036" points="466,244.6784,470,235.6784,466,239.6784,462,235.6784,466,244.6784" style="stroke: #A80036; stroke-width: 1.0;"/><!--MD5=[d2d1f0be6436256e6d977803045f7553]
link :engine:net to :engine:connectable--><path d="M162.3308,397.0004 C185.8754,413.7503 217.7986,436.4607 242.3005,453.8917 " fill="none" id=":engine:net-&gt;:engine:connectable" style="stroke: #A80036; stroke-width: 1.0;"/><polygon fill="#A80036" points="246.4754,456.8617,241.4605,448.3852,242.4012,453.9633,236.8231,454.904,246.4754,456.8617" style="stroke: #A80036; stroke-width: 1.0;"/><!--MD5=[9e0cd9895457fd564306a213d979b005]
link :engine:net to :engine:json--><path d="M120.8866,397.0004 C114.4913,413.1409 105.903,434.8162 99.1067,451.9688 " fill="none" id=":engine:net-&gt;:engine:json" style="stroke: #A80036; stroke-width: 1.0;"/><polygon fill="#A80036" points="97.2406,456.6784,104.2748,449.7849,99.0826,452.0301,96.8375,446.8378,97.2406,456.6784" style="stroke: #A80036; stroke-width: 1.0;"/><!--MD5=[a35a9ea5d16e6716e3306a59064739c3]
link :platform:log:jvm to :engine:log--><path d="M1456.0314,185.0972 C1244.4743,259.1684 584.654,490.1872 375.3712,563.4621 " fill="none" id=":platform:log:jvm-&gt;:engine:log" style="stroke: #A80036; stroke-width: 1.0;"/><polygon fill="#A80036" points="370.5118,565.1635,380.328,565.9647,375.2309,563.5112,377.6844,558.4141,370.5118,565.1635" style="stroke: #A80036; stroke-width: 1.0;"/><!--MD5=[eaf14edc6043f7290cbfd1583ac6425c]
link :core:api to :engine:connectable--><path d="M441.0841,397.0004 C407.969,413.9579 362.9234,437.0247 328.724,454.5375 " fill="none" id=":core:api-&gt;:engine:connectable" style="stroke: #A80036; stroke-width: 1.0;"/><polygon fill="#A80036" points="324.1852,456.8617,334.0191,456.3198,328.6356,454.5827,330.3728,449.1992,324.1852,456.8617" style="stroke: #A80036; stroke-width: 1.0;"/><!--MD5=[bca29f017d1f9d57df28eb8d83e96ded]
link :engine:connectable to :engine:util--><path d="M252.5278,503.0004 C233.4747,519.5548 207.7205,541.9314 187.7542,559.2791 " fill="none" id=":engine:connectable-&gt;:engine:util" style="stroke: #A80036; stroke-width: 1.0;"/><polygon fill="#A80036" points="183.8418,562.6784,193.2591,559.795,187.6162,559.399,188.0121,553.7561,183.8418,562.6784" style="stroke: #A80036; stroke-width: 1.0;"/><!--MD5=[6eb7bccd1a3c6d4cd083766ccbfc4317]
link :engine:connectable to :engine:log--><path d="M285.9435,503.0004 C290.7745,519.003 297.2479,540.4461 302.4047,557.528 " fill="none" id=":engine:connectable-&gt;:engine:log" style="stroke: #A80036; stroke-width: 1.0;"/><polygon fill="#A80036" points="303.9595,562.6784,305.1876,552.9064,302.5144,557.8918,297.529,555.2186,303.9595,562.6784" style="stroke: #A80036; stroke-width: 1.0;"/><!--MD5=[65eb7b96c45847cf49dcf75272b402ce]
link :core:domain to :engine:paging--><path d="M429.5465,291.0004 C402.8899,307.8195 366.708,330.6485 339.0372,348.1075 " fill="none" id=":core:domain-&gt;:engine:paging" style="stroke: #A80036; stroke-width: 1.0;"/><polygon fill="#A80036" points="334.6721,350.8617,344.4181,349.442,338.9007,348.1936,340.1492,342.6762,334.6721,350.8617" style="stroke: #A80036; stroke-width: 1.0;"/><!--MD5=[12ebccdcc75f98176baa7aae27ae41f5]
link :core:domain to :core:api--><path d="M470.3397,291.0004 C473.359,307.003 477.4049,328.4461 480.6279,345.528 " fill="none" id=":core:domain-&gt;:core:api" style="stroke: #A80036; stroke-width: 1.0;"/><polygon fill="#A80036" points="481.5997,350.6784,483.8615,341.0928,480.6726,345.7651,476.0002,342.5762,481.5997,350.6784" style="stroke: #A80036; stroke-width: 1.0;"/><!--MD5=[d4ef7b1870e0a75e212398b8e6392298]
link :jvm:server to :platform:repo:mock--><path d="M923.0327,60.5206 C992.6676,67.0504 1112.3737,81.813 1211,112 C1231.4904,118.2716 1253.1039,127.6678 1271.5675,136.6276 " fill="none" id=":jvm:server-&gt;:platform:repo:mock" style="stroke: #A80036; stroke-width: 1.0;"/><polygon fill="#A80036" points="1276.1912,138.894,1269.8704,131.341,1271.7015,136.6933,1266.3493,138.5245,1276.1912,138.894" style="stroke: #A80036; stroke-width: 1.0;"/><!--MD5=[80eab72c6af8bb78c7a0ca026fc51837]
link :jvm:server to :platform:net:mock--><path d="M820.0841,79.0004 C786.969,95.9579 741.9234,119.0247 707.724,136.5375 " fill="none" id=":jvm:server-&gt;:platform:net:mock" style="stroke: #A80036; stroke-width: 1.0;"/><polygon fill="#A80036" points="703.1852,138.8617,713.0191,138.3198,707.6356,136.5827,709.3728,131.1992,703.1852,138.8617" style="stroke: #A80036; stroke-width: 1.0;"/><!--MD5=[1908331fc5b983b6923f304a90964d4c]
link :jvm:server to :platform:sys:mock--><path d="M865,79.0004 C865,95.003 865,116.4461 865,133.528 " fill="none" id=":jvm:server-&gt;:platform:sys:mock" style="stroke: #A80036; stroke-width: 1.0;"/><polygon fill="#A80036" points="865,138.6784,869,129.6784,865,133.6784,861,129.6784,865,138.6784" style="stroke: #A80036; stroke-width: 1.0;"/><!--MD5=[22d99c4b8bd26c7d66cc7f81664eaab6]
link :jvm:server to :platform:net:smack:jvm--><path d="M913.8216,79.0004 C949.8163,95.9579 998.7789,119.0247 1035.9522,136.5375 " fill="none" id=":jvm:server-&gt;:platform:net:smack:jvm" style="stroke: #A80036; stroke-width: 1.0;"/><polygon fill="#A80036" points="1040.8856,138.8617,1034.4487,131.4074,1036.3625,136.7307,1031.0391,138.6444,1040.8856,138.8617" style="stroke: #A80036; stroke-width: 1.0;"/><!--MD5=[7a8fc7f57920d4db20fd83ebcb921977]
link :jvm:server to :core:backend--><path d="M806.8728,60.8119 C743.6457,67.3485 640.3266,81.8674 556,112 C538.763,118.1593 520.9146,127.3919 505.7023,136.2533 " fill="none" id=":jvm:server-&gt;:core:backend" style="stroke: #A80036; stroke-width: 1.0;"/><polygon fill="#A80036" points="501.0695,138.9877,510.8533,137.8577,505.3754,136.4462,506.7869,130.9683,501.0695,138.9877" style="stroke: #A80036; stroke-width: 1.0;"/><!--MD5=[29d026dc4beabb255aa0570f19d000b9]
link :jvm:server to :engine:net--><path d="M806.6952,57.7748 C694.4296,61.9912 452.8147,75.173 379,112 C269.2225,166.7693 181.895,290.6885 146.7522,346.1974 " fill="none" id=":jvm:server-&gt;:engine:net" style="stroke: #A80036; stroke-width: 1.0;"/><polygon fill="#A80036" points="143.9128,350.7136,152.0896,345.2236,146.5742,346.4808,145.3171,340.9654,143.9128,350.7136" style="stroke: #A80036; stroke-width: 1.0;"/><!--MD5=[024e108a2f4824a3351704184850e586]
link :jvm:server to :platform:log:jvm--><path d="M923.2154,58.9679 C1047.2409,65.7507 1333.7993,83.9951 1427,112 C1445.7629,117.6379 1465.1346,127.076 1481.4516,136.2429 " fill="none" id=":jvm:server-&gt;:platform:log:jvm" style="stroke: #A80036; stroke-width: 1.0;"/><polygon fill="#A80036" points="1485.9698,138.8178,1480.131,130.8863,1481.6257,136.3421,1476.1699,137.8368,1485.9698,138.8178" style="stroke: #A80036; stroke-width: 1.0;"/><!--MD5=[a5b576b66d1c9784cd5307fbea4803b3]
@startuml
package ":platform" {
[:platform:repo:mock]
[:platform:net:mock]
[:platform:sys:mock]
[:platform:net:smack:jvm]
[:platform:log:jvm]
}
package ":core" {
[:core:backend]
[:core:api]
[:core:domain]
}
package ":engine" {
[:engine:net]
[:engine:connectable]
[:engine:util]
[:engine:log]
[:engine:paging]
[:engine:json]
}
package ":jvm" {
[:jvm:server]
}
[:platform:repo:mock] - -> [:core:api]
[:platform:net:mock] - -> [:core:api]
[:platform:sys:mock] - -> [:core:api]
[:platform:net:smack:jvm] - -> [:core:api]
[:core:backend] - -> [:core:domain]
[:engine:net] - -> [:engine:connectable]
[:engine:net] - -> [:engine:json]
[:platform:log:jvm] - -> [:engine:log]
[:core:api] - -> [:engine:connectable]
[:engine:connectable] - -> [:engine:util]
[:engine:connectable] - -> [:engine:log]
[:core:domain] - -> [:engine:paging]
[:core:domain] - -> [:core:api]
[:jvm:server] - -> [:platform:repo:mock]
[:jvm:server] - -> [:platform:net:mock]
[:jvm:server] - -> [:platform:sys:mock]
[:jvm:server] - -> [:platform:net:smack:jvm]
[:jvm:server] - -> [:core:backend]
[:jvm:server] - -> [:engine:net]
[:jvm:server] - -> [:platform:log:jvm]
@enduml

PlantUML version 1.2020.15(Sun Jun 28 13:39:45 CEST 2020)
(GPL source distribution)
Java Runtime: OpenJDK Runtime Environment
JVM: OpenJDK 64-Bit Server VM
Default Encoding: UTF-8
Language: pl
Country: PL
--></g></svg>