<?xml version="1.0" encoding="UTF-8" standalone="no"?><svg xmlns="http://www.w3.org/2000/svg" xmlns:xlink="http://www.w3.org/1999/xlink" contentScriptType="application/ecmascript" contentStyleType="text/css" height="523px" preserveAspectRatio="none" style="width:645px;height:523px;" version="1.1" viewBox="0 0 645 523" width="645px" zoomAndPan="magnify"><defs><filter height="300%" id="fgfjh0zmqgwzf" width="300%" x="-1" y="-1"><feGaussianBlur result="blurOut" stdDeviation="2.0"/><feColorMatrix in="blurOut" result="blurOut2" type="matrix" values="0 0 0 0 0 0 0 0 0 0 0 0 0 0 0 0 0 0 .4 0"/><feOffset dx="4.0" dy="4.0" in="blurOut2" result="blurOut3"/><feBlend in="SourceGraphic" in2="blurOut3" mode="normal"/></filter></defs><g><!--MD5=[30404b2edc0ff233b9122d63ae72b243]
cluster :core--><polygon fill="#FFFFFF" filter="url(#fgfjh0zmqgwzf)" points="16,112,64,112,71,134.2969,134,134.2969,134,299,16,299,16,112" style="stroke: #000000; stroke-width: 1.5;"/><line style="stroke: #000000; stroke-width: 1.5;" x1="16" x2="71" y1="134.2969" y2="134.2969"/><text fill="#000000" font-family="sans-serif" font-size="14" font-weight="bold" lengthAdjust="spacingAndGlyphs" textLength="42" x="20" y="126.9951">:core</text><!--MD5=[6ed0a4222646c4be5d3ab2314135a570]
cluster :engine--><polygon fill="#FFFFFF" filter="url(#fgfjh0zmqgwzf)" points="142,218,208,218,215,240.2969,505,240.2969,505,511,142,511,142,218" style="stroke: #000000; stroke-width: 1.5;"/><line style="stroke: #000000; stroke-width: 1.5;" x1="142" x2="215" y1="240.2969" y2="240.2969"/><text fill="#000000" font-family="sans-serif" font-size="14" font-weight="bold" lengthAdjust="spacingAndGlyphs" textLength="60" x="146" y="232.9951">:engine</text><!--MD5=[aae699ec891e4c0fc5af03006e3188bf]
cluster :platform--><polygon fill="#FFFFFF" filter="url(#fgfjh0zmqgwzf)" points="451,112,529,112,536,134.2969,623,134.2969,623,193,451,193,451,112" style="stroke: #000000; stroke-width: 1.5;"/><line style="stroke: #000000; stroke-width: 1.5;" x1="451" x2="536" y1="134.2969" y2="134.2969"/><text fill="#000000" font-family="sans-serif" font-size="14" font-weight="bold" lengthAdjust="spacingAndGlyphs" textLength="72" x="455" y="126.9951">:platform</text><!--MD5=[8e4c312b0b41d0712f148ccd6208f491]
cluster :app--><polygon fill="#FFFFFF" filter="url(#fgfjh0zmqgwzf)" points="314,6,355,6,362,28.2969,448,28.2969,448,87,314,87,314,6" style="stroke: #000000; stroke-width: 1.5;"/><line style="stroke: #000000; stroke-width: 1.5;" x1="314" x2="362" y1="28.2969" y2="28.2969"/><text fill="#000000" font-family="sans-serif" font-size="14" font-weight="bold" lengthAdjust="spacingAndGlyphs" textLength="35" x="318" y="20.9951">:app</text><!--MD5=[b4e25f7522ba1111eb2df4fe1b5db7c7]
entity :core:cli--><rect fill="#FEFECE" filter="url(#fgfjh0zmqgwzf)" height="46.2969" style="stroke: #A80036; stroke-width: 1.5;" width="95" x="30.5" y="139"/><rect fill="#FEFECE" height="10" style="stroke: #A80036; stroke-width: 1.5;" width="15" x="105.5" y="144"/><rect fill="#FEFECE" height="2" style="stroke: #A80036; stroke-width: 1.5;" width="4" x="103.5" y="146"/><rect fill="#FEFECE" height="2" style="stroke: #A80036; stroke-width: 1.5;" width="4" x="103.5" y="150"/><text fill="#000000" font-family="sans-serif" font-size="14" lengthAdjust="spacingAndGlyphs" textLength="55" x="45.5" y="171.9951">:core:cli</text><!--MD5=[bb042d61f43125fc2fe6ee382cb3d84b]
entity :core:api--><rect fill="#FEFECE" filter="url(#fgfjh0zmqgwzf)" height="46.2969" style="stroke: #A80036; stroke-width: 1.5;" width="101" x="24.5" y="245"/><rect fill="#FEFECE" height="10" style="stroke: #A80036; stroke-width: 1.5;" width="15" x="105.5" y="250"/><rect fill="#FEFECE" height="2" style="stroke: #A80036; stroke-width: 1.5;" width="4" x="103.5" y="252"/><rect fill="#FEFECE" height="2" style="stroke: #A80036; stroke-width: 1.5;" width="4" x="103.5" y="256"/><text fill="#000000" font-family="sans-serif" font-size="14" lengthAdjust="spacingAndGlyphs" textLength="61" x="39.5" y="277.9951">:core:api</text><!--MD5=[486755d95e08f80cb04a0aa885580c7b]
entity :engine:net--><rect fill="#FEFECE" filter="url(#fgfjh0zmqgwzf)" height="46.2969" style="stroke: #A80036; stroke-width: 1.5;" width="121" x="320.5" y="245"/><rect fill="#FEFECE" height="10" style="stroke: #A80036; stroke-width: 1.5;" width="15" x="421.5" y="250"/><rect fill="#FEFECE" height="2" style="stroke: #A80036; stroke-width: 1.5;" width="4" x="419.5" y="252"/><rect fill="#FEFECE" height="2" style="stroke: #A80036; stroke-width: 1.5;" width="4" x="419.5" y="256"/><text fill="#000000" font-family="sans-serif" font-size="14" lengthAdjust="spacingAndGlyphs" textLength="81" x="335.5" y="277.9951">:engine:net</text><!--MD5=[b1a5c1b7043cf28b088abaf3e6a555a0]
entity :engine:cli--><rect fill="#FEFECE" filter="url(#fgfjh0zmqgwzf)" height="46.2969" style="stroke: #A80036; stroke-width: 1.5;" width="112" x="161" y="245"/><rect fill="#FEFECE" height="10" style="stroke: #A80036; stroke-width: 1.5;" width="15" x="253" y="250"/><rect fill="#FEFECE" height="2" style="stroke: #A80036; stroke-width: 1.5;" width="4" x="251" y="252"/><rect fill="#FEFECE" height="2" style="stroke: #A80036; stroke-width: 1.5;" width="4" x="251" y="256"/><text fill="#000000" font-family="sans-serif" font-size="14" lengthAdjust="spacingAndGlyphs" textLength="72" x="176" y="277.9951">:engine:cli</text><!--MD5=[474bc7754ff50e9887f34633b92b9e02]
entity :engine:connectable--><rect fill="#FEFECE" filter="url(#fgfjh0zmqgwzf)" height="46.2969" style="stroke: #A80036; stroke-width: 1.5;" width="184" x="150" y="351"/><rect fill="#FEFECE" height="10" style="stroke: #A80036; stroke-width: 1.5;" width="15" x="314" y="356"/><rect fill="#FEFECE" height="2" style="stroke: #A80036; stroke-width: 1.5;" width="4" x="312" y="358"/><rect fill="#FEFECE" height="2" style="stroke: #A80036; stroke-width: 1.5;" width="4" x="312" y="362"/><text fill="#000000" font-family="sans-serif" font-size="14" lengthAdjust="spacingAndGlyphs" textLength="144" x="165" y="383.9951">:engine:connectable</text><!--MD5=[8e94acc19a10f03efd288fb36eb4472b]
entity :engine:util--><rect fill="#FEFECE" filter="url(#fgfjh0zmqgwzf)" height="46.2969" style="stroke: #A80036; stroke-width: 1.5;" width="118" x="183" y="457"/><rect fill="#FEFECE" height="10" style="stroke: #A80036; stroke-width: 1.5;" width="15" x="281" y="462"/><rect fill="#FEFECE" height="2" style="stroke: #A80036; stroke-width: 1.5;" width="4" x="279" y="464"/><rect fill="#FEFECE" height="2" style="stroke: #A80036; stroke-width: 1.5;" width="4" x="279" y="468"/><text fill="#000000" font-family="sans-serif" font-size="14" lengthAdjust="spacingAndGlyphs" textLength="78" x="198" y="489.9951">:engine:util</text><!--MD5=[f7af38a47341a5d6bbb7054022a18e1f]
entity :engine:log--><rect fill="#FEFECE" filter="url(#fgfjh0zmqgwzf)" height="46.2969" style="stroke: #A80036; stroke-width: 1.5;" width="119" x="356.5" y="457"/><rect fill="#FEFECE" height="10" style="stroke: #A80036; stroke-width: 1.5;" width="15" x="455.5" y="462"/><rect fill="#FEFECE" height="2" style="stroke: #A80036; stroke-width: 1.5;" width="4" x="453.5" y="464"/><rect fill="#FEFECE" height="2" style="stroke: #A80036; stroke-width: 1.5;" width="4" x="453.5" y="468"/><text fill="#000000" font-family="sans-serif" font-size="14" lengthAdjust="spacingAndGlyphs" textLength="79" x="371.5" y="489.9951">:engine:log</text><!--MD5=[de9e9b3b438569aa67cb351d8b039e39]
entity :engine:json--><rect fill="#FEFECE" filter="url(#fgfjh0zmqgwzf)" height="46.2969" style="stroke: #A80036; stroke-width: 1.5;" width="127" x="369.5" y="351"/><rect fill="#FEFECE" height="10" style="stroke: #A80036; stroke-width: 1.5;" width="15" x="476.5" y="356"/><rect fill="#FEFECE" height="2" style="stroke: #A80036; stroke-width: 1.5;" width="4" x="474.5" y="358"/><rect fill="#FEFECE" height="2" style="stroke: #A80036; stroke-width: 1.5;" width="4" x="474.5" y="362"/><text fill="#000000" font-family="sans-serif" font-size="14" lengthAdjust="spacingAndGlyphs" textLength="87" x="384.5" y="383.9951">:engine:json</text><!--MD5=[e9b68b4f7f0bf6e331dd03797eba429d]
entity :platform:log:jvm--><rect fill="#FEFECE" filter="url(#fgfjh0zmqgwzf)" height="46.2969" style="stroke: #A80036; stroke-width: 1.5;" width="155" x="459.5" y="139"/><rect fill="#FEFECE" height="10" style="stroke: #A80036; stroke-width: 1.5;" width="15" x="594.5" y="144"/><rect fill="#FEFECE" height="2" style="stroke: #A80036; stroke-width: 1.5;" width="4" x="592.5" y="146"/><rect fill="#FEFECE" height="2" style="stroke: #A80036; stroke-width: 1.5;" width="4" x="592.5" y="150"/><text fill="#000000" font-family="sans-serif" font-size="14" lengthAdjust="spacingAndGlyphs" textLength="115" x="474.5" y="171.9951">:platform:log:jvm</text><!--MD5=[3957040fee0fc7e85c96f9a904769118]
entity :app:jvm:cli--><rect fill="#FEFECE" filter="url(#fgfjh0zmqgwzf)" height="46.2969" style="stroke: #A80036; stroke-width: 1.5;" width="118" x="322" y="33"/><rect fill="#FEFECE" height="10" style="stroke: #A80036; stroke-width: 1.5;" width="15" x="420" y="38"/><rect fill="#FEFECE" height="2" style="stroke: #A80036; stroke-width: 1.5;" width="4" x="418" y="40"/><rect fill="#FEFECE" height="2" style="stroke: #A80036; stroke-width: 1.5;" width="4" x="418" y="44"/><text fill="#000000" font-family="sans-serif" font-size="14" lengthAdjust="spacingAndGlyphs" textLength="78" x="337" y="65.9951">:app:jvm:cli</text><!--MD5=[96012938fdd1c83908d6d8b08d198ee4]
link :core:cli to :engine:cli--><path d="M108.1609,185.0004 C129.9594,201.6237 159.4565,224.1179 182.2444,241.4957 " fill="none" id=":core:cli-&gt;:engine:cli" style="stroke: #A80036; stroke-width: 1.0;"/><polygon fill="#A80036" points="186.4179,244.6784,181.687,236.0402,182.4421,241.6464,176.8358,242.4015,186.4179,244.6784" style="stroke: #A80036; stroke-width: 1.0;"/><!--MD5=[c2bb4decd7a24ab2954465b21eb4e89b]
link :core:cli to :core:api--><path d="M77.349,185.0004 C76.8961,201.003 76.2893,222.4461 75.8058,239.528 " fill="none" id=":core:cli-&gt;:core:api" style="stroke: #A80036; stroke-width: 1.0;"/><polygon fill="#A80036" points="75.66,244.6784,79.9132,235.7953,75.8016,239.6804,71.9164,235.5688,75.66,244.6784" style="stroke: #A80036; stroke-width: 1.0;"/><!--MD5=[d2d1f0be6436256e6d977803045f7553]
link :engine:net to :engine:connectable--><path d="M350.8391,291.0004 C329.0406,307.6237 299.5435,330.1179 276.7556,347.4957 " fill="none" id=":engine:net-&gt;:engine:connectable" style="stroke: #A80036; stroke-width: 1.0;"/><polygon fill="#A80036" points="272.5821,350.6784,282.1642,348.4015,276.5579,347.6464,277.313,342.0402,272.5821,350.6784" style="stroke: #A80036; stroke-width: 1.0;"/><!--MD5=[9e0cd9895457fd564306a213d979b005]
link :engine:net to :engine:json--><path d="M392.2832,291.0004 C400.2012,307.1409 410.8343,328.8162 419.2488,345.9688 " fill="none" id=":engine:net-&gt;:engine:json" style="stroke: #A80036; stroke-width: 1.0;"/><polygon fill="#A80036" points="421.5592,350.6784,421.1865,340.8366,419.3571,346.1894,414.0042,344.36,421.5592,350.6784" style="stroke: #A80036; stroke-width: 1.0;"/><!--MD5=[a35a9ea5d16e6716e3306a59064739c3]
link :platform:log:jvm to :engine:log--><path d="M540.2193,185.303 C545.1806,229.4502 550.6376,327.108 514,397 C501.8741,420.1321 480.3261,439.4732 460.5177,453.6492 " fill="none" id=":platform:log:jvm-&gt;:engine:log" style="stroke: #A80036; stroke-width: 1.0;"/><polygon fill="#A80036" points="456.058,456.7764,465.7234,454.8842,460.1518,453.9057,461.1303,448.3341,456.058,456.7764" style="stroke: #A80036; stroke-width: 1.0;"/><!--MD5=[eaf14edc6043f7290cbfd1583ac6425c]
link :core:api to :engine:connectable--><path d="M111.2365,291.0004 C137.7345,307.8195 173.701,330.6485 201.2071,348.1075 " fill="none" id=":core:api-&gt;:engine:connectable" style="stroke: #A80036; stroke-width: 1.0;"/><polygon fill="#A80036" points="205.5462,350.8617,200.0911,342.6616,201.3248,348.1823,195.804,349.4159,205.5462,350.8617" style="stroke: #A80036; stroke-width: 1.0;"/><!--MD5=[bca29f017d1f9d57df28eb8d83e96ded]
link :engine:connectable to :engine:util--><path d="M242,397.0004 C242,413.003 242,434.4461 242,451.528 " fill="none" id=":engine:connectable-&gt;:engine:util" style="stroke: #A80036; stroke-width: 1.0;"/><polygon fill="#A80036" points="242,456.6784,246,447.6784,242,451.6784,238,447.6784,242,456.6784" style="stroke: #A80036; stroke-width: 1.0;"/><!--MD5=[6eb7bccd1a3c6d4cd083766ccbfc4317]
link :engine:connectable to :engine:log--><path d="M279.7554,397.0004 C307.3641,413.8195 344.8381,436.6485 373.4972,454.1075 " fill="none" id=":engine:connectable-&gt;:engine:log" style="stroke: #A80036; stroke-width: 1.0;"/><polygon fill="#A80036" points="378.0182,456.8617,372.4131,448.7634,373.7481,454.2605,368.2511,455.5955,378.0182,456.8617" style="stroke: #A80036; stroke-width: 1.0;"/><!--MD5=[2415d4b04f2e9265ce550c6458ae8b9d]
link :app:jvm:cli to :core:cli--><path d="M321.8593,76.6895 C266.189,96.1649 183.6133,125.0528 130.2942,143.7056 " fill="none" id=":app:jvm:cli-&gt;:core:cli" style="stroke: #A80036; stroke-width: 1.0;"/><polygon fill="#A80036" points="125.5481,145.366,135.3641,146.1695,130.2676,143.7148,132.7223,138.6183,125.5481,145.366" style="stroke: #A80036; stroke-width: 1.0;"/><!--MD5=[5cbc2408cd82b039908ce40e490618bc]
link :app:jvm:cli to :engine:net--><path d="M381,79.0913 C381,118.1987 381,197.3349 381,239.7081 " fill="none" id=":app:jvm:cli-&gt;:engine:net" style="stroke: #A80036; stroke-width: 1.0;"/><polygon fill="#A80036" points="381,244.9372,385,235.9372,381,239.9372,377,235.9372,381,244.9372" style="stroke: #A80036; stroke-width: 1.0;"/><!--MD5=[adbbd21cff040663bfc0d76d634f749b]
link :app:jvm:cli to :platform:log:jvm--><path d="M414.8497,79.0004 C439.5004,95.7503 472.9233,118.4607 498.5764,135.8917 " fill="none" id=":app:jvm:cli-&gt;:platform:log:jvm" style="stroke: #A80036; stroke-width: 1.0;"/><polygon fill="#A80036" points="502.9474,138.8617,497.7515,130.495,498.8118,136.0515,493.2552,137.1119,502.9474,138.8617" style="stroke: #A80036; stroke-width: 1.0;"/><!--MD5=[8a0dcf5d5214542393a9aacab096e41b]
@startuml
package ":core" {
[:core:cli]
[:core:api]
}
package ":engine" {
[:engine:net]
[:engine:cli]
[:engine:connectable]
[:engine:util]
[:engine:log]
[:engine:json]
}
package ":platform" {
[:platform:log:jvm]
}
package ":app" {
[:app:jvm:cli]
}
[:core:cli] - -> [:engine:cli]
[:core:cli] - -> [:core:api]
[:engine:net] - -> [:engine:connectable]
[:engine:net] - -> [:engine:json]
[:platform:log:jvm] - -> [:engine:log]
[:core:api] - -> [:engine:connectable]
[:engine:connectable] - -> [:engine:util]
[:engine:connectable] - -> [:engine:log]
[:app:jvm:cli] - -> [:core:cli]
[:app:jvm:cli] - -> [:engine:net]
[:app:jvm:cli] - -> [:platform:log:jvm]
@enduml

PlantUML version 1.2020.15(Sun Jun 28 13:39:45 CEST 2020)
(GPL source distribution)
Java Runtime: OpenJDK Runtime Environment
JVM: OpenJDK 64-Bit Server VM
Default Encoding: UTF-8
Language: pl
Country: PL
--></g></svg>