<?xml version="1.0" encoding="UTF-8" standalone="no"?><svg xmlns="http://www.w3.org/2000/svg" xmlns:xlink="http://www.w3.org/1999/xlink" contentScriptType="application/ecmascript" contentStyleType="text/css" height="788.75px" preserveAspectRatio="none" style="width:2116px;height:788px;" version="1.1" viewBox="0 0 2116 788" width="2116.25px" zoomAndPan="magnify"><defs><filter height="300%" id="fsig1dsdsa4xk" width="300%" x="-1" y="-1"><feGaussianBlur result="blurOut" stdDeviation="2.5"/><feColorMatrix in="blurOut" result="blurOut2" type="matrix" values="0 0 0 0 0 0 0 0 0 0 0 0 0 0 0 0 0 0 .4 0"/><feOffset dx="5.0" dy="5.0" in="blurOut2" result="blurOut3"/><feBlend in="SourceGraphic" in2="blurOut3" mode="normal"/></filter></defs><g><!--MD5=[92bd3a6c071b99f0be2004a8198c45c9]
entity :core:mock:repo--><rect fill="#FEFECE" filter="url(#fsig1dsdsa4xk)" height="45.3711" style="stroke: #A80036; stroke-width: 1.875;" width="170" x="7.5" y="370"/><rect fill="#FEFECE" height="6.25" style="stroke: #A80036; stroke-width: 1.875;" width="12.5" x="1.25" y="376.25"/><rect fill="#FEFECE" height="6.25" style="stroke: #A80036; stroke-width: 1.875;" width="12.5" x="1.25" y="402.8711"/><text fill="#000000" font-family="sans-serif" font-size="17.5" lengthAdjust="spacingAndGlyphs" textLength="145" x="20" y="398.7439">:core:mock:repo</text><!--MD5=[bb042d61f43125fc2fe6ee382cb3d84b]
entity :core:api--><rect fill="#FEFECE" filter="url(#fsig1dsdsa4xk)" height="45.3711" style="stroke: #A80036; stroke-width: 1.875;" width="101.25" x="755.625" y="490"/><rect fill="#FEFECE" height="6.25" style="stroke: #A80036; stroke-width: 1.875;" width="12.5" x="749.375" y="496.25"/><rect fill="#FEFECE" height="6.25" style="stroke: #A80036; stroke-width: 1.875;" width="12.5" x="749.375" y="522.8711"/><text fill="#000000" font-family="sans-serif" font-size="17.5" lengthAdjust="spacingAndGlyphs" textLength="76.25" x="768.125" y="518.7439">:core:api</text><!--MD5=[57ec7835db8cede48f3e8c81e572e6c8]
entity :core:mock:net--><rect fill="#FEFECE" filter="url(#fsig1dsdsa4xk)" height="45.3711" style="stroke: #A80036; stroke-width: 1.875;" width="158.75" x="221.875" y="370"/><rect fill="#FEFECE" height="6.25" style="stroke: #A80036; stroke-width: 1.875;" width="12.5" x="215.625" y="376.25"/><rect fill="#FEFECE" height="6.25" style="stroke: #A80036; stroke-width: 1.875;" width="12.5" x="215.625" y="402.8711"/><text fill="#000000" font-family="sans-serif" font-size="17.5" lengthAdjust="spacingAndGlyphs" textLength="133.75" x="234.375" y="398.7439">:core:mock:net</text><!--MD5=[e43a051ee5d5ccb2f42121701afe91ab]
entity :core:mock:sys--><rect fill="#FEFECE" filter="url(#fsig1dsdsa4xk)" height="45.3711" style="stroke: #A80036; stroke-width: 1.875;" width="158.75" x="424.375" y="370"/><rect fill="#FEFECE" height="6.25" style="stroke: #A80036; stroke-width: 1.875;" width="12.5" x="418.125" y="376.25"/><rect fill="#FEFECE" height="6.25" style="stroke: #A80036; stroke-width: 1.875;" width="12.5" x="418.125" y="402.8711"/><text fill="#000000" font-family="sans-serif" font-size="17.5" lengthAdjust="spacingAndGlyphs" textLength="133.75" x="436.875" y="398.7439">:core:mock:sys</text><!--MD5=[7c89cb3e6f4d363cf8e7c064adc89c82]
entity :net:smack:jvm--><rect fill="#FEFECE" filter="url(#fsig1dsdsa4xk)" height="45.3711" style="stroke: #A80036; stroke-width: 1.875;" width="157.5" x="570" y="130"/><rect fill="#FEFECE" height="6.25" style="stroke: #A80036; stroke-width: 1.875;" width="12.5" x="563.75" y="136.25"/><rect fill="#FEFECE" height="6.25" style="stroke: #A80036; stroke-width: 1.875;" width="12.5" x="563.75" y="162.8711"/><text fill="#000000" font-family="sans-serif" font-size="17.5" lengthAdjust="spacingAndGlyphs" textLength="132.5" x="582.5" y="158.7439">:net:smack:jvm</text><!--MD5=[6b3c72c52f198a8ada63b8c5ce9355bc]
entity :core:backend--><rect fill="#FEFECE" filter="url(#fsig1dsdsa4xk)" height="45.3711" style="stroke: #A80036; stroke-width: 1.875;" width="151.25" x="964.375" y="130"/><rect fill="#FEFECE" height="6.25" style="stroke: #A80036; stroke-width: 1.875;" width="12.5" x="958.125" y="136.25"/><rect fill="#FEFECE" height="6.25" style="stroke: #A80036; stroke-width: 1.875;" width="12.5" x="958.125" y="162.8711"/><text fill="#000000" font-family="sans-serif" font-size="17.5" lengthAdjust="spacingAndGlyphs" textLength="126.25" x="976.875" y="158.7439">:core:backend</text><!--MD5=[47118d7c73781d94ead6ef2b9730d049]
entity :core:domain:app--><rect fill="#FEFECE" filter="url(#fsig1dsdsa4xk)" height="45.3711" style="stroke: #A80036; stroke-width: 1.875;" width="178.75" x="716.875" y="370"/><rect fill="#FEFECE" height="6.25" style="stroke: #A80036; stroke-width: 1.875;" width="12.5" x="710.625" y="376.25"/><rect fill="#FEFECE" height="6.25" style="stroke: #A80036; stroke-width: 1.875;" width="12.5" x="710.625" y="402.8711"/><text fill="#000000" font-family="sans-serif" font-size="17.5" lengthAdjust="spacingAndGlyphs" textLength="153.75" x="729.375" y="398.7439">:core:domain:app</text><!--MD5=[3ac9b0df53493c09c125e37014f215ac]
entity :core:domain:session--><rect fill="#FEFECE" filter="url(#fsig1dsdsa4xk)" height="45.3711" style="stroke: #A80036; stroke-width: 1.875;" width="213.75" x="804.375" y="250"/><rect fill="#FEFECE" height="6.25" style="stroke: #A80036; stroke-width: 1.875;" width="12.5" x="798.125" y="256.25"/><rect fill="#FEFECE" height="6.25" style="stroke: #A80036; stroke-width: 1.875;" width="12.5" x="798.125" y="282.8711"/><text fill="#000000" font-family="sans-serif" font-size="17.5" lengthAdjust="spacingAndGlyphs" textLength="188.75" x="816.875" y="278.7439">:core:domain:session</text><!--MD5=[0084757e5fcb0194df9d04c73ec20e60]
entity :core:domain:account--><rect fill="#FEFECE" filter="url(#fsig1dsdsa4xk)" height="45.3711" style="stroke: #A80036; stroke-width: 1.875;" width="216.25" x="1061.875" y="250"/><rect fill="#FEFECE" height="6.25" style="stroke: #A80036; stroke-width: 1.875;" width="12.5" x="1055.625" y="256.25"/><rect fill="#FEFECE" height="6.25" style="stroke: #A80036; stroke-width: 1.875;" width="12.5" x="1055.625" y="282.8711"/><text fill="#000000" font-family="sans-serif" font-size="17.5" lengthAdjust="spacingAndGlyphs" textLength="191.25" x="1074.375" y="278.7439">:core:domain:account</text><!--MD5=[4f709ee184beb988ab56d37afe26e48e]
entity :core:domain:chat--><rect fill="#FEFECE" filter="url(#fsig1dsdsa4xk)" height="45.3711" style="stroke: #A80036; stroke-width: 1.875;" width="183.75" x="1321.875" y="250"/><rect fill="#FEFECE" height="6.25" style="stroke: #A80036; stroke-width: 1.875;" width="12.5" x="1315.625" y="256.25"/><rect fill="#FEFECE" height="6.25" style="stroke: #A80036; stroke-width: 1.875;" width="12.5" x="1315.625" y="282.8711"/><text fill="#000000" font-family="sans-serif" font-size="17.5" lengthAdjust="spacingAndGlyphs" textLength="158.75" x="1334.375" y="278.7439">:core:domain:chat</text><!--MD5=[c3c152bb6cdd6182c77d4c39152577c5]
entity :core:domain:roster--><rect fill="#FEFECE" filter="url(#fsig1dsdsa4xk)" height="45.3711" style="stroke: #A80036; stroke-width: 1.875;" width="197.5" x="1550" y="250"/><rect fill="#FEFECE" height="6.25" style="stroke: #A80036; stroke-width: 1.875;" width="12.5" x="1543.75" y="256.25"/><rect fill="#FEFECE" height="6.25" style="stroke: #A80036; stroke-width: 1.875;" width="12.5" x="1543.75" y="282.8711"/><text fill="#000000" font-family="sans-serif" font-size="17.5" lengthAdjust="spacingAndGlyphs" textLength="172.5" x="1562.5" y="278.7439">:core:domain:roster</text><!--MD5=[486755d95e08f80cb04a0aa885580c7b]
entity :engine:net--><rect fill="#FEFECE" filter="url(#fsig1dsdsa4xk)" height="45.3711" style="stroke: #A80036; stroke-width: 1.875;" width="126.25" x="1750.625" y="130"/><rect fill="#FEFECE" height="6.25" style="stroke: #A80036; stroke-width: 1.875;" width="12.5" x="1744.375" y="136.25"/><rect fill="#FEFECE" height="6.25" style="stroke: #A80036; stroke-width: 1.875;" width="12.5" x="1744.375" y="162.8711"/><text fill="#000000" font-family="sans-serif" font-size="17.5" lengthAdjust="spacingAndGlyphs" textLength="101.25" x="1763.125" y="158.7439">:engine:net</text><!--MD5=[474bc7754ff50e9887f34633b92b9e02]
entity :engine:connectable--><rect fill="#FEFECE" filter="url(#fsig1dsdsa4xk)" height="45.3711" style="stroke: #A80036; stroke-width: 1.875;" width="205" x="1711.25" y="610"/><rect fill="#FEFECE" height="6.25" style="stroke: #A80036; stroke-width: 1.875;" width="12.5" x="1705" y="616.25"/><rect fill="#FEFECE" height="6.25" style="stroke: #A80036; stroke-width: 1.875;" width="12.5" x="1705" y="642.8711"/><text fill="#000000" font-family="sans-serif" font-size="17.5" lengthAdjust="spacingAndGlyphs" textLength="180" x="1723.75" y="638.7439">:engine:connectable</text><!--MD5=[de9e9b3b438569aa67cb351d8b039e39]
entity :engine:json--><rect fill="#FEFECE" filter="url(#fsig1dsdsa4xk)" height="45.3711" style="stroke: #A80036; stroke-width: 1.875;" width="133.75" x="1880.625" y="250"/><rect fill="#FEFECE" height="6.25" style="stroke: #A80036; stroke-width: 1.875;" width="12.5" x="1874.375" y="256.25"/><rect fill="#FEFECE" height="6.25" style="stroke: #A80036; stroke-width: 1.875;" width="12.5" x="1874.375" y="282.8711"/><text fill="#000000" font-family="sans-serif" font-size="17.5" lengthAdjust="spacingAndGlyphs" textLength="108.75" x="1893.125" y="278.7439">:engine:json</text><!--MD5=[278891ff76fd9b0eb7ee7029fade1047]
entity :jvm:log--><rect fill="#FEFECE" filter="url(#fsig1dsdsa4xk)" height="45.3711" style="stroke: #A80036; stroke-width: 1.875;" width="92.5" x="2010" y="490"/><rect fill="#FEFECE" height="6.25" style="stroke: #A80036; stroke-width: 1.875;" width="12.5" x="2003.75" y="496.25"/><rect fill="#FEFECE" height="6.25" style="stroke: #A80036; stroke-width: 1.875;" width="12.5" x="2003.75" y="522.8711"/><text fill="#000000" font-family="sans-serif" font-size="17.5" lengthAdjust="spacingAndGlyphs" textLength="67.5" x="2022.5" y="518.7439">:jvm:log</text><!--MD5=[f7af38a47341a5d6bbb7054022a18e1f]
entity :engine:log--><rect fill="#FEFECE" filter="url(#fsig1dsdsa4xk)" height="45.3711" style="stroke: #A80036; stroke-width: 1.875;" width="123.75" x="1919.375" y="730"/><rect fill="#FEFECE" height="6.25" style="stroke: #A80036; stroke-width: 1.875;" width="12.5" x="1913.125" y="736.25"/><rect fill="#FEFECE" height="6.25" style="stroke: #A80036; stroke-width: 1.875;" width="12.5" x="1913.125" y="762.8711"/><text fill="#000000" font-family="sans-serif" font-size="17.5" lengthAdjust="spacingAndGlyphs" textLength="98.75" x="1931.875" y="758.7439">:engine:log</text><!--MD5=[8e94acc19a10f03efd288fb36eb4472b]
entity :engine:util--><rect fill="#FEFECE" filter="url(#fsig1dsdsa4xk)" height="45.3711" style="stroke: #A80036; stroke-width: 1.875;" width="122.5" x="1752.5" y="730"/><rect fill="#FEFECE" height="6.25" style="stroke: #A80036; stroke-width: 1.875;" width="12.5" x="1746.25" y="736.25"/><rect fill="#FEFECE" height="6.25" style="stroke: #A80036; stroke-width: 1.875;" width="12.5" x="1746.25" y="762.8711"/><text fill="#000000" font-family="sans-serif" font-size="17.5" lengthAdjust="spacingAndGlyphs" textLength="97.5" x="1765" y="758.7439">:engine:util</text><!--MD5=[8725e2f32c833bede44e6c458fce3254]
entity :engine:paging--><rect fill="#FEFECE" filter="url(#fsig1dsdsa4xk)" height="45.3711" style="stroke: #A80036; stroke-width: 1.875;" width="156.25" x="1335.625" y="370"/><rect fill="#FEFECE" height="6.25" style="stroke: #A80036; stroke-width: 1.875;" width="12.5" x="1329.375" y="376.25"/><rect fill="#FEFECE" height="6.25" style="stroke: #A80036; stroke-width: 1.875;" width="12.5" x="1329.375" y="402.8711"/><text fill="#000000" font-family="sans-serif" font-size="17.5" lengthAdjust="spacingAndGlyphs" textLength="131.25" x="1348.125" y="398.7439">:engine:paging</text><!--MD5=[7a8db28f95dace5dcd53803600931555]
entity :jvm:server--><rect fill="#FEFECE" filter="url(#fsig1dsdsa4xk)" height="45.3711" style="stroke: #A80036; stroke-width: 1.875;" width="120" x="588.75" y="10"/><rect fill="#FEFECE" height="6.25" style="stroke: #A80036; stroke-width: 1.875;" width="12.5" x="582.5" y="16.25"/><rect fill="#FEFECE" height="6.25" style="stroke: #A80036; stroke-width: 1.875;" width="12.5" x="582.5" y="42.8711"/><text fill="#000000" font-family="sans-serif" font-size="17.5" lengthAdjust="spacingAndGlyphs" textLength="95" x="601.25" y="38.7439">:jvm:server</text><!--MD5=[d56d75fd9d79f2971a8810c55a0ec159]
link :core:mock:repo to :core:api--><path d="M177.5131,410.6771 C185.1084,412.1849 192.6876,413.6475 200,415 C401.1896,452.2118 641.4654,488.4291 749.1376,504.2274 " fill="none" id=":core:mock:repo-&gt;:core:api" style="stroke: #A80036; stroke-width: 1.25;"/><polygon fill="#A80036" points="755.413,505.1471,745.0071,498.5684,749.2291,504.2407,743.5568,508.4627,755.413,505.1471" style="stroke: #A80036; stroke-width: 1.25;"/><!--MD5=[01e2c32998785bfb6966ba88c709eb09]
link :core:mock:net to :core:api--><path d="M380.7117,411.382 C483.11,435.7143 658.6636,477.43 748.9386,498.8815 " fill="none" id=":core:mock:net-&gt;:core:api" style="stroke: #A80036; stroke-width: 1.25;"/><polygon fill="#A80036" points="755.2887,500.3904,745.4995,492.9249,749.2081,498.9454,743.1876,502.6539,755.2887,500.3904" style="stroke: #A80036; stroke-width: 1.25;"/><!--MD5=[06c56ae8f7dd57601222b4d226bd7120]
link :core:mock:sys to :core:api--><path d="M560.6479,415.0711 C614.5359,436.4481 695.0289,468.3792 749.0244,489.799 " fill="none" id=":core:mock:sys-&gt;:core:api" style="stroke: #A80036; stroke-width: 1.25;"/><polygon fill="#A80036" points="755.1463,492.2274,746.5327,483.4314,749.3367,489.9228,742.8453,492.7267,755.1463,492.2274" style="stroke: #A80036; stroke-width: 1.25;"/><!--MD5=[54f45d9f7bd3d59be0d46302fee7f768]
link :net:smack:jvm to :core:api--><path d="M647.8607,175.2439 C646.9966,222.938 650.2755,335.5636 695,415 C711.3994,444.1274 739.8806,468.8399 763.9191,486.0975 " fill="none" id=":net:smack:jvm-&gt;:core:api" style="stroke: #A80036; stroke-width: 1.25;"/><polygon fill="#A80036" points="769.2897,489.8839,762.976,479.3151,764.1816,486.2826,757.214,487.4882,769.2897,489.8839" style="stroke: #A80036; stroke-width: 1.25;"/><!--MD5=[6084f87cb11c9c8e7b98e1b6385e3a51]
link :core:backend to :core:domain:app--><path d="M964.1483,171.0256 C896.1359,189.3533 803.8586,219.0743 782.5,250 C759.1161,283.8581 775.4588,332.8456 790.2129,363.6646 " fill="none" id=":core:backend-&gt;:core:domain:app" style="stroke: #A80036; stroke-width: 1.25;"/><polygon fill="#A80036" points="793.1302,369.5764,792.6352,357.2753,790.3643,363.9717,783.6678,361.7008,793.1302,369.5764" style="stroke: #A80036; stroke-width: 1.25;"/><!--MD5=[64d379cf4fc32ff0b351faeb9dde2472]
link :core:backend to :core:domain:session--><path d="M1015.7831,175.0711 C994.5186,194.8905 963.5205,223.7819 940.801,244.9573 " fill="none" id=":core:backend-&gt;:core:domain:session" style="stroke: #A80036; stroke-width: 1.25;"/><polygon fill="#A80036" points="935.796,249.6221,947.4347,245.6094,940.368,245.3608,940.6166,238.2941,935.796,249.6221" style="stroke: #A80036; stroke-width: 1.25;"/><!--MD5=[c6a5a6f4626caa42ca04d1aec387f400]
link :core:backend to :core:domain:account--><path d="M1064.452,175.0711 C1085.923,194.8905 1117.222,223.7819 1140.162,244.9573 " fill="none" id=":core:backend-&gt;:core:domain:account" style="stroke: #A80036; stroke-width: 1.25;"/><polygon fill="#A80036" points="1145.2156,249.6221,1140.3406,238.3174,1140.6231,245.3828,1133.5577,245.6654,1145.2156,249.6221" style="stroke: #A80036; stroke-width: 1.25;"/><!--MD5=[d7e8e2dc0a0071dfc163bed50f54849b]
link :core:backend to :core:domain:chat--><path d="M1110.2995,175.0711 C1174.9295,195.8219 1270.5331,226.5174 1337.0995,247.8899 " fill="none" id=":core:backend-&gt;:core:domain:chat" style="stroke: #A80036; stroke-width: 1.25;"/><polygon fill="#A80036" points="1343.4488,249.9284,1334.2659,241.7285,1337.498,248.0177,1331.2088,251.2498,1343.4488,249.9284" style="stroke: #A80036; stroke-width: 1.25;"/><!--MD5=[704cc349d7da7a8c75399283440f8ee2]
link :core:backend to :core:domain:roster--><path d="M1115.8678,167.4555 C1223.5811,188.6885 1421.268,227.6575 1543.2225,251.6979 " fill="none" id=":core:backend-&gt;:core:domain:roster" style="stroke: #A80036; stroke-width: 1.25;"/><polygon fill="#A80036" points="1549.695,252.9738,1539.6244,245.8924,1543.563,251.765,1537.6904,255.7036,1549.695,252.9738" style="stroke: #A80036; stroke-width: 1.25;"/><!--MD5=[d2d1f0be6436256e6d977803045f7553]
link :engine:net to :engine:connectable--><path d="M1813.75,175.0076 C1813.75,253.4059 1813.75,514.5064 1813.75,602.9296 " fill="none" id=":engine:net-&gt;:engine:connectable" style="stroke: #A80036; stroke-width: 1.25;"/><polygon fill="#A80036" points="1813.75,609.4825,1818.75,598.2325,1813.75,603.2325,1808.75,598.2325,1813.75,609.4825" style="stroke: #A80036; stroke-width: 1.25;"/><!--MD5=[9e0cd9895457fd564306a213d979b005]
link :engine:net to :engine:json--><path d="M1838.9074,175.0711 C1860.9978,194.8905 1893.1995,223.7819 1916.8014,244.9573 " fill="none" id=":engine:net-&gt;:engine:json" style="stroke: #A80036; stroke-width: 1.25;"/><polygon fill="#A80036" points="1922.0008,249.6221,1916.9661,238.3876,1917.3487,245.4483,1910.288,245.8308,1922.0008,249.6221" style="stroke: #A80036; stroke-width: 1.25;"/><!--MD5=[7e35b258ed27b7b9efdd5355b20d38a8]
link :jvm:log to :engine:log--><path d="M2049.1941,535.0786 C2035.514,578.8551 2005.403,675.2104 1990.2845,723.5894 " fill="none" id=":jvm:log-&gt;:engine:log" style="stroke: #A80036; stroke-width: 1.25;"/><polygon fill="#A80036" points="1988.3417,729.8065,1996.4699,720.5601,1990.2061,723.841,1986.9252,717.5772,1988.3417,729.8065" style="stroke: #A80036; stroke-width: 1.25;"/><!--MD5=[eaf14edc6043f7290cbfd1583ac6425c]
link :core:api to :engine:connectable--><path d="M856.9025,518.533 C1012.8818,537.1112 1488.4199,593.751 1704.6541,619.506 " fill="none" id=":core:api-&gt;:engine:connectable" style="stroke: #A80036; stroke-width: 1.25;"/><polygon fill="#A80036" points="1710.9754,620.2589,1700.3958,613.9633,1704.7693,619.5196,1699.2129,623.8931,1710.9754,620.2589" style="stroke: #A80036; stroke-width: 1.25;"/><!--MD5=[bca29f017d1f9d57df28eb8d83e96ded]
link :engine:connectable to :engine:util--><path d="M1813.75,655.0711 C1813.75,674.3908 1813.75,702.3309 1813.75,723.3414 " fill="none" id=":engine:connectable-&gt;:engine:util" style="stroke: #A80036; stroke-width: 1.25;"/><polygon fill="#A80036" points="1813.75,729.6221,1818.75,718.3721,1813.75,723.3721,1808.75,718.3721,1813.75,729.6221" style="stroke: #A80036; stroke-width: 1.25;"/><!--MD5=[6eb7bccd1a3c6d4cd083766ccbfc4317]
link :engine:connectable to :engine:log--><path d="M1845.2555,655.0711 C1873.2688,675.1403 1914.2663,704.5116 1943.9175,725.7544 " fill="none" id=":engine:connectable-&gt;:engine:log" style="stroke: #A80036; stroke-width: 1.25;"/><polygon fill="#A80036" points="1949.3162,729.6221,1943.083,719.0057,1944.2356,725.9822,1937.2591,727.1347,1949.3162,729.6221" style="stroke: #A80036; stroke-width: 1.25;"/><!--MD5=[cec0b78861792eaab7fa2279ffc7a7e2]
link :core:domain:app to :core:api--><path d="M806.25,415.0711 C806.25,434.3908 806.25,462.3309 806.25,483.3414 " fill="none" id=":core:domain:app-&gt;:core:api" style="stroke: #A80036; stroke-width: 1.25;"/><polygon fill="#A80036" points="806.25,489.6221,811.25,478.3721,806.25,483.3721,801.25,478.3721,806.25,489.6221" style="stroke: #A80036; stroke-width: 1.25;"/><!--MD5=[c67c764a5326e4d24cf2e4300865ef19]
link :core:domain:session to :core:api--><path d="M918.3726,295.4199 C926.1146,324.6216 935.1869,375.9809 917.5,415 C903.9954,444.7926 876.3904,469.0745 852.0586,485.9544 " fill="none" id=":core:domain:session-&gt;:core:api" style="stroke: #A80036; stroke-width: 1.25;"/><polygon fill="#A80036" points="846.6016,489.6565,858.7184,487.4782,851.7737,486.1476,853.1042,479.2029,846.6016,489.6565" style="stroke: #A80036; stroke-width: 1.25;"/><!--MD5=[2c707074e348eff90fbc0f3bb90cfb10]
link :core:domain:account to :core:api--><path d="M1136.149,295.013 C1093.8221,323.1454 1019.1229,372.7353 955,415 C918.3513,439.156 876.5379,466.5481 846.5959,486.1344 " fill="none" id=":core:domain:account-&gt;:core:api" style="stroke: #A80036; stroke-width: 1.25;"/><polygon fill="#A80036" points="841.1471,489.6981,853.2989,487.7243,846.3776,486.2769,847.825,479.3556,841.1471,489.6981" style="stroke: #A80036; stroke-width: 1.25;"/><!--MD5=[01174190b578bab423e164a6f26b4f28]
link :core:domain:chat to :engine:paging--><path d="M1413.75,295.0711 C1413.75,314.3908 1413.75,342.3309 1413.75,363.3414 " fill="none" id=":core:domain:chat-&gt;:engine:paging" style="stroke: #A80036; stroke-width: 1.25;"/><polygon fill="#A80036" points="1413.75,369.6221,1418.75,358.3721,1413.75,363.3721,1408.75,358.3721,1413.75,369.6221" style="stroke: #A80036; stroke-width: 1.25;"/><!--MD5=[ff59cb87d49bbcbfa2818e0d8d187e1a]
link :core:domain:roster to :engine:paging--><path d="M1604.5483,295.0711 C1564.6301,315.4548 1505.9199,345.4345 1464.1829,366.747 " fill="none" id=":core:domain:roster-&gt;:engine:paging" style="stroke: #A80036; stroke-width: 1.25;"/><polygon fill="#A80036" points="1458.1524,369.8265,1470.4456,369.1633,1463.7187,366.9842,1465.8978,360.2573,1458.1524,369.8265" style="stroke: #A80036; stroke-width: 1.25;"/><!--MD5=[4d49540be5924e42624c178561476132]
link :engine:paging to :core:api--><path d="M1335.5736,407.9422 C1211.621,432.4267 972.856,479.5901 863.4928,501.1928 " fill="none" id=":engine:paging-&gt;:core:api" style="stroke: #A80036; stroke-width: 1.25;"/><polygon fill="#A80036" points="857.113,502.453,869.1187,505.178,863.2445,501.2418,867.1807,495.3676,857.113,502.453" style="stroke: #A80036; stroke-width: 1.25;"/><!--MD5=[43ba97f3576adffb510ebe0b1506f400]
link :jvm:server to :core:mock:repo--><path d="M603.5738,55.171 C566.6816,74.11 513.5151,102.382 468.75,130 C339.1945,209.9299 193.3684,316.8266 127.7803,365.8713 " fill="none" id=":jvm:server-&gt;:core:mock:repo" style="stroke: #A80036; stroke-width: 1.25;"/><polygon fill="#A80036" points="122.4411,369.8685,134.4435,367.1287,127.4443,366.1228,128.4503,359.1236,122.4411,369.8685" style="stroke: #A80036; stroke-width: 1.25;"/><!--MD5=[327920b2245189a5df4dc933ce089df1]
link :jvm:server to :core:mock:net--><path d="M614.2669,55.3793 C587.3251,73.998 549.6128,101.7359 520,130 C438.433,207.8524 357.3984,314.8065 321.0712,364.7297 " fill="none" id=":jvm:server-&gt;:core:mock:net" style="stroke: #A80036; stroke-width: 1.25;"/><polygon fill="#A80036" points="317.2805,369.9556,327.9334,363.7849,320.9503,364.8964,319.8387,357.9133,317.2805,369.9556" style="stroke: #A80036; stroke-width: 1.25;"/><!--MD5=[07de38d7994af73fe2996c306e4ce0b1]
link :jvm:server to :core:mock:sys--><path d="M616.0031,55.0434 C593.0328,72.6939 563.6463,99.339 547.5,130 C506.913,207.0725 502.3786,312.9976 502.8075,363.4748 " fill="none" id=":jvm:server-&gt;:core:mock:sys" style="stroke: #A80036; stroke-width: 1.25;"/><polygon fill="#A80036" points="502.8925,369.9308,507.7439,358.6159,502.8102,363.6813,497.7448,358.7476,502.8925,369.9308" style="stroke: #A80036; stroke-width: 1.25;"/><!--MD5=[b8382d6df6cce6eca2590a1eccb30dcd]
link :jvm:server to :net:smack:jvm--><path d="M648.75,55.0711 C648.75,74.3908 648.75,102.3309 648.75,123.3414 " fill="none" id=":jvm:server-&gt;:net:smack:jvm" style="stroke: #A80036; stroke-width: 1.25;"/><polygon fill="#A80036" points="648.75,129.6221,653.75,118.3721,648.75,123.3721,643.75,118.3721,648.75,129.6221" style="stroke: #A80036; stroke-width: 1.25;"/><!--MD5=[7a8fc7f57920d4db20fd83ebcb921977]
link :jvm:server to :core:backend--><path d="M709.0254,50.987 C776.3683,71.6418 885.684,105.1699 960.1071,127.9961 " fill="none" id=":jvm:server-&gt;:core:backend" style="stroke: #A80036; stroke-width: 1.25;"/><polygon fill="#A80036" points="966.2994,129.8954,957.0101,121.8163,960.3241,128.0627,954.0777,131.3767,966.2994,129.8954" style="stroke: #A80036; stroke-width: 1.25;"/><!--MD5=[29d026dc4beabb255aa0570f19d000b9]
link :jvm:server to :engine:net--><path d="M708.9323,38.699 C906.2108,59.0196 1532.7469,123.5555 1743.6743,145.2819 " fill="none" id=":jvm:server-&gt;:engine:net" style="stroke: #A80036; stroke-width: 1.25;"/><polygon fill="#A80036" points="1750.3974,145.9744,1739.7189,139.8481,1744.1803,145.334,1738.6943,149.7954,1750.3974,145.9744" style="stroke: #A80036; stroke-width: 1.25;"/><!--MD5=[91dfe211f93554157885152baf2b229d]
link :jvm:server to :jvm:log--><path d="M709.007,34.9744 C943.5906,44.9093 1788.3104,83.6071 1898.75,130 C1973.531,161.4136 1999.9034,177.4884 2036.25,250 C2074.8636,327.0341 2067.4496,432.9774 2060.8603,483.4668 " fill="none" id=":jvm:server-&gt;:jvm:log" style="stroke: #A80036; stroke-width: 1.25;"/><polygon fill="#A80036" points="2059.982,489.9244,2066.4526,479.4509,2060.8243,483.7314,2056.5438,478.1031,2059.982,489.9244" style="stroke: #A80036; stroke-width: 1.25;"/><!--MD5=[307d1fb5ba18beeb2141191d9af750f8]
@startuml
[:core:mock:repo] - -> [:core:api]
[:core:mock:net] - -> [:core:api]
[:core:mock:sys] - -> [:core:api]
[:net:smack:jvm] - -> [:core:api]
[:core:backend] - -> [:core:domain:app]
[:core:backend] - -> [:core:domain:session]
[:core:backend] - -> [:core:domain:account]
[:core:backend] - -> [:core:domain:chat]
[:core:backend] - -> [:core:domain:roster]
[:engine:net] - -> [:engine:connectable]
[:engine:net] - -> [:engine:json]
[:jvm:log] - -> [:engine:log]
[:core:api] - -> [:engine:connectable]
[:engine:connectable] - -> [:engine:util]
[:engine:connectable] - -> [:engine:log]
[:core:domain:app] - -> [:core:api]
[:core:domain:session] - -> [:core:api]
[:core:domain:account] - -> [:core:api]
[:core:domain:chat] - -> [:engine:paging]
[:core:domain:roster] - -> [:engine:paging]
[:engine:paging] - -> [:core:api]
[:jvm:server] - -> [:core:mock:repo]
[:jvm:server] - -> [:core:mock:net]
[:jvm:server] - -> [:core:mock:sys]
[:jvm:server] - -> [:net:smack:jvm]
[:jvm:server] - -> [:core:backend]
[:jvm:server] - -> [:engine:net]
[:jvm:server] - -> [:jvm:log]
@enduml

PlantUML version 1.2019.11(Sun Sep 22 12:02:15 CEST 2019)
(GPL source distribution)
Java Runtime: OpenJDK Runtime Environment
JVM: OpenJDK 64-Bit Server VM
Java Version: 1.8.0_242-release-1644-b3-6222593
Operating System: Linux
Default Encoding: UTF-8
Language: pl
Country: PL
--></g></svg>