<?xml version="1.0" encoding="UTF-8" standalone="no"?><svg xmlns="http://www.w3.org/2000/svg" xmlns:xlink="http://www.w3.org/1999/xlink" contentScriptType="application/ecmascript" contentStyleType="text/css" height="602px" preserveAspectRatio="none" style="width:1766px;height:602px;" version="1.1" viewBox="0 0 1766 602" width="1766px" zoomAndPan="magnify"><defs><filter height="300%" id="f1m7m5unvkmcjv" width="300%" x="-1" y="-1"><feGaussianBlur result="blurOut" stdDeviation="2.0"/><feColorMatrix in="blurOut" result="blurOut2" type="matrix" values="0 0 0 0 0 0 0 0 0 0 0 0 0 0 0 0 0 0 .4 0"/><feOffset dx="4.0" dy="4.0" in="blurOut2" result="blurOut3"/><feBlend in="SourceGraphic" in2="blurOut3" mode="normal"/></filter></defs><g><!--MD5=[92bd3a6c071b99f0be2004a8198c45c9]
entity :core:mock:repo--><rect fill="#FEFECE" filter="url(#f1m7m5unvkmcjv)" height="46.2969" style="stroke: #A80036; stroke-width: 1.5;" width="156" x="7" y="219"/><rect fill="#FEFECE" height="10" style="stroke: #A80036; stroke-width: 1.5;" width="15" x="143" y="224"/><rect fill="#FEFECE" height="2" style="stroke: #A80036; stroke-width: 1.5;" width="4" x="141" y="226"/><rect fill="#FEFECE" height="2" style="stroke: #A80036; stroke-width: 1.5;" width="4" x="141" y="230"/><text fill="#000000" font-family="sans-serif" font-size="14" lengthAdjust="spacingAndGlyphs" textLength="116" x="22" y="251.9951">:core:mock:repo</text><!--MD5=[bb042d61f43125fc2fe6ee382cb3d84b]
entity :core:api--><rect fill="#FEFECE" filter="url(#f1m7m5unvkmcjv)" height="46.2969" style="stroke: #A80036; stroke-width: 1.5;" width="101" x="548.5" y="325"/><rect fill="#FEFECE" height="10" style="stroke: #A80036; stroke-width: 1.5;" width="15" x="629.5" y="330"/><rect fill="#FEFECE" height="2" style="stroke: #A80036; stroke-width: 1.5;" width="4" x="627.5" y="332"/><rect fill="#FEFECE" height="2" style="stroke: #A80036; stroke-width: 1.5;" width="4" x="627.5" y="336"/><text fill="#000000" font-family="sans-serif" font-size="14" lengthAdjust="spacingAndGlyphs" textLength="61" x="563.5" y="357.9951">:core:api</text><!--MD5=[57ec7835db8cede48f3e8c81e572e6c8]
entity :core:mock:net--><rect fill="#FEFECE" filter="url(#f1m7m5unvkmcjv)" height="46.2969" style="stroke: #A80036; stroke-width: 1.5;" width="147" x="142.5" y="113"/><rect fill="#FEFECE" height="10" style="stroke: #A80036; stroke-width: 1.5;" width="15" x="269.5" y="118"/><rect fill="#FEFECE" height="2" style="stroke: #A80036; stroke-width: 1.5;" width="4" x="267.5" y="120"/><rect fill="#FEFECE" height="2" style="stroke: #A80036; stroke-width: 1.5;" width="4" x="267.5" y="124"/><text fill="#000000" font-family="sans-serif" font-size="14" lengthAdjust="spacingAndGlyphs" textLength="107" x="157.5" y="145.9951">:core:mock:net</text><!--MD5=[e43a051ee5d5ccb2f42121701afe91ab]
entity :core:mock:sys--><rect fill="#FEFECE" filter="url(#f1m7m5unvkmcjv)" height="46.2969" style="stroke: #A80036; stroke-width: 1.5;" width="147" x="324.5" y="113"/><rect fill="#FEFECE" height="10" style="stroke: #A80036; stroke-width: 1.5;" width="15" x="451.5" y="118"/><rect fill="#FEFECE" height="2" style="stroke: #A80036; stroke-width: 1.5;" width="4" x="449.5" y="120"/><rect fill="#FEFECE" height="2" style="stroke: #A80036; stroke-width: 1.5;" width="4" x="449.5" y="124"/><text fill="#000000" font-family="sans-serif" font-size="14" lengthAdjust="spacingAndGlyphs" textLength="107" x="339.5" y="145.9951">:core:mock:sys</text><!--MD5=[7c89cb3e6f4d363cf8e7c064adc89c82]
entity :net:smack:jvm--><rect fill="#FEFECE" filter="url(#f1m7m5unvkmcjv)" height="46.2969" style="stroke: #A80036; stroke-width: 1.5;" width="146" x="507" y="113"/><rect fill="#FEFECE" height="10" style="stroke: #A80036; stroke-width: 1.5;" width="15" x="633" y="118"/><rect fill="#FEFECE" height="2" style="stroke: #A80036; stroke-width: 1.5;" width="4" x="631" y="120"/><rect fill="#FEFECE" height="2" style="stroke: #A80036; stroke-width: 1.5;" width="4" x="631" y="124"/><text fill="#000000" font-family="sans-serif" font-size="14" lengthAdjust="spacingAndGlyphs" textLength="106" x="522" y="145.9951">:net:smack:jvm</text><!--MD5=[6b3c72c52f198a8ada63b8c5ce9355bc]
entity :core:backend--><rect fill="#FEFECE" filter="url(#f1m7m5unvkmcjv)" height="46.2969" style="stroke: #A80036; stroke-width: 1.5;" width="141" x="775.5" y="113"/><rect fill="#FEFECE" height="10" style="stroke: #A80036; stroke-width: 1.5;" width="15" x="896.5" y="118"/><rect fill="#FEFECE" height="2" style="stroke: #A80036; stroke-width: 1.5;" width="4" x="894.5" y="120"/><rect fill="#FEFECE" height="2" style="stroke: #A80036; stroke-width: 1.5;" width="4" x="894.5" y="124"/><text fill="#000000" font-family="sans-serif" font-size="14" lengthAdjust="spacingAndGlyphs" textLength="101" x="790.5" y="145.9951">:core:backend</text><!--MD5=[47118d7c73781d94ead6ef2b9730d049]
entity :core:domain:app--><rect fill="#FEFECE" filter="url(#f1m7m5unvkmcjv)" height="46.2969" style="stroke: #A80036; stroke-width: 1.5;" width="163" x="411.5" y="219"/><rect fill="#FEFECE" height="10" style="stroke: #A80036; stroke-width: 1.5;" width="15" x="554.5" y="224"/><rect fill="#FEFECE" height="2" style="stroke: #A80036; stroke-width: 1.5;" width="4" x="552.5" y="226"/><rect fill="#FEFECE" height="2" style="stroke: #A80036; stroke-width: 1.5;" width="4" x="552.5" y="230"/><text fill="#000000" font-family="sans-serif" font-size="14" lengthAdjust="spacingAndGlyphs" textLength="123" x="426.5" y="251.9951">:core:domain:app</text><!--MD5=[3ac9b0df53493c09c125e37014f215ac]
entity :core:domain:session--><rect fill="#FEFECE" filter="url(#f1m7m5unvkmcjv)" height="46.2969" style="stroke: #A80036; stroke-width: 1.5;" width="191" x="609.5" y="219"/><rect fill="#FEFECE" height="10" style="stroke: #A80036; stroke-width: 1.5;" width="15" x="780.5" y="224"/><rect fill="#FEFECE" height="2" style="stroke: #A80036; stroke-width: 1.5;" width="4" x="778.5" y="226"/><rect fill="#FEFECE" height="2" style="stroke: #A80036; stroke-width: 1.5;" width="4" x="778.5" y="230"/><text fill="#000000" font-family="sans-serif" font-size="14" lengthAdjust="spacingAndGlyphs" textLength="151" x="624.5" y="251.9951">:core:domain:session</text><!--MD5=[0084757e5fcb0194df9d04c73ec20e60]
entity :core:domain:account--><rect fill="#FEFECE" filter="url(#f1m7m5unvkmcjv)" height="46.2969" style="stroke: #A80036; stroke-width: 1.5;" width="193" x="835.5" y="219"/><rect fill="#FEFECE" height="10" style="stroke: #A80036; stroke-width: 1.5;" width="15" x="1008.5" y="224"/><rect fill="#FEFECE" height="2" style="stroke: #A80036; stroke-width: 1.5;" width="4" x="1006.5" y="226"/><rect fill="#FEFECE" height="2" style="stroke: #A80036; stroke-width: 1.5;" width="4" x="1006.5" y="230"/><text fill="#000000" font-family="sans-serif" font-size="14" lengthAdjust="spacingAndGlyphs" textLength="153" x="850.5" y="251.9951">:core:domain:account</text><!--MD5=[4f709ee184beb988ab56d37afe26e48e]
entity :core:domain:chat--><rect fill="#FEFECE" filter="url(#f1m7m5unvkmcjv)" height="46.2969" style="stroke: #A80036; stroke-width: 1.5;" width="167" x="1063.5" y="219"/><rect fill="#FEFECE" height="10" style="stroke: #A80036; stroke-width: 1.5;" width="15" x="1210.5" y="224"/><rect fill="#FEFECE" height="2" style="stroke: #A80036; stroke-width: 1.5;" width="4" x="1208.5" y="226"/><rect fill="#FEFECE" height="2" style="stroke: #A80036; stroke-width: 1.5;" width="4" x="1208.5" y="230"/><text fill="#000000" font-family="sans-serif" font-size="14" lengthAdjust="spacingAndGlyphs" textLength="127" x="1078.5" y="251.9951">:core:domain:chat</text><!--MD5=[c3c152bb6cdd6182c77d4c39152577c5]
entity :core:domain:roster--><rect fill="#FEFECE" filter="url(#f1m7m5unvkmcjv)" height="46.2969" style="stroke: #A80036; stroke-width: 1.5;" width="178" x="1265" y="219"/><rect fill="#FEFECE" height="10" style="stroke: #A80036; stroke-width: 1.5;" width="15" x="1423" y="224"/><rect fill="#FEFECE" height="2" style="stroke: #A80036; stroke-width: 1.5;" width="4" x="1421" y="226"/><rect fill="#FEFECE" height="2" style="stroke: #A80036; stroke-width: 1.5;" width="4" x="1421" y="230"/><text fill="#000000" font-family="sans-serif" font-size="14" lengthAdjust="spacingAndGlyphs" textLength="138" x="1280" y="251.9951">:core:domain:roster</text><!--MD5=[486755d95e08f80cb04a0aa885580c7b]
entity :engine:net--><rect fill="#FEFECE" filter="url(#f1m7m5unvkmcjv)" height="46.2969" style="stroke: #A80036; stroke-width: 1.5;" width="121" x="1435.5" y="113"/><rect fill="#FEFECE" height="10" style="stroke: #A80036; stroke-width: 1.5;" width="15" x="1536.5" y="118"/><rect fill="#FEFECE" height="2" style="stroke: #A80036; stroke-width: 1.5;" width="4" x="1534.5" y="120"/><rect fill="#FEFECE" height="2" style="stroke: #A80036; stroke-width: 1.5;" width="4" x="1534.5" y="124"/><text fill="#000000" font-family="sans-serif" font-size="14" lengthAdjust="spacingAndGlyphs" textLength="81" x="1450.5" y="145.9951">:engine:net</text><!--MD5=[474bc7754ff50e9887f34633b92b9e02]
entity :engine:connectable--><rect fill="#FEFECE" filter="url(#f1m7m5unvkmcjv)" height="46.2969" style="stroke: #A80036; stroke-width: 1.5;" width="184" x="1404" y="431"/><rect fill="#FEFECE" height="10" style="stroke: #A80036; stroke-width: 1.5;" width="15" x="1568" y="436"/><rect fill="#FEFECE" height="2" style="stroke: #A80036; stroke-width: 1.5;" width="4" x="1566" y="438"/><rect fill="#FEFECE" height="2" style="stroke: #A80036; stroke-width: 1.5;" width="4" x="1566" y="442"/><text fill="#000000" font-family="sans-serif" font-size="14" lengthAdjust="spacingAndGlyphs" textLength="144" x="1419" y="463.9951">:engine:connectable</text><!--MD5=[de9e9b3b438569aa67cb351d8b039e39]
entity :engine:json--><rect fill="#FEFECE" filter="url(#f1m7m5unvkmcjv)" height="46.2969" style="stroke: #A80036; stroke-width: 1.5;" width="127" x="1549.5" y="219"/><rect fill="#FEFECE" height="10" style="stroke: #A80036; stroke-width: 1.5;" width="15" x="1656.5" y="224"/><rect fill="#FEFECE" height="2" style="stroke: #A80036; stroke-width: 1.5;" width="4" x="1654.5" y="226"/><rect fill="#FEFECE" height="2" style="stroke: #A80036; stroke-width: 1.5;" width="4" x="1654.5" y="230"/><text fill="#000000" font-family="sans-serif" font-size="14" lengthAdjust="spacingAndGlyphs" textLength="87" x="1564.5" y="251.9951">:engine:json</text><!--MD5=[278891ff76fd9b0eb7ee7029fade1047]
entity :jvm:log--><rect fill="#FEFECE" filter="url(#f1m7m5unvkmcjv)" height="46.2969" style="stroke: #A80036; stroke-width: 1.5;" width="94" x="1653" y="431"/><rect fill="#FEFECE" height="10" style="stroke: #A80036; stroke-width: 1.5;" width="15" x="1727" y="436"/><rect fill="#FEFECE" height="2" style="stroke: #A80036; stroke-width: 1.5;" width="4" x="1725" y="438"/><rect fill="#FEFECE" height="2" style="stroke: #A80036; stroke-width: 1.5;" width="4" x="1725" y="442"/><text fill="#000000" font-family="sans-serif" font-size="14" lengthAdjust="spacingAndGlyphs" textLength="54" x="1668" y="463.9951">:jvm:log</text><!--MD5=[f7af38a47341a5d6bbb7054022a18e1f]
entity :engine:log--><rect fill="#FEFECE" filter="url(#f1m7m5unvkmcjv)" height="46.2969" style="stroke: #A80036; stroke-width: 1.5;" width="119" x="1600.5" y="537"/><rect fill="#FEFECE" height="10" style="stroke: #A80036; stroke-width: 1.5;" width="15" x="1699.5" y="542"/><rect fill="#FEFECE" height="2" style="stroke: #A80036; stroke-width: 1.5;" width="4" x="1697.5" y="544"/><rect fill="#FEFECE" height="2" style="stroke: #A80036; stroke-width: 1.5;" width="4" x="1697.5" y="548"/><text fill="#000000" font-family="sans-serif" font-size="14" lengthAdjust="spacingAndGlyphs" textLength="79" x="1615.5" y="569.9951">:engine:log</text><!--MD5=[8e94acc19a10f03efd288fb36eb4472b]
entity :engine:util--><rect fill="#FEFECE" filter="url(#f1m7m5unvkmcjv)" height="46.2969" style="stroke: #A80036; stroke-width: 1.5;" width="118" x="1437" y="537"/><rect fill="#FEFECE" height="10" style="stroke: #A80036; stroke-width: 1.5;" width="15" x="1535" y="542"/><rect fill="#FEFECE" height="2" style="stroke: #A80036; stroke-width: 1.5;" width="4" x="1533" y="544"/><rect fill="#FEFECE" height="2" style="stroke: #A80036; stroke-width: 1.5;" width="4" x="1533" y="548"/><text fill="#000000" font-family="sans-serif" font-size="14" lengthAdjust="spacingAndGlyphs" textLength="78" x="1452" y="569.9951">:engine:util</text><!--MD5=[8725e2f32c833bede44e6c458fce3254]
entity :engine:paging--><rect fill="#FEFECE" filter="url(#f1m7m5unvkmcjv)" height="46.2969" style="stroke: #A80036; stroke-width: 1.5;" width="145" x="1177.5" y="325"/><rect fill="#FEFECE" height="10" style="stroke: #A80036; stroke-width: 1.5;" width="15" x="1302.5" y="330"/><rect fill="#FEFECE" height="2" style="stroke: #A80036; stroke-width: 1.5;" width="4" x="1300.5" y="332"/><rect fill="#FEFECE" height="2" style="stroke: #A80036; stroke-width: 1.5;" width="4" x="1300.5" y="336"/><text fill="#000000" font-family="sans-serif" font-size="14" lengthAdjust="spacingAndGlyphs" textLength="105" x="1192.5" y="357.9951">:engine:paging</text><!--MD5=[7a8db28f95dace5dcd53803600931555]
entity :jvm:server--><rect fill="#FEFECE" filter="url(#f1m7m5unvkmcjv)" height="46.2969" style="stroke: #A80036; stroke-width: 1.5;" width="116" x="522" y="7"/><rect fill="#FEFECE" height="10" style="stroke: #A80036; stroke-width: 1.5;" width="15" x="618" y="12"/><rect fill="#FEFECE" height="2" style="stroke: #A80036; stroke-width: 1.5;" width="4" x="616" y="14"/><rect fill="#FEFECE" height="2" style="stroke: #A80036; stroke-width: 1.5;" width="4" x="616" y="18"/><text fill="#000000" font-family="sans-serif" font-size="14" lengthAdjust="spacingAndGlyphs" textLength="76" x="537" y="39.9951">:jvm:server</text><!--MD5=[d56d75fd9d79f2971a8810c55a0ec159]
link :core:mock:repo to :core:api--><path d="M163.237,259.2769 C172.2572,261.2275 181.3268,263.1701 190,265 C316.081,291.6003 464.3743,321.2991 543.1686,336.9535 " fill="none" id=":core:mock:repo-&gt;:core:api" style="stroke: #A80036; stroke-width: 1.0;"/><polygon fill="#A80036" points="548.2572,337.9641,540.209,332.2873,543.353,336.99,538.6504,340.134,548.2572,337.9641" style="stroke: #A80036; stroke-width: 1.0;"/><!--MD5=[01e2c32998785bfb6966ba88c709eb09]
link :core:mock:net to :core:api--><path d="M236.271,159.0872 C262.3535,187.537 310.259,235.6967 360,265 C418.3585,299.38 493.1295,322.4572 543.3659,335.374 " fill="none" id=":core:mock:net-&gt;:core:api" style="stroke: #A80036; stroke-width: 1.0;"/><polygon fill="#A80036" points="548.4533,336.6689,540.7182,330.5723,543.6078,335.4355,538.7447,338.3251,548.4533,336.6689" style="stroke: #A80036; stroke-width: 1.0;"/><!--MD5=[06c56ae8f7dd57601222b4d226bd7120]
link :core:mock:sys to :core:api--><path d="M385.3181,159.1702 C372.0804,186.8338 356.0626,233.3276 378,265 C397.3786,292.9782 484.6282,319.5876 543.5295,334.8288 " fill="none" id=":core:mock:sys-&gt;:core:api" style="stroke: #A80036; stroke-width: 1.0;"/><polygon fill="#A80036" points="548.4278,336.087,540.706,329.9736,543.585,334.843,538.7156,337.722,548.4278,336.087" style="stroke: #A80036; stroke-width: 1.0;"/><!--MD5=[54f45d9f7bd3d59be0d46302fee7f768]
link :net:smack:jvm to :core:api--><path d="M506.9418,154.6264 C440.8106,175.2711 358.7491,212.6971 394,265 C427.0246,313.9997 494.4256,334.0817 542.9386,342.3062 " fill="none" id=":net:smack:jvm-&gt;:core:api" style="stroke: #A80036; stroke-width: 1.0;"/><polygon fill="#A80036" points="548.1638,343.1588,539.9255,337.7615,543.2291,342.3535,538.6371,345.6571,548.1638,343.1588" style="stroke: #A80036; stroke-width: 1.0;"/><!--MD5=[6084f87cb11c9c8e7b98e1b6385e3a51]
link :core:backend to :core:domain:app--><path d="M775.4136,157.1959 C717.5847,174.561 635.6845,199.1542 574.9624,217.3881 " fill="none" id=":core:backend-&gt;:core:domain:app" style="stroke: #A80036; stroke-width: 1.0;"/><polygon fill="#A80036" points="569.8924,218.9105,579.6626,220.1531,574.6811,217.4725,577.3617,212.4911,569.8924,218.9105" style="stroke: #A80036; stroke-width: 1.0;"/><!--MD5=[64d379cf4fc32ff0b351faeb9dde2472]
link :core:backend to :core:domain:session--><path d="M815.4051,159.0004 C793.2929,175.6237 763.3714,198.1179 740.2557,215.4957 " fill="none" id=":core:backend-&gt;:core:domain:session" style="stroke: #A80036; stroke-width: 1.0;"/><polygon fill="#A80036" points="736.0221,218.6784,745.6196,216.4676,740.0187,215.6739,740.8124,210.073,736.0221,218.6784" style="stroke: #A80036; stroke-width: 1.0;"/><!--MD5=[c6a5a6f4626caa42ca04d1aec387f400]
link :core:backend to :core:domain:account--><path d="M864.6607,159.0004 C877.8678,175.2789 895.6424,197.1871 909.6137,214.4076 " fill="none" id=":core:backend-&gt;:core:domain:account" style="stroke: #A80036; stroke-width: 1.0;"/><polygon fill="#A80036" points="913.0787,218.6784,910.5145,209.1692,909.9285,214.7956,904.3021,214.2096,913.0787,218.6784" style="stroke: #A80036; stroke-width: 1.0;"/><!--MD5=[d7e8e2dc0a0071dfc163bed50f54849b]
link :core:backend to :core:domain:chat--><path d="M911.3125,159.0004 C960.1388,176.1951 1026.8017,199.671 1076.7729,217.2689 " fill="none" id=":core:backend-&gt;:core:domain:chat" style="stroke: #A80036; stroke-width: 1.0;"/><polygon fill="#A80036" points="1081.5556,218.9531,1074.3953,212.1907,1076.8395,217.2923,1071.7379,219.7365,1081.5556,218.9531" style="stroke: #A80036; stroke-width: 1.0;"/><!--MD5=[704cc349d7da7a8c75399283440f8ee2]
link :core:backend to :core:domain:roster--><path d="M916.8467,150.4031 C997.1906,166.7892 1132.0933,194.4604 1248,219 C1251.886,219.8227 1255.8513,220.6661 1259.8564,221.521 " fill="none" id=":core:backend-&gt;:core:domain:roster" style="stroke: #A80036; stroke-width: 1.0;"/><polygon fill="#A80036" points="1264.9479,222.6094,1256.9831,216.8161,1260.0584,221.564,1255.3105,224.6393,1264.9479,222.6094" style="stroke: #A80036; stroke-width: 1.0;"/><!--MD5=[d2d1f0be6436256e6d977803045f7553]
link :engine:net to :engine:connectable--><path d="M1496,159.1259 C1496,216.2616 1496,363.9385 1496,425.9389 " fill="none" id=":engine:net-&gt;:engine:connectable" style="stroke: #A80036; stroke-width: 1.0;"/><polygon fill="#A80036" points="1496,430.9608,1500,421.9608,1496,425.9608,1492,421.9608,1496,430.9608" style="stroke: #A80036; stroke-width: 1.0;"/><!--MD5=[9e0cd9895457fd564306a213d979b005]
link :engine:net to :engine:json--><path d="M1521.3873,159.0004 C1539.6595,175.5548 1564.3582,197.9314 1583.5062,215.2791 " fill="none" id=":engine:net-&gt;:engine:json" style="stroke: #A80036; stroke-width: 1.0;"/><polygon fill="#A80036" points="1587.2583,218.6784,1583.2743,209.6713,1583.5529,215.3213,1577.9029,215.5999,1587.2583,218.6784" style="stroke: #A80036; stroke-width: 1.0;"/><!--MD5=[7e35b258ed27b7b9efdd5355b20d38a8]
link :jvm:log to :engine:log--><path d="M1691.3206,477.0004 C1685.2298,493.1409 1677.0505,514.8162 1670.5778,531.9688 " fill="none" id=":jvm:log-&gt;:engine:log" style="stroke: #A80036; stroke-width: 1.0;"/><polygon fill="#A80036" points="1668.8006,536.6784,1675.7206,529.6703,1670.566,532.0004,1668.2359,526.8457,1668.8006,536.6784" style="stroke: #A80036; stroke-width: 1.0;"/><!--MD5=[eaf14edc6043f7290cbfd1583ac6425c]
link :core:api to :engine:connectable--><path d="M649.7967,354.0027 C794.1681,371.0633 1208.6923,420.0484 1398.7161,442.5038 " fill="none" id=":core:api-&gt;:engine:connectable" style="stroke: #A80036; stroke-width: 1.0;"/><polygon fill="#A80036" points="1403.7176,443.0948,1395.2493,438.0661,1398.7522,442.5079,1394.3103,446.0108,1403.7176,443.0948" style="stroke: #A80036; stroke-width: 1.0;"/><!--MD5=[bca29f017d1f9d57df28eb8d83e96ded]
link :engine:connectable to :engine:util--><path d="M1496,477.0004 C1496,493.003 1496,514.4461 1496,531.528 " fill="none" id=":engine:connectable-&gt;:engine:util" style="stroke: #A80036; stroke-width: 1.0;"/><polygon fill="#A80036" points="1496,536.6784,1500,527.6784,1496,531.6784,1492,527.6784,1496,536.6784" style="stroke: #A80036; stroke-width: 1.0;"/><!--MD5=[6eb7bccd1a3c6d4cd083766ccbfc4317]
link :engine:connectable to :engine:log--><path d="M1531.5856,477.0004 C1557.6075,493.8195 1592.9279,516.6485 1619.9399,534.1075 " fill="none" id=":engine:connectable-&gt;:engine:log" style="stroke: #A80036; stroke-width: 1.0;"/><polygon fill="#A80036" points="1624.2011,536.8617,1618.8139,528.6168,1620.0019,534.1475,1614.4712,535.3355,1624.2011,536.8617" style="stroke: #A80036; stroke-width: 1.0;"/><!--MD5=[cec0b78861792eaab7fa2279ffc7a7e2]
link :core:domain:app to :core:api--><path d="M516.0004,265.0004 C532.4168,281.4168 554.5588,303.5588 571.8444,320.8444 " fill="none" id=":core:domain:app-&gt;:core:api" style="stroke: #A80036; stroke-width: 1.0;"/><polygon fill="#A80036" points="575.6784,324.6784,572.1429,315.486,572.1429,321.1429,566.486,321.1429,575.6784,324.6784" style="stroke: #A80036; stroke-width: 1.0;"/><!--MD5=[c67c764a5326e4d24cf2e4300865ef19]
link :core:domain:session to :core:api--><path d="M681.9996,265.0004 C665.5832,281.4168 643.4412,303.5588 626.1556,320.8444 " fill="none" id=":core:domain:session-&gt;:core:api" style="stroke: #A80036; stroke-width: 1.0;"/><polygon fill="#A80036" points="622.3216,324.6784,631.514,321.1429,625.8571,321.1429,625.8571,315.486,622.3216,324.6784" style="stroke: #A80036; stroke-width: 1.0;"/><!--MD5=[2c707074e348eff90fbc0f3bb90cfb10]
link :core:domain:account to :core:api--><path d="M859.744,265.0004 C798.1907,284.594 711.0144,312.3438 654.7365,330.258 " fill="none" id=":core:domain:account-&gt;:core:api" style="stroke: #A80036; stroke-width: 1.0;"/><polygon fill="#A80036" points="649.7269,331.8527,659.5162,332.9342,654.4913,330.336,657.0895,325.3111,649.7269,331.8527" style="stroke: #A80036; stroke-width: 1.0;"/><!--MD5=[01174190b578bab423e164a6f26b4f28]
link :core:domain:chat to :engine:paging--><path d="M1169.3495,265.0004 C1185.3012,281.4168 1206.8166,303.5588 1223.613,320.8444 " fill="none" id=":core:domain:chat-&gt;:engine:paging" style="stroke: #A80036; stroke-width: 1.0;"/><polygon fill="#A80036" points="1227.3385,324.6784,1223.9354,315.4362,1223.8541,321.0924,1218.1978,321.0112,1227.3385,324.6784" style="stroke: #A80036; stroke-width: 1.0;"/><!--MD5=[8aa6ab0427afef2408d03fa7b1428d03]
link :core:domain:chat to :core:api--><path d="M1063.2844,261.3372 C1057.4406,262.6029 1051.6357,263.8356 1046,265 C905.6023,294.0083 739.4137,323.6352 654.7062,338.4004 " fill="none" id=":core:domain:chat-&gt;:core:api" style="stroke: #A80036; stroke-width: 1.0;"/><polygon fill="#A80036" points="649.7418,339.265,659.2947,341.6613,654.6676,338.407,657.9219,333.7799,649.7418,339.265" style="stroke: #A80036; stroke-width: 1.0;"/><!--MD5=[ff59cb87d49bbcbfa2818e0d8d187e1a]
link :core:domain:roster to :engine:paging--><path d="M1331.4335,265.0004 C1315.3269,281.4168 1293.6027,303.5588 1276.6432,320.8444 " fill="none" id=":core:domain:roster-&gt;:engine:paging" style="stroke: #A80036; stroke-width: 1.0;"/><polygon fill="#A80036" points="1272.8816,324.6784,1282.0399,321.0556,1276.3833,321.1094,1276.3295,315.4528,1272.8816,324.6784" style="stroke: #A80036; stroke-width: 1.0;"/><!--MD5=[3b93329480165022044f1038d30e887f]
link :core:domain:roster to :core:api--><path d="M1264.7552,261.9414 C1259.0952,263.0273 1253.4747,264.0578 1248,265 C1029.8112,302.551 767.6618,331.0345 654.9656,342.4909 " fill="none" id=":core:domain:roster-&gt;:core:api" style="stroke: #A80036; stroke-width: 1.0;"/><polygon fill="#A80036" points="649.7128,343.0235,659.0705,346.0948,654.6873,342.5189,658.2632,338.1357,649.7128,343.0235" style="stroke: #A80036; stroke-width: 1.0;"/><!--MD5=[43ba97f3576adffb510ebe0b1506f400]
link :jvm:server to :core:mock:repo--><path d="M521.8543,33.2391 C412.7435,40.472 183.0593,61.5335 125,113 C96.3408,138.4048 87.9692,183.9044 85.6636,213.5153 " fill="none" id=":jvm:server-&gt;:core:mock:repo" style="stroke: #A80036; stroke-width: 1.0;"/><polygon fill="#A80036" points="85.3001,218.851,89.9026,210.1437,85.64,213.8626,81.9211,209.5999,85.3001,218.851" style="stroke: #A80036; stroke-width: 1.0;"/><!--MD5=[327920b2245189a5df4dc933ce089df1]
link :jvm:server to :core:mock:net--><path d="M521.9206,46.9132 C460.3726,64.8365 362.817,93.2456 294.4609,113.1515 " fill="none" id=":jvm:server-&gt;:core:mock:net" style="stroke: #A80036; stroke-width: 1.0;"/><polygon fill="#A80036" points="289.5906,114.5698,299.3501,115.8936,294.3911,113.1717,297.1131,108.2127,289.5906,114.5698" style="stroke: #A80036; stroke-width: 1.0;"/><!--MD5=[07de38d7994af73fe2996c306e4ce0b1]
link :jvm:server to :core:mock:sys--><path d="M540.5087,53.0004 C511.5118,69.8887 472.1109,92.8365 442.0874,110.3227 " fill="none" id=":jvm:server-&gt;:core:mock:sys" style="stroke: #A80036; stroke-width: 1.0;"/><polygon fill="#A80036" points="437.7281,112.8617,447.5183,111.7886,442.0487,110.3453,443.492,104.8756,437.7281,112.8617" style="stroke: #A80036; stroke-width: 1.0;"/><!--MD5=[b8382d6df6cce6eca2590a1eccb30dcd]
link :jvm:server to :net:smack:jvm--><path d="M580,53.0004 C580,69.003 580,90.4461 580,107.528 " fill="none" id=":jvm:server-&gt;:net:smack:jvm" style="stroke: #A80036; stroke-width: 1.0;"/><polygon fill="#A80036" points="580,112.6784,584,103.6784,580,107.6784,576,103.6784,580,112.6784" style="stroke: #A80036; stroke-width: 1.0;"/><!--MD5=[7a8fc7f57920d4db20fd83ebcb921977]
link :jvm:server to :core:backend--><path d="M637.718,53.0004 C680.6191,70.0964 739.1024,93.4017 783.1769,110.9652 " fill="none" id=":jvm:server-&gt;:core:backend" style="stroke: #A80036; stroke-width: 1.0;"/><polygon fill="#A80036" points="787.9359,112.8617,781.0561,105.8141,783.2911,111.0107,778.0945,113.2458,787.9359,112.8617" style="stroke: #A80036; stroke-width: 1.0;"/><!--MD5=[29d026dc4beabb255aa0570f19d000b9]
link :jvm:server to :engine:net--><path d="M638.3436,36.7516 C801.0661,55.5819 1259.1726,108.5942 1430.3676,128.405 " fill="none" id=":jvm:server-&gt;:engine:net" style="stroke: #A80036; stroke-width: 1.0;"/><polygon fill="#A80036" points="1435.3482,128.9813,1426.8678,123.9731,1430.3814,128.4064,1425.948,131.92,1435.3482,128.9813" style="stroke: #A80036; stroke-width: 1.0;"/><!--MD5=[91dfe211f93554157885152baf2b229d]
link :jvm:server to :jvm:log--><path d="M638.2253,32.7237 C837.9789,42.3611 1487.8954,76.248 1574,113 C1639.4486,140.9354 1663.9219,154.5081 1694,219 C1725.9744,287.5579 1714.7922,380.0352 1706.1859,425.853 " fill="none" id=":jvm:server-&gt;:jvm:log" style="stroke: #A80036; stroke-width: 1.0;"/><polygon fill="#A80036" points="1705.205,430.9385,1710.8374,422.8592,1706.1522,426.029,1702.9823,421.3437,1705.205,430.9385" style="stroke: #A80036; stroke-width: 1.0;"/><!--MD5=[a5f83cd0dd9eb3e51bf564b7534e4f8d]
@startuml
[:core:mock:repo] - -> [:core:api]
[:core:mock:net] - -> [:core:api]
[:core:mock:sys] - -> [:core:api]
[:net:smack:jvm] - -> [:core:api]
[:core:backend] - -> [:core:domain:app]
[:core:backend] - -> [:core:domain:session]
[:core:backend] - -> [:core:domain:account]
[:core:backend] - -> [:core:domain:chat]
[:core:backend] - -> [:core:domain:roster]
[:engine:net] - -> [:engine:connectable]
[:engine:net] - -> [:engine:json]
[:jvm:log] - -> [:engine:log]
[:core:api] - -> [:engine:connectable]
[:engine:connectable] - -> [:engine:util]
[:engine:connectable] - -> [:engine:log]
[:core:domain:app] - -> [:core:api]
[:core:domain:session] - -> [:core:api]
[:core:domain:account] - -> [:core:api]
[:core:domain:chat] - -> [:engine:paging]
[:core:domain:chat] - -> [:core:api]
[:core:domain:roster] - -> [:engine:paging]
[:core:domain:roster] - -> [:core:api]
[:jvm:server] - -> [:core:mock:repo]
[:jvm:server] - -> [:core:mock:net]
[:jvm:server] - -> [:core:mock:sys]
[:jvm:server] - -> [:net:smack:jvm]
[:jvm:server] - -> [:core:backend]
[:jvm:server] - -> [:engine:net]
[:jvm:server] - -> [:jvm:log]
@enduml

PlantUML version 1.2020.15(Sun Jun 28 13:39:45 CEST 2020)
(GPL source distribution)
Java Runtime: OpenJDK Runtime Environment
JVM: OpenJDK 64-Bit Server VM
Default Encoding: UTF-8
Language: pl
Country: PL
--></g></svg>