<?xml version="1.0" encoding="UTF-8" standalone="no"?><svg xmlns="http://www.w3.org/2000/svg" xmlns:xlink="http://www.w3.org/1999/xlink" contentScriptType="application/ecmascript" contentStyleType="text/css" height="523px" preserveAspectRatio="none" style="width:711px;height:523px;" version="1.1" viewBox="0 0 711 523" width="711px" zoomAndPan="magnify"><defs><filter height="300%" id="f1464m4rd6956n" width="300%" x="-1" y="-1"><feGaussianBlur result="blurOut" stdDeviation="2.0"/><feColorMatrix in="blurOut" result="blurOut2" type="matrix" values="0 0 0 0 0 0 0 0 0 0 0 0 0 0 0 0 0 0 .4 0"/><feOffset dx="4.0" dy="4.0" in="blurOut2" result="blurOut3"/><feBlend in="SourceGraphic" in2="blurOut3" mode="normal"/></filter></defs><g><!--MD5=[6ed0a4222646c4be5d3ab2314135a570]
cluster :engine--><polygon fill="#FFFFFF" filter="url(#f1464m4rd6956n)" points="16,218,82,218,89,240.2969,379,240.2969,379,511,16,511,16,218" style="stroke: #000000; stroke-width: 1.5;"/><line style="stroke: #000000; stroke-width: 1.5;" x1="16" x2="89" y1="240.2969" y2="240.2969"/><text fill="#000000" font-family="sans-serif" font-size="14" font-weight="bold" lengthAdjust="spacingAndGlyphs" textLength="60" x="20" y="232.9951">:engine</text><!--MD5=[aae699ec891e4c0fc5af03006e3188bf]
cluster :platform--><polygon fill="#FFFFFF" filter="url(#f1464m4rd6956n)" points="517,112,595,112,602,134.2969,689,134.2969,689,193,517,193,517,112" style="stroke: #000000; stroke-width: 1.5;"/><line style="stroke: #000000; stroke-width: 1.5;" x1="517" x2="602" y1="134.2969" y2="134.2969"/><text fill="#000000" font-family="sans-serif" font-size="14" font-weight="bold" lengthAdjust="spacingAndGlyphs" textLength="72" x="521" y="126.9951">:platform</text><!--MD5=[30404b2edc0ff233b9122d63ae72b243]
cluster :core--><polygon fill="#FFFFFF" filter="url(#f1464m4rd6956n)" points="387,112,435,112,442,134.2969,505,134.2969,505,299,387,299,387,112" style="stroke: #000000; stroke-width: 1.5;"/><line style="stroke: #000000; stroke-width: 1.5;" x1="387" x2="442" y1="134.2969" y2="134.2969"/><text fill="#000000" font-family="sans-serif" font-size="14" font-weight="bold" lengthAdjust="spacingAndGlyphs" textLength="42" x="391" y="126.9951">:core</text><!--MD5=[8e4c312b0b41d0712f148ccd6208f491]
cluster :app--><polygon fill="#FFFFFF" filter="url(#f1464m4rd6956n)" points="376,6,417,6,424,28.2969,510,28.2969,510,87,376,87,376,6" style="stroke: #000000; stroke-width: 1.5;"/><line style="stroke: #000000; stroke-width: 1.5;" x1="376" x2="424" y1="28.2969" y2="28.2969"/><text fill="#000000" font-family="sans-serif" font-size="14" font-weight="bold" lengthAdjust="spacingAndGlyphs" textLength="35" x="380" y="20.9951">:app</text><!--MD5=[486755d95e08f80cb04a0aa885580c7b]
entity :engine:net--><rect fill="#FEFECE" filter="url(#f1464m4rd6956n)" height="46.2969" style="stroke: #A80036; stroke-width: 1.5;" width="121" x="41.5" y="245"/><rect fill="#FEFECE" height="10" style="stroke: #A80036; stroke-width: 1.5;" width="15" x="142.5" y="250"/><rect fill="#FEFECE" height="2" style="stroke: #A80036; stroke-width: 1.5;" width="4" x="140.5" y="252"/><rect fill="#FEFECE" height="2" style="stroke: #A80036; stroke-width: 1.5;" width="4" x="140.5" y="256"/><text fill="#000000" font-family="sans-serif" font-size="14" lengthAdjust="spacingAndGlyphs" textLength="81" x="56.5" y="277.9951">:engine:net</text><!--MD5=[474bc7754ff50e9887f34633b92b9e02]
entity :engine:connectable--><rect fill="#FEFECE" filter="url(#f1464m4rd6956n)" height="46.2969" style="stroke: #A80036; stroke-width: 1.5;" width="184" x="187" y="351"/><rect fill="#FEFECE" height="10" style="stroke: #A80036; stroke-width: 1.5;" width="15" x="351" y="356"/><rect fill="#FEFECE" height="2" style="stroke: #A80036; stroke-width: 1.5;" width="4" x="349" y="358"/><rect fill="#FEFECE" height="2" style="stroke: #A80036; stroke-width: 1.5;" width="4" x="349" y="362"/><text fill="#000000" font-family="sans-serif" font-size="14" lengthAdjust="spacingAndGlyphs" textLength="144" x="202" y="383.9951">:engine:connectable</text><!--MD5=[de9e9b3b438569aa67cb351d8b039e39]
entity :engine:json--><rect fill="#FEFECE" filter="url(#f1464m4rd6956n)" height="46.2969" style="stroke: #A80036; stroke-width: 1.5;" width="127" x="24.5" y="351"/><rect fill="#FEFECE" height="10" style="stroke: #A80036; stroke-width: 1.5;" width="15" x="131.5" y="356"/><rect fill="#FEFECE" height="2" style="stroke: #A80036; stroke-width: 1.5;" width="4" x="129.5" y="358"/><rect fill="#FEFECE" height="2" style="stroke: #A80036; stroke-width: 1.5;" width="4" x="129.5" y="362"/><text fill="#000000" font-family="sans-serif" font-size="14" lengthAdjust="spacingAndGlyphs" textLength="87" x="39.5" y="383.9951">:engine:json</text><!--MD5=[8e94acc19a10f03efd288fb36eb4472b]
entity :engine:util--><rect fill="#FEFECE" filter="url(#f1464m4rd6956n)" height="46.2969" style="stroke: #A80036; stroke-width: 1.5;" width="118" x="98" y="457"/><rect fill="#FEFECE" height="10" style="stroke: #A80036; stroke-width: 1.5;" width="15" x="196" y="462"/><rect fill="#FEFECE" height="2" style="stroke: #A80036; stroke-width: 1.5;" width="4" x="194" y="464"/><rect fill="#FEFECE" height="2" style="stroke: #A80036; stroke-width: 1.5;" width="4" x="194" y="468"/><text fill="#000000" font-family="sans-serif" font-size="14" lengthAdjust="spacingAndGlyphs" textLength="78" x="113" y="489.9951">:engine:util</text><!--MD5=[f7af38a47341a5d6bbb7054022a18e1f]
entity :engine:log--><rect fill="#FEFECE" filter="url(#f1464m4rd6956n)" height="46.2969" style="stroke: #A80036; stroke-width: 1.5;" width="119" x="251.5" y="457"/><rect fill="#FEFECE" height="10" style="stroke: #A80036; stroke-width: 1.5;" width="15" x="350.5" y="462"/><rect fill="#FEFECE" height="2" style="stroke: #A80036; stroke-width: 1.5;" width="4" x="348.5" y="464"/><rect fill="#FEFECE" height="2" style="stroke: #A80036; stroke-width: 1.5;" width="4" x="348.5" y="468"/><text fill="#000000" font-family="sans-serif" font-size="14" lengthAdjust="spacingAndGlyphs" textLength="79" x="266.5" y="489.9951">:engine:log</text><!--MD5=[9cb9b296c1f7d1e8bceacf7e776ceb9f]
entity :engine:translator--><rect fill="#FEFECE" filter="url(#f1464m4rd6956n)" height="46.2969" style="stroke: #A80036; stroke-width: 1.5;" width="163" x="197.5" y="245"/><rect fill="#FEFECE" height="10" style="stroke: #A80036; stroke-width: 1.5;" width="15" x="340.5" y="250"/><rect fill="#FEFECE" height="2" style="stroke: #A80036; stroke-width: 1.5;" width="4" x="338.5" y="252"/><rect fill="#FEFECE" height="2" style="stroke: #A80036; stroke-width: 1.5;" width="4" x="338.5" y="256"/><text fill="#000000" font-family="sans-serif" font-size="14" lengthAdjust="spacingAndGlyphs" textLength="123" x="212.5" y="277.9951">:engine:translator</text><!--MD5=[e9b68b4f7f0bf6e331dd03797eba429d]
entity :platform:log:jvm--><rect fill="#FEFECE" filter="url(#f1464m4rd6956n)" height="46.2969" style="stroke: #A80036; stroke-width: 1.5;" width="155" x="525.5" y="139"/><rect fill="#FEFECE" height="10" style="stroke: #A80036; stroke-width: 1.5;" width="15" x="660.5" y="144"/><rect fill="#FEFECE" height="2" style="stroke: #A80036; stroke-width: 1.5;" width="4" x="658.5" y="146"/><rect fill="#FEFECE" height="2" style="stroke: #A80036; stroke-width: 1.5;" width="4" x="658.5" y="150"/><text fill="#000000" font-family="sans-serif" font-size="14" lengthAdjust="spacingAndGlyphs" textLength="115" x="540.5" y="171.9951">:platform:log:jvm</text><!--MD5=[b4e25f7522ba1111eb2df4fe1b5db7c7]
entity :core:cli--><rect fill="#FEFECE" filter="url(#f1464m4rd6956n)" height="46.2969" style="stroke: #A80036; stroke-width: 1.5;" width="95" x="395.5" y="139"/><rect fill="#FEFECE" height="10" style="stroke: #A80036; stroke-width: 1.5;" width="15" x="470.5" y="144"/><rect fill="#FEFECE" height="2" style="stroke: #A80036; stroke-width: 1.5;" width="4" x="468.5" y="146"/><rect fill="#FEFECE" height="2" style="stroke: #A80036; stroke-width: 1.5;" width="4" x="468.5" y="150"/><text fill="#000000" font-family="sans-serif" font-size="14" lengthAdjust="spacingAndGlyphs" textLength="55" x="410.5" y="171.9951">:core:cli</text><!--MD5=[bb042d61f43125fc2fe6ee382cb3d84b]
entity :core:api--><rect fill="#FEFECE" filter="url(#f1464m4rd6956n)" height="46.2969" style="stroke: #A80036; stroke-width: 1.5;" width="101" x="395.5" y="245"/><rect fill="#FEFECE" height="10" style="stroke: #A80036; stroke-width: 1.5;" width="15" x="476.5" y="250"/><rect fill="#FEFECE" height="2" style="stroke: #A80036; stroke-width: 1.5;" width="4" x="474.5" y="252"/><rect fill="#FEFECE" height="2" style="stroke: #A80036; stroke-width: 1.5;" width="4" x="474.5" y="256"/><text fill="#000000" font-family="sans-serif" font-size="14" lengthAdjust="spacingAndGlyphs" textLength="61" x="410.5" y="277.9951">:core:api</text><!--MD5=[3957040fee0fc7e85c96f9a904769118]
entity :app:jvm:cli--><rect fill="#FEFECE" filter="url(#f1464m4rd6956n)" height="46.2969" style="stroke: #A80036; stroke-width: 1.5;" width="118" x="384" y="33"/><rect fill="#FEFECE" height="10" style="stroke: #A80036; stroke-width: 1.5;" width="15" x="482" y="38"/><rect fill="#FEFECE" height="2" style="stroke: #A80036; stroke-width: 1.5;" width="4" x="480" y="40"/><rect fill="#FEFECE" height="2" style="stroke: #A80036; stroke-width: 1.5;" width="4" x="480" y="44"/><text fill="#000000" font-family="sans-serif" font-size="14" lengthAdjust="spacingAndGlyphs" textLength="78" x="399" y="65.9951">:app:jvm:cli</text><!--MD5=[d2d1f0be6436256e6d977803045f7553]
link :engine:net to :engine:connectable--><path d="M140.4064,291.0004 C168.491,307.8195 206.6112,330.6485 235.7644,348.1075 " fill="none" id=":engine:net-&gt;:engine:connectable" style="stroke: #A80036; stroke-width: 1.0;"/><polygon fill="#A80036" points="240.3634,350.8617,234.6974,342.8059,236.0738,348.2927,230.587,349.6692,240.3634,350.8617" style="stroke: #A80036; stroke-width: 1.0;"/><!--MD5=[9e0cd9895457fd564306a213d979b005]
link :engine:net to :engine:json--><path d="M98.9622,291.0004 C96.8487,307.003 94.0166,328.4461 91.7605,345.528 " fill="none" id=":engine:net-&gt;:engine:json" style="stroke: #A80036; stroke-width: 1.0;"/><polygon fill="#A80036" points="91.0802,350.6784,96.2243,342.2797,91.7349,345.7215,88.2931,341.2321,91.0802,350.6784" style="stroke: #A80036; stroke-width: 1.0;"/><!--MD5=[a35a9ea5d16e6716e3306a59064739c3]
link :platform:log:jvm to :engine:log--><path d="M590.3223,185.0828 C574.2379,213.3812 544.7462,262.1181 513,299 C460.3267,360.1944 387.5909,420.6152 345.2993,453.8449 " fill="none" id=":platform:log:jvm-&gt;:engine:log" style="stroke: #A80036; stroke-width: 1.0;"/><polygon fill="#A80036" points="341.3033,456.9749,350.8551,454.5743,345.2396,453.8918,345.9221,448.2762,341.3033,456.9749" style="stroke: #A80036; stroke-width: 1.0;"/><!--MD5=[e5b52aacd6c9e8567a26aa6a4b3cfc3a]
link :core:cli to :engine:translator--><path d="M407.4144,185.0004 C381.3925,201.8195 346.0721,224.6485 319.0601,242.1075 " fill="none" id=":core:cli-&gt;:engine:translator" style="stroke: #A80036; stroke-width: 1.0;"/><polygon fill="#A80036" points="314.7989,244.8617,324.5288,243.3355,318.9981,242.1475,320.1861,236.6168,314.7989,244.8617" style="stroke: #A80036; stroke-width: 1.0;"/><!--MD5=[c2bb4decd7a24ab2954465b21eb4e89b]
link :core:cli to :core:api--><path d="M443.651,185.0004 C444.1039,201.003 444.7107,222.4461 445.1942,239.528 " fill="none" id=":core:cli-&gt;:core:api" style="stroke: #A80036; stroke-width: 1.0;"/><polygon fill="#A80036" points="445.34,244.6784,449.0836,235.5688,445.1984,239.6804,441.0868,235.7953,445.34,244.6784" style="stroke: #A80036; stroke-width: 1.0;"/><!--MD5=[bca29f017d1f9d57df28eb8d83e96ded]
link :engine:connectable to :engine:util--><path d="M252.5278,397.0004 C233.4747,413.5548 207.7205,435.9314 187.7542,453.2791 " fill="none" id=":engine:connectable-&gt;:engine:util" style="stroke: #A80036; stroke-width: 1.0;"/><polygon fill="#A80036" points="183.8418,456.6784,193.2591,453.795,187.6162,453.399,188.0121,447.7561,183.8418,456.6784" style="stroke: #A80036; stroke-width: 1.0;"/><!--MD5=[6eb7bccd1a3c6d4cd083766ccbfc4317]
link :engine:connectable to :engine:log--><path d="M285.9435,397.0004 C290.7745,413.003 297.2479,434.4461 302.4047,451.528 " fill="none" id=":engine:connectable-&gt;:engine:log" style="stroke: #A80036; stroke-width: 1.0;"/><polygon fill="#A80036" points="303.9595,456.6784,305.1876,446.9064,302.5144,451.8918,297.529,449.2186,303.9595,456.6784" style="stroke: #A80036; stroke-width: 1.0;"/><!--MD5=[eaf14edc6043f7290cbfd1583ac6425c]
link :core:api to :engine:connectable--><path d="M409.7635,291.0004 C383.2655,307.8195 347.299,330.6485 319.7929,348.1075 " fill="none" id=":core:api-&gt;:engine:connectable" style="stroke: #A80036; stroke-width: 1.0;"/><polygon fill="#A80036" points="315.4538,350.8617,325.196,349.4159,319.6752,348.1823,320.9089,342.6616,315.4538,350.8617" style="stroke: #A80036; stroke-width: 1.0;"/><!--MD5=[5cbc2408cd82b039908ce40e490618bc]
link :app:jvm:cli to :engine:net--><path d="M404.9765,79.1268 C353.7185,110.3704 259.6863,167.923 180,218 C167.6279,225.7749 154.2144,234.3281 142.0565,242.1281 " fill="none" id=":app:jvm:cli-&gt;:engine:net" style="stroke: #A80036; stroke-width: 1.0;"/><polygon fill="#A80036" points="137.6384,244.9649,147.3729,243.4683,141.8458,242.2635,143.0506,236.7364,137.6384,244.9649" style="stroke: #A80036; stroke-width: 1.0;"/><!--MD5=[adbbd21cff040663bfc0d76d634f749b]
link :app:jvm:cli to :platform:log:jvm--><path d="M477.7176,79.0004 C503.0004,95.7503 537.2803,118.4607 563.5912,135.8917 " fill="none" id=":app:jvm:cli-&gt;:platform:log:jvm" style="stroke: #A80036; stroke-width: 1.0;"/><polygon fill="#A80036" points="568.0742,138.8617,562.7806,130.5564,563.906,136.1002,558.3622,137.2255,568.0742,138.8617" style="stroke: #A80036; stroke-width: 1.0;"/><!--MD5=[2415d4b04f2e9265ce550c6458ae8b9d]
link :app:jvm:cli to :core:cli--><path d="M443,79.0004 C443,95.003 443,116.4461 443,133.528 " fill="none" id=":app:jvm:cli-&gt;:core:cli" style="stroke: #A80036; stroke-width: 1.0;"/><polygon fill="#A80036" points="443,138.6784,447,129.6784,443,133.6784,439,129.6784,443,138.6784" style="stroke: #A80036; stroke-width: 1.0;"/><!--MD5=[1184d414d263995bbd788951362a4bab]
@startuml
package ":engine" {
[:engine:net]
[:engine:connectable]
[:engine:json]
[:engine:util]
[:engine:log]
[:engine:translator]
}
package ":platform" {
[:platform:log:jvm]
}
package ":core" {
[:core:cli]
[:core:api]
}
package ":app" {
[:app:jvm:cli]
}
[:engine:net] - -> [:engine:connectable]
[:engine:net] - -> [:engine:json]
[:platform:log:jvm] - -> [:engine:log]
[:core:cli] - -> [:engine:translator]
[:core:cli] - -> [:core:api]
[:engine:connectable] - -> [:engine:util]
[:engine:connectable] - -> [:engine:log]
[:core:api] - -> [:engine:connectable]
[:app:jvm:cli] - -> [:engine:net]
[:app:jvm:cli] - -> [:platform:log:jvm]
[:app:jvm:cli] - -> [:core:cli]
@enduml

PlantUML version 1.2020.15(Sun Jun 28 13:39:45 CEST 2020)
(GPL source distribution)
Java Runtime: OpenJDK Runtime Environment
JVM: OpenJDK 64-Bit Server VM
Default Encoding: UTF-8
Language: pl
Country: PL
--></g></svg>