<?xml version="1.0" encoding="UTF-8" standalone="no"?><svg xmlns="http://www.w3.org/2000/svg" xmlns:xlink="http://www.w3.org/1999/xlink" contentScriptType="application/ecmascript" contentStyleType="text/css" height="548.75px" preserveAspectRatio="none" style="width:687px;height:548px;" version="1.1" viewBox="0 0 687 548" width="687.5px" zoomAndPan="magnify"><defs><filter height="300%" id="fgeeq1yn0yf42" width="300%" x="-1" y="-1"><feGaussianBlur result="blurOut" stdDeviation="2.5"/><feColorMatrix in="blurOut" result="blurOut2" type="matrix" values="0 0 0 0 0 0 0 0 0 0 0 0 0 0 0 0 0 0 .4 0"/><feOffset dx="5.0" dy="5.0" in="blurOut2" result="blurOut3"/><feBlend in="SourceGraphic" in2="blurOut3" mode="normal"/></filter></defs><g><!--MD5=[486755d95e08f80cb04a0aa885580c7b]
entity :engine:net--><rect fill="#FEFECE" filter="url(#fgeeq1yn0yf42)" height="45.3711" style="stroke: #A80036; stroke-width: 1.875;" width="126.25" x="135.625" y="130"/><rect fill="#FEFECE" height="6.25" style="stroke: #A80036; stroke-width: 1.875;" width="12.5" x="129.375" y="136.25"/><rect fill="#FEFECE" height="6.25" style="stroke: #A80036; stroke-width: 1.875;" width="12.5" x="129.375" y="162.8711"/><text fill="#000000" font-family="sans-serif" font-size="17.5" lengthAdjust="spacingAndGlyphs" textLength="101.25" x="148.125" y="158.7439">:engine:net</text><!--MD5=[474bc7754ff50e9887f34633b92b9e02]
entity :engine:connectable--><rect fill="#FEFECE" filter="url(#fgeeq1yn0yf42)" height="45.3711" style="stroke: #A80036; stroke-width: 1.875;" width="205" x="181.25" y="370"/><rect fill="#FEFECE" height="6.25" style="stroke: #A80036; stroke-width: 1.875;" width="12.5" x="175" y="376.25"/><rect fill="#FEFECE" height="6.25" style="stroke: #A80036; stroke-width: 1.875;" width="12.5" x="175" y="402.8711"/><text fill="#000000" font-family="sans-serif" font-size="17.5" lengthAdjust="spacingAndGlyphs" textLength="180" x="193.75" y="398.7439">:engine:connectable</text><!--MD5=[de9e9b3b438569aa67cb351d8b039e39]
entity :engine:json--><rect fill="#FEFECE" filter="url(#fgeeq1yn0yf42)" height="45.3711" style="stroke: #A80036; stroke-width: 1.875;" width="133.75" x="83.125" y="250"/><rect fill="#FEFECE" height="6.25" style="stroke: #A80036; stroke-width: 1.875;" width="12.5" x="76.875" y="256.25"/><rect fill="#FEFECE" height="6.25" style="stroke: #A80036; stroke-width: 1.875;" width="12.5" x="76.875" y="282.8711"/><text fill="#000000" font-family="sans-serif" font-size="17.5" lengthAdjust="spacingAndGlyphs" textLength="108.75" x="95.625" y="278.7439">:engine:json</text><!--MD5=[278891ff76fd9b0eb7ee7029fade1047]
entity :jvm:log--><rect fill="#FEFECE" filter="url(#fgeeq1yn0yf42)" height="45.3711" style="stroke: #A80036; stroke-width: 1.875;" width="92.5" x="7.5" y="370"/><rect fill="#FEFECE" height="6.25" style="stroke: #A80036; stroke-width: 1.875;" width="12.5" x="1.25" y="376.25"/><rect fill="#FEFECE" height="6.25" style="stroke: #A80036; stroke-width: 1.875;" width="12.5" x="1.25" y="402.8711"/><text fill="#000000" font-family="sans-serif" font-size="17.5" lengthAdjust="spacingAndGlyphs" textLength="67.5" x="20" y="398.7439">:jvm:log</text><!--MD5=[f7af38a47341a5d6bbb7054022a18e1f]
entity :engine:log--><rect fill="#FEFECE" filter="url(#fgeeq1yn0yf42)" height="45.3711" style="stroke: #A80036; stroke-width: 1.875;" width="123.75" x="41.875" y="490"/><rect fill="#FEFECE" height="6.25" style="stroke: #A80036; stroke-width: 1.875;" width="12.5" x="35.625" y="496.25"/><rect fill="#FEFECE" height="6.25" style="stroke: #A80036; stroke-width: 1.875;" width="12.5" x="35.625" y="522.8711"/><text fill="#000000" font-family="sans-serif" font-size="17.5" lengthAdjust="spacingAndGlyphs" textLength="98.75" x="54.375" y="518.7439">:engine:log</text><!--MD5=[b4e25f7522ba1111eb2df4fe1b5db7c7]
entity :core:cli--><rect fill="#FEFECE" filter="url(#fgeeq1yn0yf42)" height="45.3711" style="stroke: #A80036; stroke-width: 1.875;" width="93.75" x="354.375" y="130"/><rect fill="#FEFECE" height="6.25" style="stroke: #A80036; stroke-width: 1.875;" width="12.5" x="348.125" y="136.25"/><rect fill="#FEFECE" height="6.25" style="stroke: #A80036; stroke-width: 1.875;" width="12.5" x="348.125" y="162.8711"/><text fill="#000000" font-family="sans-serif" font-size="17.5" lengthAdjust="spacingAndGlyphs" textLength="68.75" x="366.875" y="158.7439">:core:cli</text><!--MD5=[9cb9b296c1f7d1e8bceacf7e776ceb9f]
entity :engine:translator--><rect fill="#FEFECE" filter="url(#fgeeq1yn0yf42)" height="45.3711" style="stroke: #A80036; stroke-width: 1.875;" width="178.75" x="495.625" y="250"/><rect fill="#FEFECE" height="6.25" style="stroke: #A80036; stroke-width: 1.875;" width="12.5" x="489.375" y="256.25"/><rect fill="#FEFECE" height="6.25" style="stroke: #A80036; stroke-width: 1.875;" width="12.5" x="489.375" y="282.8711"/><text fill="#000000" font-family="sans-serif" font-size="17.5" lengthAdjust="spacingAndGlyphs" textLength="153.75" x="508.125" y="278.7439">:engine:translator</text><!--MD5=[bb042d61f43125fc2fe6ee382cb3d84b]
entity :core:api--><rect fill="#FEFECE" filter="url(#fgeeq1yn0yf42)" height="45.3711" style="stroke: #A80036; stroke-width: 1.875;" width="101.25" x="350.625" y="250"/><rect fill="#FEFECE" height="6.25" style="stroke: #A80036; stroke-width: 1.875;" width="12.5" x="344.375" y="256.25"/><rect fill="#FEFECE" height="6.25" style="stroke: #A80036; stroke-width: 1.875;" width="12.5" x="344.375" y="282.8711"/><text fill="#000000" font-family="sans-serif" font-size="17.5" lengthAdjust="spacingAndGlyphs" textLength="76.25" x="363.125" y="278.7439">:core:api</text><!--MD5=[8e94acc19a10f03efd288fb36eb4472b]
entity :engine:util--><rect fill="#FEFECE" filter="url(#fgeeq1yn0yf42)" height="45.3711" style="stroke: #A80036; stroke-width: 1.875;" width="122.5" x="222.5" y="490"/><rect fill="#FEFECE" height="6.25" style="stroke: #A80036; stroke-width: 1.875;" width="12.5" x="216.25" y="496.25"/><rect fill="#FEFECE" height="6.25" style="stroke: #A80036; stroke-width: 1.875;" width="12.5" x="216.25" y="522.8711"/><text fill="#000000" font-family="sans-serif" font-size="17.5" lengthAdjust="spacingAndGlyphs" textLength="97.5" x="235" y="518.7439">:engine:util</text><!--MD5=[a8cbaa61871035add2cbb46255d255c4]
entity :jvm:cli--><rect fill="#FEFECE" filter="url(#fgeeq1yn0yf42)" height="45.3711" style="stroke: #A80036; stroke-width: 1.875;" width="83.75" x="156.875" y="10"/><rect fill="#FEFECE" height="6.25" style="stroke: #A80036; stroke-width: 1.875;" width="12.5" x="150.625" y="16.25"/><rect fill="#FEFECE" height="6.25" style="stroke: #A80036; stroke-width: 1.875;" width="12.5" x="150.625" y="42.8711"/><text fill="#000000" font-family="sans-serif" font-size="17.5" lengthAdjust="spacingAndGlyphs" textLength="58.75" x="169.375" y="38.7439">:jvm:cli</text><!--MD5=[d2d1f0be6436256e6d977803045f7553]
link :engine:net to :engine:connectable--><path d="M208.6679,175.1426 C217.1135,194.7706 229.339,224.025 238.75,250 C252.7996,288.7779 266.7535,334.3478 275.3124,363.3194 " fill="none" id=":engine:net-&gt;:engine:connectable" style="stroke: #A80036; stroke-width: 1.25;"/><polygon fill="#A80036" points="277.1595,369.5979,278.7808,357.394,275.3954,363.602,269.1874,360.2166,277.1595,369.5979" style="stroke: #A80036; stroke-width: 1.25;"/><!--MD5=[9e0cd9895457fd564306a213d979b005]
link :engine:net to :engine:json--><path d="M189.5805,175.0711 C181.7319,194.3908 170.3813,222.3309 161.8458,243.3414 " fill="none" id=":engine:net-&gt;:engine:json" style="stroke: #A80036; stroke-width: 1.25;"/><polygon fill="#A80036" points="159.2941,249.6221,168.1606,241.0812,161.6464,243.8317,158.8959,237.3175,159.2941,249.6221" style="stroke: #A80036; stroke-width: 1.25;"/><!--MD5=[7e35b258ed27b7b9efdd5355b20d38a8]
link :jvm:log to :engine:log--><path d="M63.1546,415.0711 C71.2045,434.3908 82.8463,462.3309 91.6005,483.3414 " fill="none" id=":jvm:log-&gt;:engine:log" style="stroke: #A80036; stroke-width: 1.25;"/><polygon fill="#A80036" points="94.2175,489.6221,94.5059,477.3144,91.8136,483.8529,85.2751,481.1607,94.2175,489.6221" style="stroke: #A80036; stroke-width: 1.25;"/><!--MD5=[e5b52aacd6c9e8567a26aa6a4b3cfc3a]
link :core:cli to :engine:translator--><path d="M435.812,175.0711 C466.6704,195.2235 511.8912,224.7555 544.45,246.0184 " fill="none" id=":core:cli-&gt;:engine:translator" style="stroke: #A80036; stroke-width: 1.25;"/><polygon fill="#A80036" points="549.9683,249.6221,543.2831,239.2843,544.7354,246.2046,537.815,247.6569,549.9683,249.6221" style="stroke: #A80036; stroke-width: 1.25;"/><!--MD5=[c2bb4decd7a24ab2954465b21eb4e89b]
link :core:cli to :core:api--><path d="M401.25,175.0711 C401.25,194.3908 401.25,222.3309 401.25,243.3414 " fill="none" id=":core:cli-&gt;:core:api" style="stroke: #A80036; stroke-width: 1.25;"/><polygon fill="#A80036" points="401.25,249.6221,406.25,238.3721,401.25,243.3721,396.25,238.3721,401.25,249.6221" style="stroke: #A80036; stroke-width: 1.25;"/><!--MD5=[bca29f017d1f9d57df28eb8d83e96ded]
link :engine:connectable to :engine:util--><path d="M283.75,415.0711 C283.75,434.3908 283.75,462.3309 283.75,483.3414 " fill="none" id=":engine:connectable-&gt;:engine:util" style="stroke: #A80036; stroke-width: 1.25;"/><polygon fill="#A80036" points="283.75,489.6221,288.75,478.3721,283.75,483.3721,278.75,478.3721,283.75,489.6221" style="stroke: #A80036; stroke-width: 1.25;"/><!--MD5=[6eb7bccd1a3c6d4cd083766ccbfc4317]
link :engine:connectable to :engine:log--><path d="M249.8934,415.0711 C219.6646,435.2235 175.3668,464.7555 143.4725,486.0184 " fill="none" id=":engine:connectable-&gt;:engine:log" style="stroke: #A80036; stroke-width: 1.25;"/><polygon fill="#A80036" points="138.0668,489.6221,150.2008,487.5419,143.267,486.1552,144.6537,479.2214,138.0668,489.6221" style="stroke: #A80036; stroke-width: 1.25;"/><!--MD5=[eaf14edc6043f7290cbfd1583ac6425c]
link :core:api to :engine:connectable--><path d="M379.1491,295.0711 C359.7426,314.8905 331.4533,343.7819 310.7189,364.9573 " fill="none" id=":core:api-&gt;:engine:connectable" style="stroke: #A80036; stroke-width: 1.25;"/><polygon fill="#A80036" points="306.1513,369.6221,317.5945,365.0818,310.5238,365.1563,310.4492,358.0857,306.1513,369.6221" style="stroke: #A80036; stroke-width: 1.25;"/><!--MD5=[c05ff142796101709e7d542f158e6a97]
link :jvm:cli to :engine:net--><path d="M198.75,55.0711 C198.75,74.3908 198.75,102.3309 198.75,123.3414 " fill="none" id=":jvm:cli-&gt;:engine:net" style="stroke: #A80036; stroke-width: 1.25;"/><polygon fill="#A80036" points="198.75,129.6221,203.75,118.3721,198.75,123.3721,193.75,118.3721,198.75,129.6221" style="stroke: #A80036; stroke-width: 1.25;"/><!--MD5=[35d89bed032ef51c7a28171fa08d955c]
link :jvm:cli to :jvm:log--><path d="M175.2518,55.309 C156.821,74.1051 131.4166,102.1141 113.75,130 C82.5954,179.176 74.663,193.3521 61.25,250 C52.1224,288.549 51.4714,334.5389 52.2686,363.6334 " fill="none" id=":jvm:cli-&gt;:jvm:log" style="stroke: #A80036; stroke-width: 1.25;"/><polygon fill="#A80036" points="52.4714,369.9341,57.1068,358.5291,52.2703,363.6874,47.112,358.8508,52.4714,369.9341" style="stroke: #A80036; stroke-width: 1.25;"/><!--MD5=[7d821382eab19fa928c627b89af2ab8f]
link :jvm:cli to :core:cli--><path d="M236.8388,55.0711 C271.0953,75.3713 321.4126,105.189 357.349,126.4846 " fill="none" id=":jvm:cli-&gt;:core:cli" style="stroke: #A80036; stroke-width: 1.25;"/><polygon fill="#A80036" points="362.9884,129.8265,355.8591,119.7898,357.6116,126.6402,350.7611,128.3927,362.9884,129.8265" style="stroke: #A80036; stroke-width: 1.25;"/><!--MD5=[82c5181e1f606f678d01c6b0bc004ba0]
@startuml
[:engine:net] - -> [:engine:connectable]
[:engine:net] - -> [:engine:json]
[:jvm:log] - -> [:engine:log]
[:core:cli] - -> [:engine:translator]
[:core:cli] - -> [:core:api]
[:engine:connectable] - -> [:engine:util]
[:engine:connectable] - -> [:engine:log]
[:core:api] - -> [:engine:connectable]
[:jvm:cli] - -> [:engine:net]
[:jvm:cli] - -> [:jvm:log]
[:jvm:cli] - -> [:core:cli]
@enduml

PlantUML version 1.2019.11(Sun Sep 22 12:02:15 CEST 2019)
(GPL source distribution)
Java Runtime: OpenJDK Runtime Environment
JVM: OpenJDK 64-Bit Server VM
Java Version: 1.8.0_242-release-1644-b3-6222593
Operating System: Linux
Default Encoding: UTF-8
Language: pl
Country: PL
--></g></svg>