<?xml version="1.0" encoding="UTF-8" standalone="no"?><svg xmlns="http://www.w3.org/2000/svg" xmlns:xlink="http://www.w3.org/1999/xlink" contentScriptType="application/ecmascript" contentStyleType="text/css" height="629px" preserveAspectRatio="none" style="width:2323px;height:629px;" version="1.1" viewBox="0 0 2323 629" width="2323px" zoomAndPan="magnify"><defs><filter height="300%" id="f164h0m2wcrbel" width="300%" x="-1" y="-1"><feGaussianBlur result="blurOut" stdDeviation="2.0"/><feColorMatrix in="blurOut" result="blurOut2" type="matrix" values="0 0 0 0 0 0 0 0 0 0 0 0 0 0 0 0 0 0 .4 0"/><feOffset dx="4.0" dy="4.0" in="blurOut2" result="blurOut3"/><feBlend in="SourceGraphic" in2="blurOut3" mode="normal"/></filter></defs><g><!--MD5=[30404b2edc0ff233b9122d63ae72b243]
cluster :core--><polygon fill="#FFFFFF" filter="url(#f164h0m2wcrbel)" points="387,112,435,112,442,134.2969,1991,134.2969,1991,405,387,405,387,112" style="stroke: #000000; stroke-width: 1.5;"/><line style="stroke: #000000; stroke-width: 1.5;" x1="387" x2="442" y1="134.2969" y2="134.2969"/><text fill="#000000" font-family="sans-serif" font-size="14" font-weight="bold" lengthAdjust="spacingAndGlyphs" textLength="42" x="391" y="126.9951">:core</text><!--MD5=[0d8e833dcfdde072c4ae6e4a203830aa]
cluster :net--><polygon fill="#FFFFFF" filter="url(#f164h0m2wcrbel)" points="1999,112,2037,112,2044,134.2969,2161,134.2969,2161,193,1999,193,1999,112" style="stroke: #000000; stroke-width: 1.5;"/><line style="stroke: #000000; stroke-width: 1.5;" x1="1999" x2="2044" y1="134.2969" y2="134.2969"/><text fill="#000000" font-family="sans-serif" font-size="14" font-weight="bold" lengthAdjust="spacingAndGlyphs" textLength="32" x="2003" y="126.9951">:net</text><!--MD5=[6ed0a4222646c4be5d3ab2314135a570]
cluster :engine--><polygon fill="#FFFFFF" filter="url(#f164h0m2wcrbel)" points="16,324,82,324,89,346.2969,379,346.2969,379,617,16,617,16,324" style="stroke: #000000; stroke-width: 1.5;"/><line style="stroke: #000000; stroke-width: 1.5;" x1="16" x2="89" y1="346.2969" y2="346.2969"/><text fill="#000000" font-family="sans-serif" font-size="14" font-weight="bold" lengthAdjust="spacingAndGlyphs" textLength="60" x="20" y="338.9951">:engine</text><!--MD5=[38bed82ef403f43335b5f79c3bac3389]
cluster :jvm--><polygon fill="#FFFFFF" filter="url(#f164h0m2wcrbel)" points="2169,6,2208,6,2215,28.2969,2301,28.2969,2301,193,2169,193,2169,6" style="stroke: #000000; stroke-width: 1.5;"/><line style="stroke: #000000; stroke-width: 1.5;" x1="2169" x2="2215" y1="28.2969" y2="28.2969"/><text fill="#000000" font-family="sans-serif" font-size="14" font-weight="bold" lengthAdjust="spacingAndGlyphs" textLength="33" x="2173" y="20.9951">:jvm</text><!--MD5=[92bd3a6c071b99f0be2004a8198c45c9]
entity :core:mock:repo--><rect fill="#FEFECE" filter="url(#f164h0m2wcrbel)" height="46.2969" style="stroke: #A80036; stroke-width: 1.5;" width="156" x="1462" y="245"/><rect fill="#FEFECE" height="10" style="stroke: #A80036; stroke-width: 1.5;" width="15" x="1598" y="250"/><rect fill="#FEFECE" height="2" style="stroke: #A80036; stroke-width: 1.5;" width="4" x="1596" y="252"/><rect fill="#FEFECE" height="2" style="stroke: #A80036; stroke-width: 1.5;" width="4" x="1596" y="256"/><text fill="#000000" font-family="sans-serif" font-size="14" lengthAdjust="spacingAndGlyphs" textLength="116" x="1477" y="277.9951">:core:mock:repo</text><!--MD5=[57ec7835db8cede48f3e8c81e572e6c8]
entity :core:mock:net--><rect fill="#FEFECE" filter="url(#f164h0m2wcrbel)" height="46.2969" style="stroke: #A80036; stroke-width: 1.5;" width="147" x="1653.5" y="245"/><rect fill="#FEFECE" height="10" style="stroke: #A80036; stroke-width: 1.5;" width="15" x="1780.5" y="250"/><rect fill="#FEFECE" height="2" style="stroke: #A80036; stroke-width: 1.5;" width="4" x="1778.5" y="252"/><rect fill="#FEFECE" height="2" style="stroke: #A80036; stroke-width: 1.5;" width="4" x="1778.5" y="256"/><text fill="#000000" font-family="sans-serif" font-size="14" lengthAdjust="spacingAndGlyphs" textLength="107" x="1668.5" y="277.9951">:core:mock:net</text><!--MD5=[e43a051ee5d5ccb2f42121701afe91ab]
entity :core:mock:sys--><rect fill="#FEFECE" filter="url(#f164h0m2wcrbel)" height="46.2969" style="stroke: #A80036; stroke-width: 1.5;" width="147" x="1835.5" y="245"/><rect fill="#FEFECE" height="10" style="stroke: #A80036; stroke-width: 1.5;" width="15" x="1962.5" y="250"/><rect fill="#FEFECE" height="2" style="stroke: #A80036; stroke-width: 1.5;" width="4" x="1960.5" y="252"/><rect fill="#FEFECE" height="2" style="stroke: #A80036; stroke-width: 1.5;" width="4" x="1960.5" y="256"/><text fill="#000000" font-family="sans-serif" font-size="14" lengthAdjust="spacingAndGlyphs" textLength="107" x="1850.5" y="277.9951">:core:mock:sys</text><!--MD5=[6b3c72c52f198a8ada63b8c5ce9355bc]
entity :core:backend--><rect fill="#FEFECE" filter="url(#f164h0m2wcrbel)" height="46.2969" style="stroke: #A80036; stroke-width: 1.5;" width="141" x="926.5" y="139"/><rect fill="#FEFECE" height="10" style="stroke: #A80036; stroke-width: 1.5;" width="15" x="1047.5" y="144"/><rect fill="#FEFECE" height="2" style="stroke: #A80036; stroke-width: 1.5;" width="4" x="1045.5" y="146"/><rect fill="#FEFECE" height="2" style="stroke: #A80036; stroke-width: 1.5;" width="4" x="1045.5" y="150"/><text fill="#000000" font-family="sans-serif" font-size="14" lengthAdjust="spacingAndGlyphs" textLength="101" x="941.5" y="171.9951">:core:backend</text><!--MD5=[bb042d61f43125fc2fe6ee382cb3d84b]
entity :core:api--><rect fill="#FEFECE" filter="url(#f164h0m2wcrbel)" height="46.2969" style="stroke: #A80036; stroke-width: 1.5;" width="101" x="1165.5" y="351"/><rect fill="#FEFECE" height="10" style="stroke: #A80036; stroke-width: 1.5;" width="15" x="1246.5" y="356"/><rect fill="#FEFECE" height="2" style="stroke: #A80036; stroke-width: 1.5;" width="4" x="1244.5" y="358"/><rect fill="#FEFECE" height="2" style="stroke: #A80036; stroke-width: 1.5;" width="4" x="1244.5" y="362"/><text fill="#000000" font-family="sans-serif" font-size="14" lengthAdjust="spacingAndGlyphs" textLength="61" x="1180.5" y="383.9951">:core:api</text><!--MD5=[47118d7c73781d94ead6ef2b9730d049]
entity :core:domain:app--><rect fill="#FEFECE" filter="url(#f164h0m2wcrbel)" height="46.2969" style="stroke: #A80036; stroke-width: 1.5;" width="163" x="809.5" y="245"/><rect fill="#FEFECE" height="10" style="stroke: #A80036; stroke-width: 1.5;" width="15" x="952.5" y="250"/><rect fill="#FEFECE" height="2" style="stroke: #A80036; stroke-width: 1.5;" width="4" x="950.5" y="252"/><rect fill="#FEFECE" height="2" style="stroke: #A80036; stroke-width: 1.5;" width="4" x="950.5" y="256"/><text fill="#000000" font-family="sans-serif" font-size="14" lengthAdjust="spacingAndGlyphs" textLength="123" x="824.5" y="277.9951">:core:domain:app</text><!--MD5=[3ac9b0df53493c09c125e37014f215ac]
entity :core:domain:session--><rect fill="#FEFECE" filter="url(#f164h0m2wcrbel)" height="46.2969" style="stroke: #A80036; stroke-width: 1.5;" width="191" x="1007.5" y="245"/><rect fill="#FEFECE" height="10" style="stroke: #A80036; stroke-width: 1.5;" width="15" x="1178.5" y="250"/><rect fill="#FEFECE" height="2" style="stroke: #A80036; stroke-width: 1.5;" width="4" x="1176.5" y="252"/><rect fill="#FEFECE" height="2" style="stroke: #A80036; stroke-width: 1.5;" width="4" x="1176.5" y="256"/><text fill="#000000" font-family="sans-serif" font-size="14" lengthAdjust="spacingAndGlyphs" textLength="151" x="1022.5" y="277.9951">:core:domain:session</text><!--MD5=[0084757e5fcb0194df9d04c73ec20e60]
entity :core:domain:account--><rect fill="#FEFECE" filter="url(#f164h0m2wcrbel)" height="46.2969" style="stroke: #A80036; stroke-width: 1.5;" width="193" x="1233.5" y="245"/><rect fill="#FEFECE" height="10" style="stroke: #A80036; stroke-width: 1.5;" width="15" x="1406.5" y="250"/><rect fill="#FEFECE" height="2" style="stroke: #A80036; stroke-width: 1.5;" width="4" x="1404.5" y="252"/><rect fill="#FEFECE" height="2" style="stroke: #A80036; stroke-width: 1.5;" width="4" x="1404.5" y="256"/><text fill="#000000" font-family="sans-serif" font-size="14" lengthAdjust="spacingAndGlyphs" textLength="153" x="1248.5" y="277.9951">:core:domain:account</text><!--MD5=[4f709ee184beb988ab56d37afe26e48e]
entity :core:domain:chat--><rect fill="#FEFECE" filter="url(#f164h0m2wcrbel)" height="46.2969" style="stroke: #A80036; stroke-width: 1.5;" width="167" x="394.5" y="245"/><rect fill="#FEFECE" height="10" style="stroke: #A80036; stroke-width: 1.5;" width="15" x="541.5" y="250"/><rect fill="#FEFECE" height="2" style="stroke: #A80036; stroke-width: 1.5;" width="4" x="539.5" y="252"/><rect fill="#FEFECE" height="2" style="stroke: #A80036; stroke-width: 1.5;" width="4" x="539.5" y="256"/><text fill="#000000" font-family="sans-serif" font-size="14" lengthAdjust="spacingAndGlyphs" textLength="127" x="409.5" y="277.9951">:core:domain:chat</text><!--MD5=[c3c152bb6cdd6182c77d4c39152577c5]
entity :core:domain:roster--><rect fill="#FEFECE" filter="url(#f164h0m2wcrbel)" height="46.2969" style="stroke: #A80036; stroke-width: 1.5;" width="178" x="596" y="245"/><rect fill="#FEFECE" height="10" style="stroke: #A80036; stroke-width: 1.5;" width="15" x="754" y="250"/><rect fill="#FEFECE" height="2" style="stroke: #A80036; stroke-width: 1.5;" width="4" x="752" y="252"/><rect fill="#FEFECE" height="2" style="stroke: #A80036; stroke-width: 1.5;" width="4" x="752" y="256"/><text fill="#000000" font-family="sans-serif" font-size="14" lengthAdjust="spacingAndGlyphs" textLength="138" x="611" y="277.9951">:core:domain:roster</text><!--MD5=[7c89cb3e6f4d363cf8e7c064adc89c82]
entity :net:smack:jvm--><rect fill="#FEFECE" filter="url(#f164h0m2wcrbel)" height="46.2969" style="stroke: #A80036; stroke-width: 1.5;" width="146" x="2007" y="139"/><rect fill="#FEFECE" height="10" style="stroke: #A80036; stroke-width: 1.5;" width="15" x="2133" y="144"/><rect fill="#FEFECE" height="2" style="stroke: #A80036; stroke-width: 1.5;" width="4" x="2131" y="146"/><rect fill="#FEFECE" height="2" style="stroke: #A80036; stroke-width: 1.5;" width="4" x="2131" y="150"/><text fill="#000000" font-family="sans-serif" font-size="14" lengthAdjust="spacingAndGlyphs" textLength="106" x="2022" y="171.9951">:net:smack:jvm</text><!--MD5=[486755d95e08f80cb04a0aa885580c7b]
entity :engine:net--><rect fill="#FEFECE" filter="url(#f164h0m2wcrbel)" height="46.2969" style="stroke: #A80036; stroke-width: 1.5;" width="121" x="69.5" y="351"/><rect fill="#FEFECE" height="10" style="stroke: #A80036; stroke-width: 1.5;" width="15" x="170.5" y="356"/><rect fill="#FEFECE" height="2" style="stroke: #A80036; stroke-width: 1.5;" width="4" x="168.5" y="358"/><rect fill="#FEFECE" height="2" style="stroke: #A80036; stroke-width: 1.5;" width="4" x="168.5" y="362"/><text fill="#000000" font-family="sans-serif" font-size="14" lengthAdjust="spacingAndGlyphs" textLength="81" x="84.5" y="383.9951">:engine:net</text><!--MD5=[474bc7754ff50e9887f34633b92b9e02]
entity :engine:connectable--><rect fill="#FEFECE" filter="url(#f164h0m2wcrbel)" height="46.2969" style="stroke: #A80036; stroke-width: 1.5;" width="184" x="187" y="457"/><rect fill="#FEFECE" height="10" style="stroke: #A80036; stroke-width: 1.5;" width="15" x="351" y="462"/><rect fill="#FEFECE" height="2" style="stroke: #A80036; stroke-width: 1.5;" width="4" x="349" y="464"/><rect fill="#FEFECE" height="2" style="stroke: #A80036; stroke-width: 1.5;" width="4" x="349" y="468"/><text fill="#000000" font-family="sans-serif" font-size="14" lengthAdjust="spacingAndGlyphs" textLength="144" x="202" y="489.9951">:engine:connectable</text><!--MD5=[8e94acc19a10f03efd288fb36eb4472b]
entity :engine:util--><rect fill="#FEFECE" filter="url(#f164h0m2wcrbel)" height="46.2969" style="stroke: #A80036; stroke-width: 1.5;" width="118" x="98" y="563"/><rect fill="#FEFECE" height="10" style="stroke: #A80036; stroke-width: 1.5;" width="15" x="196" y="568"/><rect fill="#FEFECE" height="2" style="stroke: #A80036; stroke-width: 1.5;" width="4" x="194" y="570"/><rect fill="#FEFECE" height="2" style="stroke: #A80036; stroke-width: 1.5;" width="4" x="194" y="574"/><text fill="#000000" font-family="sans-serif" font-size="14" lengthAdjust="spacingAndGlyphs" textLength="78" x="113" y="595.9951">:engine:util</text><!--MD5=[f7af38a47341a5d6bbb7054022a18e1f]
entity :engine:log--><rect fill="#FEFECE" filter="url(#f164h0m2wcrbel)" height="46.2969" style="stroke: #A80036; stroke-width: 1.5;" width="119" x="251.5" y="563"/><rect fill="#FEFECE" height="10" style="stroke: #A80036; stroke-width: 1.5;" width="15" x="350.5" y="568"/><rect fill="#FEFECE" height="2" style="stroke: #A80036; stroke-width: 1.5;" width="4" x="348.5" y="570"/><rect fill="#FEFECE" height="2" style="stroke: #A80036; stroke-width: 1.5;" width="4" x="348.5" y="574"/><text fill="#000000" font-family="sans-serif" font-size="14" lengthAdjust="spacingAndGlyphs" textLength="79" x="266.5" y="595.9951">:engine:log</text><!--MD5=[8725e2f32c833bede44e6c458fce3254]
entity :engine:paging--><rect fill="#FEFECE" filter="url(#f164h0m2wcrbel)" height="46.2969" style="stroke: #A80036; stroke-width: 1.5;" width="145" x="225.5" y="351"/><rect fill="#FEFECE" height="10" style="stroke: #A80036; stroke-width: 1.5;" width="15" x="350.5" y="356"/><rect fill="#FEFECE" height="2" style="stroke: #A80036; stroke-width: 1.5;" width="4" x="348.5" y="358"/><rect fill="#FEFECE" height="2" style="stroke: #A80036; stroke-width: 1.5;" width="4" x="348.5" y="362"/><text fill="#000000" font-family="sans-serif" font-size="14" lengthAdjust="spacingAndGlyphs" textLength="105" x="240.5" y="383.9951">:engine:paging</text><!--MD5=[de9e9b3b438569aa67cb351d8b039e39]
entity :engine:json--><rect fill="#FEFECE" filter="url(#f164h0m2wcrbel)" height="46.2969" style="stroke: #A80036; stroke-width: 1.5;" width="127" x="24.5" y="457"/><rect fill="#FEFECE" height="10" style="stroke: #A80036; stroke-width: 1.5;" width="15" x="131.5" y="462"/><rect fill="#FEFECE" height="2" style="stroke: #A80036; stroke-width: 1.5;" width="4" x="129.5" y="464"/><rect fill="#FEFECE" height="2" style="stroke: #A80036; stroke-width: 1.5;" width="4" x="129.5" y="468"/><text fill="#000000" font-family="sans-serif" font-size="14" lengthAdjust="spacingAndGlyphs" textLength="87" x="39.5" y="489.9951">:engine:json</text><!--MD5=[278891ff76fd9b0eb7ee7029fade1047]
entity :jvm:log--><rect fill="#FEFECE" filter="url(#f164h0m2wcrbel)" height="46.2969" style="stroke: #A80036; stroke-width: 1.5;" width="94" x="2188" y="139"/><rect fill="#FEFECE" height="10" style="stroke: #A80036; stroke-width: 1.5;" width="15" x="2262" y="144"/><rect fill="#FEFECE" height="2" style="stroke: #A80036; stroke-width: 1.5;" width="4" x="2260" y="146"/><rect fill="#FEFECE" height="2" style="stroke: #A80036; stroke-width: 1.5;" width="4" x="2260" y="150"/><text fill="#000000" font-family="sans-serif" font-size="14" lengthAdjust="spacingAndGlyphs" textLength="54" x="2203" y="171.9951">:jvm:log</text><!--MD5=[7a8db28f95dace5dcd53803600931555]
entity :jvm:server--><rect fill="#FEFECE" filter="url(#f164h0m2wcrbel)" height="46.2969" style="stroke: #A80036; stroke-width: 1.5;" width="116" x="2177" y="33"/><rect fill="#FEFECE" height="10" style="stroke: #A80036; stroke-width: 1.5;" width="15" x="2273" y="38"/><rect fill="#FEFECE" height="2" style="stroke: #A80036; stroke-width: 1.5;" width="4" x="2271" y="40"/><rect fill="#FEFECE" height="2" style="stroke: #A80036; stroke-width: 1.5;" width="4" x="2271" y="44"/><text fill="#000000" font-family="sans-serif" font-size="14" lengthAdjust="spacingAndGlyphs" textLength="76" x="2192" y="65.9951">:jvm:server</text><!--MD5=[d56d75fd9d79f2971a8810c55a0ec159]
link :core:mock:repo to :core:api--><path d="M1469.6968,291.0004 C1410.2588,310.4462 1326.2649,337.9257 1271.4741,355.8511 " fill="none" id=":core:mock:repo-&gt;:core:api" style="stroke: #A80036; stroke-width: 1.0;"/><polygon fill="#A80036" points="1266.5944,357.4475,1276.392,358.4507,1271.3465,355.8928,1273.9045,350.8473,1266.5944,357.4475" style="stroke: #A80036; stroke-width: 1.0;"/><!--MD5=[01e2c32998785bfb6966ba88c709eb09]
link :core:mock:net to :core:api--><path d="M1653.0782,287.0285 C1647.308,288.4083 1641.5643,289.7479 1636,291 C1506.1509,320.2187 1352.4593,349.1715 1271.8127,363.9343 " fill="none" id=":core:mock:net-&gt;:core:api" style="stroke: #A80036; stroke-width: 1.0;"/><polygon fill="#A80036" points="1266.6073,364.886,1276.18,367.2018,1271.5257,363.9866,1274.741,359.3323,1266.6073,364.886" style="stroke: #A80036; stroke-width: 1.0;"/><!--MD5=[06c56ae8f7dd57601222b4d226bd7120]
link :core:mock:sys to :core:api--><path d="M1835.1542,287.391 C1829.3668,288.6882 1823.5983,289.9101 1818,291 C1618.4523,329.8503 1378.2358,357.2396 1271.6288,368.4104 " fill="none" id=":core:mock:sys-&gt;:core:api" style="stroke: #A80036; stroke-width: 1.0;"/><polygon fill="#A80036" points="1266.654,368.9301,1276.0209,371.9732,1271.6269,368.4105,1275.1896,364.0165,1266.654,368.9301" style="stroke: #A80036; stroke-width: 1.0;"/><!--MD5=[54f45d9f7bd3d59be0d46302fee7f768]
link :net:smack:jvm to :core:api--><path d="M2072.7721,185.207 C2062.1011,215.2019 2039.0591,266.4803 2000,291 C1938.5399,329.5822 1440.8816,361.2003 1271.9017,370.9152 " fill="none" id=":net:smack:jvm-&gt;:core:api" style="stroke: #A80036; stroke-width: 1.0;"/><polygon fill="#A80036" points="1266.5141,371.2239,1275.7283,374.7023,1271.5059,370.9378,1275.2704,366.7154,1266.5141,371.2239" style="stroke: #A80036; stroke-width: 1.0;"/><!--MD5=[6084f87cb11c9c8e7b98e1b6385e3a51]
link :core:backend to :core:domain:app--><path d="M973.9996,185.0004 C957.5832,201.4168 935.4412,223.5588 918.1556,240.8444 " fill="none" id=":core:backend-&gt;:core:domain:app" style="stroke: #A80036; stroke-width: 1.0;"/><polygon fill="#A80036" points="914.3216,244.6784,923.514,241.1429,917.8571,241.1429,917.8571,235.486,914.3216,244.6784" style="stroke: #A80036; stroke-width: 1.0;"/><!--MD5=[64d379cf4fc32ff0b351faeb9dde2472]
link :core:backend to :core:domain:session--><path d="M1020.0004,185.0004 C1036.4168,201.4168 1058.5588,223.5588 1075.8444,240.8444 " fill="none" id=":core:backend-&gt;:core:domain:session" style="stroke: #A80036; stroke-width: 1.0;"/><polygon fill="#A80036" points="1079.6784,244.6784,1076.1429,235.486,1076.1429,241.1429,1070.486,241.1429,1079.6784,244.6784" style="stroke: #A80036; stroke-width: 1.0;"/><!--MD5=[c6a5a6f4626caa42ca04d1aec387f400]
link :core:backend to :core:domain:account--><path d="M1067.6207,184.4799 C1121.8277,201.735 1196.6025,225.5371 1252.4631,243.3186 " fill="none" id=":core:backend-&gt;:core:domain:account" style="stroke: #A80036; stroke-width: 1.0;"/><polygon fill="#A80036" points="1257.4681,244.9118,1250.1055,238.3702,1252.7037,243.3951,1247.6788,245.9933,1257.4681,244.9118" style="stroke: #A80036; stroke-width: 1.0;"/><!--MD5=[d7e8e2dc0a0071dfc163bed50f54849b]
link :core:backend to :core:domain:chat--><path d="M926.2457,175.4255 C843.0178,191.3622 700.7481,219.0554 579,245 C574.9546,245.8621 570.8208,246.7549 566.6473,247.666 " fill="none" id=":core:backend-&gt;:core:domain:chat" style="stroke: #A80036; stroke-width: 1.0;"/><polygon fill="#A80036" points="561.7325,248.7432,571.3802,250.7237,566.6166,247.6728,569.6675,242.9092,561.7325,248.7432" style="stroke: #A80036; stroke-width: 1.0;"/><!--MD5=[704cc349d7da7a8c75399283440f8ee2]
link :core:backend to :core:domain:roster--><path d="M929.3006,185.0004 C878.69,202.1951 809.5909,225.671 757.7935,243.2689 " fill="none" id=":core:backend-&gt;:core:domain:roster" style="stroke: #A80036; stroke-width: 1.0;"/><polygon fill="#A80036" points="752.8361,244.9531,762.6445,245.845,757.5703,243.3445,760.0708,238.2703,752.8361,244.9531" style="stroke: #A80036; stroke-width: 1.0;"/><!--MD5=[d2d1f0be6436256e6d977803045f7553]
link :engine:net to :engine:connectable--><path d="M162.3308,397.0004 C185.8754,413.7503 217.7986,436.4607 242.3005,453.8917 " fill="none" id=":engine:net-&gt;:engine:connectable" style="stroke: #A80036; stroke-width: 1.0;"/><polygon fill="#A80036" points="246.4754,456.8617,241.4605,448.3852,242.4012,453.9633,236.8231,454.904,246.4754,456.8617" style="stroke: #A80036; stroke-width: 1.0;"/><!--MD5=[9e0cd9895457fd564306a213d979b005]
link :engine:net to :engine:json--><path d="M120.8866,397.0004 C114.4913,413.1409 105.903,434.8162 99.1067,451.9688 " fill="none" id=":engine:net-&gt;:engine:json" style="stroke: #A80036; stroke-width: 1.0;"/><polygon fill="#A80036" points="97.2406,456.6784,104.2748,449.7849,99.0826,452.0301,96.8375,446.8378,97.2406,456.6784" style="stroke: #A80036; stroke-width: 1.0;"/><!--MD5=[7e35b258ed27b7b9efdd5355b20d38a8]
link :jvm:log to :engine:log--><path d="M2220.7573,185.1518 C2188.4552,235.3357 2104.2049,353.7364 1999,405 C1704.4639,548.5198 648.3492,579.2719 375.6343,584.8785 " fill="none" id=":jvm:log-&gt;:engine:log" style="stroke: #A80036; stroke-width: 1.0;"/><polygon fill="#A80036" points="370.5041,584.9829,379.5836,588.799,375.5031,584.8812,379.4209,580.8006,370.5041,584.9829" style="stroke: #A80036; stroke-width: 1.0;"/><!--MD5=[eaf14edc6043f7290cbfd1583ac6425c]
link :core:api to :engine:connectable--><path d="M1165.2906,379.7366 C1015.6413,396.666 574.0278,446.6244 376.4609,468.9745 " fill="none" id=":core:api-&gt;:engine:connectable" style="stroke: #A80036; stroke-width: 1.0;"/><polygon fill="#A80036" points="371.2634,469.5625,380.6561,472.5253,376.2317,469.0004,379.7566,464.576,371.2634,469.5625" style="stroke: #A80036; stroke-width: 1.0;"/><!--MD5=[bca29f017d1f9d57df28eb8d83e96ded]
link :engine:connectable to :engine:util--><path d="M252.5278,503.0004 C233.4747,519.5548 207.7205,541.9314 187.7542,559.2791 " fill="none" id=":engine:connectable-&gt;:engine:util" style="stroke: #A80036; stroke-width: 1.0;"/><polygon fill="#A80036" points="183.8418,562.6784,193.2591,559.795,187.6162,559.399,188.0121,553.7561,183.8418,562.6784" style="stroke: #A80036; stroke-width: 1.0;"/><!--MD5=[6eb7bccd1a3c6d4cd083766ccbfc4317]
link :engine:connectable to :engine:log--><path d="M285.9435,503.0004 C290.7745,519.003 297.2479,540.4461 302.4047,557.528 " fill="none" id=":engine:connectable-&gt;:engine:log" style="stroke: #A80036; stroke-width: 1.0;"/><polygon fill="#A80036" points="303.9595,562.6784,305.1876,552.9064,302.5144,557.8918,297.529,555.2186,303.9595,562.6784" style="stroke: #A80036; stroke-width: 1.0;"/><!--MD5=[cec0b78861792eaab7fa2279ffc7a7e2]
link :core:domain:app to :core:api--><path d="M961.5202,291.0004 C1021.1416,310.4462 1105.3948,337.9257 1160.3547,355.8511 " fill="none" id=":core:domain:app-&gt;:core:api" style="stroke: #A80036; stroke-width: 1.0;"/><polygon fill="#A80036" points="1165.2494,357.4475,1157.9334,350.8539,1160.4959,355.8971,1155.4527,358.4596,1165.2494,357.4475" style="stroke: #A80036; stroke-width: 1.0;"/><!--MD5=[c67c764a5326e4d24cf2e4300865ef19]
link :core:domain:session to :core:api--><path d="M1127.5193,291.0004 C1145.0198,307.4168 1168.624,329.5588 1187.0511,346.8444 " fill="none" id=":core:domain:session-&gt;:core:api" style="stroke: #A80036; stroke-width: 1.0;"/><polygon fill="#A80036" points="1191.1383,350.6784,1187.311,341.6036,1187.4916,347.2576,1181.8377,347.4383,1191.1383,350.6784" style="stroke: #A80036; stroke-width: 1.0;"/><!--MD5=[2c707074e348eff90fbc0f3bb90cfb10]
link :core:domain:account to :core:api--><path d="M1305.2637,291.0004 C1287.6083,307.4168 1263.7952,329.5588 1245.2051,346.8444 " fill="none" id=":core:domain:account-&gt;:core:api" style="stroke: #A80036; stroke-width: 1.0;"/><polygon fill="#A80036" points="1241.0817,350.6784,1250.3964,347.4791,1244.7433,347.2736,1244.9488,341.6205,1241.0817,350.6784" style="stroke: #A80036; stroke-width: 1.0;"/><!--MD5=[01174190b578bab423e164a6f26b4f28]
link :core:domain:chat to :engine:paging--><path d="M436.3726,291.0811 C418.6062,301.0521 397.6983,312.946 379,324 C365.9633,331.707 351.8805,340.3034 339.1711,348.1649 " fill="none" id=":core:domain:chat-&gt;:engine:paging" style="stroke: #A80036; stroke-width: 1.0;"/><polygon fill="#A80036" points="334.9171,350.8004,344.6744,349.4608,339.1675,348.1671,340.4612,342.6602,334.9171,350.8004" style="stroke: #A80036; stroke-width: 1.0;"/><!--MD5=[8aa6ab0427afef2408d03fa7b1428d03]
link :core:domain:chat to :core:api--><path d="M561.6481,287.6878 C567.5079,288.87 573.3349,289.9882 579,291 C792.443,329.1209 1049.0754,357.2104 1160.1988,368.5192 " fill="none" id=":core:domain:chat-&gt;:core:api" style="stroke: #A80036; stroke-width: 1.0;"/><polygon fill="#A80036" points="1165.3797,369.045,1156.8296,364.1567,1160.4053,368.5401,1156.0218,372.1158,1165.3797,369.045" style="stroke: #A80036; stroke-width: 1.0;"/><!--MD5=[ff59cb87d49bbcbfa2818e0d8d187e1a]
link :core:domain:roster to :engine:paging--><path d="M595.7129,287.7083 C590.0633,288.8516 584.4566,289.9585 579,291 C490.5067,307.8904 463.3702,292.4085 379,324 C363.2877,329.8833 347.2985,338.9639 333.7233,347.7805 " fill="none" id=":core:domain:roster-&gt;:engine:paging" style="stroke: #A80036; stroke-width: 1.0;"/><polygon fill="#A80036" points="329.2159,350.7554,338.9308,349.1363,333.389,348.0012,334.5241,342.4594,329.2159,350.7554" style="stroke: #A80036; stroke-width: 1.0;"/><!--MD5=[3b93329480165022044f1038d30e887f]
link :core:domain:roster to :core:api--><path d="M774.012,287.2635 C780.097,288.5403 786.1371,289.7961 792,291 C923.7507,318.0531 1078.9562,347.9293 1160.1198,363.401 " fill="none" id=":core:domain:roster-&gt;:core:api" style="stroke: #A80036; stroke-width: 1.0;"/><polygon fill="#A80036" points="1165.3578,364.3991,1157.2655,358.7853,1160.4462,363.4633,1155.7682,366.6439,1165.3578,364.3991" style="stroke: #A80036; stroke-width: 1.0;"/><!--MD5=[43ba97f3576adffb510ebe0b1506f400]
link :jvm:server to :core:mock:repo--><path d="M2176.9229,60.442 C2074.641,68.7613 1866.6996,88.0348 1798,112 C1710.2069,142.6259 1620.0266,205.8629 1573.0443,241.7069 " fill="none" id=":jvm:server-&gt;:core:mock:repo" style="stroke: #A80036; stroke-width: 1.0;"/><polygon fill="#A80036" points="1568.9097,244.8758,1578.4862,242.5757,1572.8782,241.8342,1573.6197,236.2262,1568.9097,244.8758" style="stroke: #A80036; stroke-width: 1.0;"/><!--MD5=[327920b2245189a5df4dc933ce089df1]
link :jvm:server to :core:mock:net--><path d="M2176.9392,63.073 C2100.062,73.0208 1969.0725,92.159 1925,112 C1854.7336,143.6332 1787.4543,205.5548 1752.2965,241.1324 " fill="none" id=":jvm:server-&gt;:core:mock:net" style="stroke: #A80036; stroke-width: 1.0;"/><polygon fill="#A80036" points="1748.5827,244.9138,1757.7428,241.2954,1752.0862,241.3465,1752.0351,235.6899,1748.5827,244.9138" style="stroke: #A80036; stroke-width: 1.0;"/><!--MD5=[07de38d7994af73fe2996c306e4ce0b1]
link :jvm:server to :core:mock:sys--><path d="M2176.8949,63.6533 C2114.2588,72.8756 2019.6675,89.924 1991,112 C1948.9477,144.3833 1926.2347,204.5087 1915.9606,239.9103 " fill="none" id=":jvm:server-&gt;:core:mock:sys" style="stroke: #A80036; stroke-width: 1.0;"/><polygon fill="#A80036" points="1914.5342,244.9479,1920.835,237.3782,1915.8965,240.1371,1913.1376,235.1986,1914.5342,244.9479" style="stroke: #A80036; stroke-width: 1.0;"/><!--MD5=[b8382d6df6cce6eca2590a1eccb30dcd]
link :jvm:server to :net:smack:jvm--><path d="M2201.3673,79.0004 C2176.8746,95.7503 2143.6659,118.4607 2118.1773,135.8917 " fill="none" id=":jvm:server-&gt;:net:smack:jvm" style="stroke: #A80036; stroke-width: 1.0;"/><polygon fill="#A80036" points="2113.8343,138.8617,2123.5212,137.0832,2117.9615,136.0393,2119.0054,130.4796,2113.8343,138.8617" style="stroke: #A80036; stroke-width: 1.0;"/><!--MD5=[7a8fc7f57920d4db20fd83ebcb921977]
link :jvm:server to :core:backend--><path d="M2176.9072,60.8582 C2061.5827,70.5132 1795.5663,92.838 1572,112 C1393.1357,127.3305 1183.0078,145.6916 1072.9754,155.3332 " fill="none" id=":jvm:server-&gt;:core:backend" style="stroke: #A80036; stroke-width: 1.0;"/><polygon fill="#A80036" points="1067.812,155.7857,1077.1269,158.9846,1072.7929,155.3491,1076.4284,151.0151,1067.812,155.7857" style="stroke: #A80036; stroke-width: 1.0;"/><!--MD5=[29d026dc4beabb255aa0570f19d000b9]
link :jvm:server to :engine:net--><path d="M2176.7611,56.5125 C1871.0928,59.3593 462.9175,74.4746 379,112 C266.4486,162.3296 179.9907,289.732 145.8703,346.2565 " fill="none" id=":jvm:server-&gt;:engine:net" style="stroke: #A80036; stroke-width: 1.0;"/><polygon fill="#A80036" points="143.1173,350.8523,151.1737,345.1871,145.6867,346.563,144.3108,341.076,143.1173,350.8523" style="stroke: #A80036; stroke-width: 1.0;"/><!--MD5=[91dfe211f93554157885152baf2b229d]
link :jvm:server to :jvm:log--><path d="M2235,79.0004 C2235,95.003 2235,116.4461 2235,133.528 " fill="none" id=":jvm:server-&gt;:jvm:log" style="stroke: #A80036; stroke-width: 1.0;"/><polygon fill="#A80036" points="2235,138.6784,2239,129.6784,2235,133.6784,2231,129.6784,2235,138.6784" style="stroke: #A80036; stroke-width: 1.0;"/><!--MD5=[51182f3aa3194c78e5435aa3faac4414]
@startuml
package ":core" {
[:core:mock:repo]
[:core:mock:net]
[:core:mock:sys]
[:core:backend]
[:core:api]
[:core:domain:app]
[:core:domain:session]
[:core:domain:account]
[:core:domain:chat]
[:core:domain:roster]
}
package ":net" {
[:net:smack:jvm]
}
package ":engine" {
[:engine:net]
[:engine:connectable]
[:engine:util]
[:engine:log]
[:engine:paging]
[:engine:json]
}
package ":jvm" {
[:jvm:log]
[:jvm:server]
}
[:core:mock:repo] - -> [:core:api]
[:core:mock:net] - -> [:core:api]
[:core:mock:sys] - -> [:core:api]
[:net:smack:jvm] - -> [:core:api]
[:core:backend] - -> [:core:domain:app]
[:core:backend] - -> [:core:domain:session]
[:core:backend] - -> [:core:domain:account]
[:core:backend] - -> [:core:domain:chat]
[:core:backend] - -> [:core:domain:roster]
[:engine:net] - -> [:engine:connectable]
[:engine:net] - -> [:engine:json]
[:jvm:log] - -> [:engine:log]
[:core:api] - -> [:engine:connectable]
[:engine:connectable] - -> [:engine:util]
[:engine:connectable] - -> [:engine:log]
[:core:domain:app] - -> [:core:api]
[:core:domain:session] - -> [:core:api]
[:core:domain:account] - -> [:core:api]
[:core:domain:chat] - -> [:engine:paging]
[:core:domain:chat] - -> [:core:api]
[:core:domain:roster] - -> [:engine:paging]
[:core:domain:roster] - -> [:core:api]
[:jvm:server] - -> [:core:mock:repo]
[:jvm:server] - -> [:core:mock:net]
[:jvm:server] - -> [:core:mock:sys]
[:jvm:server] - -> [:net:smack:jvm]
[:jvm:server] - -> [:core:backend]
[:jvm:server] - -> [:engine:net]
[:jvm:server] - -> [:jvm:log]
@enduml

PlantUML version 1.2020.15(Sun Jun 28 13:39:45 CEST 2020)
(GPL source distribution)
Java Runtime: OpenJDK Runtime Environment
JVM: OpenJDK 64-Bit Server VM
Default Encoding: UTF-8
Language: pl
Country: PL
--></g></svg>